<svg width="296.000000" height="296.000000" viewBox="0 0 296 296" fill="none" xmlns="http://www.w3.org/2000/svg" xmlns:xlink="http://www.w3.org/1999/xlink">
	<desc>
			Created with Pixso.
	</desc>
	<defs>
		<clipPath id="clip9_2466">
			<rect rx="-0.260465" width="295.479065" height="295.479065" transform="translate(0.260465 0.260465) rotate(0.000000)" fill="white" fill-opacity="0"/>
		</clipPath>
	</defs>
	<rect rx="-0.260465" width="295.479065" height="295.479065" transform="translate(0.260465 0.260465) rotate(0.000000)" fill="#FFFFFF" fill-opacity="0"/>
	<g clip-path="url(#clip9_2466)">
		<path d="M295.48 245.78L0.51 245.78L29.39 209.61L266.6 209.61L295.48 245.78Z" fill="#FFFFFF" fill-opacity="1.000000" fill-rule="nonzero"/>
		<path d="M295.48 246.3L0.51 246.3C0.42 246.3 0.32 246.27 0.24 246.22C0.16 246.17 0.09 246.1 0.05 246.01C0 245.92 -0.01 245.82 0 245.72C0.01 245.63 0.05 245.54 0.11 245.46L28.99 209.28C29.04 209.22 29.1 209.17 29.17 209.14C29.24 209.11 29.32 209.09 29.39 209.09L266.6 209.09C266.68 209.09 266.75 209.11 266.82 209.14C266.89 209.17 266.95 209.22 267 209.28L295.88 245.46C295.94 245.54 295.98 245.63 295.99 245.72C296 245.82 295.99 245.92 295.94 246.01C295.9 246.1 295.83 246.17 295.75 246.22C295.67 246.27 295.57 246.3 295.48 246.3ZM1.59 245.26L294.4 245.26L266.34 210.13L29.65 210.13L1.59 245.26Z" fill="#000000" fill-opacity="1.000000" fill-rule="nonzero"/>
		<path d="M175.51 217.39L120.49 217.39L126.95 187.56L169.04 187.56L175.51 217.39Z" fill="#FFFFFF" fill-opacity="1.000000" fill-rule="nonzero"/>
		<path d="M175.51 217.91L120.48 217.91C120.4 217.91 120.32 217.89 120.25 217.86C120.19 217.82 120.13 217.77 120.08 217.71C120.03 217.65 119.99 217.58 119.97 217.51C119.96 217.43 119.96 217.35 119.98 217.28L126.46 187.44C126.48 187.33 126.54 187.23 126.63 187.15C126.72 187.08 126.84 187.04 126.95 187.04L169.04 187.04C169.15 187.04 169.27 187.08 169.36 187.15C169.45 187.23 169.51 187.33 169.53 187.44L175.98 217.28C176 217.35 176 217.43 175.99 217.51C175.97 217.58 175.93 217.65 175.88 217.71C175.83 217.77 175.78 217.82 175.71 217.85C175.65 217.89 175.58 217.9 175.51 217.91ZM121.12 216.87L174.86 216.87L168.64 188.08L127.38 188.08L121.12 216.87Z" fill="#000000" fill-opacity="1.000000" fill-rule="nonzero"/>
		<path d="M111.84 215.71L184.14 215.71C185.55 215.71 186.7 216.86 186.7 218.27L186.7 219.98C186.7 221.4 185.55 222.54 184.14 222.54L111.84 222.54C110.43 222.54 109.28 221.4 109.28 219.98L109.28 218.27C109.28 216.86 110.43 215.71 111.84 215.71Z" fill="#FFFFFF" fill-opacity="1.000000" fill-rule="evenodd"/>
		<path d="M184.15 223.05L111.84 223.05C111.02 223.05 110.22 222.72 109.64 222.14C109.06 221.56 108.73 220.76 108.73 219.94L108.73 218.23C108.73 217.4 109.06 216.61 109.64 216.03C110.22 215.45 111.02 215.12 111.84 215.12L184.15 215.12C184.98 215.12 185.77 215.45 186.35 216.03C186.93 216.61 187.26 217.4 187.26 218.23L187.26 219.94C187.26 220.76 186.93 221.56 186.35 222.14C185.77 222.72 184.98 223.05 184.15 223.05ZM111.84 216.23C111.29 216.23 110.76 216.45 110.37 216.84C109.99 217.22 109.77 217.75 109.77 218.3L109.77 220.01C109.77 220.56 109.99 221.09 110.37 221.48C110.76 221.87 111.29 222.09 111.84 222.09L184.15 222.09C184.7 222.09 185.23 221.87 185.62 221.48C186.01 221.09 186.22 220.56 186.22 220.01L186.22 218.3C186.22 217.75 186.01 217.22 185.62 216.84C185.23 216.45 184.7 216.23 184.15 216.23L111.84 216.23Z" fill="#000000" fill-opacity="1.000000" fill-rule="nonzero"/>
		<path d="M122.97 205.9L170.76 195.49L169.04 189.21L126.95 189.21L122.97 205.9Z" fill="#000000" fill-opacity="1.000000" fill-rule="nonzero"/>
		<path d="M122.97 206.42C122.83 206.42 122.7 206.36 122.6 206.27C122.54 206.2 122.49 206.13 122.47 206.04C122.45 205.96 122.45 205.87 122.47 205.78L126.45 189.09C126.47 188.98 126.54 188.88 126.63 188.81C126.72 188.74 126.84 188.7 126.95 188.7L169.04 188.7C169.15 188.7 169.26 188.73 169.35 188.8C169.44 188.87 169.5 188.96 169.53 189.07L171.26 195.35C171.28 195.42 171.28 195.49 171.27 195.56C171.26 195.63 171.23 195.7 171.19 195.76C171.16 195.82 171.11 195.87 171.05 195.91C170.99 195.95 170.93 195.98 170.86 196L123.09 206.36L122.97 206.42ZM127.37 189.73L123.67 205.22L170.12 195.09L168.64 189.73L127.37 189.73Z" fill="#000000" fill-opacity="1.000000" fill-rule="nonzero"/>
		<path d="M43.81 46.89L252.17 46.89C256.01 46.89 259.12 50 259.12 53.84L259.12 182.26C259.12 186.1 256.01 189.22 252.17 189.22L43.81 189.22C39.97 189.22 36.86 186.1 36.86 182.26L36.86 53.84C36.86 50 39.97 46.89 43.81 46.89Z" fill="#FFFFFF" fill-opacity="1.000000" fill-rule="evenodd"/>
		<path d="M252.17 189.73L43.82 189.73C41.84 189.73 39.94 188.94 38.53 187.54C37.13 186.14 36.34 184.23 36.34 182.25L36.34 53.84C36.34 51.86 37.13 49.95 38.53 48.55C39.93 47.15 41.84 46.36 43.82 46.36L252.17 46.36C254.15 46.36 256.05 47.15 257.46 48.55C258.86 49.95 259.65 51.85 259.65 53.83L259.65 182.25C259.65 184.23 258.86 186.14 257.46 187.54C256.05 188.94 254.15 189.73 252.17 189.73ZM43.82 47.4C42.11 47.4 40.48 48.07 39.27 49.28C38.06 50.49 37.38 52.12 37.37 53.83L37.37 182.25C37.38 183.96 38.06 185.6 39.27 186.81C40.47 188.02 42.11 188.7 43.82 188.7L252.17 188.7C253.88 188.7 255.52 188.02 256.72 186.81C257.93 185.6 258.61 183.96 258.62 182.25L258.62 53.84C258.62 52.13 257.94 50.49 256.73 49.28C255.52 48.07 253.88 47.4 252.17 47.4L43.82 47.4Z" fill="#000000" fill-opacity="1.000000" fill-rule="nonzero"/>
		<path d="M259.13 167.22L36.86 167.22C36.72 167.22 36.59 167.17 36.49 167.07C36.39 166.97 36.34 166.84 36.34 166.7C36.34 166.57 36.39 166.43 36.49 166.34C36.59 166.24 36.72 166.18 36.86 166.18L259.13 166.18C259.27 166.18 259.4 166.24 259.5 166.34C259.6 166.43 259.65 166.57 259.65 166.7C259.65 166.84 259.6 166.97 259.5 167.07C259.4 167.17 259.27 167.22 259.13 167.22Z" fill="#000000" fill-opacity="1.000000" fill-rule="nonzero"/>
		<path d="M251.19 158.5L44.8 158.5C44.66 158.5 44.53 158.45 44.43 158.35C44.33 158.25 44.28 158.12 44.28 157.99L44.28 53.61C44.28 53.48 44.33 53.35 44.43 53.25C44.53 53.15 44.66 53.1 44.8 53.1L251.19 53.1C251.33 53.1 251.46 53.15 251.56 53.25C251.66 53.35 251.71 53.48 251.71 53.61L251.71 157.99C251.71 158.12 251.66 158.25 251.56 158.35C251.46 158.45 251.33 158.5 251.19 158.5ZM45.31 157.47L250.68 157.47L250.68 54.11L45.31 54.11L45.31 157.47Z" fill="#D1D3D4" fill-opacity="1.000000" fill-rule="nonzero"/>
		<path d="M139.08 113.13L53.99 113.13C53.85 113.13 53.72 113.08 53.62 112.98C53.53 112.88 53.47 112.75 53.47 112.62C53.47 112.48 53.53 112.35 53.62 112.25C53.72 112.15 53.85 112.1 53.99 112.1L139.08 112.1C139.22 112.1 139.35 112.15 139.45 112.25C139.54 112.35 139.6 112.48 139.6 112.62C139.6 112.75 139.54 112.88 139.45 112.98C139.35 113.08 139.22 113.13 139.08 113.13Z" fill="#FFFFFF" fill-opacity="1.000000" fill-rule="nonzero"/>
		<path d="M139.08 120.08L53.99 120.08C53.85 120.08 53.72 120.02 53.62 119.93C53.53 119.83 53.47 119.7 53.47 119.56C53.47 119.42 53.53 119.29 53.62 119.19C53.72 119.1 53.85 119.04 53.99 119.04L139.08 119.04C139.22 119.04 139.35 119.1 139.45 119.19C139.54 119.29 139.6 119.42 139.6 119.56C139.6 119.7 139.54 119.83 139.45 119.93C139.35 120.02 139.22 120.08 139.08 120.08Z" fill="#FFFFFF" fill-opacity="1.000000" fill-rule="nonzero"/>
		<path d="M127.26 127.03L53.99 127.03C53.85 127.03 53.72 126.98 53.62 126.88C53.53 126.79 53.47 126.65 53.47 126.52C53.47 126.38 53.53 126.25 53.62 126.15C53.72 126.05 53.85 126 53.99 126L127.26 126C127.4 126 127.53 126.05 127.63 126.15C127.73 126.25 127.78 126.38 127.78 126.52C127.78 126.65 127.73 126.79 127.63 126.88C127.53 126.98 127.4 127.03 127.26 127.03Z" fill="#FFFFFF" fill-opacity="1.000000" fill-rule="nonzero"/>
		<path d="M78.25 149.54L53.99 149.54C53.85 149.54 53.72 149.48 53.62 149.39C53.53 149.29 53.47 149.16 53.47 149.02L53.47 132.1C53.47 131.97 53.53 131.83 53.62 131.74C53.72 131.64 53.85 131.58 53.99 131.58L78.25 131.58C78.38 131.58 78.51 131.64 78.61 131.74C78.71 131.83 78.76 131.97 78.76 132.1L78.76 148.98C78.77 149.05 78.76 149.12 78.74 149.19C78.71 149.26 78.68 149.32 78.63 149.37C78.58 149.42 78.52 149.47 78.45 149.49C78.39 149.52 78.32 149.54 78.25 149.54ZM54.51 148.5L77.73 148.5L77.73 132.62L54.51 132.62L54.51 148.5Z" fill="#FFFFFF" fill-opacity="1.000000" fill-rule="nonzero"/>
		<path d="M108.67 149.54L84.4 149.54C84.27 149.54 84.13 149.48 84.04 149.39C83.94 149.29 83.88 149.16 83.88 149.02L83.88 132.1C83.88 131.97 83.94 131.83 84.04 131.74C84.13 131.64 84.27 131.58 84.4 131.58L108.67 131.58C108.81 131.58 108.94 131.64 109.04 131.74C109.13 131.83 109.19 131.97 109.19 132.1L109.19 148.98C109.19 149.05 109.18 149.12 109.16 149.19C109.14 149.26 109.1 149.32 109.05 149.37C109 149.42 108.94 149.47 108.88 149.49C108.81 149.52 108.74 149.54 108.67 149.54ZM84.92 148.5L108.15 148.5L108.15 132.62L84.92 132.62L84.92 148.5Z" fill="#FFFFFF" fill-opacity="1.000000" fill-rule="nonzero"/>
		<path d="M139.08 149.54L114.83 149.54C114.69 149.54 114.56 149.48 114.46 149.39C114.36 149.29 114.31 149.16 114.31 149.02L114.31 132.1C114.31 131.97 114.36 131.83 114.46 131.74C114.56 131.64 114.69 131.58 114.83 131.58L139.08 131.58C139.22 131.58 139.35 131.64 139.45 131.74C139.54 131.83 139.6 131.97 139.6 132.1L139.6 148.98C139.61 149.05 139.6 149.12 139.57 149.19C139.55 149.26 139.51 149.32 139.46 149.37C139.41 149.42 139.36 149.47 139.29 149.49C139.22 149.52 139.15 149.54 139.08 149.54ZM115.34 148.5L138.56 148.5L138.56 132.62L115.34 132.62L115.34 148.5Z" fill="#FFFFFF" fill-opacity="1.000000" fill-rule="nonzero"/>
		<path d="M230.62 74.22L98.58 74.22C97.81 74.25 97.04 74.13 96.31 73.86C95.59 73.58 94.92 73.17 94.37 72.63C93.81 72.09 93.36 71.45 93.06 70.74C92.75 70.03 92.6 69.26 92.6 68.48C92.6 67.71 92.75 66.94 93.06 66.23C93.36 65.52 93.81 64.87 94.37 64.34C94.92 63.8 95.59 63.38 96.31 63.11C97.04 62.84 97.81 62.71 98.58 62.75L230.62 62.75C231.39 62.71 232.17 62.84 232.89 63.11C233.61 63.38 234.28 63.8 234.84 64.34C235.4 64.87 235.84 65.52 236.14 66.23C236.45 66.94 236.61 67.71 236.61 68.48C236.61 69.26 236.45 70.03 236.14 70.74C235.84 71.45 235.4 72.09 234.84 72.63C234.28 73.17 233.61 73.58 232.89 73.86C232.17 74.13 231.39 74.25 230.62 74.22ZM98.58 63.78C97.95 63.75 97.31 63.85 96.72 64.08C96.12 64.3 95.57 64.64 95.11 65.08C94.65 65.52 94.29 66.05 94.04 66.63C93.79 67.22 93.66 67.85 93.66 68.48C93.66 69.12 93.79 69.75 94.04 70.34C94.29 70.92 94.65 71.45 95.11 71.89C95.57 72.33 96.12 72.67 96.72 72.89C97.31 73.12 97.95 73.21 98.58 73.18L230.62 73.18C231.25 73.21 231.89 73.12 232.49 72.89C233.08 72.67 233.63 72.33 234.09 71.89C234.55 71.45 234.92 70.92 235.17 70.34C235.42 69.75 235.55 69.12 235.55 68.48C235.55 67.85 235.42 67.22 235.17 66.63C234.92 66.05 234.55 65.52 234.09 65.08C233.63 64.64 233.08 64.3 232.49 64.08C231.89 63.85 231.25 63.75 230.62 63.78L98.58 63.78Z" fill="#D1D3D4" fill-opacity="1.000000" fill-rule="nonzero"/>
		<path d="M58.07 63.26L81.73 63.26C83.98 63.26 85.81 65.09 85.81 67.35L85.81 69.63C85.81 71.88 83.98 73.71 81.73 73.71L58.07 73.71C55.82 73.71 53.99 71.88 53.99 69.63L53.99 67.35C53.99 65.09 55.82 63.26 58.07 63.26Z" fill="#2FE784" fill-opacity="1.000000" fill-rule="evenodd"/>
		<path d="M220.55 74.22C220.42 74.22 220.28 74.17 220.19 74.07C220.09 73.97 220.04 73.84 220.04 73.7L220.04 63.26C220.04 63.13 220.09 63 220.19 62.9C220.28 62.8 220.42 62.75 220.55 62.75C220.69 62.75 220.82 62.8 220.92 62.9C221.02 63 221.07 63.13 221.07 63.26L221.07 73.7C221.07 73.84 221.02 73.97 220.92 74.07C220.82 74.17 220.69 74.22 220.55 74.22Z" fill="#D1D3D4" fill-opacity="1.000000" fill-rule="nonzero"/>
		<path d="M228.97 71.05C228.37 71.05 227.78 70.87 227.28 70.54C226.78 70.2 226.39 69.73 226.16 69.17C225.93 68.62 225.87 68.01 225.99 67.42C226.11 66.83 226.4 66.29 226.82 65.86C227.25 65.44 227.79 65.15 228.38 65.03C228.97 64.92 229.58 64.98 230.13 65.21C230.69 65.44 231.16 65.83 231.5 66.33C231.83 66.82 232.01 67.41 232.01 68.01C232.01 68.82 231.69 69.59 231.12 70.16C230.55 70.73 229.78 71.05 228.97 71.05ZM228.97 66.02C228.57 66.02 228.19 66.14 227.86 66.36C227.53 66.58 227.27 66.89 227.12 67.26C226.97 67.63 226.93 68.03 227.01 68.42C227.09 68.81 227.28 69.16 227.56 69.44C227.84 69.72 228.2 69.91 228.59 69.99C228.98 70.06 229.38 70.02 229.74 69.87C230.11 69.72 230.42 69.46 230.64 69.13C230.86 68.8 230.97 68.41 230.97 68.01C230.96 67.49 230.74 66.99 230.37 66.62C230 66.26 229.49 66.05 228.97 66.05L228.97 66.02Z" fill="#D1D3D4" fill-opacity="1.000000" fill-rule="nonzero"/>
		<path d="M223.52 72.45C223.44 72.45 223.37 72.43 223.3 72.4C223.23 72.37 223.16 72.32 223.11 72.26C223.03 72.15 222.99 72.02 223 71.88C223.01 71.74 223.08 71.61 223.19 71.53L226.13 69.16C226.18 69.11 226.24 69.08 226.31 69.05C226.38 69.03 226.45 69.02 226.52 69.02C226.59 69.03 226.66 69.05 226.73 69.08C226.79 69.11 226.85 69.16 226.89 69.22C226.94 69.27 226.97 69.34 226.99 69.41C227.01 69.48 227.01 69.55 227 69.62C226.99 69.69 226.96 69.76 226.92 69.82C226.88 69.88 226.83 69.93 226.77 69.97L223.84 72.34C223.75 72.42 223.63 72.46 223.52 72.45Z" fill="#D1D3D4" fill-opacity="1.000000" fill-rule="nonzero"/>
		<path d="M176.41 91.08L56 91.08C55.45 91.08 54.92 90.86 54.54 90.47C54.15 90.08 53.93 89.55 53.93 89C53.93 88.45 54.15 87.93 54.54 87.54C54.92 87.15 55.45 86.93 56 86.93L176.41 86.93C176.96 86.93 177.48 87.15 177.87 87.54C178.26 87.93 178.48 88.45 178.48 89C178.48 89.55 178.26 90.08 177.87 90.47C177.48 90.86 176.96 91.08 176.41 91.08Z" fill="#2FE784" fill-opacity="1.000000" fill-rule="nonzero"/>
		<path d="M186.45 100.63L56 100.63C55.86 100.63 55.73 100.58 55.64 100.48C55.54 100.38 55.49 100.25 55.48 100.11C55.48 99.98 55.54 99.85 55.63 99.75C55.73 99.65 55.86 99.6 56 99.6L186.45 99.6C186.59 99.6 186.72 99.65 186.82 99.75C186.92 99.85 186.97 99.98 186.97 100.11C186.97 100.25 186.92 100.38 186.82 100.48C186.72 100.58 186.59 100.63 186.45 100.63Z" fill="#D1D3D4" fill-opacity="1.000000" fill-rule="nonzero"/>
		<path d="M157.61 111.73L56.03 111.73C55.9 111.73 55.76 111.68 55.67 111.58C55.57 111.49 55.51 111.35 55.51 111.22C55.51 111.08 55.57 110.95 55.67 110.85C55.76 110.75 55.9 110.7 56.03 110.7L157.61 110.7C157.75 110.7 157.88 110.75 157.98 110.85C158.08 110.95 158.13 111.08 158.13 111.22C158.13 111.35 158.08 111.49 157.98 111.58C157.88 111.68 157.75 111.73 157.61 111.73Z" fill="#D1D3D4" fill-opacity="1.000000" fill-rule="nonzero"/>
		<path d="M148.9 129.92L56 129.92C55.45 129.92 54.92 129.71 54.54 129.32C54.15 128.93 53.93 128.4 53.93 127.85C53.93 127.3 54.15 126.78 54.54 126.39C54.92 126 55.45 125.78 56 125.78L148.9 125.78C149.45 125.78 149.97 126 150.36 126.39C150.75 126.78 150.97 127.3 150.97 127.85C150.97 128.4 150.75 128.93 150.36 129.32C149.97 129.71 149.45 129.92 148.9 129.92Z" fill="#2FE784" fill-opacity="1.000000" fill-rule="nonzero"/>
		<path d="M186.45 139.47L56 139.47C55.86 139.47 55.73 139.42 55.63 139.32C55.54 139.22 55.48 139.09 55.48 138.95C55.49 138.82 55.54 138.69 55.64 138.59C55.73 138.49 55.86 138.44 56 138.44L186.45 138.44C186.59 138.44 186.72 138.49 186.82 138.59C186.92 138.68 186.97 138.82 186.97 138.95C186.97 139.09 186.92 139.22 186.82 139.32C186.72 139.42 186.59 139.47 186.45 139.47Z" fill="#D1D3D4" fill-opacity="1.000000" fill-rule="nonzero"/>
		<path d="M120.07 150.58L56 150.58C55.86 150.58 55.73 150.53 55.64 150.43C55.54 150.33 55.49 150.2 55.48 150.07C55.48 149.93 55.54 149.8 55.63 149.7C55.73 149.6 55.86 149.55 56 149.55L120.07 149.55C120.21 149.55 120.34 149.6 120.44 149.7C120.53 149.8 120.59 149.93 120.59 150.07C120.59 150.2 120.53 150.33 120.43 150.43C120.34 150.53 120.21 150.58 120.07 150.58Z" fill="#D1D3D4" fill-opacity="1.000000" fill-rule="nonzero"/>
		<path d="M244.63 123.92L197.08 123.92C196.94 123.92 196.81 123.87 196.71 123.77C196.62 123.67 196.56 123.54 196.56 123.41L196.56 87.04C196.56 86.91 196.61 86.77 196.71 86.68C196.81 86.58 196.94 86.53 197.08 86.53L244.63 86.53C244.77 86.53 244.9 86.58 245 86.68C245.1 86.77 245.15 86.91 245.15 87.04L245.15 123.41C245.15 123.54 245.1 123.68 245 123.77C244.9 123.87 244.77 123.92 244.63 123.92ZM197.59 122.89L244.11 122.89L244.11 87.56L197.59 87.56L197.59 122.89Z" fill="#D1D3D4" fill-opacity="1.000000" fill-rule="nonzero"/>
		<path d="M244.63 132.62L197.08 132.62C196.94 132.62 196.81 132.56 196.71 132.47C196.62 132.37 196.56 132.24 196.56 132.1C196.56 131.97 196.61 131.83 196.71 131.74C196.81 131.64 196.94 131.58 197.08 131.58L244.63 131.58C244.77 131.58 244.9 131.64 245 131.74C245.1 131.83 245.15 131.97 245.15 132.1C245.15 132.24 245.1 132.37 245 132.47C244.9 132.57 244.77 132.62 244.63 132.62Z" fill="#D1D3D4" fill-opacity="1.000000" fill-rule="nonzero"/>
		<path d="M244.63 141.61L197.08 141.61C196.94 141.61 196.81 141.55 196.71 141.45C196.62 141.36 196.56 141.23 196.56 141.09C196.56 140.95 196.61 140.82 196.71 140.72C196.81 140.63 196.94 140.57 197.08 140.57L244.63 140.57C244.77 140.57 244.9 140.63 245 140.72C245.1 140.82 245.15 140.95 245.15 141.09C245.15 141.23 245.1 141.36 245 141.46C244.9 141.55 244.77 141.61 244.63 141.61Z" fill="#D1D3D4" fill-opacity="1.000000" fill-rule="nonzero"/>
		<path d="M236.34 150.58L197.08 150.58C196.94 150.58 196.81 150.53 196.71 150.43C196.61 150.34 196.56 150.2 196.56 150.07C196.56 149.93 196.62 149.8 196.71 149.7C196.81 149.61 196.94 149.55 197.08 149.55L236.34 149.55C236.48 149.55 236.61 149.61 236.7 149.7C236.8 149.8 236.86 149.93 236.86 150.07C236.86 150.2 236.8 150.34 236.71 150.43C236.61 150.53 236.48 150.58 236.34 150.58Z" fill="#D1D3D4" fill-opacity="1.000000" fill-rule="nonzero"/>
		<path d="M231.14 115.74C231.01 115.74 230.88 115.69 230.78 115.6L214.61 100.63C214.27 100.3 213.81 100.12 213.33 100.12C212.85 100.12 212.39 100.3 212.04 100.63L197.44 114.82C197.34 114.91 197.21 114.95 197.08 114.94C196.95 114.93 196.83 114.88 196.73 114.78C196.64 114.69 196.59 114.56 196.59 114.43C196.59 114.3 196.64 114.17 196.72 114.08L211.32 99.92C211.86 99.41 212.58 99.13 213.32 99.13C214.06 99.13 214.78 99.41 215.32 99.92L231.49 114.89C231.56 114.96 231.61 115.05 231.64 115.15C231.66 115.25 231.65 115.35 231.61 115.45C231.57 115.55 231.51 115.63 231.42 115.69C231.34 115.74 231.24 115.78 231.14 115.78L231.14 115.74Z" fill="#D1D3D4" fill-opacity="1.000000" fill-rule="nonzero"/>
		<path d="M244.63 111.53C244.49 111.52 244.36 111.46 244.26 111.36L237.79 104.53C237.62 104.34 237.4 104.18 237.16 104.08C236.92 103.98 236.66 103.94 236.4 103.95C236.14 103.95 235.89 104.01 235.65 104.11C235.42 104.22 235.21 104.38 235.03 104.57L229.35 110.95C229.31 111.01 229.26 111.06 229.2 111.1C229.13 111.14 229.06 111.16 228.99 111.17C228.92 111.18 228.84 111.17 228.77 111.15C228.7 111.13 228.64 111.09 228.58 111.04C228.53 110.99 228.48 110.93 228.45 110.86C228.42 110.8 228.41 110.72 228.41 110.65C228.41 110.58 228.42 110.5 228.46 110.44C228.49 110.37 228.53 110.31 228.59 110.26L234.27 103.88C234.53 103.59 234.85 103.35 235.21 103.18C235.56 103.02 235.95 102.93 236.34 102.91C236.74 102.9 237.15 102.97 237.52 103.13C237.89 103.28 238.22 103.52 238.5 103.82L244.95 110.65C245 110.69 245.04 110.75 245.07 110.81C245.09 110.88 245.11 110.95 245.11 111.01C245.11 111.08 245.09 111.15 245.07 111.21C245.04 111.28 245 111.33 244.95 111.38C244.87 111.46 244.75 111.51 244.63 111.53Z" fill="#D1D3D4" fill-opacity="1.000000" fill-rule="nonzero"/>
		<path d="M226.86 102.46C226.09 102.46 225.34 102.23 224.71 101.81C224.07 101.38 223.58 100.78 223.28 100.07C222.99 99.36 222.91 98.59 223.06 97.84C223.21 97.09 223.58 96.4 224.12 95.86C224.66 95.32 225.35 94.95 226.1 94.8C226.85 94.65 227.63 94.73 228.34 95.02C229.04 95.31 229.65 95.81 230.07 96.44C230.5 97.08 230.72 97.83 230.72 98.59C230.72 99.62 230.32 100.6 229.59 101.33C228.86 102.05 227.88 102.46 226.86 102.46ZM226.86 95.76C226.3 95.76 225.75 95.93 225.28 96.24C224.82 96.55 224.46 96.99 224.24 97.51C224.03 98.03 223.97 98.59 224.08 99.14C224.19 99.69 224.46 100.2 224.86 100.59C225.25 100.99 225.76 101.26 226.3 101.37C226.85 101.48 227.42 101.42 227.94 101.21C228.46 100.99 228.9 100.63 229.21 100.16C229.52 99.7 229.69 99.15 229.69 98.59C229.69 98.22 229.62 97.85 229.47 97.51C229.33 97.16 229.12 96.85 228.86 96.59C228.6 96.32 228.28 96.12 227.94 95.97C227.6 95.83 227.23 95.76 226.86 95.76Z" fill="#D1D3D4" fill-opacity="1.000000" fill-rule="nonzero"/>
		<path d="M148 181.85C147.05 181.85 146.13 181.57 145.35 181.05C144.57 180.53 143.95 179.79 143.59 178.92C143.23 178.05 143.14 177.09 143.32 176.17C143.5 175.24 143.95 174.39 144.62 173.73C145.28 173.06 146.13 172.61 147.05 172.42C147.98 172.24 148.93 172.33 149.8 172.69C150.67 173.05 151.42 173.66 151.94 174.44C152.46 175.23 152.74 176.15 152.74 177.09C152.74 178.35 152.24 179.56 151.35 180.45C150.46 181.34 149.25 181.84 148 181.85ZM148 173.38C147.26 173.38 146.54 173.59 145.92 174C145.31 174.41 144.83 174.99 144.55 175.67C144.27 176.35 144.19 177.1 144.33 177.82C144.48 178.55 144.83 179.21 145.35 179.73C145.87 180.25 146.54 180.61 147.26 180.75C147.98 180.89 148.73 180.82 149.41 180.54C150.09 180.25 150.67 179.77 151.08 179.16C151.49 178.55 151.71 177.83 151.71 177.09C151.71 176.6 151.61 176.12 151.42 175.67C151.24 175.22 150.96 174.81 150.62 174.46C150.27 174.12 149.87 173.85 149.42 173.66C148.97 173.47 148.48 173.38 148 173.38Z" fill="#D1D3D4" fill-opacity="1.000000" fill-rule="nonzero"/>
		<path d="M193.62 143.22L276.07 143.22L276.07 194.18L193.62 194.18L193.62 143.22Z" fill="#2FE784" fill-opacity="1.000000" fill-rule="evenodd"/>
		<path d="M276.07 194.7L193.6 194.7C193.47 194.7 193.34 194.64 193.24 194.55C193.14 194.45 193.09 194.32 193.09 194.18L193.09 143.22C193.09 143.09 193.14 142.96 193.24 142.86C193.33 142.76 193.47 142.71 193.6 142.71L276.06 142.71C276.2 142.71 276.33 142.76 276.43 142.86C276.52 142.96 276.58 143.09 276.58 143.22L276.58 194.18C276.58 194.32 276.52 194.45 276.43 194.54C276.33 194.64 276.21 194.69 276.07 194.7ZM194.13 193.66L275.55 193.66L275.55 143.79L194.13 143.79L194.13 193.66Z" fill="#000000" fill-opacity="1.000000" fill-rule="nonzero"/>
		<path d="M193.62 135.93L276.07 135.93L276.07 143.22L193.62 143.22L193.62 135.93Z" fill="#FFFFFF" fill-opacity="1.000000" fill-rule="evenodd"/>
		<path d="M276.07 143.8L193.6 143.8C193.47 143.79 193.34 143.74 193.24 143.64C193.14 143.54 193.09 143.41 193.09 143.28L193.09 136.02C193.09 135.88 193.14 135.75 193.24 135.65C193.33 135.56 193.47 135.5 193.6 135.5L276.06 135.5C276.2 135.5 276.33 135.56 276.43 135.65C276.52 135.75 276.58 135.88 276.58 136.02L276.58 143.28C276.58 143.41 276.52 143.54 276.43 143.64C276.33 143.73 276.21 143.79 276.07 143.8ZM194.13 142.76L275.55 142.76L275.55 136.54L194.13 136.54L194.13 142.76Z" fill="#000000" fill-opacity="1.000000" fill-rule="nonzero"/>
		<path d="M217.78 184.66L217.77 184.66C214.69 182.88 213.63 178.94 215.41 175.85L229.19 151.99C230.97 148.91 234.91 147.85 238 149.63L238.01 149.64C241.09 151.42 242.15 155.36 240.37 158.44L226.59 182.3C224.81 185.39 220.87 186.44 217.78 184.66Z" fill="#FFFFFF" fill-opacity="1.000000" fill-rule="evenodd"/>
		<path d="M220.99 186.05C219.77 186.05 218.58 185.73 217.53 185.12C215.93 184.2 214.76 182.67 214.28 180.89C213.8 179.1 214.05 177.2 214.97 175.6L228.74 151.75C229.2 150.96 229.81 150.27 230.53 149.71C231.26 149.15 232.09 148.75 232.97 148.51C233.86 148.27 234.78 148.21 235.68 148.33C236.59 148.45 237.47 148.75 238.26 149.21C239.05 149.66 239.74 150.27 240.3 151C240.86 151.72 241.27 152.55 241.5 153.44C241.74 154.32 241.8 155.24 241.68 156.15C241.56 157.05 241.27 157.93 240.81 158.72L227.04 182.56C226.43 183.62 225.55 184.51 224.48 185.12C223.42 185.73 222.22 186.06 220.99 186.05ZM218.05 184.22C219.41 185.01 221.02 185.22 222.54 184.81C224.06 184.41 225.35 183.41 226.14 182.05L239.92 158.21C240.31 157.54 240.56 156.79 240.66 156.02C240.76 155.25 240.71 154.47 240.51 153.71C240.31 152.96 239.96 152.25 239.48 151.64C239.01 151.02 238.42 150.5 237.75 150.11C237.07 149.72 236.33 149.47 235.55 149.37C234.78 149.27 234 149.32 233.24 149.52C232.49 149.72 231.79 150.07 231.17 150.54C230.55 151.02 230.03 151.61 229.64 152.28L215.87 176.12C215.48 176.8 215.22 177.55 215.12 178.32C215.02 179.09 215.07 179.88 215.28 180.63C215.48 181.39 215.82 182.09 216.3 182.71C216.77 183.33 217.37 183.85 218.05 184.23L218.05 184.22Z" fill="#000000" fill-opacity="1.000000" fill-rule="nonzero"/>
		<path d="M227.7 178.74C227.7 182.37 224.75 185.31 221.12 185.31C217.49 185.31 214.55 182.37 214.55 178.74C214.55 175.11 217.49 172.17 221.12 172.17C224.75 172.17 227.7 175.11 227.7 178.74Z" fill="#FFFFFF" fill-opacity="1.000000" fill-rule="evenodd"/>
		<path d="M221.12 185.83C219.72 185.83 218.34 185.41 217.18 184.63C216.01 183.86 215.09 182.75 214.56 181.45C214.02 180.15 213.88 178.72 214.15 177.34C214.42 175.97 215.1 174.7 216.09 173.71C217.09 172.71 218.35 172.04 219.73 171.76C221.11 171.49 222.54 171.63 223.84 172.17C225.13 172.71 226.24 173.62 227.02 174.79C227.8 175.96 228.22 177.33 228.21 178.74C228.21 180.62 227.46 182.42 226.13 183.75C224.81 185.08 223 185.82 221.12 185.83ZM221.12 172.67C219.92 172.67 218.75 173.03 217.75 173.69C216.75 174.36 215.97 175.3 215.51 176.41C215.05 177.52 214.93 178.74 215.17 179.91C215.4 181.09 215.97 182.17 216.82 183.02C217.67 183.87 218.75 184.45 219.93 184.68C221.1 184.92 222.32 184.8 223.43 184.34C224.54 183.88 225.49 183.1 226.15 182.11C226.82 181.11 227.18 179.94 227.18 178.74C227.17 177.13 226.54 175.59 225.4 174.46C224.27 173.32 222.73 172.68 221.12 172.67Z" fill="#000000" fill-opacity="1.000000" fill-rule="nonzero"/>
		<path d="M231.69 149.64L231.7 149.64C234.78 147.86 238.73 148.91 240.51 152L254.28 175.86C256.06 178.94 255.01 182.88 251.92 184.67L251.92 184.67C248.83 186.45 244.89 185.39 243.11 182.31L229.33 158.45C227.55 155.37 228.61 151.42 231.69 149.64Z" fill="#FFFFFF" fill-opacity="1.000000" fill-rule="evenodd"/>
		<path d="M248.71 186.06C248.09 186.05 247.48 185.97 246.89 185.82C246.01 185.58 245.18 185.17 244.45 184.62C243.72 184.06 243.11 183.37 242.65 182.57L228.89 158.73C227.96 157.13 227.71 155.23 228.19 153.45C228.67 151.66 229.84 150.14 231.44 149.22C233.04 148.29 234.94 148.04 236.72 148.52C238.51 149 240.03 150.17 240.95 151.77L254.73 175.61C255.65 177.21 255.9 179.11 255.42 180.9C254.94 182.68 253.78 184.21 252.18 185.13C251.12 185.74 249.93 186.06 248.71 186.06ZM234.91 149.3C233.87 149.29 232.84 149.56 231.93 150.08C231.02 150.59 230.27 151.34 229.74 152.24C229.21 153.14 228.94 154.17 228.93 155.22C228.93 156.26 229.2 157.29 229.73 158.19L243.5 182.03C243.89 182.71 244.41 183.31 245.03 183.79C245.65 184.27 246.36 184.62 247.12 184.82C247.88 185.03 248.67 185.08 249.45 184.98C250.22 184.87 250.97 184.62 251.65 184.22C253.01 183.43 254 182.14 254.41 180.62C254.82 179.1 254.6 177.48 253.82 176.11L240.05 152.27C239.53 151.37 238.78 150.62 237.88 150.1C236.98 149.58 235.95 149.3 234.91 149.3Z" fill="#000000" fill-opacity="1.000000" fill-rule="nonzero"/>
		<path d="M203.28 140.09L197.54 140.09C197.41 140.09 197.27 140.04 197.18 139.94C197.08 139.85 197.02 139.71 197.02 139.58C197.02 139.44 197.08 139.31 197.18 139.21C197.27 139.11 197.41 139.06 197.54 139.06L203.28 139.06C203.42 139.06 203.55 139.11 203.65 139.21C203.75 139.31 203.8 139.44 203.8 139.58C203.8 139.71 203.75 139.85 203.65 139.94C203.55 140.04 203.42 140.09 203.28 140.09Z" fill="#000000" fill-opacity="1.000000" fill-rule="nonzero"/>
		<path d="M0.51 245.78L295.48 245.78L295.48 253.06L0.51 253.06L0.51 245.78Z" fill="#000000" fill-opacity="1.000000" fill-rule="evenodd"/>
		<path d="M295.48 253.58L0.51 253.58C0.38 253.58 0.25 253.52 0.15 253.42C0.05 253.33 0 253.19 0 253.06L0 245.8C0 245.66 0.05 245.53 0.15 245.43C0.25 245.34 0.38 245.28 0.51 245.28L295.48 245.28C295.61 245.28 295.74 245.34 295.84 245.43C295.94 245.53 295.99 245.66 295.99 245.8L295.99 253.06C295.99 253.19 295.94 253.33 295.84 253.42C295.74 253.52 295.61 253.58 295.48 253.58ZM1.03 252.54L294.96 252.54L294.96 246.32L1.03 246.32L1.03 252.54Z" fill="#000000" fill-opacity="1.000000" fill-rule="nonzero"/>
		<path d="M15.35 42.51L85.8 42.51L85.8 105.96L15.35 105.96L15.35 42.51Z" fill="#FFFFFF" fill-opacity="1.000000" fill-rule="evenodd"/>
		<path d="M85.8 106.48L15.32 106.48C15.18 106.48 15.05 106.42 14.95 106.32C14.86 106.23 14.8 106.1 14.8 105.96L14.8 42.51C14.8 42.38 14.85 42.24 14.95 42.15C15.05 42.05 15.18 42 15.32 42L85.8 42C85.94 42 86.07 42.05 86.17 42.15C86.27 42.24 86.32 42.38 86.32 42.51L86.32 105.96C86.32 106.1 86.26 106.23 86.17 106.32C86.07 106.42 85.94 106.48 85.8 106.48ZM15.86 105.44L85.3 105.44L85.3 43.03L15.86 43.03L15.86 105.44Z" fill="#000000" fill-opacity="1.000000" fill-rule="nonzero"/>
		<path d="M32.12 84.8L42.53 84.8L42.53 96.93L32.12 96.93L32.12 84.8Z" fill="#2FE784" fill-opacity="1.000000" fill-rule="evenodd"/>
		<path d="M47.67 73.71L58.07 73.71L58.07 96.93L47.67 96.93L47.67 73.71Z" fill="#2FE784" fill-opacity="1.000000" fill-rule="evenodd"/>
		<path d="M63.21 56.61L73.61 56.61L73.61 96.93L63.21 96.93L63.21 56.61Z" fill="#2FE784" fill-opacity="1.000000" fill-rule="evenodd"/>
		<path d="M78.75 97.44L24.09 97.44C23.95 97.44 23.82 97.39 23.72 97.29C23.62 97.19 23.57 97.06 23.57 96.92L23.57 50.5C23.57 50.37 23.62 50.24 23.72 50.14C23.82 50.04 23.95 49.99 24.09 49.99C24.22 49.99 24.36 50.04 24.45 50.14C24.55 50.24 24.6 50.37 24.6 50.5L24.6 96.4L78.75 96.4C78.89 96.4 79.02 96.46 79.12 96.56C79.22 96.65 79.27 96.78 79.27 96.92C79.27 97.06 79.22 97.19 79.12 97.29C79.02 97.39 78.89 97.44 78.75 97.44Z" fill="#000000" fill-opacity="1.000000" fill-rule="nonzero"/>
		<path d="M36.81 79.72L36.3 79.65L35.81 79.47C36.49 76.73 39.16 67.82 44.65 68.13C45.41 68.1 46.17 68.22 46.88 68.49C47.59 68.76 48.24 69.16 48.8 69.68C49.78 70.6 51.06 71.13 52.4 71.17C54.2 71.36 55.18 68.63 56.43 65.15C58.63 58.93 61.61 50.55 71.97 50.55C72.11 50.55 72.24 50.6 72.34 50.7C72.44 50.8 72.49 50.93 72.49 51.06C72.49 51.2 72.44 51.33 72.34 51.43C72.24 51.53 72.11 51.58 71.97 51.58C62.36 51.58 59.54 59.3 57.37 65.49C55.97 69.42 54.87 72.54 52.25 72.21C50.7 72.13 49.24 71.51 48.1 70.46C47.63 70.01 47.08 69.67 46.47 69.45C45.87 69.22 45.22 69.13 44.58 69.16C39.75 68.89 37.26 77.9 36.81 79.72Z" fill="#D1D3D4" fill-opacity="1.000000" fill-rule="nonzero"/>
		<path d="M25.73 216.07L25.73 222.91C25.73 224.99 33.52 226.69 43.14 226.69C52.76 226.69 60.54 225 60.54 222.91L60.54 216.07L25.73 216.07Z" fill="#FFFFFF" fill-opacity="1.000000" fill-rule="nonzero"/>
		<path d="M43.14 227.21C34.23 227.21 25.22 225.73 25.22 222.91L25.22 216.07C25.22 215.94 25.27 215.8 25.37 215.71C25.46 215.61 25.6 215.56 25.73 215.56L60.54 215.56C60.68 215.56 60.81 215.61 60.91 215.71C61.01 215.8 61.06 215.94 61.06 216.07L61.06 222.91C61.06 225.73 52.04 227.21 43.14 227.21ZM26.25 216.59L26.25 222.91C26.25 224.24 32.82 226.17 43.14 226.17C53.45 226.17 60.02 224.24 60.02 222.91L60.02 216.59L26.25 216.59Z" fill="#000000" fill-opacity="1.000000" fill-rule="nonzero"/>
		<path d="M60.54 216.07C60.54 218.15 52.75 219.84 43.14 219.84C33.53 219.84 25.73 218.15 25.73 216.07C25.73 214 33.53 212.31 43.14 212.31C52.75 212.31 60.54 214 60.54 216.07Z" fill="#000000" fill-opacity="1.000000" fill-rule="evenodd"/>
		<path d="M43.14 220.35C34.23 220.35 25.22 218.88 25.22 216.07C25.22 213.26 34.23 211.78 43.14 211.78C52.04 211.78 61.06 213.25 61.06 216.07C61.06 218.89 52.04 220.35 43.14 220.35ZM43.14 212.82C32.77 212.82 26.25 214.75 26.25 216.07C26.25 217.4 32.82 219.32 43.14 219.32C53.45 219.32 60.02 217.4 60.02 216.07C60.02 214.75 53.45 212.82 43.14 212.82Z" fill="#000000" fill-opacity="1.000000" fill-rule="nonzero"/>
		<path d="M27.38 207.02L27.38 213.88C27.38 215.95 35.18 217.64 44.8 217.64C54.42 217.64 62.2 215.96 62.2 213.88L62.2 207.02L27.38 207.02Z" fill="#FFFFFF" fill-opacity="1.000000" fill-rule="nonzero"/>
		<path d="M44.8 218.13C35.88 218.13 26.86 216.65 26.86 213.85L26.86 207.02C26.87 206.89 26.92 206.76 27.02 206.66C27.12 206.56 27.25 206.51 27.38 206.51L62.2 206.51C62.34 206.51 62.47 206.56 62.57 206.66C62.66 206.76 62.72 206.89 62.72 207.02L62.72 213.88C62.72 216.65 53.67 218.13 44.8 218.13ZM27.9 207.51L27.9 213.85C27.9 215.17 34.48 217.09 44.8 217.09C55.11 217.09 61.68 215.17 61.68 213.85L61.68 207.51L27.9 207.51Z" fill="#000000" fill-opacity="1.000000" fill-rule="nonzero"/>
		<path d="M62.2 206.99C62.2 209.07 54.41 210.76 44.8 210.76C35.18 210.76 27.39 209.07 27.39 206.99C27.39 204.92 35.18 203.23 44.8 203.23C54.41 203.23 62.2 204.92 62.2 206.99Z" fill="#000000" fill-opacity="1.000000" fill-rule="evenodd"/>
		<path d="M44.8 211.28C35.88 211.28 26.86 209.81 26.86 206.99C26.86 204.17 35.88 202.71 44.8 202.71C53.71 202.71 62.72 204.18 62.72 206.99C62.72 209.8 53.67 211.28 44.8 211.28ZM44.8 203.75C34.43 203.75 27.9 205.68 27.9 206.99C27.9 208.31 34.48 210.25 44.8 210.25C55.11 210.25 61.68 208.32 61.68 206.99C61.68 205.67 55.1 203.75 44.8 203.75Z" fill="#000000" fill-opacity="1.000000" fill-rule="nonzero"/>
		<path d="M24.99 197.92L24.99 204.76C24.99 206.84 32.78 208.54 42.4 208.54C52.02 208.54 59.81 206.85 59.81 204.76L59.81 197.92L24.99 197.92Z" fill="#FFFFFF" fill-opacity="1.000000" fill-rule="nonzero"/>
		<path d="M42.4 209.1C33.49 209.1 24.47 207.63 24.47 204.81L24.47 197.96C24.47 197.83 24.52 197.7 24.62 197.6C24.72 197.5 24.85 197.45 24.99 197.45L59.81 197.45C59.94 197.45 60.07 197.5 60.17 197.6C60.27 197.7 60.32 197.83 60.32 197.96L60.32 204.81C60.32 207.58 51.31 209.1 42.4 209.1ZM25.51 198.48L25.51 204.81C25.51 206.13 32.09 208.06 42.4 208.06C52.72 208.06 59.29 206.13 59.29 204.81L59.29 198.48L25.51 198.48Z" fill="#000000" fill-opacity="1.000000" fill-rule="nonzero"/>
		<path d="M59.81 197.92C59.81 200 52.01 201.69 42.4 201.69C32.79 201.69 25 200 25 197.92C25 195.85 32.79 194.16 42.4 194.16C52.01 194.16 59.81 195.85 59.81 197.92Z" fill="#000000" fill-opacity="1.000000" fill-rule="evenodd"/>
		<path d="M42.4 202.21C33.49 202.21 24.47 200.74 24.47 197.92C24.47 195.1 33.49 193.64 42.4 193.64C51.32 193.64 60.32 195.11 60.32 197.92C60.32 200.73 51.31 202.21 42.4 202.21ZM42.4 194.68C32.09 194.68 25.51 196.6 25.51 197.92C25.51 199.25 32.09 201.18 42.4 201.18C52.72 201.18 59.29 199.25 59.29 197.92C59.29 196.6 52.71 194.68 42.4 194.68Z" fill="#000000" fill-opacity="1.000000" fill-rule="nonzero"/>
		<path d="M29.83 188.62L29.83 195.46C29.83 197.53 37.62 199.23 47.23 199.23C56.84 199.23 64.65 197.54 64.65 195.46L64.65 188.62L29.83 188.62Z" fill="#FFFFFF" fill-opacity="1.000000" fill-rule="nonzero"/>
		<path d="M47.19 199.77C38.29 199.77 29.27 198.3 29.27 195.48L29.27 188.64C29.27 188.5 29.32 188.37 29.42 188.27C29.52 188.17 29.65 188.12 29.79 188.12L64.6 188.12C64.74 188.12 64.87 188.17 64.97 188.27C65.07 188.37 65.12 188.5 65.12 188.64L65.12 195.48C65.12 198.28 56.11 199.77 47.19 199.77ZM30.31 189.13L30.31 195.46C30.31 196.78 36.89 198.71 47.19 198.71C57.49 198.71 64.09 196.78 64.09 195.46L64.09 189.13L30.31 189.13Z" fill="#000000" fill-opacity="1.000000" fill-rule="nonzero"/>
		<path d="M64.59 188.62C64.59 190.69 56.8 192.38 47.19 192.38C37.58 192.38 29.79 190.69 29.79 188.62C29.79 186.54 37.58 184.85 47.19 184.85C56.8 184.85 64.59 186.54 64.59 188.62Z" fill="#000000" fill-opacity="1.000000" fill-rule="evenodd"/>
		<path d="M47.19 192.91C38.29 192.91 29.27 191.43 29.27 188.62C29.27 185.8 38.29 184.33 47.19 184.33C56.09 184.33 65.12 185.81 65.12 188.62C65.12 191.42 56.11 192.91 47.19 192.91ZM47.19 185.37C36.89 185.37 30.31 187.29 30.31 188.62C30.31 189.94 36.89 191.87 47.19 191.87C57.49 191.87 64.09 189.94 64.09 188.62C64.09 187.29 57.5 185.37 47.19 185.37Z" fill="#000000" fill-opacity="1.000000" fill-rule="nonzero"/>
		<path d="M24.99 180.5L24.99 187.33C24.99 189.4 32.78 191.09 42.4 191.09C52.02 191.09 59.81 189.4 59.81 187.33L59.81 180.48L24.99 180.5Z" fill="#FFFFFF" fill-opacity="1.000000" fill-rule="nonzero"/>
		<path d="M42.4 191.63C33.49 191.63 24.47 190.16 24.47 187.35L24.47 180.5C24.47 180.36 24.53 180.23 24.62 180.14C24.72 180.04 24.85 179.98 24.99 179.98L59.81 179.98C59.94 179.98 60.07 180.04 60.17 180.13C60.27 180.23 60.32 180.36 60.32 180.5L60.32 187.33C60.32 190.16 51.31 191.63 42.4 191.63ZM25.51 181.02L25.51 187.33C25.51 188.66 32.09 190.57 42.4 190.57C52.72 190.57 59.29 188.66 59.29 187.33L59.29 181L25.51 181.02Z" fill="#000000" fill-opacity="1.000000" fill-rule="nonzero"/>
		<path d="M59.81 180.5C59.81 182.58 52.01 184.26 42.4 184.26C32.79 184.26 25 182.58 25 180.5C25 178.42 32.79 176.74 42.4 176.74C52.01 176.74 59.81 178.42 59.81 180.5Z" fill="#FFFFFF" fill-opacity="1.000000" fill-rule="evenodd"/>
		<path d="M42.4 184.79C33.49 184.79 24.47 183.32 24.47 180.5C24.47 177.68 33.49 176.22 42.4 176.22C51.32 176.22 60.32 177.69 60.32 180.5C60.32 183.31 51.31 184.79 42.4 184.79ZM42.4 177.25C32.09 177.25 25.51 179.18 25.51 180.5C25.51 181.82 32.09 183.75 42.4 183.75C52.72 183.75 59.29 181.83 59.29 180.5C59.29 179.17 52.71 177.25 42.4 177.25Z" fill="#000000" fill-opacity="1.000000" fill-rule="nonzero"/>
		<path d="M42.4 182.89C41.15 182.89 30.21 182.83 30.21 180.5C30.21 178.17 41.15 178.1 42.4 178.1C43.66 178.1 54.58 178.18 54.58 180.5C54.58 182.82 43.65 182.89 42.4 182.89ZM31.31 180.5C32.03 181.09 36.14 181.86 42.4 181.86C48.66 181.86 52.77 181.09 53.48 180.5C52.77 179.92 48.65 179.14 42.4 179.14C36.15 179.14 32.03 179.92 31.31 180.5Z" fill="#D1D3D4" fill-opacity="1.000000" fill-rule="nonzero"/>
		<path d="M236.93 219.32L236.93 226.17C236.93 228.24 244.73 229.93 254.33 229.93C263.94 229.93 271.75 228.24 271.75 226.17L271.75 219.32L236.93 219.32Z" fill="#FFFFFF" fill-opacity="1.000000" fill-rule="nonzero"/>
		<path d="M254.33 230.45C245.43 230.45 236.41 228.98 236.41 226.17L236.41 219.32C236.41 219.18 236.47 219.05 236.56 218.95C236.66 218.85 236.79 218.8 236.93 218.8L271.74 218.8C271.88 218.8 272.01 218.85 272.1 218.95C272.2 219.05 272.26 219.18 272.26 219.32L272.26 226.17C272.26 228.98 263.24 230.45 254.33 230.45ZM237.45 219.84L237.45 226.17C237.45 227.49 244.02 229.41 254.33 229.41C264.65 229.41 271.22 227.49 271.22 226.17L271.22 219.84L237.45 219.84Z" fill="#000000" fill-opacity="1.000000" fill-rule="nonzero"/>
		<path d="M271.74 219.32C271.74 221.4 263.95 223.08 254.33 223.08C244.72 223.08 236.93 221.4 236.93 219.32C236.93 217.24 244.72 215.56 254.33 215.56C263.95 215.56 271.74 217.24 271.74 219.32Z" fill="#000000" fill-opacity="1.000000" fill-rule="evenodd"/>
		<path d="M254.33 223.61C245.43 223.61 236.41 222.14 236.41 219.32C236.41 216.5 245.43 215.04 254.33 215.04C263.24 215.04 272.26 216.51 272.26 219.32C272.26 222.13 263.24 223.61 254.33 223.61ZM254.33 216.07C244.02 216.07 237.45 217.99 237.45 219.32C237.45 220.64 244.02 222.57 254.33 222.57C264.65 222.57 271.22 220.64 271.22 219.32C271.22 217.99 264.65 216.07 254.33 216.07Z" fill="#000000" fill-opacity="1.000000" fill-rule="nonzero"/>
		<path d="M234.53 210.25L234.53 217.09C234.53 219.16 242.32 220.86 251.94 220.86C261.56 220.86 269.34 219.17 269.34 217.09L269.34 210.25L234.53 210.25Z" fill="#FFFFFF" fill-opacity="1.000000" fill-rule="nonzero"/>
		<path d="M251.94 221.38C243.03 221.38 234.01 219.91 234.01 217.09L234.01 210.25C234.01 210.11 234.06 209.98 234.16 209.88C234.26 209.78 234.39 209.73 234.53 209.73L269.34 209.73C269.48 209.73 269.61 209.78 269.71 209.88C269.81 209.98 269.86 210.11 269.86 210.25L269.86 217.09C269.86 219.91 260.84 221.38 251.94 221.38ZM235.07 210.77L235.07 217.09C235.07 218.42 241.65 220.34 251.96 220.34C262.27 220.34 268.85 218.42 268.85 217.09L268.85 210.77L235.07 210.77Z" fill="#000000" fill-opacity="1.000000" fill-rule="nonzero"/>
		<path d="M269.34 210.25C269.34 212.33 261.55 214.01 251.94 214.01C242.33 214.01 234.54 212.33 234.54 210.25C234.54 208.17 242.33 206.49 251.94 206.49C261.55 206.49 269.34 208.17 269.34 210.25Z" fill="#000000" fill-opacity="1.000000" fill-rule="evenodd"/>
		<path d="M251.94 214.53C243.03 214.53 234.01 213.06 234.01 210.25C234.01 207.44 243.03 205.96 251.94 205.96C260.85 205.96 269.86 207.43 269.86 210.25C269.86 213.07 260.84 214.53 251.94 214.53ZM251.94 206.99C241.63 206.99 235.04 208.92 235.04 210.25C235.04 211.57 241.63 213.49 251.94 213.49C262.25 213.49 268.82 211.57 268.82 210.25C268.82 208.92 262.24 207.02 251.94 207.02L251.94 206.99Z" fill="#000000" fill-opacity="1.000000" fill-rule="nonzero"/>
		<path d="M239.33 200.94L239.33 207.78C239.33 209.85 247.12 211.55 256.73 211.55C266.34 211.55 274.14 209.86 274.14 207.78L274.14 200.94L239.33 200.94Z" fill="#FFFFFF" fill-opacity="1.000000" fill-rule="nonzero"/>
		<path d="M256.73 212.07C247.83 212.07 238.81 210.6 238.81 207.78L238.81 200.94C238.81 200.8 238.86 200.67 238.96 200.57C239.06 200.48 239.19 200.42 239.33 200.42L274.14 200.42C274.28 200.42 274.41 200.48 274.51 200.57C274.61 200.67 274.66 200.8 274.66 200.94L274.66 207.78C274.66 210.6 265.64 212.07 256.73 212.07ZM239.84 201.46L239.84 207.78C239.84 209.11 246.43 211.04 256.73 211.04C267.03 211.04 273.63 209.11 273.63 207.78L273.63 201.46L239.84 201.46Z" fill="#000000" fill-opacity="1.000000" fill-rule="nonzero"/>
		<path d="M274.13 200.94C274.13 203.02 266.34 204.7 256.73 204.7C247.12 204.7 239.33 203.02 239.33 200.94C239.33 198.86 247.12 197.18 256.73 197.18C266.34 197.18 274.13 198.86 274.13 200.94Z" fill="#000000" fill-opacity="1.000000" fill-rule="evenodd"/>
		<path d="M256.73 205.22C247.83 205.22 238.81 203.75 238.81 200.94C238.81 198.13 247.83 196.66 256.73 196.66C265.63 196.66 274.66 198.13 274.66 200.94C274.66 203.75 265.64 205.22 256.73 205.22ZM256.73 197.7C246.43 197.7 239.84 199.61 239.84 200.94C239.84 202.27 246.43 204.18 256.73 204.18C267.03 204.18 273.63 202.27 273.63 200.94C273.63 199.61 267.04 197.7 256.73 197.7Z" fill="#000000" fill-opacity="1.000000" fill-rule="nonzero"/>
		<path d="M234.53 192.82L234.53 199.68C234.53 201.75 242.32 203.44 251.94 203.44C261.56 203.44 269.34 201.75 269.34 199.68L269.34 192.82L234.53 192.82Z" fill="#FFFFFF" fill-opacity="1.000000" fill-rule="nonzero"/>
		<path d="M251.94 203.91C243.03 203.91 234.01 202.44 234.01 199.63L234.01 192.82C234.01 192.69 234.07 192.56 234.16 192.46C234.26 192.36 234.39 192.31 234.53 192.31L269.34 192.31C269.48 192.31 269.61 192.36 269.71 192.46C269.81 192.55 269.86 192.69 269.86 192.82L269.86 199.68C269.86 202.48 260.84 203.91 251.94 203.91ZM235.07 193.34L235.07 199.68C235.07 200.99 241.65 202.92 251.96 202.92C262.27 202.92 268.85 200.99 268.85 199.68L268.85 193.34L235.07 193.34Z" fill="#000000" fill-opacity="1.000000" fill-rule="nonzero"/>
		<path d="M269.34 192.82C269.34 194.9 261.55 196.59 251.94 196.59C242.33 196.59 234.54 194.9 234.54 192.82C234.54 190.75 242.33 189.06 251.94 189.06C261.55 189.06 269.34 190.75 269.34 192.82Z" fill="#FFFFFF" fill-opacity="1.000000" fill-rule="evenodd"/>
		<path d="M251.94 197.11C243.03 197.11 234.01 195.64 234.01 192.82C234.01 190 243.03 188.54 251.94 188.54C260.85 188.54 269.86 190.01 269.86 192.82C269.86 195.63 260.84 197.11 251.94 197.11ZM251.94 189.58C241.63 189.58 235.04 191.5 235.04 192.82C235.04 194.15 241.63 196.08 251.94 196.08C262.25 196.08 268.82 194.15 268.82 192.82C268.82 191.5 262.24 189.58 251.94 189.58Z" fill="#000000" fill-opacity="1.000000" fill-rule="nonzero"/>
		<path d="M251.94 195.22C250.7 195.22 239.76 195.16 239.76 192.82C239.76 190.49 250.7 190.44 251.94 190.44C253.18 190.44 264.12 190.51 264.12 192.83C264.12 195.16 253.18 195.22 251.94 195.22ZM240.85 192.82C241.56 193.41 245.68 194.18 251.94 194.18C258.2 194.18 262.31 193.41 263.02 192.82C262.31 192.24 258.2 191.47 251.94 191.47C245.68 191.47 241.56 192.24 240.85 192.82Z" fill="#D1D3D4" fill-opacity="1.000000" fill-rule="nonzero"/>
		<path d="M102.56 218.43L102.56 224.93C102.56 226.91 95.15 228.51 85.98 228.51C76.8 228.51 69.39 226.91 69.39 224.93L69.39 218.43L102.56 218.43Z" fill="#FFFFFF" fill-opacity="1.000000" fill-rule="nonzero"/>
		<path d="M86.02 229.01C79.16 229.01 68.95 227.92 68.95 224.86L68.95 218.43C68.95 218.29 69 218.16 69.1 218.06C69.2 217.96 69.33 217.91 69.47 217.91L102.56 217.91C102.7 217.91 102.83 217.96 102.93 218.06C103.03 218.16 103.08 218.29 103.08 218.43L103.08 224.93C103.08 227.92 92.88 229.01 86.02 229.01ZM69.98 218.92L69.98 224.9C69.98 226.16 76.2 228.01 86.02 228.01C95.84 228.01 102.05 226.2 102.05 224.9L102.05 218.92L69.98 218.92Z" fill="#000000" fill-opacity="1.000000" fill-rule="nonzero"/>
		<path d="M102.56 218.41C102.56 220.39 95.16 221.99 86.02 221.99C76.88 221.99 69.48 220.39 69.48 218.41C69.48 216.42 76.88 214.82 86.02 214.82C95.16 214.82 102.56 216.42 102.56 218.41Z" fill="#000000" fill-opacity="1.000000" fill-rule="evenodd"/>
		<path d="M86.02 222.5C79.16 222.5 68.95 221.41 68.95 218.35C68.95 215.3 79.16 214.21 86.02 214.21C92.88 214.21 103.08 215.31 103.08 218.35C103.08 221.4 92.88 222.5 86.02 222.5ZM86.02 215.34C76.23 215.34 69.98 217.15 69.98 218.45C69.98 219.74 76.2 221.56 86.02 221.56C95.84 221.56 102.05 219.74 102.05 218.45C102.05 217.15 95.8 215.32 86.02 215.32L86.02 215.34Z" fill="#000000" fill-opacity="1.000000" fill-rule="nonzero"/>
		<path d="M98 209.55L98 216.06C98 218.04 90.6 219.64 81.42 219.64C72.23 219.64 64.83 218.04 64.83 216.06L64.83 209.55L98 209.55Z" fill="#FFFFFF" fill-opacity="1.000000" fill-rule="nonzero"/>
		<path d="M81.46 220.16C74.6 220.16 64.4 219.12 64.4 216.06L64.4 209.55C64.4 209.42 64.45 209.28 64.55 209.19C64.65 209.09 64.78 209.04 64.92 209.04L98 209.04C98.14 209.04 98.27 209.09 98.37 209.19C98.47 209.28 98.52 209.42 98.52 209.55L98.52 216.06C98.52 219.07 88.32 220.16 81.46 220.16ZM65.43 210.07L65.43 216.06C65.43 217.31 71.65 219.12 81.46 219.12C91.26 219.12 97.48 217.31 97.48 216.06L97.48 210.07L65.43 210.07Z" fill="#000000" fill-opacity="1.000000" fill-rule="nonzero"/>
		<path d="M98 209.55C98 211.53 90.6 213.14 81.46 213.14C72.32 213.14 64.92 211.53 64.92 209.55C64.92 207.57 72.32 205.97 81.46 205.97C90.6 205.97 98 207.57 98 209.55Z" fill="#000000" fill-opacity="1.000000" fill-rule="evenodd"/>
		<path d="M81.46 213.66C74.6 213.66 64.4 212.56 64.4 209.51C64.4 206.46 74.6 205.42 81.46 205.42C88.32 205.42 98.52 206.45 98.52 209.51C98.52 212.57 88.32 213.66 81.46 213.66ZM81.46 206.5C71.67 206.5 65.43 208.31 65.43 209.55C65.43 210.8 71.65 212.66 81.46 212.66C91.26 212.66 97.48 210.85 97.48 209.55C97.48 208.26 91.24 206.5 81.46 206.5Z" fill="#000000" fill-opacity="1.000000" fill-rule="nonzero"/>
		<path d="M102.56 201.84L102.56 208.35C102.56 210.33 95.15 211.93 85.98 211.93C76.8 211.93 69.39 210.33 69.39 208.35L69.39 201.84L102.56 201.84Z" fill="#FFFFFF" fill-opacity="1.000000" fill-rule="nonzero"/>
		<path d="M86.02 212.45C79.16 212.45 68.95 211.41 68.95 208.35L68.95 201.84C68.95 201.7 69.01 201.57 69.1 201.48C69.2 201.38 69.33 201.33 69.47 201.32L102.56 201.32C102.7 201.32 102.83 201.38 102.93 201.47C103.03 201.57 103.08 201.7 103.08 201.84L103.08 208.35C103.08 211.36 92.88 212.45 86.02 212.45ZM69.98 202.36L69.98 208.35C69.98 209.59 76.2 211.41 86.02 211.41C95.84 211.41 102.05 209.59 102.05 208.35L102.05 202.36L69.98 202.36Z" fill="#000000" fill-opacity="1.000000" fill-rule="nonzero"/>
		<path d="M102.56 201.84C102.56 203.82 95.16 205.43 86.02 205.43C76.88 205.43 69.48 203.82 69.48 201.84C69.48 199.86 76.88 198.26 86.02 198.26C95.16 198.26 102.56 199.86 102.56 201.84Z" fill="#FFFFFF" fill-opacity="1.000000" fill-rule="evenodd"/>
		<path d="M86.02 205.99C79.16 205.99 68.95 204.89 68.95 201.84C68.95 198.79 79.16 197.75 86.02 197.75C92.88 197.75 103.08 198.78 103.08 201.84C103.08 204.9 92.88 205.99 86.02 205.99ZM86.02 198.83C76.23 198.83 69.98 200.64 69.98 201.88C69.98 203.13 76.2 204.99 86.02 204.99C95.84 204.99 102.05 203.18 102.05 201.88C102.05 200.59 95.8 198.78 86.02 198.78L86.02 198.83Z" fill="#000000" fill-opacity="1.000000" fill-rule="nonzero"/>
		<path d="M86.02 204.14C84.08 204.14 74.41 204.04 74.41 201.84C74.41 199.64 84.08 199.54 86.02 199.54C87.96 199.54 97.62 199.65 97.62 201.84C97.62 204.03 87.96 204.14 86.02 204.14ZM75.52 201.84C76.28 202.39 80.16 203.11 86.02 203.11C91.88 203.11 95.76 202.39 96.51 201.84C95.76 201.29 91.87 200.58 86.02 200.58C80.17 200.58 76.28 201.29 75.52 201.84Z" fill="#D1D3D4" fill-opacity="1.000000" fill-rule="nonzero"/>
		<path d="M229.61 213.92L229.61 220.43C229.61 222.4 222.21 224 213.03 224C203.84 224 196.44 222.4 196.44 220.43L196.44 213.92L229.61 213.92Z" fill="#FFFFFF" fill-opacity="1.000000" fill-rule="nonzero"/>
		<path d="M213.07 224.52C206.21 224.52 196.01 223.48 196.01 220.43L196.01 213.92C196.01 213.78 196.06 213.65 196.16 213.55C196.26 213.45 196.39 213.4 196.53 213.4L229.61 213.4C229.75 213.4 229.88 213.45 229.98 213.55C230.08 213.65 230.13 213.78 230.13 213.92L230.13 220.43C230.13 223.43 219.93 224.52 213.07 224.52ZM197.04 214.44L197.04 220.43C197.04 221.67 203.26 223.48 213.07 223.48C222.88 223.48 229.1 221.67 229.1 220.43L229.1 214.44L197.04 214.44Z" fill="#000000" fill-opacity="1.000000" fill-rule="nonzero"/>
		<path d="M229.61 213.92C229.61 215.9 222.21 217.5 213.07 217.5C203.93 217.5 196.53 215.9 196.53 213.92C196.53 211.94 203.93 210.33 213.07 210.33C222.21 210.33 229.61 211.94 229.61 213.92Z" fill="#000000" fill-opacity="1.000000" fill-rule="evenodd"/>
		<path d="M213.07 218.01C206.21 218.01 196.01 216.98 196.01 213.92C196.01 210.86 206.21 209.77 213.07 209.77C219.93 209.77 230.13 210.87 230.13 213.92C230.13 216.96 219.93 218.01 213.07 218.01ZM213.07 210.85C203.28 210.85 197.04 212.66 197.04 213.96C197.04 215.25 203.26 217.02 213.07 217.02C222.88 217.02 229.1 215.2 229.1 213.96C229.1 212.71 222.85 210.85 213.07 210.85Z" fill="#000000" fill-opacity="1.000000" fill-rule="nonzero"/>
		<path d="M226.71 205.29L226.71 211.79C226.71 213.77 219.31 215.38 210.13 215.38C200.94 215.38 193.54 213.77 193.54 211.79L193.54 205.29L226.71 205.29Z" fill="#FFFFFF" fill-opacity="1.000000" fill-rule="nonzero"/>
		<path d="M210.19 215.9C203.33 215.9 193.12 214.81 193.12 211.75L193.12 205.25C193.12 205.11 193.17 204.98 193.27 204.89C193.37 204.79 193.5 204.73 193.63 204.73L226.73 204.73C226.87 204.73 227 204.79 227.1 204.89C227.2 204.98 227.25 205.11 227.25 205.25L227.25 211.75C227.23 214.81 217.03 215.9 210.19 215.9ZM194.15 205.81L194.15 211.79C194.15 213.05 200.37 214.9 210.19 214.9C220 214.9 226.21 213.09 226.21 211.79L226.21 205.81L194.15 205.81Z" fill="#000000" fill-opacity="1.000000" fill-rule="nonzero"/>
		<path d="M226.71 205.29C226.71 207.27 219.3 208.88 210.17 208.88C201.03 208.88 193.62 207.27 193.62 205.29C193.62 203.31 201.03 201.71 210.17 201.71C219.3 201.71 226.71 203.31 226.71 205.29Z" fill="#FFFFFF" fill-opacity="1.000000" fill-rule="evenodd"/>
		<path d="M210.19 209.39C203.33 209.39 193.12 208.3 193.12 205.29C193.12 202.29 203.33 201.15 210.19 201.15C217.05 201.15 227.25 202.25 227.25 205.29C227.25 208.34 217.03 209.39 210.19 209.39ZM210.19 202.23C200.4 202.23 194.15 204.04 194.15 205.33C194.15 206.63 200.37 208.39 210.19 208.39C220 208.39 226.21 206.58 226.21 205.33C226.21 204.09 219.95 202.23 210.19 202.23Z" fill="#000000" fill-opacity="1.000000" fill-rule="nonzero"/>
		<path d="M210.19 207.59C208.25 207.59 198.58 207.48 198.58 205.29C198.58 203.11 208.25 202.99 210.19 202.99C212.13 202.99 221.8 203.1 221.8 205.29C221.8 207.49 212.11 207.59 210.19 207.59ZM199.69 205.29C200.44 205.84 204.33 206.56 210.19 206.56C216.04 206.56 219.93 205.84 220.68 205.29C219.93 204.74 216.04 204.03 210.19 204.03C204.33 204.03 200.42 204.74 199.67 205.29L199.69 205.29Z" fill="#D1D3D4" fill-opacity="1.000000" fill-rule="nonzero"/>
		<path d="M76.35 227.59L76.35 234.09C76.35 236.07 68.95 237.67 59.76 237.67C50.58 237.67 43.3 236.05 43.3 234.09L43.3 227.59L76.35 227.59Z" fill="#FFFFFF" fill-opacity="1.000000" fill-rule="nonzero"/>
		<path d="M59.81 238.19C52.94 238.19 42.74 237.09 42.74 234.05L42.74 227.55C42.74 227.41 42.8 227.28 42.9 227.18C42.99 227.08 43.12 227.03 43.26 227.03L76.35 227.03C76.49 227.03 76.62 227.08 76.72 227.18C76.81 227.28 76.87 227.41 76.87 227.55L76.87 234.05C76.87 237.08 66.67 238.19 59.81 238.19ZM43.78 228.11L43.78 234.09C43.78 235.34 50 237.2 59.81 237.2C69.61 237.2 75.83 235.38 75.83 234.09L75.83 228.11L43.78 228.11Z" fill="#000000" fill-opacity="1.000000" fill-rule="nonzero"/>
		<path d="M76.35 227.59C76.35 229.57 68.94 231.18 59.81 231.18C50.67 231.18 43.26 229.57 43.26 227.59C43.26 225.61 50.67 224 59.81 224C68.94 224 76.35 225.61 76.35 227.59Z" fill="#FFFFFF" fill-opacity="1.000000" fill-rule="evenodd"/>
		<path d="M59.81 231.68C52.94 231.68 42.74 230.65 42.74 227.59C42.74 224.53 52.94 223.44 59.81 223.44C66.67 223.44 76.87 224.53 76.87 227.59C76.87 230.65 66.67 231.68 59.81 231.68ZM59.81 224.52C50.02 224.52 43.78 226.34 43.78 227.63C43.78 228.93 50 230.69 59.81 230.69C69.61 230.69 75.83 228.87 75.83 227.63C75.83 226.39 69.59 224.52 59.81 224.52Z" fill="#000000" fill-opacity="1.000000" fill-rule="nonzero"/>
		<path d="M59.81 229.89C57.87 229.89 48.2 229.78 48.2 227.59C48.2 225.4 57.87 225.29 59.81 225.29C61.74 225.29 71.41 225.39 71.41 227.59C71.41 229.79 61.74 229.89 59.81 229.89ZM49.32 227.59C50.06 228.14 53.95 228.85 59.81 228.85C65.66 228.85 69.55 228.14 70.3 227.59C69.55 227.04 65.66 226.33 59.81 226.33C53.95 226.33 50.06 227.04 49.32 227.59Z" fill="#D1D3D4" fill-opacity="1.000000" fill-rule="nonzero"/>
		<path d="M210.34 222.89L210.34 229.4C210.34 231.38 202.93 232.98 193.76 232.98C184.59 232.98 177.17 231.38 177.17 229.4L177.17 222.89L210.34 222.89Z" fill="#FFFFFF" fill-opacity="1.000000" fill-rule="nonzero"/>
		<path d="M193.79 233.5C186.93 233.5 176.73 232.46 176.73 229.4L176.73 222.89C176.73 222.76 176.78 222.62 176.88 222.53C176.98 222.43 177.11 222.38 177.25 222.38L210.34 222.38C210.48 222.38 210.61 222.43 210.71 222.53C210.8 222.63 210.86 222.76 210.86 222.89L210.86 229.4C210.86 232.41 200.65 233.5 193.79 233.5ZM177.77 223.41L177.77 229.4C177.77 230.65 183.98 232.46 193.79 232.46C203.6 232.46 209.83 230.65 209.83 229.4L209.83 223.41L177.77 223.41Z" fill="#000000" fill-opacity="1.000000" fill-rule="nonzero"/>
		<path d="M210.33 222.89C210.33 224.87 202.93 226.48 193.79 226.48C184.65 226.48 177.25 224.87 177.25 222.89C177.25 220.91 184.65 219.31 193.79 219.31C202.93 219.31 210.33 220.91 210.33 222.89Z" fill="#FFFFFF" fill-opacity="1.000000" fill-rule="evenodd"/>
		<path d="M193.79 227C186.93 227 176.73 225.9 176.73 222.85C176.73 219.81 186.93 218.76 193.79 218.76C200.65 218.76 210.86 219.79 210.86 222.85C210.86 225.91 200.65 227 193.79 227ZM193.79 219.84C184.01 219.84 177.77 221.65 177.77 222.89C177.77 224.14 183.98 226 193.79 226C203.6 226 209.83 224.19 209.83 222.89C209.83 221.6 203.58 219.84 193.79 219.84Z" fill="#000000" fill-opacity="1.000000" fill-rule="nonzero"/>
		<path d="M193.79 225.19C191.85 225.19 182.19 225.09 182.19 222.89C182.19 220.7 191.85 220.59 193.79 220.59C195.73 220.59 205.4 220.71 205.4 222.89C205.4 225.08 195.73 225.19 193.79 225.19ZM183.3 222.89C184.05 223.44 187.93 224.16 193.79 224.16C199.65 224.16 203.54 223.44 204.29 222.89C203.53 222.34 199.65 221.63 193.79 221.63C187.93 221.63 184.05 222.34 183.3 222.89Z" fill="#D1D3D4" fill-opacity="1.000000" fill-rule="nonzero"/>
		<path d="M237.06 228.18L237.06 234.69C237.06 236.67 229.64 238.27 220.47 238.27C211.3 238.27 203.89 236.67 203.89 234.69L203.89 228.18L237.06 228.18Z" fill="#FFFFFF" fill-opacity="1.000000" fill-rule="nonzero"/>
		<path d="M220.55 238.78C213.69 238.78 203.48 237.75 203.48 234.69L203.48 228.18C203.48 228.04 203.54 227.91 203.64 227.82C203.73 227.72 203.86 227.66 204 227.66L237.1 227.66C237.23 227.66 237.37 227.72 237.46 227.81C237.56 227.91 237.62 228.04 237.62 228.18L237.62 234.69C237.57 237.7 227.36 238.78 220.55 238.78ZM204.52 228.7L204.52 234.69C204.52 235.93 210.74 237.75 220.55 237.75C230.37 237.75 236.58 235.93 236.58 234.69L236.58 228.7L204.52 228.7Z" fill="#000000" fill-opacity="1.000000" fill-rule="nonzero"/>
		<path d="M237.06 228.18C237.06 230.16 229.65 231.77 220.51 231.77C211.38 231.77 203.97 230.16 203.97 228.18C203.97 226.2 211.38 224.59 220.51 224.59C229.65 224.59 237.06 226.2 237.06 228.18Z" fill="#FFFFFF" fill-opacity="1.000000" fill-rule="evenodd"/>
		<path d="M220.55 232.28C213.69 232.28 203.48 231.19 203.48 228.14C203.48 225.09 213.69 224.04 220.55 224.04C227.42 224.04 237.62 225.08 237.62 228.14C237.62 231.2 227.36 232.28 220.55 232.28ZM220.55 225.12C210.77 225.12 204.52 226.94 204.52 228.18C204.52 229.42 210.74 231.29 220.55 231.29C230.37 231.29 236.58 229.48 236.58 228.18C236.58 226.88 230.29 225.12 220.55 225.12Z" fill="#000000" fill-opacity="1.000000" fill-rule="nonzero"/>
		<path d="M220.55 230.48C218.61 230.48 208.94 230.38 208.94 228.18C208.94 225.98 218.61 225.88 220.55 225.88C222.5 225.88 232.15 225.99 232.15 228.18C232.15 230.37 222.45 230.48 220.55 230.48ZM210.05 228.18C210.8 228.73 214.7 229.44 220.55 229.44C226.41 229.44 230.3 228.73 231.04 228.18C230.3 227.63 226.4 226.92 220.55 226.92C214.71 226.92 210.76 227.63 210.01 228.18L210.05 228.18Z" fill="#D1D3D4" fill-opacity="1.000000" fill-rule="nonzero"/>
	</g>
</svg>
