<svg width="296.000000" height="215.004395" viewBox="0 0 296 215.004" fill="none" xmlns="http://www.w3.org/2000/svg" xmlns:xlink="http://www.w3.org/1999/xlink">
	<desc>
			Created with Pixso.
	</desc>
	<defs/>
	<path id="Vector" d="M114.36 6.23C112.56 1.96 107.25 0.07 102.67 0.78C98.09 1.5 94.09 4.23 90.4 7C83.88 11.87 77.53 17.28 73.43 24.3C69.33 31.32 66.68 38.38 62.27 45.22C56.75 53.73 50.68 62.7 41.3 66.56C34.83 69.22 26.43 69.84 23.19 76.07C19.67 82.88 25.23 91.84 21.67 98.64C19.49 102.76 14.58 104.66 10.77 107.52C3.46 113 0.21 122.67 0.51 131.79C0.82 140.91 4.23 149.64 8.14 157.91C11.33 164.7 14.98 171.46 20.53 176.53C27.32 182.75 36.37 185.88 45.31 188.15C56.01 190.85 67.12 192.53 78.11 191.39C89.1 190.25 100.03 186.07 107.87 178.34C118.36 168.05 122.4 152.75 132.1 141.72C139.08 133.79 148.96 128.27 154.53 119.12C160.72 108.89 165.22 97.73 167.88 86.08C172.64 65.15 166.44 43.45 160.25 22.89C158.99 18.67 157.69 14.33 155.14 10.77C147.88 0.35 132.82 -0.92 120.37 1.6C117.64 2.13 114.4 3.49 114.36 6.23Z" fill="#FFFFFF" fill-opacity="1.000000" fill-rule="nonzero"/>
	<path id="Vector" d="M70.87 192.17C62.17 192.03 53.53 190.81 45.13 188.54C36.82 186.44 27.34 183.41 20.14 176.82C14.48 171.64 10.79 164.73 7.64 158.04C4.05 150.43 0.32 141.27 0.02 131.74C-0.33 121.47 3.57 112.24 10.5 107.07C11.64 106.21 12.89 105.43 14.1 104.69C17.03 102.87 19.82 101.16 21.29 98.32C23 95.04 22.52 91.28 22.01 87.29C21.51 83.31 20.98 79.27 22.81 75.75C25.25 70.99 30.55 69.42 35.69 67.87C37.52 67.32 39.42 66.75 41.13 66.04C50 62.4 55.78 54.31 61.89 44.89C64.24 41.12 66.36 37.21 68.25 33.19C69.73 30.17 71.27 27.05 73.01 24.02C77.26 16.74 84.04 11.12 90.11 6.58C93.83 3.8 97.86 1.02 102.58 0.28C106.63 -0.35 111.78 1.05 114.15 4.8C115.16 2.38 118.61 1.42 120.23 1.1C126.13 -0.1 146.16 -2.95 155.6 10.44C158.21 14.13 159.52 18.47 160.78 22.69C166.64 42.29 173.29 64.54 168.4 86.11C165.72 97.82 161.19 109.02 154.96 119.3C151.59 124.85 146.6 129.12 141.76 133.25C138.47 135.93 135.36 138.85 132.47 141.97C127.99 147.07 124.67 153.2 121.45 159.09C117.72 165.95 113.88 173.02 108.23 178.58C100.85 185.83 90.18 190.51 78.18 191.75C75.75 192.02 73.31 192.16 70.87 192.17ZM104.55 1.12C103.94 1.11 103.34 1.16 102.75 1.26C98.23 1.96 94.31 4.67 90.68 7.38C84.39 12.14 77.99 17.43 73.84 24.5C72.09 27.51 70.56 30.62 69.07 33.62C67.17 37.67 65.03 41.61 62.66 45.41C56.47 54.97 50.59 63.18 41.46 66.93C39.71 67.65 37.8 68.23 35.94 68.83C30.78 70.42 25.89 71.85 23.63 76.22C21.95 79.49 22.42 83.24 22.94 87.22C23.45 91.19 23.97 95.25 22.12 98.79C20.51 101.87 17.49 103.73 14.59 105.54C13.4 106.27 12.16 107.04 11.05 107.87C4.38 112.85 0.65 121.78 0.99 131.74C1.31 141.11 4.99 150.11 8.55 157.68C11.64 164.28 15.28 171.09 20.83 176.16C27.87 182.6 37.2 185.59 45.41 187.65C58.1 190.86 68.46 191.89 78.04 190.89C89.83 189.66 100.31 185.08 107.53 177.98C113.08 172.52 116.89 165.5 120.58 158.72C123.82 152.74 127.18 146.56 131.73 141.38C134.65 138.22 137.78 135.28 141.12 132.56C145.88 128.48 150.82 124.26 154.13 118.84C160.3 108.66 164.8 97.55 167.47 85.94C172.33 64.59 165.72 42.49 159.84 22.99C158.6 18.86 157.33 14.58 154.81 11.02C145.72 -1.87 126.19 0.9 120.43 2.07C118.76 2.4 114.88 3.47 114.84 6.23C114.84 6.34 114.8 6.45 114.73 6.53C114.66 6.62 114.56 6.68 114.45 6.7C114.34 6.72 114.23 6.7 114.14 6.65C114.04 6.6 113.97 6.51 113.93 6.41C112.4 2.8 108.27 1.12 104.55 1.12Z" fill="#000000" fill-opacity="1.000000" fill-rule="nonzero"/>
	<path id="Vector" d="M176.54 104.23C209.67 123.93 243.93 214.57 243.93 214.57L85.05 214.57C85.05 214.57 33.78 124.53 56.51 104.53C71.64 91.29 162.54 95.91 176.54 104.23Z" fill="#F1D767" fill-opacity="1.000000" fill-rule="nonzero"/>
	<path id="Vector" d="M165.6 215C165.5 215 165.41 214.97 165.33 214.92C165.25 214.86 165.2 214.79 165.16 214.7L153.38 185.21C153.36 185.15 153.35 185.09 153.35 185.03C153.35 184.96 153.36 184.9 153.39 184.84C153.41 184.79 153.45 184.73 153.49 184.69C153.54 184.65 153.59 184.61 153.65 184.59C153.71 184.57 153.77 184.56 153.83 184.56C153.89 184.56 153.95 184.57 154.01 184.6C154.07 184.62 154.12 184.66 154.16 184.7C154.2 184.75 154.24 184.8 154.26 184.86L166.04 214.34C166.06 214.4 166.08 214.46 166.08 214.53C166.08 214.59 166.07 214.65 166.04 214.71C166.02 214.77 165.98 214.82 165.94 214.86C165.89 214.9 165.84 214.94 165.78 214.96C165.72 214.98 165.66 215 165.6 215Z" fill="#000000" fill-opacity="1.000000" fill-rule="nonzero"/>
	<path id="Vector" d="M213.36 215C213.27 215 213.19 214.98 213.12 214.93C213.04 214.89 212.98 214.83 212.94 214.75C212.4 213.8 209.49 208.25 205.47 200.59C193.02 176.89 167.13 127.57 165.33 125.99C165.28 125.96 165.23 125.92 165.19 125.87C165.16 125.83 165.13 125.77 165.11 125.72C165.09 125.66 165.09 125.6 165.1 125.54C165.1 125.48 165.12 125.42 165.15 125.37C165.22 125.26 165.32 125.17 165.45 125.14C165.57 125.1 165.7 125.11 165.82 125.17C166.93 125.73 177.9 146.05 206.31 200.14C210.33 207.75 213.23 213.34 213.77 214.3C213.8 214.35 213.82 214.41 213.82 214.47C213.83 214.53 213.83 214.59 213.81 214.65C213.79 214.71 213.77 214.77 213.73 214.82C213.69 214.86 213.64 214.9 213.59 214.93C213.52 214.98 213.44 215 213.36 215Z" fill="#000000" fill-opacity="1.000000" fill-rule="nonzero"/>
	<path id="Vector" d="M136.78 107.9L153.82 185.06C153.82 185.06 100.65 117.63 97.17 97.5C108.65 85.81 136.78 107.9 136.78 107.9Z" fill="#000000" fill-opacity="1.000000" fill-rule="nonzero"/>
	<path id="Vector" d="M153.82 185.51C153.75 185.51 153.68 185.5 153.61 185.46C153.55 185.43 153.49 185.39 153.45 185.33C153.32 185.16 139.99 168.21 126.41 149.08C108.16 123.31 98.16 105.97 96.7 97.57C96.69 97.49 96.69 97.41 96.72 97.34C96.74 97.27 96.78 97.2 96.83 97.15C101.68 92.21 110.17 92.46 121.48 97.87C126.98 100.58 132.2 103.81 137.08 107.52C137.16 107.58 137.22 107.68 137.25 107.78L154.29 184.94C154.31 185.05 154.3 185.16 154.25 185.26C154.2 185.35 154.12 185.43 154.02 185.47C153.96 185.5 153.89 185.51 153.82 185.51ZM97.69 97.64C101.15 115.94 144.8 172.68 152.91 183.1L136.35 108.14C134.26 106.56 108.45 87.19 97.69 97.66L97.69 97.64Z" fill="#000000" fill-opacity="1.000000" fill-rule="nonzero"/>
	<path id="Vector" d="M137.74 85.64L136.79 107.88C136.79 107.88 128.53 120.72 114.68 115.64C110.59 114.1 106.9 111.67 103.88 108.53C100.85 105.39 98.56 101.61 97.18 97.48L101.99 57.36C101.99 57.36 113.7 47.1 113.21 23.81C124.76 30.17 137.75 33.49 150.94 33.46C150.94 33.46 152.77 64.71 149.79 75.53C146.81 86.34 137.74 85.64 137.74 85.64Z" fill="#FFFFFF" fill-opacity="1.000000" fill-rule="nonzero"/>
	<path id="Vector" d="M121.02 117.31C118.79 117.3 116.58 116.89 114.5 116.1C100.57 111 96.75 97.76 96.71 97.62C96.7 97.56 96.7 97.5 96.71 97.44L101.53 57.32C101.54 57.21 101.59 57.1 101.68 57.03C101.78 56.92 113.18 46.64 112.74 23.81C112.74 23.73 112.76 23.64 112.81 23.57C112.85 23.5 112.91 23.43 112.98 23.39C113.06 23.35 113.14 23.32 113.23 23.32C113.31 23.32 113.39 23.35 113.47 23.39C124.96 29.67 137.84 32.96 150.94 32.96C151 32.96 151.07 32.96 151.13 32.98C151.18 33 151.24 33.04 151.28 33.08C151.33 33.12 151.37 33.17 151.39 33.23C151.42 33.28 151.43 33.35 151.43 33.41C151.5 34.68 153.24 64.84 150.26 75.61C147.6 85.22 140.19 86.08 138.21 86.08L137.26 107.86C137.25 107.94 137.23 108.03 137.18 108.1C137.11 108.27 131.15 117.31 121.02 117.31ZM97.66 97.46C98.01 98.59 101.96 110.49 114.81 115.21C127.51 119.87 135.47 108.93 136.29 107.74L137.25 85.63C137.26 85.5 137.31 85.38 137.41 85.3C137.46 85.25 137.51 85.22 137.57 85.2C137.63 85.18 137.7 85.18 137.76 85.18C138.11 85.18 146.46 85.69 149.31 75.4C152.06 65.48 150.69 37.83 150.48 33.95L150.14 33.95C137.42 33.8 124.93 30.62 113.7 24.66C113.78 36.34 110.77 44.63 108.19 49.55C106.73 52.52 104.79 55.24 102.47 57.61L97.66 97.46Z" fill="#000000" fill-opacity="1.000000" fill-rule="nonzero"/>
	<path id="Vector" d="M107.4 57.04C107.13 55.03 106.22 53.16 104.81 51.71C103.44 50.42 101.84 49.38 100.11 48.63C99.21 48.11 98.2 47.8 97.16 47.73C96.43 47.76 95.71 47.94 95.05 48.24C93.44 48.83 92.09 49.96 91.23 51.44C90.69 52.72 90.46 54.1 90.58 55.48C90.58 56.99 90.78 58.49 91.18 59.94C91.6 61.38 92.31 62.73 93.26 63.89C94.22 65.06 95.39 66.03 96.72 66.74C98.05 67.44 99.51 67.88 101.02 68.02C102.52 68.16 104.03 68 105.47 67.55L107.4 57.04Z" fill="#FFFFFF" fill-opacity="1.000000" fill-rule="nonzero"/>
	<path id="Vector" d="M102.04 68.52C99.49 68.53 97 67.71 94.95 66.18C92.9 64.66 91.4 62.52 90.68 60.07C90.27 58.58 90.06 57.04 90.06 55.49C89.95 54.04 90.19 52.58 90.77 51.23C91.67 49.63 93.13 48.41 94.86 47.8C95.59 47.48 96.37 47.29 97.16 47.26C98.27 47.32 99.35 47.65 100.32 48.21C102.09 48.99 103.71 50.06 105.12 51.39C106.61 52.92 107.56 54.88 107.84 57C107.85 57.12 107.82 57.25 107.74 57.35C107.66 57.45 107.55 57.52 107.42 57.54C107.29 57.55 107.17 57.52 107.07 57.44C106.96 57.36 106.9 57.25 106.88 57.12C106.64 55.21 105.78 53.43 104.43 52.05C103.09 50.81 101.54 49.8 99.86 49.07C99.02 48.59 98.09 48.3 97.13 48.23C96.47 48.26 95.83 48.42 95.23 48.69C93.72 49.24 92.44 50.29 91.62 51.67C91.12 52.87 90.91 54.18 91.01 55.48C91.01 56.94 91.21 58.39 91.6 59.8C92 61.18 92.68 62.47 93.59 63.58C94.5 64.7 95.63 65.62 96.9 66.3C98.17 66.98 99.57 67.39 101 67.53C102.44 67.66 103.89 67.51 105.26 67.08C105.32 67.06 105.39 67.06 105.46 67.06C105.52 67.07 105.58 67.09 105.64 67.12C105.7 67.15 105.75 67.19 105.79 67.24C105.83 67.29 105.86 67.35 105.88 67.41C105.9 67.48 105.91 67.54 105.9 67.61C105.89 67.67 105.87 67.73 105.84 67.79C105.81 67.85 105.77 67.9 105.72 67.94C105.67 67.98 105.61 68.01 105.55 68.03C104.41 68.37 103.23 68.53 102.04 68.52Z" fill="#000000" fill-opacity="1.000000" fill-rule="nonzero"/>
	<path id="Vector" d="M134.66 65.2C133.24 65.15 131.83 64.91 130.47 64.46C130.41 64.44 130.36 64.41 130.31 64.37C130.26 64.33 130.22 64.28 130.2 64.22C130.17 64.16 130.15 64.1 130.15 64.04C130.14 63.98 130.15 63.91 130.17 63.86C130.2 63.8 130.23 63.74 130.27 63.69C130.31 63.65 130.36 63.61 130.42 63.58C130.48 63.55 130.54 63.54 130.6 63.54C130.66 63.53 130.73 63.54 130.78 63.56C132.07 64 135.71 64.86 137.12 63.56C138.15 62.61 135.46 56.08 132.36 50.58C132.3 50.47 132.28 50.34 132.31 50.22C132.35 50.1 132.43 49.99 132.54 49.93C132.65 49.87 132.78 49.86 132.9 49.89C133.02 49.93 133.12 50.01 133.19 50.12C134.78 52.97 139.81 62.35 137.76 64.26C136.88 64.94 135.78 65.28 134.66 65.2Z" fill="#000000" fill-opacity="1.000000" fill-rule="nonzero"/>
	<path id="Vector" d="M117.76 170.13C117.68 170.13 117.6 170.12 117.54 170.08C117.47 170.05 117.41 170 117.37 169.93C117.22 169.72 102.12 148.86 84.66 122.47C84.59 122.36 84.56 122.24 84.59 122.11C84.61 121.99 84.69 121.88 84.79 121.81C84.9 121.75 85.02 121.72 85.15 121.75C85.27 121.77 85.38 121.84 85.45 121.95C102.94 148.33 117.99 169.17 118.14 169.38C118.21 169.48 118.24 169.61 118.22 169.73C118.2 169.85 118.13 169.96 118.03 170.04C117.95 170.1 117.86 170.13 117.76 170.13Z" fill="#000000" fill-opacity="1.000000" fill-rule="nonzero"/>
	<path id="Vector" d="M132.22 77.59C131.44 77.59 130.65 77.49 129.89 77.3C120.68 75.1 120.76 63.91 120.76 63.8C120.76 63.67 120.81 63.55 120.9 63.46C120.99 63.38 121.11 63.33 121.24 63.32C121.3 63.32 121.36 63.34 121.42 63.36C121.47 63.39 121.53 63.42 121.57 63.47C121.61 63.51 121.65 63.57 121.67 63.62C121.69 63.68 121.7 63.75 121.7 63.81C121.7 63.91 121.65 74.35 130.11 76.37C131.08 76.65 132.1 76.72 133.1 76.58C134.11 76.44 135.07 76.1 135.93 75.57C139.61 73.25 140.78 67.87 140.8 67.81C140.81 67.75 140.84 67.69 140.87 67.64C140.91 67.59 140.95 67.54 141 67.51C141.06 67.48 141.12 67.45 141.18 67.44C141.24 67.43 141.3 67.43 141.36 67.44C141.42 67.45 141.48 67.48 141.53 67.51C141.59 67.55 141.63 67.59 141.66 67.65C141.7 67.7 141.72 67.76 141.73 67.82C141.74 67.88 141.74 67.94 141.73 68C141.73 68.24 140.47 73.83 136.45 76.37C135.19 77.18 133.72 77.6 132.22 77.59Z" fill="#000000" fill-opacity="1.000000" fill-rule="nonzero"/>
	<path id="Vector" d="M137.74 85.64C137.74 85.64 123.92 85.92 115.52 75.03C115.52 75.03 119.81 97.18 137.16 98.95L137.74 85.64Z" fill="#000000" fill-opacity="1.000000" fill-rule="nonzero"/>
	<path id="Vector" d="M137.16 99.45L137.11 99.45C119.61 97.65 115.09 75.37 115.05 75.14C115.03 75.03 115.04 74.92 115.09 74.82C115.14 74.73 115.22 74.65 115.32 74.61C115.42 74.56 115.53 74.55 115.63 74.58C115.74 74.61 115.83 74.68 115.89 74.77C124.05 85.32 137.59 85.17 137.73 85.23C137.8 85.23 137.86 85.24 137.92 85.26C137.98 85.29 138.04 85.33 138.09 85.37C138.13 85.42 138.17 85.47 138.19 85.53C138.21 85.59 138.22 85.66 138.22 85.72L137.64 99.04C137.63 99.11 137.62 99.17 137.59 99.23C137.56 99.29 137.52 99.34 137.47 99.38C137.38 99.44 137.27 99.46 137.16 99.45ZM116.48 76.93C118 82.28 123.32 96.73 136.7 98.45L137.25 86.08C134.81 86.04 124.03 85.22 116.48 76.93Z" fill="#000000" fill-opacity="1.000000" fill-rule="nonzero"/>
	<path id="Vector" d="M98.96 207.39C98.85 207.39 98.74 207.35 98.66 207.28C98.43 207.08 75.63 187.18 60.74 158.5C60.71 158.44 60.69 158.38 60.68 158.32C60.68 158.26 60.69 158.2 60.71 158.14C60.73 158.08 60.76 158.03 60.8 157.98C60.84 157.93 60.88 157.89 60.94 157.87C61 157.84 61.06 157.82 61.12 157.82C61.18 157.81 61.24 157.82 61.3 157.84C61.36 157.86 61.41 157.89 61.46 157.93C61.51 157.97 61.55 158.02 61.57 158.07C76.38 186.61 99.05 206.36 99.28 206.58C99.32 206.62 99.36 206.68 99.38 206.73C99.4 206.79 99.42 206.85 99.42 206.91C99.42 206.98 99.4 207.04 99.38 207.1C99.36 207.15 99.32 207.2 99.28 207.25C99.19 207.33 99.08 207.38 98.96 207.39Z" fill="#000000" fill-opacity="1.000000" fill-rule="nonzero"/>
	<path id="Vector" d="M125.33 41.72C125.33 43.64 124.58 45.2 123.66 45.2C122.73 45.2 121.98 43.64 121.98 41.72C121.98 39.8 122.73 38.24 123.66 38.24C124.58 38.24 125.33 39.8 125.33 41.72Z" fill="#000000" fill-opacity="1.000000" fill-rule="evenodd"/>
	<path id="Vector" d="M142.63 41.43C143.56 41.46 144.24 43.05 144.17 44.98C144.09 46.9 143.28 48.43 142.35 48.39C141.42 48.35 140.74 46.76 140.81 44.84C140.89 42.92 141.7 41.39 142.63 41.43Z" fill="#000000" fill-opacity="1.000000" fill-rule="evenodd"/>
	<path id="Vector" d="M95.08 183.69C105.99 171.91 180.86 137.08 187.7 131.64C194.54 126.2 194.58 121.95 203.63 119.43C212.67 116.91 227.08 111.99 228.49 113.54C229.9 115.09 228.95 119.06 226.78 120.91C224.6 122.75 218.94 124.12 216.91 126.02C216.91 126.02 228.67 128.13 232.47 126.17C236.26 124.21 242.74 119.09 246.08 118.56C248.19 118.28 250.34 118.63 252.26 119.57C252.26 119.57 256.51 116.64 258.03 118.86C259.04 120.34 258.24 122.08 257 123.12C259.81 122.24 257.86 125.84 257.3 126.84C242.7 153.29 208.46 147.36 203.3 147.64C203.3 147.64 186.92 161.97 183.37 165.36C174.52 173.79 165.49 182.03 156.08 189.83C145.8 198.39 134.47 208.05 121.68 212.56C95.25 221.93 84.15 195.47 95.08 183.69Z" fill="#FFFFFF" fill-opacity="1.000000" fill-rule="nonzero"/>
	<path id="Vector" d="M111.11 215C103.82 215 97.7 211.95 93.83 206.11C88.97 198.74 89.36 189.18 94.79 183.37C101.82 175.76 135.38 158.59 159.88 146.06C173.39 139.16 185.04 133.2 187.45 131.27C189.37 129.7 191.14 127.95 192.74 126.06C195.42 123.04 197.51 120.65 203.55 118.98C205.7 118.38 208.11 117.66 210.65 116.89C222.18 113.44 227.74 111.95 228.89 113.21C229.21 113.61 229.44 114.07 229.57 114.56C229.7 115.05 229.73 115.56 229.66 116.07C229.51 118.06 228.61 119.92 227.14 121.28C225.61 122.35 223.94 123.2 222.18 123.83C220.79 124.36 219.44 125 218.14 125.73C221.13 126.2 229.35 127.28 232.3 125.73C233.62 125.05 235.29 123.96 237.06 122.82C240.38 120.67 243.81 118.44 246.06 118.06C248.18 117.78 250.34 118.11 252.28 119.02C253.01 118.56 255.24 117.28 256.95 117.61C257.26 117.66 257.55 117.77 257.81 117.93C258.08 118.09 258.31 118.31 258.49 118.56C258.87 119.16 259.05 119.88 259 120.59C258.96 121.31 258.68 121.99 258.22 122.54C258.43 122.58 258.62 122.71 258.75 122.88C259.3 123.54 259 124.83 257.8 127.04C244.91 150.38 217.11 148.8 206.65 148.21C205.3 148.13 204.22 148.07 203.57 148.09C202.04 149.43 187.11 162.48 183.77 165.67C173.82 175.18 164.89 183.18 156.46 190.17L155.14 191.27C145.34 199.4 134.24 208.63 121.91 212.98C118.46 214.27 114.8 214.95 111.11 215ZM227.33 113.67C224.68 113.67 216.53 116.11 210.88 117.81C208.33 118.57 205.91 119.29 203.75 119.89C198.03 121.49 195.98 123.79 193.41 126.69C191.77 128.63 189.96 130.41 188 132.01C185.51 134 174.38 139.69 160.27 146.9C135.83 159.41 102.36 176.53 95.46 184C90.38 189.51 90.04 198.57 94.66 205.57C100.05 213.73 110.1 216.17 121.55 212.12C133.71 207.82 144.75 198.65 154.48 190.56L155.8 189.47C164.21 182.5 173.12 174.5 183.06 165.02C186.59 161.66 202.86 147.44 203.02 147.29C203.1 147.22 203.2 147.18 203.3 147.17C203.99 147.17 205.1 147.17 206.65 147.28C216.96 147.87 244.32 149.42 256.91 126.61C258.35 124.01 258 123.52 257.99 123.51C257.98 123.49 257.74 123.39 257.17 123.57C257.06 123.64 256.92 123.66 256.8 123.63C256.67 123.6 256.56 123.52 256.49 123.41C256.43 123.3 256.4 123.17 256.43 123.04C256.46 122.91 256.54 122.8 256.66 122.73C257.74 121.83 258.45 120.36 257.61 119.11C257.5 118.95 257.36 118.81 257.2 118.71C257.03 118.61 256.85 118.55 256.66 118.52C255.29 118.26 253.18 119.47 252.47 119.94C252.4 119.98 252.31 120.01 252.22 120.01C252.14 120.01 252.05 119.98 251.98 119.94C250.15 119.05 248.11 118.72 246.1 118.99C244.05 119.31 240.55 121.57 237.47 123.58C235.69 124.74 234 125.84 232.63 126.54C228.99 128.44 218.75 126.78 217.01 126.47L216.28 127.15C216.26 127.22 216.21 127.29 216.15 127.34C216.09 127.4 216.02 127.43 215.94 127.45C215.86 127.47 215.78 127.47 215.7 127.44C215.63 127.42 215.56 127.38 215.5 127.32C215.44 127.27 215.4 127.2 215.38 127.12C215.36 127.04 215.35 126.96 215.37 126.88C215.39 126.81 215.42 126.73 215.48 126.67C215.53 126.61 215.6 126.57 215.67 126.54L216.57 125.7C218.15 124.54 219.89 123.62 221.74 122.97C223.41 122.39 224.99 121.58 226.45 120.58C227.74 119.4 228.52 117.77 228.65 116.03C228.76 115.27 228.57 114.51 228.12 113.89C227.89 113.73 227.61 113.65 227.33 113.67Z" fill="#000000" fill-opacity="1.000000" fill-rule="nonzero"/>
	<path id="Vector" d="M252.26 119.58C252.26 119.58 246.74 126.62 235.6 131.66L252.26 119.58Z" fill="#FFFFFF" fill-opacity="1.000000" fill-rule="nonzero"/>
	<path id="Vector" d="M235.6 132.13C235.51 132.13 235.42 132.1 235.34 132.06C235.27 132.01 235.2 131.94 235.16 131.86C235.11 131.74 235.11 131.61 235.15 131.49C235.2 131.38 235.29 131.28 235.4 131.23C246.3 126.29 251.82 119.35 251.88 119.28C251.96 119.18 252.07 119.12 252.2 119.1C252.32 119.09 252.45 119.12 252.55 119.2C252.65 119.27 252.71 119.39 252.73 119.52C252.75 119.64 252.71 119.77 252.63 119.87C252.58 119.94 246.92 127.06 235.79 132.09C235.73 132.12 235.67 132.13 235.6 132.13Z" fill="#000000" fill-opacity="1.000000" fill-rule="nonzero"/>
	<path id="Vector" d="M257 123.12C257 123.12 247.18 135.73 240.15 136.83L257 123.12Z" fill="#FFFFFF" fill-opacity="1.000000" fill-rule="nonzero"/>
	<path id="Vector" d="M240.15 137.31C240.09 137.31 240.02 137.3 239.96 137.28C239.9 137.27 239.85 137.23 239.8 137.19C239.75 137.15 239.71 137.1 239.68 137.05C239.66 136.99 239.64 136.93 239.63 136.87C239.63 136.81 239.64 136.74 239.66 136.68C239.67 136.62 239.71 136.57 239.75 136.52C239.79 136.47 239.84 136.43 239.89 136.41C239.95 136.38 240.01 136.36 240.07 136.36C246.84 135.29 256.52 122.95 256.62 122.82C256.7 122.72 256.81 122.66 256.94 122.65C257.07 122.63 257.19 122.67 257.29 122.74C257.39 122.82 257.46 122.94 257.47 123.06C257.48 123.19 257.45 123.31 257.37 123.41C256.97 123.93 247.35 136.17 240.22 137.3L240.15 137.31Z" fill="#000000" fill-opacity="1.000000" fill-rule="nonzero"/>
	<path id="Vector" d="M176.39 172.41C176.29 172.42 176.19 172.38 176.11 172.33C176.03 172.27 175.97 172.19 175.94 172.09C175.87 171.92 169.69 154.79 156.5 148.64C156.44 148.61 156.39 148.57 156.35 148.52C156.3 148.48 156.27 148.42 156.25 148.36C156.23 148.31 156.22 148.24 156.22 148.18C156.23 148.12 156.24 148.05 156.27 148C156.32 147.89 156.42 147.8 156.54 147.75C156.66 147.71 156.78 147.72 156.9 147.77C170.46 154.1 176.78 171.61 176.84 171.78C176.88 171.9 176.87 172.03 176.82 172.14C176.77 172.26 176.67 172.34 176.55 172.39L176.39 172.41Z" fill="#000000" fill-opacity="1.000000" fill-rule="nonzero"/>
	<path id="Vector" d="M122.85 50.69C122.53 50.69 122.21 50.67 121.89 50.63L114.65 49.8C113.55 49.67 112.49 49.33 111.53 48.8C110.57 48.26 109.72 47.54 109.03 46.68C108.35 45.82 107.84 44.83 107.54 43.77C107.24 42.71 107.15 41.61 107.27 40.51L107.76 36.29C107.85 35.48 108.26 34.74 108.9 34.24C109.55 33.73 110.36 33.5 111.17 33.59L128.95 35.64C129.75 35.74 130.49 36.15 130.99 36.78C131.5 37.42 131.74 38.22 131.65 39.03L131.17 43.26C130.93 45.3 129.95 47.18 128.42 48.55C126.89 49.91 124.9 50.67 122.85 50.67L122.85 50.69ZM110.76 34.59C110.26 34.59 109.78 34.78 109.4 35.11C109.03 35.45 108.78 35.91 108.72 36.4L108.24 40.64C108.12 41.6 108.2 42.57 108.47 43.5C108.73 44.43 109.18 45.3 109.78 46.05C110.38 46.81 111.13 47.44 111.98 47.91C112.82 48.38 113.75 48.68 114.72 48.79L121.98 49.63C122.94 49.74 123.92 49.66 124.85 49.39C125.78 49.13 126.65 48.68 127.41 48.08C128.17 47.48 128.8 46.74 129.27 45.89C129.74 45.05 130.04 44.12 130.15 43.16L130.64 38.93C130.7 38.39 130.54 37.85 130.21 37.43C129.87 37 129.37 36.73 128.83 36.66L111.01 34.61L110.76 34.59Z" fill="#000000" fill-opacity="1.000000" fill-rule="nonzero"/>
	<path id="Vector" d="M146.5 53.51C146.18 53.51 145.86 53.49 145.55 53.45L138.28 52.61C137.18 52.49 136.12 52.15 135.16 51.61C134.2 51.08 133.35 50.36 132.67 49.49C131.98 48.63 131.47 47.64 131.17 46.59C130.87 45.53 130.78 44.42 130.91 43.33L131.39 39.11C131.44 38.7 131.57 38.32 131.76 37.96C131.96 37.61 132.22 37.3 132.54 37.05C132.86 36.8 133.22 36.61 133.61 36.5C134 36.39 134.41 36.36 134.81 36.4L152.63 38.46C153.44 38.56 154.17 38.97 154.68 39.6C154.93 39.92 155.12 40.28 155.23 40.67C155.34 41.06 155.37 41.46 155.33 41.86L154.83 46.09C154.59 48.13 153.62 50.01 152.08 51.38C150.54 52.75 148.56 53.5 146.5 53.51ZM145.65 52.44C147.6 52.66 149.55 52.11 151.08 50.89C152.61 49.68 153.6 47.91 153.82 45.97L154.31 41.75C154.34 41.48 154.32 41.21 154.24 40.95C154.17 40.69 154.05 40.45 153.88 40.24C153.71 40.03 153.5 39.85 153.27 39.72C153.03 39.59 152.77 39.51 152.5 39.48L134.66 37.42C134.4 37.39 134.13 37.41 133.87 37.48C133.61 37.56 133.37 37.68 133.16 37.85C132.95 38.02 132.77 38.22 132.63 38.46C132.5 38.69 132.42 38.95 132.39 39.22L131.9 43.45C131.79 44.41 131.87 45.39 132.13 46.31C132.4 47.24 132.85 48.11 133.45 48.87C134.05 49.63 134.79 50.26 135.64 50.73C136.49 51.2 137.42 51.49 138.38 51.6L145.65 52.44Z" fill="#000000" fill-opacity="1.000000" fill-rule="nonzero"/>
	<path id="Vector" d="M224.4 84.36C217.29 83.22 217.42 82.18 216.72 78.13C215.45 70.85 211.81 64.82 208 58.63C193.87 35.71 204.89 5.13 235.35 4.56C256.01 4.17 271.07 17.47 271.36 37.52C271.53 47.21 267.85 56.57 261.13 63.56C256.53 68.51 252.55 73.63 250.44 80.12C249.06 84.31 248.97 86.89 241.42 85.68C238.68 85.24 235.89 85.23 233.11 85.02C230.34 84.81 227.28 84.83 224.4 84.36Z" fill="#FFFFFF" fill-opacity="1.000000" fill-rule="nonzero"/>
	<path id="Vector" d="M244.59 86.32C243.51 86.31 242.43 86.21 241.36 86.03C239.5 85.76 237.62 85.6 235.75 85.53C234.86 85.53 233.97 85.44 233.1 85.37C232.22 85.3 231.12 85.25 230.13 85.2C228.2 85.15 226.26 84.98 224.35 84.71C217.55 83.62 217.13 82.64 216.46 78.67L216.37 78.19C215.09 70.82 211.34 64.71 207.7 58.81C200.27 46.76 199.51 32.18 205.72 20.88C211.44 10.42 221.99 4.45 235.34 4.21C245.9 4 255.36 7.41 261.96 13.79C268.21 19.82 271.58 28.06 271.71 37.51C271.85 47.27 268.16 56.69 261.42 63.76C257.45 68.04 253.07 73.35 250.81 80.2L250.49 81.21C249.53 84.2 248.85 86.32 244.59 86.32ZM236.22 4.9L235.36 4.9C222.28 5.15 211.97 10.94 206.34 21.2C200.25 32.37 201 46.64 208.3 58.45C211.97 64.4 215.76 70.56 217.07 78.07L217.15 78.56C217.75 82.12 217.89 82.96 224.46 84.02C226.36 84.28 228.27 84.44 230.18 84.5C231.13 84.5 232.16 84.59 233.15 84.67C234.14 84.74 234.91 84.78 235.79 84.83C237.71 84.89 239.62 85.06 241.51 85.33C248.13 86.4 248.7 84.61 249.81 81.03C249.92 80.71 250.02 80.37 250.15 80.02C252.44 73.03 256.87 67.65 260.91 63.32C264.21 59.9 266.81 55.86 268.55 51.43C270.29 47 271.14 42.27 271.05 37.52C270.91 28.22 267.62 20.2 261.51 14.3C255.18 8.22 246.24 4.9 236.22 4.9Z" fill="#000000" fill-opacity="1.000000" fill-rule="nonzero"/>
	<path id="Vector" d="M245.39 94.45L219.66 92.46C218.59 92.38 217.79 91.45 217.87 90.38L218.23 85.86C218.31 84.79 219.24 83.99 220.31 84.07L246.05 86.06C247.12 86.14 247.92 87.08 247.83 88.15L247.48 92.67C247.4 93.74 246.47 94.54 245.39 94.45Z" fill="#FFFFFF" fill-opacity="1.000000" fill-rule="evenodd"/>
	<path id="Vector" d="M245.54 94.81L245.36 94.81L219.63 92.82C219.33 92.8 219.04 92.71 218.77 92.58C218.5 92.44 218.26 92.25 218.06 92.02C217.87 91.8 217.72 91.53 217.63 91.24C217.53 90.96 217.5 90.66 217.52 90.36L217.88 85.84C217.89 85.54 217.97 85.24 218.11 84.97C218.25 84.7 218.43 84.46 218.67 84.27C218.9 84.07 219.16 83.92 219.45 83.83C219.74 83.74 220.04 83.7 220.34 83.73L246.08 85.71C246.68 85.76 247.25 86.05 247.64 86.51C248.04 86.97 248.24 87.57 248.19 88.18L247.84 92.71C247.79 93.28 247.53 93.81 247.1 94.2C246.68 94.59 246.12 94.81 245.54 94.81ZM220.16 84.41C219.76 84.41 219.37 84.56 219.08 84.83C218.78 85.1 218.6 85.48 218.57 85.88L218.22 90.4C218.19 90.82 218.33 91.24 218.6 91.56C218.88 91.87 219.27 92.07 219.69 92.11L245.42 94.1C245.84 94.13 246.26 94 246.58 93.72C246.9 93.45 247.09 93.06 247.12 92.64L247.48 88.11C247.51 87.69 247.37 87.28 247.1 86.96C246.82 86.64 246.43 86.44 246.01 86.41L220.28 84.42L220.16 84.41Z" fill="#000000" fill-opacity="1.000000" fill-rule="nonzero"/>
	<path id="Vector" d="M244.31 101.74L218.5 99.68C217.43 99.59 216.63 98.65 216.71 97.58L217.08 93.04C217.16 91.97 218.1 91.17 219.18 91.26L244.99 93.32C246.06 93.41 246.86 94.34 246.77 95.41L246.41 99.95C246.32 101.02 245.38 101.82 244.31 101.74Z" fill="#FFFFFF" fill-opacity="1.000000" fill-rule="evenodd"/>
	<path id="Vector" d="M244.89 103.21L244.7 103.21L218.97 101.22C218.37 101.17 217.8 100.88 217.41 100.42C217.01 99.96 216.81 99.36 216.86 98.75L217.21 94.23C217.26 93.62 217.55 93.06 218.01 92.67C218.47 92.27 219.07 92.07 219.68 92.11L245.41 94.11C245.71 94.14 246 94.22 246.27 94.35C246.54 94.49 246.78 94.68 246.98 94.91C247.17 95.14 247.32 95.4 247.41 95.69C247.51 95.97 247.54 96.28 247.52 96.58L247.16 101.09C247.14 101.4 247.06 101.69 246.92 101.96C246.79 102.23 246.6 102.47 246.37 102.66C245.96 103.01 245.43 103.21 244.89 103.21ZM219.49 92.81C219.09 92.81 218.7 92.96 218.41 93.23C218.12 93.5 217.94 93.88 217.9 94.27L217.55 98.79C217.52 99.21 217.66 99.63 217.93 99.95C218.07 100.11 218.23 100.24 218.42 100.34C218.61 100.43 218.81 100.49 219.02 100.5L244.75 102.49C245.17 102.52 245.59 102.39 245.91 102.11C246.23 101.84 246.43 101.45 246.47 101.03L246.82 96.51C246.85 96.09 246.71 95.67 246.44 95.35C246.16 95.03 245.77 94.83 245.35 94.8L219.62 92.81L219.49 92.81Z" fill="#000000" fill-opacity="1.000000" fill-rule="nonzero"/>
	<path id="Vector" d="M220.44 100.96C220.19 104.13 225.14 107.09 231.48 107.62C237.81 108.15 243.1 105.9 243.31 102.76L220.44 100.96Z" fill="#000000" fill-opacity="1.000000" fill-rule="nonzero"/>
	<path id="Vector" d="M233.21 108C232.62 108 232.01 108 231.4 107.93C228.56 107.77 225.79 106.98 223.3 105.61C221.09 104.29 219.95 102.65 220.08 100.97C220.09 100.88 220.13 100.8 220.2 100.74C220.28 100.68 220.37 100.64 220.46 100.65L243.42 102.43C243.46 102.43 243.51 102.44 243.55 102.46C243.59 102.48 243.63 102.51 243.66 102.54C243.69 102.58 243.71 102.62 243.73 102.66C243.74 102.71 243.75 102.75 243.74 102.8C243.61 104.47 242.23 105.93 239.84 106.89C237.72 107.68 235.47 108.05 233.21 108ZM220.74 101.34C220.81 102.62 221.82 103.89 223.6 104.98C226.03 106.25 228.7 107.02 231.43 107.23C234.17 107.44 236.92 107.09 239.52 106.2C241.43 105.41 242.66 104.3 242.93 103.05L220.74 101.34Z" fill="#000000" fill-opacity="1.000000" fill-rule="nonzero"/>
	<path id="Vector" d="M225.4 24.97C225.4 27.33 223.48 29.24 221.12 29.24C218.75 29.24 216.84 27.33 216.84 24.97C216.84 22.61 218.75 20.7 221.12 20.7C223.48 20.7 225.4 22.61 225.4 24.97Z" fill="#D1D3D4" fill-opacity="1.000000" fill-rule="evenodd"/>
	<path id="Vector" d="M241.51 31.75C241.51 34.11 239.6 36.02 237.23 36.02C234.87 36.02 232.95 34.11 232.95 31.75C232.95 29.39 234.87 27.48 237.23 27.48C239.6 27.48 241.51 29.39 241.51 31.75Z" fill="#D1D3D4" fill-opacity="1.000000" fill-rule="evenodd"/>
	<path id="Vector" d="M231.28 42.23C231.28 44.59 229.36 46.51 227 46.51C224.63 46.51 222.72 44.59 222.72 42.23C222.72 39.88 224.63 37.96 227 37.96C229.36 37.96 231.28 39.88 231.28 42.23Z" fill="#D1D3D4" fill-opacity="1.000000" fill-rule="evenodd"/>
	<path id="Vector" d="M242.91 53.15C242.91 55.51 241 57.43 238.63 57.43C236.27 57.43 234.35 55.51 234.35 53.15C234.35 50.8 236.27 48.88 238.63 48.88C241 48.88 242.91 50.8 242.91 53.15Z" fill="#D1D3D4" fill-opacity="1.000000" fill-rule="evenodd"/>
	<path id="Vector" d="M250.66 64.9C250.66 67.26 248.74 69.17 246.38 69.17C244.02 69.17 242.1 67.26 242.1 64.9C242.1 62.54 244.02 60.63 246.38 60.63C248.74 60.63 250.66 62.54 250.66 64.9Z" fill="#D1D3D4" fill-opacity="1.000000" fill-rule="evenodd"/>
	<path id="Vector" d="M250.78 42.81C250.78 45.16 248.86 47.08 246.5 47.08C244.13 47.08 242.22 45.16 242.22 42.81C242.22 40.45 244.13 38.54 246.5 38.54C248.86 38.54 250.78 40.45 250.78 42.81Z" fill="#D1D3D4" fill-opacity="1.000000" fill-rule="evenodd"/>
	<path id="Vector" d="M263.47 46.51C263.47 48.86 261.55 50.78 259.19 50.78C256.83 50.78 254.91 48.86 254.91 46.51C254.91 44.15 256.83 42.23 259.19 42.23C261.55 42.23 263.47 44.15 263.47 46.51Z" fill="#D1D3D4" fill-opacity="1.000000" fill-rule="evenodd"/>
	<path id="Vector" d="M237.04 65C237.04 67.36 235.13 69.27 232.76 69.27C230.4 69.27 228.48 67.36 228.48 65C228.48 62.64 230.4 60.73 232.76 60.73C235.13 60.73 237.04 62.64 237.04 65Z" fill="#D1D3D4" fill-opacity="1.000000" fill-rule="evenodd"/>
	<path id="Vector" d="M225.4 57.22C225.4 59.57 223.48 61.49 221.12 61.49C218.75 61.49 216.84 59.57 216.84 57.22C216.84 54.86 218.75 52.95 221.12 52.95C223.48 52.95 225.4 54.86 225.4 57.22Z" fill="#D1D3D4" fill-opacity="1.000000" fill-rule="evenodd"/>
	<path id="Vector" d="M252.78 26.36C252.78 28.72 250.86 30.63 248.5 30.63C246.13 30.63 244.22 28.72 244.22 26.36C244.22 24 246.13 22.09 248.5 22.09C250.86 22.09 252.78 24 252.78 26.36Z" fill="#D1D3D4" fill-opacity="1.000000" fill-rule="evenodd"/>
	<path id="Vector" d="M237.23 32.53C237.13 32.53 237.04 32.51 236.95 32.48L220.03 25.71C219.93 25.68 219.85 25.62 219.78 25.55C219.7 25.48 219.64 25.39 219.6 25.3C219.56 25.21 219.54 25.11 219.54 25.01C219.54 24.9 219.56 24.8 219.6 24.71C219.63 24.61 219.69 24.53 219.76 24.46C219.83 24.38 219.92 24.33 220.01 24.28C220.1 24.24 220.2 24.22 220.3 24.22C220.41 24.22 220.51 24.24 220.6 24.28L237.23 30.93L250.17 25.9C250.27 25.87 250.37 25.85 250.47 25.85C250.57 25.85 250.68 25.88 250.77 25.92C250.86 25.96 250.95 26.02 251.02 26.09C251.08 26.17 251.14 26.25 251.18 26.35C251.24 26.53 251.23 26.74 251.15 26.91C251.06 27.09 250.92 27.23 250.74 27.3L237.52 32.44C237.43 32.49 237.33 32.52 237.23 32.53Z" fill="#D1D3D4" fill-opacity="1.000000" fill-rule="nonzero"/>
	<path id="Vector" d="M232.76 65.77C232.63 65.77 232.49 65.73 232.37 65.66C232.28 65.61 232.21 65.54 232.15 65.46C232.08 65.38 232.04 65.29 232.01 65.19C231.99 65.09 231.98 64.99 232 64.89C232.01 64.79 232.04 64.69 232.1 64.61L238.64 53.3L226.49 42.83C226.41 42.77 226.34 42.68 226.3 42.59C226.25 42.49 226.22 42.39 226.21 42.28C226.21 42.18 226.23 42.07 226.27 41.97C226.3 41.87 226.36 41.78 226.43 41.7L236.68 31.24C236.83 31.1 237.02 31.02 237.23 31.02C237.43 31.02 237.63 31.1 237.78 31.24C237.85 31.31 237.91 31.4 237.94 31.49C237.98 31.58 238 31.68 238 31.79C238 31.89 237.98 31.99 237.94 32.08C237.91 32.18 237.85 32.26 237.78 32.33L228.11 42.23L240.13 52.55C240.26 52.66 240.35 52.82 240.38 52.99C240.41 53.17 240.38 53.34 240.29 53.5L233.43 65.4C233.36 65.51 233.26 65.6 233.14 65.67C233.03 65.73 232.9 65.77 232.76 65.77Z" fill="#D1D3D4" fill-opacity="1.000000" fill-rule="nonzero"/>
	<path id="Vector" d="M220.32 57.99C220.13 57.98 219.95 57.9 219.82 57.78C219.68 57.65 219.59 57.48 219.57 57.29C219.55 57.11 219.6 56.92 219.7 56.77C219.81 56.62 219.96 56.5 220.14 56.46L238.19 52.46L245.88 42.34C245.97 42.21 246.11 42.12 246.26 42.07C246.41 42.02 246.57 42.02 246.72 42.07L258.56 45.76C258.75 45.83 258.91 45.96 259.01 46.14C259.11 46.31 259.13 46.52 259.08 46.71C259.01 46.91 258.88 47.07 258.7 47.16C258.52 47.25 258.32 47.28 258.12 47.22L246.76 43.69L239.22 53.6C239.12 53.75 238.96 53.85 238.78 53.89L220.47 57.95L220.32 57.99Z" fill="#D1D3D4" fill-opacity="1.000000" fill-rule="nonzero"/>
	<path id="Vector" d="M233.78 66.5C233.58 66.5 233.38 66.42 233.24 66.28C233.09 66.13 233.01 65.94 233.01 65.74C233.01 65.64 233.03 65.54 233.06 65.44C233.1 65.35 233.15 65.26 233.22 65.19C233.29 65.12 233.38 65.06 233.47 65.02C233.56 64.98 233.66 64.96 233.76 64.96L246.43 64.7C246.53 64.7 246.63 64.71 246.73 64.74C246.83 64.78 246.92 64.83 246.99 64.9C247.06 64.98 247.12 65.06 247.16 65.15C247.2 65.25 247.22 65.35 247.22 65.45C247.22 65.66 247.14 65.86 247 66C246.86 66.15 246.66 66.24 246.46 66.24L233.8 66.5L233.78 66.5Z" fill="#D1D3D4" fill-opacity="1.000000" fill-rule="nonzero"/>
	<path id="Vector" d="M193.32 18.93L193.2 18.93L175.22 14.17C175.16 14.16 175.1 14.13 175.05 14.09C175 14.06 174.96 14.01 174.93 13.96C174.9 13.9 174.88 13.84 174.87 13.78C174.86 13.72 174.87 13.65 174.88 13.59C174.9 13.53 174.92 13.48 174.96 13.43C175 13.37 175.05 13.33 175.1 13.3C175.16 13.27 175.22 13.25 175.28 13.24C175.34 13.24 175.4 13.24 175.46 13.26L193.44 18.02C193.57 18.03 193.68 18.1 193.76 18.2C193.84 18.3 193.87 18.43 193.85 18.56C193.84 18.68 193.77 18.8 193.67 18.87C193.57 18.95 193.44 18.99 193.32 18.97L193.32 18.93Z" fill="#D1D3D4" fill-opacity="1.000000" fill-rule="nonzero"/>
	<path id="Vector" d="M187.27 87.54C187.2 87.54 187.12 87.52 187.05 87.48C186.98 87.45 186.93 87.39 186.88 87.33C186.85 87.28 186.82 87.22 186.81 87.16C186.79 87.1 186.79 87.04 186.81 86.98C186.82 86.92 186.84 86.86 186.88 86.81C186.91 86.75 186.95 86.71 187.01 86.67L199.88 77.86C199.93 77.82 199.99 77.79 200.05 77.77C200.12 77.76 200.18 77.75 200.25 77.76C200.31 77.77 200.37 77.8 200.43 77.83C200.48 77.86 200.53 77.91 200.57 77.96C200.6 78.01 200.63 78.07 200.64 78.14C200.65 78.2 200.65 78.27 200.64 78.33C200.63 78.39 200.6 78.45 200.56 78.51C200.53 78.56 200.48 78.6 200.43 78.64L187.54 87.45C187.46 87.51 187.37 87.54 187.27 87.54Z" fill="#D1D3D4" fill-opacity="1.000000" fill-rule="nonzero"/>
	<path id="Vector" d="M177.89 51.13C177.82 51.13 177.76 51.12 177.7 51.11C177.64 51.09 177.59 51.05 177.54 51.01C177.44 50.93 177.38 50.81 177.38 50.69C177.37 50.56 177.41 50.44 177.49 50.34C177.57 50.25 177.69 50.19 177.82 50.18C179.67 49.95 188.94 48.8 189.76 48.93C189.82 48.94 189.88 48.96 189.94 48.99C189.99 49.03 190.04 49.07 190.07 49.12C190.11 49.17 190.14 49.23 190.15 49.29C190.17 49.35 190.17 49.41 190.16 49.47C190.15 49.54 190.13 49.59 190.1 49.65C190.06 49.7 190.02 49.75 189.97 49.78C189.92 49.82 189.86 49.85 189.8 49.86C189.74 49.87 189.68 49.87 189.62 49.86C188.98 49.8 182.13 50.6 177.94 51.12L177.89 51.13Z" fill="#D1D3D4" fill-opacity="1.000000" fill-rule="nonzero"/>
	<path id="Vector" d="M277.88 19.84C277.77 19.85 277.66 19.81 277.58 19.75C277.49 19.68 277.43 19.59 277.4 19.48C277.38 19.37 277.39 19.26 277.44 19.17C277.48 19.07 277.56 18.99 277.66 18.94L290.54 12.34C290.65 12.28 290.78 12.27 290.9 12.31C291.02 12.35 291.13 12.44 291.18 12.55C291.24 12.66 291.25 12.79 291.21 12.91C291.17 13.03 291.09 13.13 290.97 13.19L278.09 19.79C278.03 19.82 277.95 19.84 277.88 19.84Z" fill="#D1D3D4" fill-opacity="1.000000" fill-rule="nonzero"/>
	<path id="Vector" d="M295.52 62.02L295.44 62.02L277.78 58.72C277.66 58.7 277.55 58.62 277.48 58.52C277.41 58.42 277.38 58.29 277.4 58.17C277.43 58.04 277.5 57.93 277.61 57.86C277.71 57.79 277.84 57.76 277.97 57.79L295.61 61.08C295.73 61.1 295.84 61.17 295.91 61.28C295.98 61.38 296.01 61.51 295.99 61.63C295.97 61.74 295.91 61.84 295.82 61.91C295.74 61.98 295.63 62.02 295.52 62.02Z" fill="#D1D3D4" fill-opacity="1.000000" fill-rule="nonzero"/>
	<path id="Vector" d="M273.11 95.36C273.03 95.36 272.96 95.34 272.89 95.3L260.5 88.64C260.38 88.58 260.3 88.48 260.27 88.36C260.23 88.24 260.24 88.11 260.31 88C260.37 87.89 260.47 87.8 260.59 87.77C260.71 87.73 260.84 87.75 260.95 87.81L273.34 94.46C273.4 94.49 273.45 94.53 273.49 94.58C273.53 94.63 273.56 94.69 273.58 94.75C273.6 94.81 273.6 94.87 273.6 94.93C273.59 95 273.57 95.06 273.54 95.11C273.5 95.19 273.44 95.25 273.36 95.29C273.29 95.34 273.2 95.36 273.11 95.36Z" fill="#D1D3D4" fill-opacity="1.000000" fill-rule="nonzero"/>
	<path id="Vector" d="M264.92 29.72C264.81 29.72 264.71 29.69 264.63 29.62C264.55 29.56 264.49 29.47 264.46 29.37C259.76 13.81 239.73 8.99 239.5 8.94C239.44 8.93 239.38 8.9 239.33 8.87C239.27 8.83 239.23 8.78 239.2 8.73C239.16 8.67 239.14 8.61 239.13 8.55C239.12 8.49 239.12 8.42 239.13 8.36C239.15 8.3 239.17 8.24 239.21 8.18C239.25 8.13 239.3 8.09 239.35 8.05C239.4 8.02 239.47 8 239.53 7.99C239.59 7.98 239.66 7.98 239.72 7.99C239.93 7.99 260.5 12.99 265.35 29.08C265.38 29.2 265.37 29.33 265.31 29.44C265.25 29.56 265.15 29.64 265.03 29.68L264.92 29.72Z" fill="#D1D3D4" fill-opacity="1.000000" fill-rule="nonzero"/>
	<path id="Vector" d="M265.84 36.54C265.74 36.54 265.63 36.5 265.55 36.43C265.47 36.36 265.41 36.27 265.39 36.17L264.59 32.83C264.57 32.71 264.59 32.58 264.65 32.47C264.72 32.36 264.82 32.29 264.95 32.26C265.01 32.24 265.07 32.24 265.13 32.25C265.19 32.26 265.25 32.28 265.31 32.31C265.36 32.34 265.41 32.39 265.44 32.44C265.48 32.49 265.51 32.55 265.52 32.61L266.31 35.96C266.34 36.08 266.31 36.21 266.25 36.31C266.18 36.42 266.08 36.5 265.96 36.53L265.84 36.54Z" fill="#D1D3D4" fill-opacity="1.000000" fill-rule="nonzero"/>
</svg>
