<svg width="198.869019" height="165.151123" viewBox="0 0 198.869 165.151" fill="none" xmlns="http://www.w3.org/2000/svg" xmlns:xlink="http://www.w3.org/1999/xlink">
	<desc>
			Created with Pixso.
	</desc>
	<defs/>
	<path id="Vector" d="M165.79 134.6L25.13 134.6C25.04 134.6 24.96 134.56 24.9 134.5C24.84 134.44 24.8 134.36 24.8 134.27L24.8 69.44C24.8 69.38 24.81 69.33 24.84 69.28C24.87 69.23 24.91 69.19 24.95 69.17L95.28 24.75C95.34 24.72 95.4 24.71 95.46 24.71C95.52 24.71 95.58 24.72 95.63 24.75L165.99 69.2C166.04 69.23 166.08 69.27 166.1 69.31C166.13 69.36 166.14 69.42 166.14 69.47L166.14 134.31C166.14 134.39 166.09 134.47 166.03 134.52C165.96 134.58 165.88 134.61 165.79 134.6ZM25.43 133.95L165.5 133.95L165.5 69.62L95.46 25.41L25.43 69.62L25.43 133.95Z" fill="#FFFFFF" fill-opacity="1.000000" fill-rule="nonzero"/>
	<path id="Vector" d="M112.59 51.99C114.93 48.12 115.53 43.43 115.31 38.92C115.15 33.99 113.85 29.16 111.51 24.81C110.56 22.95 109.17 21.35 107.45 20.15C105.34 18.85 103.9 19.73 101.83 19.37C100.09 19.07 98.26 17.83 96.33 17.51C91.86 16.75 87.28 17.71 83.49 20.19C76.87 24.67 73.82 33.22 66.98 37.38C60.27 41.43 51.69 40.21 44.18 42.46C41 43.41 38.05 44.97 35.47 47.05C33.7 48.42 32.24 50.15 31.21 52.14C29.45 55.83 29.91 60.22 31.21 64.11C32.52 68.11 34.72 71.93 38.13 74.41C40.99 76.47 44.5 77.43 47.97 78.05C52.7 78.9 57.59 79.22 62.31 78.2C65.79 77.5 69.03 75.92 71.73 73.61C72.89 72.58 73.53 71.17 74.61 70.14C76.11 68.72 78.43 67.86 80.18 66.77C82.91 65.07 85.64 63.26 88.76 62.46C96.67 60.4 107.83 59.84 112.59 51.99Z" fill="#000000" fill-opacity="1.000000" fill-rule="nonzero"/>
	<path id="Vector" d="M56.01 79.17C53.29 79.14 50.58 78.88 47.9 78.37C44.89 77.83 41.04 76.92 37.94 74.68C34.83 72.45 32.41 68.82 30.91 64.26C29.84 61 28.96 56.2 30.96 52.07C32 50.03 33.48 48.25 35.3 46.86C37.9 44.75 40.89 43.17 44.1 42.21C47.14 41.41 50.24 40.87 53.37 40.62C58.23 40.08 62.82 39.58 66.82 37.16C70.31 35.05 72.86 31.69 75.33 28.44C77.67 25.35 80.09 22.17 83.32 19.97C87.16 17.43 91.82 16.45 96.35 17.21C97.39 17.43 98.4 17.78 99.35 18.24C100.16 18.62 101.01 18.91 101.88 19.11C102.54 19.2 103.21 19.21 103.88 19.15C105.17 18.97 106.49 19.24 107.6 19.93C109.37 21.14 110.8 22.78 111.77 24.69C114.15 29.07 115.46 33.95 115.61 38.93C115.86 44.27 114.96 48.7 112.85 52.16C108.94 58.56 100.94 60.19 93.86 61.64C92.08 62.01 90.4 62.34 88.83 62.75C86.02 63.48 83.48 65.07 81.01 66.61L80.36 67.03C79.71 67.41 79.06 67.77 78.37 68.12C77.1 68.7 75.92 69.46 74.85 70.36C74.36 70.85 73.93 71.39 73.54 71.97C73.09 72.65 72.56 73.28 71.97 73.84C69.23 76.21 65.92 77.83 62.37 78.55C60.27 78.98 58.14 79.19 56.01 79.17ZM93.36 17.59C89.91 17.57 86.53 18.58 83.66 20.49C80.5 22.62 78.12 25.77 75.81 28.81C73.3 32.11 70.72 35.52 67.13 37.69C63.02 40.18 58.14 40.71 53.45 41.23C50.35 41.48 47.29 42 44.29 42.79C41.15 43.74 38.23 45.29 35.69 47.35C33.94 48.68 32.51 50.39 31.51 52.34C29.62 56.29 30.46 60.9 31.51 64.06C32.97 68.55 35.32 72.06 38.31 74.21C41.3 76.37 45.09 77.28 48.03 77.81C53.52 78.79 58.16 78.85 62.23 77.96C65.68 77.27 68.89 75.7 71.56 73.4C72.12 72.86 72.62 72.27 73.05 71.62C73.46 71.01 73.92 70.45 74.44 69.93C75.55 68.99 76.78 68.2 78.1 67.6C78.8 67.24 79.45 66.9 80.05 66.53L80.74 66.1C83.24 64.54 85.82 62.92 88.72 62.19C90.31 61.78 91.97 61.43 93.78 61.07C100.74 59.65 108.63 58.04 112.38 51.87C114.4 48.53 115.3 44.19 115.05 38.97C114.91 34.08 113.62 29.3 111.29 25C110.37 23.17 109.01 21.6 107.33 20.44C106.32 19.82 105.12 19.59 103.95 19.78C103.24 19.84 102.52 19.83 101.82 19.73C100.9 19.52 100.01 19.22 99.16 18.82C98.26 18.39 97.3 18.07 96.32 17.86C95.34 17.69 94.35 17.6 93.36 17.59Z" fill="#FFFFFF" fill-opacity="1.000000" fill-rule="nonzero"/>
	<path id="Vector" d="M139.17 45.6L135.75 58.5L144 59.97L148.7 42.74C148.7 42.74 141.37 37.13 140.24 37.09C139.1 37.05 139.17 45.6 139.17 45.6Z" fill="#000000" fill-opacity="1.000000" fill-rule="nonzero"/>
	<path id="Vector" d="M144 60.3L143.94 60.3L135.7 58.85C135.66 58.84 135.61 58.82 135.58 58.8C135.54 58.77 135.51 58.74 135.48 58.7C135.46 58.66 135.44 58.62 135.44 58.58C135.43 58.53 135.44 58.49 135.45 58.44L138.85 45.6C138.85 44.22 138.85 37.89 139.81 36.96C139.87 36.9 139.93 36.85 140.01 36.82C140.08 36.79 140.16 36.78 140.24 36.78C141.41 36.82 147.65 41.56 148.89 42.5C148.94 42.54 148.98 42.59 149 42.66C149.02 42.72 149.03 42.78 149.01 42.85L144.3 60.08C144.28 60.14 144.24 60.2 144.19 60.24C144.13 60.28 144.07 60.3 144 60.3ZM136.18 58.26L143.78 59.6L148.34 42.87C144.82 40.18 140.87 37.43 140.24 37.41C139.78 37.76 139.49 41.97 139.52 45.62C139.52 45.65 139.52 45.68 139.52 45.71L136.18 58.26Z" fill="#FFFFFF" fill-opacity="1.000000" fill-rule="nonzero"/>
	<path id="Vector" d="M149.96 47.06C149.89 47.07 149.83 47.07 149.76 47.06C149.17 46.92 146.1 44.74 140.99 41C139.83 40.16 138.83 39.43 138.7 39.35C138.58 39.28 137.92 39.59 137.4 39.77C136.04 40.22 134.18 40.84 133.04 40.54C131.23 40.06 130.03 37.43 129.98 37.32C129.95 37.26 129.94 37.18 129.96 37.11C129.98 37.04 130.02 36.98 130.07 36.94L140.82 28.47C140.85 28.44 140.89 28.42 140.94 28.41C140.98 28.4 141.03 28.4 141.08 28.4C141.17 28.42 141.25 28.48 141.3 28.55C141.86 29.71 142.3 30.93 142.6 32.18C142.8 33.06 143.1 33.91 143.5 34.72C143.93 35.19 149.67 39.18 153.43 41.75C153.49 41.78 153.53 41.84 153.56 41.9C153.58 41.96 153.58 42.03 153.56 42.1C152.89 44.47 151.23 47.06 149.96 47.06ZM138.75 38.7C138.84 38.7 138.94 38.72 139.02 38.76C139.15 38.83 139.84 39.33 141.37 40.45C143.98 42.33 149.3 46.24 149.91 46.4C150.52 46.57 152.07 44.77 152.86 42.09C151.28 41.02 143.59 35.75 143 35.09C142.67 34.73 142.39 33.79 141.96 32.31C141.68 31.23 141.32 30.18 140.89 29.16L130.66 37.26C130.98 37.87 131.96 39.56 133.18 39.86C134.13 40.11 135.96 39.5 137.17 39.11C137.67 38.9 138.21 38.77 138.75 38.7Z" fill="#FFFFFF" fill-opacity="1.000000" fill-rule="nonzero"/>
	<path id="Vector" d="M140.51 31.09C140.43 31.78 140.56 32.48 140.88 33.09C141.41 34.04 143.75 35.3 143.75 35.3L145.38 32.04L142.18 29.73L140.51 31.09Z" fill="#FFFFFF" fill-opacity="1.000000" fill-rule="nonzero"/>
	<path id="Vector" d="M143.75 35.62C143.69 35.62 143.64 35.61 143.6 35.58C143.34 35.45 141.15 34.25 140.6 33.25C140.25 32.57 140.1 31.81 140.19 31.05C140.2 30.97 140.24 30.9 140.3 30.85L141.98 29.47C142.03 29.42 142.1 29.39 142.18 29.39C142.25 29.39 142.32 29.42 142.38 29.47L145.56 31.77C145.63 31.82 145.67 31.88 145.69 31.95C145.71 32.03 145.7 32.11 145.67 32.18L144.04 35.43C144.02 35.47 143.99 35.51 143.96 35.53C143.92 35.56 143.89 35.58 143.84 35.6C143.81 35.61 143.78 35.62 143.75 35.62ZM140.82 31.27C140.78 31.85 140.9 32.42 141.17 32.94C141.51 33.59 142.85 34.42 143.61 34.85L144.96 32.13L142.2 30.13L140.82 31.27Z" fill="#FFFFFF" fill-opacity="1.000000" fill-rule="nonzero"/>
	<path id="Vector" d="M150.72 40.23C150.72 40.23 151.58 37.54 150.07 37.35C150.06 37.11 149.99 36.88 149.86 36.68C149.73 36.48 149.55 36.32 149.34 36.21C149.13 36.1 148.9 36.04 148.66 36.05C148.42 36.05 148.19 36.12 147.99 36.24C147.99 36.24 147.51 34.24 145.93 34.64C144.35 35.05 143.1 38.82 143.32 39.77C143.55 40.72 144.77 40.14 145.39 39.25C145.39 39.25 144.59 40.74 145.12 41.13C145.9 41.7 146.72 40.68 147.39 39.94C147.39 39.94 146.41 41.68 147.85 41.84C148.97 41.96 150 39.71 150 39.71L150.72 40.23Z" fill="#000000" fill-opacity="1.000000" fill-rule="nonzero"/>
	<path id="Vector" d="M147.91 42.17L147.79 42.17C147.5 42.17 147.23 42.06 147.02 41.85C146.82 41.65 146.71 41.38 146.7 41.09C146.16 41.57 145.54 41.87 144.89 41.39C144.75 41.27 144.65 41.1 144.6 40.92C144.55 40.74 144.55 40.55 144.6 40.37C144.32 40.55 143.98 40.62 143.66 40.57C143.48 40.54 143.32 40.45 143.2 40.32C143.08 40.19 143 40.03 142.97 39.85C142.73 38.75 144.03 34.8 145.83 34.34C146.05 34.27 146.28 34.25 146.51 34.28C146.75 34.31 146.97 34.39 147.17 34.51C147.63 34.83 147.98 35.28 148.17 35.81C148.38 35.73 148.61 35.7 148.83 35.71C149.05 35.73 149.27 35.79 149.47 35.89C149.89 36.16 150.19 36.58 150.31 37.07C150.59 37.15 150.83 37.33 150.99 37.58C151.57 38.49 151.07 40.14 150.99 40.33C150.98 40.37 150.95 40.42 150.92 40.45C150.88 40.49 150.84 40.52 150.79 40.53C150.74 40.55 150.69 40.56 150.64 40.55C150.59 40.54 150.54 40.52 150.5 40.49L150.05 40.19C149.74 40.85 148.91 42.17 147.91 42.17ZM147.36 39.61C147.43 39.61 147.5 39.64 147.55 39.68C147.62 39.73 147.66 39.8 147.67 39.87C147.69 39.95 147.68 40.03 147.64 40.1C147.5 40.36 147.25 40.98 147.41 41.29C147.41 41.33 147.5 41.48 147.86 41.52C148.51 41.59 149.37 40.21 149.67 39.56C149.7 39.52 149.72 39.48 149.76 39.45C149.8 39.42 149.84 39.4 149.88 39.39C149.93 39.37 149.98 39.37 150.03 39.38C150.07 39.39 150.12 39.4 150.16 39.43L150.52 39.69C150.7 39.11 150.68 38.49 150.46 37.92C150.41 37.85 150.35 37.78 150.27 37.74C150.19 37.69 150.1 37.67 150.01 37.66C149.94 37.65 149.88 37.62 149.83 37.57C149.78 37.52 149.74 37.45 149.73 37.38C149.68 37.01 149.48 36.67 149.17 36.45C149 36.38 148.81 36.35 148.63 36.36C148.44 36.38 148.26 36.43 148.1 36.53C148.06 36.55 148.01 36.56 147.96 36.56C147.92 36.56 147.87 36.55 147.83 36.53C147.78 36.51 147.74 36.48 147.71 36.44C147.68 36.4 147.66 36.36 147.65 36.31C147.53 35.81 147.24 35.36 146.83 35.05C146.7 34.98 146.56 34.93 146.42 34.91C146.27 34.9 146.13 34.91 145.99 34.96C144.6 35.31 143.43 38.87 143.61 39.69C143.66 39.9 143.74 39.91 143.79 39.92C144.05 39.88 144.31 39.79 144.54 39.64C144.76 39.49 144.95 39.29 145.09 39.05C145.14 38.99 145.21 38.94 145.29 38.92C145.37 38.91 145.45 38.92 145.53 38.96C145.6 39.01 145.64 39.08 145.67 39.16C145.69 39.24 145.68 39.32 145.64 39.39C145.31 40.04 145.13 40.75 145.28 40.86C145.73 41.19 146.27 40.66 146.98 39.88L147.12 39.72C147.15 39.69 147.18 39.66 147.23 39.64C147.27 39.62 147.31 39.61 147.36 39.61Z" fill="#FFFFFF" fill-opacity="1.000000" fill-rule="nonzero"/>
	<path id="Vector" d="M143.76 32.16C143.76 32.16 142.87 30.61 141.93 31.97C140.99 33.33 139.86 35.88 141.43 36.15C142.99 36.42 144.16 33.5 143.76 32.16Z" fill="#000000" fill-opacity="1.000000" fill-rule="nonzero"/>
	<path id="Vector" d="M141.63 36.48C141.55 36.49 141.46 36.49 141.38 36.48C141.17 36.46 140.98 36.38 140.81 36.26C140.65 36.13 140.52 35.97 140.44 35.78C139.98 34.69 140.99 32.75 141.66 31.79C141.77 31.59 141.94 31.41 142.14 31.29C142.33 31.17 142.56 31.1 142.8 31.09C143.51 31.12 143.99 31.91 144.04 32L144.07 32.07C144.18 32.72 144.15 33.39 143.97 34.02C143.8 34.66 143.49 35.25 143.06 35.75C142.89 35.97 142.67 36.14 142.42 36.27C142.18 36.4 141.91 36.47 141.63 36.48ZM142.75 31.72C142.53 31.72 142.33 31.95 142.2 32.14C141.41 33.28 140.76 34.85 141.04 35.5C141.08 35.59 141.14 35.67 141.22 35.72C141.29 35.78 141.38 35.81 141.48 35.82C141.69 35.83 141.9 35.79 142.09 35.7C142.28 35.61 142.45 35.47 142.57 35.3C142.92 34.88 143.18 34.4 143.33 33.88C143.48 33.36 143.52 32.81 143.45 32.27C143.35 32.1 143.06 31.73 142.76 31.72L142.75 31.72Z" fill="#FFFFFF" fill-opacity="1.000000" fill-rule="nonzero"/>
	<path id="Vector" d="M139.17 46.47C139.17 46.47 138.14 41.56 138.04 40.68C137.88 39.18 138.23 36.85 139.54 36.49C140.85 36.12 143.85 35.78 143.35 37.09C142.9 38.29 140.28 38.52 140.28 38.52C140.28 38.52 142.09 40.34 141.81 42.16L139.17 46.47Z" fill="#000000" fill-opacity="1.000000" fill-rule="nonzero"/>
	<path id="Vector" d="M139.17 46.8C139.09 46.8 139.02 46.78 138.96 46.73C138.91 46.68 138.86 46.62 138.85 46.55C138.81 46.34 137.82 41.6 137.72 40.68C137.55 39.16 137.88 36.59 139.45 36.12C140.27 35.9 142.78 35.43 143.52 36.23C143.63 36.35 143.7 36.5 143.73 36.67C143.75 36.83 143.73 37 143.66 37.15C143.28 38.16 141.79 38.55 140.92 38.71C141.47 39.4 142.35 40.76 142.13 42.16C142.13 42.2 142.11 42.24 142.09 42.28C142.07 42.31 142.04 42.35 142 42.37C141.97 42.4 141.93 42.42 141.89 42.43C141.84 42.44 141.8 42.44 141.76 42.43C141.71 42.43 141.67 42.41 141.64 42.39C141.6 42.37 141.57 42.34 141.54 42.3C141.52 42.27 141.5 42.23 141.49 42.19C141.48 42.14 141.47 42.1 141.48 42.06C141.73 40.42 140.05 38.71 140.04 38.7C140 38.65 139.97 38.6 139.95 38.53C139.94 38.47 139.94 38.41 139.96 38.35C139.98 38.29 140.02 38.24 140.07 38.21C140.12 38.17 140.18 38.15 140.24 38.14C140.89 38.08 142.73 37.75 143.04 36.92C143.11 36.75 143.04 36.7 143.04 36.67C142.69 36.29 140.89 36.4 139.62 36.75C138.56 37.04 138.21 39.17 138.37 40.59C138.46 41.44 139.48 46.31 139.49 46.36C139.5 46.4 139.5 46.44 139.49 46.49C139.48 46.53 139.47 46.57 139.44 46.6C139.42 46.64 139.39 46.67 139.35 46.69C139.32 46.72 139.27 46.73 139.23 46.74L139.17 46.8Z" fill="#FFFFFF" fill-opacity="1.000000" fill-rule="nonzero"/>
	<path id="Vector" d="M128.63 38.89C128.28 38.89 127.93 38.85 127.58 38.77C126.84 38.58 126.14 38.24 125.54 37.76C124.93 37.29 124.43 36.69 124.07 36.01C121.96 32.6 123.26 30.95 125.93 28.08C126.49 27.48 127.3 26.73 128.24 25.86C129.54 24.65 131 23.26 132.38 21.81C133.76 20.41 134.93 18.82 135.84 17.07C137.79 12.97 137.25 6.59 137.25 6.52C137.24 6.45 137.25 6.39 137.29 6.33C137.32 6.27 137.37 6.22 137.43 6.19C137.5 6.17 137.57 6.16 137.63 6.17C137.7 6.18 137.76 6.22 137.81 6.27L158.65 27.6C158.7 27.64 158.73 27.7 158.74 27.77C158.75 27.83 158.74 27.9 158.71 27.96C158.68 28.02 158.64 28.07 158.58 28.11C158.52 28.14 158.45 28.15 158.39 28.15C158.27 28.15 147.58 27.11 143.3 29.61C142.2 30.26 141.14 31 140.14 31.8C139.16 32.57 138.19 33.38 137.28 34.16C136.14 35.17 134.94 36.12 133.7 37.01C131.81 38.26 130.12 38.89 128.63 38.89ZM137.95 7.34C138.03 9.3 138.02 13.97 136.43 17.35C135.49 19.16 134.28 20.81 132.85 22.25C131.47 23.75 129.99 25.12 128.68 26.34C127.75 27.2 126.95 27.95 126.41 28.53C123.8 31.3 122.76 32.65 124.62 35.69C124.94 36.3 125.38 36.83 125.91 37.25C126.45 37.68 127.06 37.99 127.72 38.17C129.27 38.51 131.15 37.94 133.32 36.49C134.55 35.62 135.72 34.68 136.85 33.69C137.78 32.9 138.74 32.09 139.73 31.32C140.76 30.49 141.85 29.74 142.99 29.07C146.76 26.87 154.89 27.25 157.58 27.45L137.95 7.34Z" fill="#FFFFFF" fill-opacity="1.000000" fill-rule="nonzero"/>
	<path id="Vector" d="M140.51 31.09C138.11 32.98 135.2 35.47 133.51 36.74C129.64 39.63 127.19 39.93 124.66 36.36C122.05 32.68 123.53 31.15 126.17 28.31C127.47 26.9 130.24 24.59 132.61 22.03C132.61 22.03 132.76 24.7 135.42 27.95C136.72 29.53 138.51 30.64 140.51 31.09Z" fill="#FFFFFF" fill-opacity="1.000000" fill-rule="nonzero"/>
	<path id="Vector" d="M128.6 39.3C128.4 39.3 128.2 39.28 128 39.25C126.7 39.05 125.55 38.19 124.39 36.55C121.65 32.67 123.25 30.96 125.9 28.12C126.49 27.47 127.3 26.73 128.24 25.86C129.54 24.65 131 23.26 132.38 21.81C132.42 21.76 132.48 21.73 132.54 21.71C132.6 21.7 132.67 21.7 132.72 21.73C132.78 21.75 132.84 21.79 132.88 21.84C132.91 21.89 132.94 21.95 132.94 22.01C132.94 22.01 133.13 24.62 135.67 27.74C136.92 29.26 138.65 30.33 140.57 30.77C140.63 30.79 140.69 30.82 140.73 30.86C140.78 30.9 140.81 30.96 140.83 31.02C140.84 31.08 140.84 31.14 140.82 31.2C140.8 31.26 140.76 31.31 140.71 31.35C139.6 32.22 138.4 33.21 137.23 34.17C135.88 35.27 134.62 36.31 133.7 37C131.62 38.57 129.99 39.3 128.6 39.3ZM132.39 22.74C131.15 24.04 129.84 25.26 128.68 26.34C127.75 27.2 126.95 27.95 126.41 28.53C123.8 31.33 122.5 32.72 124.93 36.17C125.98 37.65 126.99 38.43 128.1 38.61C129.45 38.81 131.05 38.16 133.31 36.47C134.22 35.82 135.48 34.76 136.82 33.67C137.81 32.85 138.82 32.02 139.79 31.25C137.97 30.69 136.37 29.61 135.16 28.15C133.82 26.59 132.88 24.74 132.39 22.74Z" fill="#FFFFFF" fill-opacity="1.000000" fill-rule="nonzero"/>
	<path id="Vector" d="M161.42 26.9C158.99 29.09 153.6 27.27 148.35 22.83C147.01 21.7 145.75 20.47 144.57 19.16C143.42 17.87 142.36 16.51 141.39 15.07C137.49 9.33 136.27 3.76 138.72 1.57C141.74 -1.15 149.28 2.32 155.56 9.32C161.83 16.31 164.45 24.18 161.42 26.9Z" fill="#2FE784" fill-opacity="1.000000" fill-rule="nonzero"/>
	<path id="Vector" d="M141.45 0.65C145.14 0.65 150.72 3.95 155.54 9.32C161.82 16.32 164.45 24.19 161.4 26.91C160.63 27.55 159.65 27.88 158.65 27.84C155.9 27.84 152.1 26.01 148.34 22.84C147 21.7 145.73 20.48 144.56 19.17C143.41 17.88 142.36 16.51 141.39 15.07C137.49 9.33 136.27 3.76 138.72 1.57C139.48 0.93 140.46 0.61 141.45 0.65ZM141.45 0C140.28 -0.05 139.15 0.34 138.26 1.09C135.61 3.47 136.65 9.24 140.84 15.43C142.83 18.37 145.21 21.03 147.91 23.33C151.82 26.59 155.73 28.48 158.64 28.48C159.81 28.53 160.96 28.13 161.85 27.36C163.53 25.86 163.81 23.06 162.59 19.48C161.12 15.54 158.89 11.93 156.03 8.85C151.17 3.48 145.46 0 141.45 0Z" fill="#FFFFFF" fill-opacity="1.000000" fill-rule="nonzero"/>
	<path id="Vector" d="M152.69 17.41L148.35 22.83C147.01 21.7 145.75 20.47 144.57 19.16C143.42 17.87 142.36 16.51 141.39 15.07L147.66 11.22L152.69 17.41Z" fill="#000000" fill-opacity="1.000000" fill-rule="nonzero"/>
	<path id="Vector" d="M151.6 13.16C152.99 14.86 153.49 16.77 152.69 17.42C151.9 18.07 150.12 17.22 148.73 15.52C147.33 13.82 146.84 11.91 147.63 11.26C148.42 10.61 150.2 11.46 151.6 13.16Z" fill="#FFFFFF" fill-opacity="1.000000" fill-rule="evenodd"/>
	<path id="Vector" d="M152.02 17.95C151 17.95 149.62 17.12 148.46 15.71C147.81 14.94 147.32 14.04 147.03 13.07C146.79 12.13 146.93 11.39 147.41 11C147.9 10.6 148.65 10.61 149.52 11C150.42 11.47 151.2 12.14 151.82 12.94C153.36 14.81 153.82 16.89 152.87 17.67C152.63 17.85 152.33 17.95 152.02 17.95ZM148.3 11.35C148.13 11.35 147.96 11.4 147.83 11.5C147.55 11.73 147.49 12.24 147.66 12.9C147.92 13.79 148.37 14.6 148.97 15.3C150.33 16.97 151.91 17.62 152.47 17.16C153.03 16.7 152.7 15.02 151.33 13.35C150.75 12.63 150.03 12.04 149.21 11.61C148.93 11.46 148.62 11.37 148.3 11.35Z" fill="#FFFFFF" fill-opacity="1.000000" fill-rule="nonzero"/>
	<path id="Vector" d="M147.36 40.27C147.3 40.27 147.24 40.25 147.19 40.22C147.16 40.2 147.12 40.17 147.1 40.14C147.07 40.1 147.05 40.07 147.04 40.02C147.03 39.98 147.03 39.94 147.03 39.9C147.04 39.86 147.05 39.81 147.08 39.78C147.48 39.11 147.98 38.52 148.56 38C148.59 37.97 148.63 37.94 148.67 37.92C148.72 37.9 148.76 37.9 148.81 37.9C148.85 37.9 148.9 37.91 148.94 37.93C148.98 37.95 149.02 37.98 149.05 38.01C149.08 38.05 149.1 38.09 149.11 38.13C149.12 38.18 149.13 38.22 149.12 38.27C149.11 38.31 149.1 38.36 149.07 38.4C149.05 38.44 149.02 38.47 148.98 38.49C148.47 38.97 148.03 39.51 147.67 40.11C147.64 40.16 147.6 40.21 147.54 40.23C147.48 40.26 147.42 40.27 147.36 40.27Z" fill="#FFFFFF" fill-opacity="1.000000" fill-rule="nonzero"/>
	<path id="Vector" d="M145.36 39.58L145.3 39.58C145.26 39.57 145.22 39.55 145.19 39.53C145.15 39.5 145.12 39.47 145.1 39.44C145.07 39.4 145.06 39.36 145.05 39.32C145.04 39.28 145.04 39.23 145.05 39.19C145.28 38.26 145.84 37.44 146.61 36.87C146.68 36.82 146.76 36.8 146.85 36.81C146.93 36.82 147.01 36.87 147.06 36.94C147.12 37.01 147.14 37.09 147.13 37.18C147.11 37.26 147.07 37.34 147 37.39C146.36 37.87 145.9 38.55 145.7 39.32C145.68 39.39 145.64 39.46 145.57 39.51C145.51 39.55 145.43 39.58 145.36 39.58Z" fill="#FFFFFF" fill-opacity="1.000000" fill-rule="nonzero"/>
	<path id="Vector" d="M149.97 40.04C149.9 40.04 149.84 40.02 149.79 39.98C149.75 39.96 149.72 39.92 149.7 39.89C149.67 39.85 149.66 39.81 149.65 39.77C149.64 39.73 149.65 39.68 149.66 39.64C149.67 39.6 149.68 39.56 149.71 39.52L150.15 38.87C150.2 38.8 150.28 38.76 150.36 38.74C150.45 38.73 150.53 38.75 150.61 38.79C150.68 38.84 150.72 38.92 150.74 39.01C150.75 39.09 150.73 39.18 150.69 39.25L150.24 39.9C150.21 39.94 150.17 39.98 150.12 40C150.07 40.03 150.02 40.04 149.97 40.04Z" fill="#FFFFFF" fill-opacity="1.000000" fill-rule="nonzero"/>
	<path id="Vector" d="M129.41 38.64C129.34 38.64 129.27 38.62 129.21 38.57C126.33 36.38 124.55 33.73 124.2 31.09L124.2 31.02C124.18 30.95 124.18 30.88 124.21 30.81C124.23 30.74 124.28 30.69 124.34 30.65C124.38 30.63 124.42 30.61 124.46 30.6C124.5 30.6 124.55 30.6 124.59 30.61C124.63 30.62 124.67 30.63 124.7 30.66C124.74 30.69 124.77 30.72 124.79 30.75C124.83 30.83 124.85 30.92 124.85 31.01C125.19 33.47 126.87 35.97 129.62 38.05C129.68 38.09 129.72 38.15 129.74 38.22C129.76 38.28 129.76 38.35 129.74 38.42C129.71 38.48 129.67 38.54 129.61 38.58C129.56 38.62 129.49 38.64 129.42 38.64L129.41 38.64Z" fill="#000000" fill-opacity="1.000000" fill-rule="nonzero"/>
	<path id="Vector" d="M127.8 28.24C127.75 28.24 127.71 28.23 127.67 28.21C127.63 28.19 127.59 28.16 127.56 28.13C127.53 28.1 127.51 28.06 127.49 28.03C127.48 27.99 127.47 27.94 127.47 27.9C127.47 27.86 127.48 27.82 127.49 27.78C127.51 27.74 127.53 27.7 127.56 27.67L131.07 24.42C131.1 24.39 131.13 24.36 131.17 24.34C131.21 24.33 131.25 24.32 131.3 24.32C131.34 24.32 131.38 24.33 131.42 24.34C131.46 24.36 131.5 24.39 131.53 24.42C131.56 24.45 131.58 24.48 131.6 24.52C131.61 24.56 131.62 24.6 131.62 24.64C131.62 24.69 131.61 24.73 131.6 24.77C131.58 24.81 131.56 24.84 131.53 24.87L128.02 28.13C127.99 28.16 127.96 28.19 127.92 28.21C127.88 28.23 127.84 28.24 127.8 28.24Z" fill="#000000" fill-opacity="1.000000" fill-rule="nonzero"/>
	<path id="Vector" d="M128.28 29.02C128.19 29.02 128.1 28.98 128.04 28.92C127.98 28.86 127.95 28.77 127.95 28.69C127.95 28.6 127.98 28.52 128.04 28.46L131.55 25.2C131.61 25.14 131.69 25.1 131.77 25.1C131.86 25.1 131.94 25.14 132 25.2C132.03 25.23 132.06 25.26 132.07 25.3C132.09 25.34 132.1 25.39 132.1 25.43C132.1 25.47 132.09 25.51 132.07 25.55C132.06 25.59 132.03 25.63 132 25.66L128.5 28.92C128.44 28.98 128.37 29.02 128.28 29.02Z" fill="#000000" fill-opacity="1.000000" fill-rule="nonzero"/>
	<path id="Vector" d="M128.84 29.92C128.79 29.92 128.75 29.91 128.71 29.9C128.67 29.88 128.63 29.85 128.6 29.82C128.57 29.79 128.55 29.75 128.53 29.71C128.51 29.67 128.5 29.63 128.5 29.59C128.5 29.55 128.51 29.5 128.53 29.47C128.55 29.43 128.57 29.39 128.6 29.36L132.11 26.1C132.13 26.07 132.17 26.05 132.21 26.03C132.25 26.01 132.29 26 132.33 26C132.38 26 132.42 26.01 132.46 26.03C132.5 26.05 132.53 26.07 132.56 26.1C132.59 26.13 132.62 26.17 132.63 26.21C132.65 26.25 132.66 26.29 132.66 26.33C132.66 26.37 132.65 26.42 132.63 26.46C132.62 26.49 132.59 26.53 132.56 26.56L129.06 29.82C129.03 29.85 129 29.87 128.96 29.89C128.92 29.91 128.88 29.92 128.84 29.92Z" fill="#000000" fill-opacity="1.000000" fill-rule="nonzero"/>
	<path id="Vector" d="M70.85 80.17L69.22 116.27C69.22 116.27 91.53 116.54 104.37 111.18C105.42 107.74 106.69 104.37 108.17 101.09C110.05 97.28 118.14 91.67 115.6 77.11C115.6 77.11 134.65 89.16 140.01 83.62C145.38 78.08 148.07 52.22 148.07 52.22L136.91 48.64L131.84 64.59C131.84 64.59 99.7 49.04 92.21 47.07C89.43 46.34 80.78 50.94 70.87 57.3L70.85 80.17Z" fill="#2FE784" fill-opacity="1.000000" fill-rule="nonzero"/>
	<path id="Vector" d="M91.52 57.9C91.52 57.9 96.68 73.95 97.57 80.74C98.46 87.54 98.59 98.77 98.59 98.77C98.59 98.77 106.76 73.73 105.75 58.26L91.52 57.9Z" fill="#FFFFFF" fill-opacity="1.000000" fill-rule="nonzero"/>
	<path id="Vector" d="M98.59 99.06L98.55 99.06C98.48 99.05 98.42 99.02 98.37 98.97C98.33 98.92 98.3 98.85 98.3 98.78C98.3 98.67 98.16 87.48 97.28 80.79C96.41 74.09 91.3 58.15 91.25 57.99C91.23 57.94 91.23 57.9 91.24 57.85C91.24 57.81 91.26 57.76 91.29 57.73C91.32 57.69 91.35 57.66 91.39 57.64C91.43 57.62 91.48 57.61 91.53 57.61L105.75 57.97C105.83 57.97 105.9 58 105.95 58.05C106 58.1 106.03 58.17 106.03 58.24C107.04 73.58 98.95 98.63 98.87 98.86C98.85 98.92 98.81 98.97 98.76 99.01C98.71 99.04 98.65 99.06 98.59 99.06ZM91.92 58.19C92.7 60.68 97.06 74.55 97.86 80.7C98.51 85.82 98.76 93.54 98.84 96.99C100.62 91.13 106.24 71.47 105.48 58.55L91.92 58.19Z" fill="#FFFFFF" fill-opacity="1.000000" fill-rule="nonzero"/>
	<path id="Vector" d="M65.49 135.44L127.06 135.44L104.39 111.18L69.24 116.27C69.24 116.27 65.03 125.8 65.43 132.48C65.45 133.27 65.47 134.28 65.49 135.44Z" fill="#FFFFFF" fill-opacity="1.000000" fill-rule="nonzero"/>
	<path id="Vector" d="M127.06 135.77L65.49 135.77C65.45 135.77 65.41 135.76 65.37 135.74C65.33 135.73 65.29 135.7 65.26 135.67C65.23 135.64 65.21 135.61 65.19 135.57C65.18 135.53 65.17 135.49 65.17 135.45C65.17 134.35 65.13 133.3 65.08 132.5C64.68 125.81 68.74 116.53 68.92 116.14C68.94 116.09 68.98 116.04 69.02 116.01C69.06 115.98 69.11 115.96 69.17 115.95L104.35 110.85C104.4 110.85 104.45 110.85 104.5 110.87C104.55 110.89 104.6 110.92 104.63 110.96L127.31 135.22C127.35 135.26 127.38 135.32 127.39 135.39C127.4 135.45 127.4 135.51 127.37 135.57C127.34 135.63 127.3 135.68 127.25 135.71C127.2 135.75 127.13 135.77 127.07 135.77L127.06 135.77ZM65.83 135.11L126.31 135.11L104.26 111.52L69.46 116.57C68.91 117.87 65.38 126.41 65.75 132.46C65.78 133.2 65.83 134.13 65.83 135.11Z" fill="#FFFFFF" fill-opacity="1.000000" fill-rule="nonzero"/>
	<path id="Vector" d="M103.98 49.26L105.75 58.26C105.75 58.26 105.79 63.47 100.02 62.97C98.31 62.81 96.67 62.27 95.2 61.39C93.73 60.52 92.47 59.32 91.52 57.9L89.18 42.18C89.38 39.32 89.15 36.45 88.49 33.65C95.13 32.28 99.41 26.27 99.41 26.27C99.41 26.27 102.35 29.26 103.55 30.18C104.52 30.84 105.39 31.62 106.16 32.5C107.41 34.06 107.79 36.23 108.11 38.16C108.52 40.44 108.72 42.75 108.72 45.07C108.61 49.47 103.98 49.26 103.98 49.26Z" fill="#000000" fill-opacity="1.000000" fill-rule="nonzero"/>
	<path id="Vector" d="M100.77 63.3C100.52 63.3 100.26 63.3 99.99 63.3C98.24 63.14 96.55 62.59 95.04 61.69C93.52 60.79 92.24 59.56 91.26 58.09C91.25 58.06 91.23 58.02 91.23 57.98C91.23 57.98 88.89 42.34 88.89 42.27C88.86 42 88.86 41.74 88.89 41.48C89.04 38.88 88.81 36.28 88.2 33.75C88.19 33.71 88.18 33.67 88.19 33.64C88.2 33.6 88.21 33.56 88.24 33.53C88.26 33.5 88.28 33.47 88.32 33.45C88.35 33.42 88.39 33.41 88.42 33.4C94.87 32.1 99.12 26.19 99.16 26.13C99.19 26.09 99.22 26.07 99.26 26.04C99.3 26.02 99.34 26.01 99.38 26.01C99.43 26 99.47 26.01 99.51 26.02C99.55 26.04 99.59 26.06 99.62 26.1C99.65 26.1 102.56 29.09 103.73 29.97C104.69 30.64 105.57 31.44 106.33 32.34C107.64 33.98 108.03 36.25 108.35 38.13C108.76 40.43 108.97 42.76 108.96 45.09C108.98 45.69 108.87 46.28 108.64 46.83C108.42 47.39 108.08 47.88 107.66 48.3C106.71 49.1 105.53 49.56 104.29 49.6L105.99 58.25C105.98 59.68 105.41 61.06 104.4 62.08C103.39 62.93 102.09 63.37 100.77 63.3ZM91.81 57.79C92.74 59.16 93.96 60.3 95.38 61.15C96.81 61.99 98.4 62.51 100.05 62.68C101.77 62.82 103.11 62.46 104.04 61.6C104.91 60.71 105.42 59.51 105.45 58.26L103.69 49.32C103.68 49.28 103.68 49.23 103.69 49.19C103.71 49.14 103.73 49.1 103.75 49.07C103.78 49.03 103.82 49 103.86 48.99C103.9 48.97 103.95 48.96 103.99 48.96C105.2 48.99 106.37 48.58 107.3 47.82C107.67 47.46 107.95 47.03 108.14 46.55C108.32 46.07 108.41 45.56 108.39 45.05C108.4 42.75 108.2 40.45 107.79 38.19C107.47 36.32 107.13 34.19 105.9 32.68C105.16 31.82 104.31 31.05 103.38 30.4C102.36 29.64 100.18 27.47 99.47 26.72C98.54 27.93 94.63 32.59 88.87 33.89C89.45 36.37 89.67 38.93 89.52 41.48C89.5 41.69 89.5 41.91 89.52 42.13C89.52 42.13 89.49 42.29 91.81 57.79Z" fill="#FFFFFF" fill-opacity="1.000000" fill-rule="nonzero"/>
	<path id="Vector" d="M104.77 53.69C104.77 53.69 101.15 54.55 98.33 52.56C95.52 50.57 95.4 48.05 95.4 48.05C95.4 48.05 99.86 49.95 103.98 49.26L104.77 53.69Z" fill="#FFFFFF" fill-opacity="1.000000" fill-rule="nonzero"/>
	<path id="Vector" d="M102.87 54.17C101.2 54.2 99.56 53.72 98.17 52.79C95.27 50.75 95.14 48.21 95.14 48.06C95.14 48.02 95.15 47.97 95.17 47.92C95.19 47.88 95.22 47.84 95.26 47.82C95.3 47.79 95.35 47.77 95.4 47.76C95.45 47.76 95.49 47.77 95.54 47.78C95.58 47.78 99.97 49.64 103.96 48.98C104.04 48.97 104.11 48.98 104.17 49.03C104.23 49.07 104.28 49.14 104.29 49.21L105.08 53.64C105.1 53.71 105.08 53.79 105.04 53.85C105 53.91 104.93 53.96 104.86 53.97C104.21 54.11 103.54 54.18 102.87 54.17ZM95.79 48.5C96.2 50.07 97.17 51.43 98.52 52.33C100.77 53.91 103.6 53.63 104.46 53.47L103.77 49.59C100.42 50.05 97 48.96 95.79 48.5Z" fill="#FFFFFF" fill-opacity="1.000000" fill-rule="nonzero"/>
	<path id="Vector" d="M99.17 33.92C99.17 33.92 102.89 37.7 102.35 38.58C101.8 39.46 99.78 39.33 99.78 39.33L99.17 33.92Z" fill="#000000" fill-opacity="1.000000" fill-rule="nonzero"/>
	<path id="Vector" d="M100.09 39.63L99.76 39.63C99.72 39.63 99.69 39.62 99.65 39.6C99.62 39.58 99.59 39.56 99.56 39.53C99.54 39.5 99.52 39.47 99.51 39.43C99.49 39.4 99.49 39.36 99.49 39.32C99.5 39.25 99.53 39.17 99.59 39.12C99.65 39.07 99.72 39.04 99.8 39.05C100.31 39.05 101.75 39.05 102.11 38.44C102.33 38.07 100.87 36.06 98.97 34.13C98.95 34.1 98.92 34.07 98.91 34.04C98.9 34 98.89 33.96 98.89 33.93C98.89 33.89 98.9 33.85 98.91 33.82C98.93 33.78 98.95 33.75 98.97 33.72C99 33.7 99.03 33.67 99.07 33.66C99.1 33.65 99.14 33.64 99.18 33.64C99.22 33.64 99.25 33.65 99.29 33.66C99.32 33.68 99.36 33.7 99.38 33.73C100.55 34.91 103.19 37.77 102.59 38.74C102.1 39.53 100.74 39.63 100.09 39.63Z" fill="#FFFFFF" fill-opacity="1.000000" fill-rule="nonzero"/>
	<path id="Vector" d="M104.6 34.93C104.72 35.45 104.59 35.91 104.32 35.98C104.05 36.04 103.73 35.68 103.61 35.16C103.49 34.65 103.62 34.19 103.89 34.12C104.17 34.06 104.48 34.42 104.6 34.93Z" fill="#FFFFFF" fill-opacity="1.000000" fill-rule="evenodd"/>
	<path id="Vector" d="M96.3 35.78C96.42 36.29 96.29 36.76 96.02 36.82C95.75 36.88 95.43 36.52 95.31 36.01C95.19 35.5 95.32 35.03 95.59 34.97C95.86 34.9 96.18 35.27 96.3 35.78Z" fill="#FFFFFF" fill-opacity="1.000000" fill-rule="evenodd"/>
	<path id="Vector" d="M91.31 37C90.4 35.53 88.29 35.33 86.81 35.92C86.32 36.1 85.89 36.41 85.58 36.84C85.28 37.26 85.1 37.76 85.08 38.28C85.07 38.92 85.19 39.55 85.42 40.15C85.81 41.26 86.41 42.3 87.17 43.2C87.52 43.68 87.99 44.05 88.53 44.3C88.87 44.42 89.24 44.43 89.58 44.34C89.93 44.25 90.25 44.06 90.48 43.79L91.31 37Z" fill="#000000" fill-opacity="1.000000" fill-rule="nonzero"/>
	<path id="Vector" d="M89.14 44.72C88.9 44.72 88.65 44.67 88.42 44.58C87.84 44.31 87.33 43.91 86.94 43.4C86.16 42.47 85.55 41.4 85.14 40.25C84.89 39.62 84.77 38.94 84.78 38.26C84.81 37.68 85 37.13 85.34 36.67C85.69 36.2 86.16 35.85 86.7 35.65C88.33 35 90.61 35.26 91.56 36.85C91.6 36.91 91.6 36.99 91.58 37.06C91.56 37.13 91.52 37.19 91.45 37.23C91.39 37.27 91.31 37.29 91.24 37.27C91.17 37.26 91.1 37.22 91.06 37.16C90.24 35.86 88.32 35.64 86.92 36.2C86.48 36.36 86.1 36.64 85.83 37.01C85.55 37.38 85.39 37.83 85.37 38.29C85.36 38.89 85.47 39.49 85.69 40.05C86.07 41.13 86.64 42.14 87.38 43.02C87.71 43.45 88.13 43.79 88.63 44.02C88.91 44.12 89.23 44.13 89.52 44.05C89.82 43.98 90.08 43.81 90.28 43.58C90.31 43.55 90.34 43.52 90.38 43.5C90.41 43.48 90.46 43.47 90.5 43.46C90.54 43.46 90.58 43.47 90.62 43.48C90.66 43.5 90.7 43.52 90.73 43.55C90.76 43.58 90.78 43.62 90.8 43.66C90.82 43.7 90.82 43.74 90.82 43.78C90.82 43.82 90.81 43.86 90.79 43.9C90.77 43.94 90.74 43.97 90.7 44C90.5 44.22 90.26 44.39 89.99 44.51C89.73 44.64 89.44 44.71 89.14 44.72Z" fill="#FFFFFF" fill-opacity="1.000000" fill-rule="nonzero"/>
	<path id="Vector" d="M102.82 40.51L98.46 40.93C98.46 40.93 99.37 47.67 101.33 47.48C103.29 47.3 103.3 42.44 102.82 40.51Z" fill="#000000" fill-opacity="1.000000" fill-rule="nonzero"/>
	<path id="Vector" d="M101.25 47.78C99.19 47.78 98.33 42.12 98.18 40.97C98.17 40.93 98.17 40.89 98.18 40.86C98.19 40.82 98.21 40.78 98.24 40.75C98.26 40.72 98.29 40.7 98.32 40.68C98.35 40.66 98.39 40.65 98.43 40.64L102.8 40.22C102.86 40.21 102.93 40.23 102.99 40.27C103.05 40.31 103.09 40.37 103.1 40.44C103.47 41.93 103.6 45.52 102.52 47.04C102.39 47.24 102.22 47.41 102.02 47.54C101.82 47.66 101.59 47.74 101.36 47.77L101.25 47.78ZM98.79 41.19C99.15 43.65 100.09 47.2 101.25 47.2L101.3 47.2C101.46 47.18 101.6 47.12 101.73 47.04C101.86 46.95 101.97 46.84 102.05 46.71C102.9 45.5 102.94 42.49 102.6 40.85L98.79 41.19Z" fill="#FFFFFF" fill-opacity="1.000000" fill-rule="nonzero"/>
	<path id="Vector" d="M113.73 92.74C113.68 92.74 113.62 92.73 113.58 92.7C113.53 92.67 113.5 92.64 113.47 92.59C113.45 92.54 113.43 92.49 113.44 92.44C113.44 92.39 113.45 92.34 113.48 92.29C113.53 92.21 118.31 84.16 113.73 67.39C113.72 67.31 113.73 67.23 113.77 67.16C113.8 67.1 113.87 67.04 113.94 67.02C113.98 67.01 114.02 67.01 114.06 67.01C114.1 67.02 114.14 67.03 114.17 67.05C114.2 67.07 114.23 67.09 114.26 67.13C114.28 67.16 114.3 67.19 114.31 67.23C118.97 84.27 114.19 92.27 113.98 92.64C113.95 92.67 113.91 92.7 113.87 92.72C113.82 92.74 113.78 92.75 113.73 92.74Z" fill="#FFFFFF" fill-opacity="1.000000" fill-rule="nonzero"/>
	<path id="Vector" d="M25.13 69.44L95.46 120.18L165.79 69.44L165.79 152.68L25.13 152.68L25.13 69.44Z" fill="#000000" fill-opacity="1.000000" fill-rule="nonzero"/>
	<path id="Vector" d="M165.79 153.01L25.13 153.01C25.04 153.01 24.96 152.98 24.9 152.91C24.84 152.85 24.8 152.77 24.8 152.68L24.8 69.44C24.8 69.38 24.82 69.32 24.85 69.27C24.88 69.22 24.92 69.18 24.98 69.15C25.03 69.12 25.09 69.1 25.15 69.1C25.21 69.1 25.27 69.12 25.32 69.15L95.46 119.75L165.6 69.15C165.65 69.12 165.71 69.1 165.77 69.1C165.83 69.1 165.89 69.12 165.94 69.15C165.99 69.18 166.04 69.22 166.07 69.27C166.1 69.32 166.12 69.38 166.12 69.44L166.12 152.68C166.12 152.77 166.08 152.85 166.02 152.91C165.96 152.97 165.88 153.01 165.79 153.01ZM25.43 152.36L165.5 152.36L165.5 70.08L95.65 120.44C95.59 120.48 95.53 120.51 95.46 120.51C95.39 120.51 95.32 120.48 95.26 120.44L25.43 70.08L25.43 152.36Z" fill="#FFFFFF" fill-opacity="1.000000" fill-rule="nonzero"/>
	<path id="Vector" d="M25.13 153.01C25.07 153.01 25.01 152.99 24.96 152.96C24.91 152.93 24.87 152.89 24.84 152.84C24.8 152.76 24.79 152.68 24.81 152.59C24.84 152.51 24.89 152.44 24.97 152.4L89.32 115.58C89.39 115.54 89.48 115.53 89.56 115.55C89.65 115.58 89.72 115.63 89.76 115.71C89.78 115.74 89.8 115.78 89.8 115.83C89.81 115.87 89.81 115.91 89.79 115.95C89.78 115.99 89.76 116.03 89.74 116.07C89.71 116.1 89.68 116.13 89.64 116.15L25.28 152.96C25.24 152.99 25.18 153.01 25.13 153.01Z" fill="#FFFFFF" fill-opacity="1.000000" fill-rule="nonzero"/>
	<path id="Vector" d="M165.79 153.01C165.74 153.01 165.68 152.99 165.63 152.96L101.28 116.15C101.2 116.11 101.15 116.04 101.12 115.95C101.1 115.87 101.11 115.78 101.15 115.71C101.2 115.63 101.27 115.58 101.35 115.56C101.43 115.53 101.52 115.54 101.6 115.58L165.95 152.4C166.02 152.44 166.08 152.51 166.1 152.59C166.13 152.68 166.12 152.76 166.07 152.84C166.05 152.89 166.01 152.93 165.96 152.96C165.91 152.99 165.85 153.01 165.79 153.01Z" fill="#FFFFFF" fill-opacity="1.000000" fill-rule="nonzero"/>
	<path id="Vector" d="M58.66 114.5C58.66 114.5 61.51 121.92 62.18 122.32C62.85 122.72 70.78 125.97 70.21 127.49C69.64 129 66.07 127.15 66.07 127.15C66.07 127.15 71.21 133.1 69.86 134.15C68.5 135.2 63.94 137.33 62.11 136.46C60.28 135.6 51.15 124.29 49.22 119.37L58.66 114.5Z" fill="#000000" fill-opacity="1.000000" fill-rule="nonzero"/>
	<path id="Vector" d="M63.22 137.01C62.79 137.02 62.37 136.94 61.98 136.77C60.03 135.84 50.84 124.4 48.92 119.51C48.9 119.47 48.9 119.43 48.9 119.39C48.9 119.34 48.91 119.3 48.93 119.26C48.94 119.22 48.97 119.19 49 119.16C49.03 119.13 49.07 119.1 49.11 119.09C49.15 119.07 49.19 119.06 49.23 119.07C49.28 119.07 49.32 119.08 49.36 119.09C49.4 119.11 49.43 119.14 49.46 119.17C49.49 119.2 49.52 119.24 49.53 119.28C51.49 124.29 60.67 135.43 62.25 136.21C63.84 137 68.29 135.02 69.67 133.94C69.7 133.91 69.72 133.88 69.74 133.84C69.76 133.81 69.76 133.77 69.77 133.73C69.89 132.42 66.97 128.73 65.86 127.41C65.81 127.36 65.78 127.28 65.78 127.21C65.78 127.13 65.8 127.06 65.85 127C65.9 126.94 65.96 126.9 66.04 126.88C66.11 126.87 66.19 126.88 66.25 126.91C66.91 127.25 68.77 128.06 69.6 127.74C69.68 127.71 69.75 127.67 69.81 127.61C69.86 127.56 69.91 127.49 69.94 127.41C70.09 126.99 69.06 125.93 63.26 123.24C62.55 122.91 62.18 122.74 62.03 122.64C61.33 122.19 59.06 116.4 58.39 114.64C58.37 114.6 58.36 114.56 58.36 114.52C58.36 114.48 58.37 114.43 58.39 114.39C58.41 114.35 58.43 114.32 58.47 114.29C58.5 114.26 58.53 114.24 58.57 114.22C58.65 114.19 58.74 114.19 58.82 114.23C58.9 114.27 58.96 114.33 58.99 114.41C60.35 117.93 61.99 121.77 62.39 122.1C62.5 122.17 62.98 122.39 63.53 122.64C68.21 124.81 71.01 126.4 70.55 127.64C70.49 127.8 70.39 127.95 70.27 128.07C70.15 128.2 70 128.29 69.84 128.35C68.96 128.53 68.05 128.42 67.23 128.05C68.49 129.62 70.57 132.44 70.44 133.78C70.43 133.91 70.39 134.03 70.33 134.14C70.27 134.26 70.19 134.36 70.09 134.44C69.02 135.25 65.55 137.01 63.22 137.01Z" fill="#FFFFFF" fill-opacity="1.000000" fill-rule="nonzero"/>
	<path id="Vector" d="M70.87 57.33C54.12 68.09 33.74 83.93 32.02 87.63C29.27 93.49 49.83 122.98 49.83 122.98L60.97 115.92L50.79 93.81L70.85 80.16L70.87 57.33Z" fill="#2FE784" fill-opacity="1.000000" fill-rule="nonzero"/>
	<path id="Vector" d="M58.01 89.25C57.96 89.25 57.91 89.24 57.87 89.22C57.82 89.2 57.79 89.17 57.76 89.13C57.72 89.06 57.7 88.98 57.71 88.9C57.73 88.83 57.77 88.76 57.83 88.71L80.36 72.94C80.39 72.91 80.43 72.9 80.47 72.89C80.5 72.88 80.54 72.88 80.58 72.88C80.62 72.89 80.66 72.91 80.69 72.93C80.73 72.95 80.75 72.98 80.78 73.01C80.8 73.04 80.81 73.08 80.82 73.12C80.83 73.16 80.83 73.19 80.82 73.23C80.82 73.27 80.8 73.31 80.78 73.34C80.76 73.38 80.73 73.4 80.7 73.43L58.18 89.2C58.13 89.23 58.07 89.25 58.01 89.25Z" fill="#FFFFFF" fill-opacity="1.000000" fill-rule="nonzero"/>
	<path id="Vector" d="M155.89 133.95L183.19 117.24L160.06 126.87L155.89 133.95Z" fill="#FFFFFF" fill-opacity="1.000000" fill-rule="nonzero"/>
	<path id="Vector" d="M155.89 134.27C155.85 134.27 155.81 134.26 155.77 134.25C155.73 134.23 155.69 134.21 155.66 134.17C155.61 134.12 155.58 134.06 155.57 133.99C155.56 133.91 155.57 133.84 155.61 133.78L159.78 126.71C159.81 126.65 159.87 126.6 159.93 126.57L183.09 116.94C183.17 116.91 183.25 116.9 183.33 116.93C183.4 116.96 183.47 117.02 183.51 117.09C183.54 117.16 183.55 117.25 183.53 117.33C183.5 117.41 183.45 117.48 183.38 117.52L156.06 134.2C156.01 134.24 155.95 134.26 155.89 134.27ZM160.28 127.11L156.84 132.97L179.43 119.14L160.28 127.11Z" fill="#FFFFFF" fill-opacity="1.000000" fill-rule="nonzero"/>
	<path id="Vector" d="M168.99 131.73C168.94 131.73 168.89 131.72 168.85 131.7L159.92 127.14C159.87 127.12 159.83 127.08 159.8 127.03C159.77 126.98 159.76 126.92 159.76 126.87C159.76 126.81 159.78 126.75 159.81 126.71C159.85 126.66 159.89 126.62 159.94 126.6L183.09 116.96C183.15 116.94 183.22 116.94 183.29 116.96C183.35 116.98 183.41 117.02 183.45 117.07C183.49 117.13 183.5 117.2 183.5 117.27C183.49 117.34 183.46 117.4 183.41 117.45L169.2 131.65C169.17 131.68 169.14 131.7 169.1 131.71C169.06 131.73 169.02 131.74 168.99 131.73ZM160.76 126.91L168.93 131.07L181.92 118.09L160.76 126.91Z" fill="#FFFFFF" fill-opacity="1.000000" fill-rule="nonzero"/>
	<path id="Vector" d="M153.77 124.55C153.72 124.55 153.67 124.54 153.63 124.51L146.94 120.7C146.89 120.66 146.84 120.62 146.82 120.56C146.8 120.5 146.79 120.44 146.8 120.38C146.82 120.31 146.85 120.26 146.89 120.22C146.94 120.18 147 120.15 147.06 120.14L183.14 116.94C183.22 116.94 183.29 116.96 183.35 117.01C183.41 117.05 183.45 117.12 183.46 117.19C183.47 117.27 183.46 117.34 183.42 117.4C183.37 117.47 183.31 117.51 183.24 117.53L153.84 124.55L153.77 124.55ZM148.06 120.64L153.82 123.93L179.18 117.91L148.06 120.64Z" fill="#FFFFFF" fill-opacity="1.000000" fill-rule="nonzero"/>
	<path id="Vector" d="M155.89 134.25L155.84 134.25C155.78 134.24 155.73 134.21 155.69 134.17C155.64 134.13 155.61 134.08 155.6 134.02L153.51 124.33C153.5 124.29 153.5 124.25 153.51 124.21C153.52 124.17 153.53 124.14 153.55 124.1C153.57 124.07 153.6 124.04 153.63 124.02C153.66 124 153.7 123.98 153.73 123.97L183.13 116.96C183.2 116.93 183.28 116.94 183.35 116.97C183.42 117.01 183.48 117.07 183.5 117.15C183.52 117.22 183.52 117.3 183.48 117.37C183.45 117.44 183.39 117.49 183.31 117.52L160.29 127.11L156.17 134.1C156.14 134.15 156.1 134.19 156.05 134.21C156 134.24 155.95 134.25 155.89 134.25ZM154.15 124.48L156.02 133.13L159.8 126.72C159.83 126.66 159.88 126.62 159.94 126.59L179.66 118.38L154.15 124.48Z" fill="#FFFFFF" fill-opacity="1.000000" fill-rule="nonzero"/>
	<path id="Vector" d="M149.86 135.3C149.79 135.29 149.73 135.27 149.67 135.23C149.62 135.19 149.58 135.13 149.56 135.06C149.54 134.99 149.54 134.92 149.57 134.86C149.59 134.79 149.64 134.73 149.7 134.7L150.78 134C150.86 133.95 150.94 133.94 151.03 133.95C151.11 133.97 151.19 134.02 151.24 134.09C151.28 134.17 151.3 134.25 151.28 134.34C151.26 134.42 151.21 134.5 151.14 134.55L150.04 135.25C149.99 135.28 149.93 135.3 149.86 135.3Z" fill="#FFFFFF" fill-opacity="0.600000" fill-rule="nonzero"/>
	<path id="Vector" d="M51.25 165.15C51.16 165.14 51.08 165.11 51.02 165.05C50.96 164.99 50.92 164.91 50.92 164.82C50.92 164.74 50.95 164.65 51.01 164.59C51.07 164.53 51.15 164.5 51.24 164.49L52.79 164.46L53.84 164.43C53.92 164.43 54.01 164.46 54.07 164.52C54.13 164.58 54.17 164.66 54.18 164.74C54.18 164.79 54.17 164.83 54.16 164.87C54.14 164.91 54.12 164.95 54.09 164.98C54.06 165.01 54.02 165.04 53.98 165.05C53.94 165.07 53.9 165.08 53.86 165.08L52.81 165.11L51.25 165.15L51.25 165.15ZM48.64 165.15C47.75 165.15 46.88 165.11 46.03 165.07C45.95 165.07 45.87 165.03 45.81 164.97C45.75 164.91 45.72 164.82 45.72 164.74C45.72 164.69 45.73 164.65 45.75 164.61C45.77 164.57 45.79 164.54 45.83 164.51C45.86 164.48 45.89 164.46 45.93 164.44C45.97 164.43 46.02 164.42 46.06 164.42C46.91 164.46 47.77 164.48 48.67 164.49C48.75 164.49 48.83 164.53 48.9 164.59C48.96 164.65 48.99 164.73 48.99 164.82C48.99 164.86 48.98 164.91 48.96 164.95C48.94 164.99 48.92 165.03 48.89 165.06C48.85 165.09 48.82 165.11 48.78 165.13C48.73 165.14 48.69 165.15 48.65 165.15L48.64 165.15ZM56.46 164.97C56.37 164.97 56.3 164.94 56.24 164.88C56.18 164.82 56.14 164.75 56.14 164.66C56.14 164.62 56.14 164.58 56.15 164.54C56.17 164.5 56.19 164.46 56.22 164.43C56.25 164.4 56.28 164.37 56.32 164.35C56.36 164.33 56.4 164.32 56.44 164.32C57.31 164.28 58.18 164.23 59.05 164.17C59.09 164.17 59.14 164.17 59.18 164.18C59.22 164.2 59.26 164.22 59.29 164.25C59.32 164.28 59.35 164.31 59.36 164.35C59.38 164.39 59.39 164.43 59.4 164.48C59.4 164.52 59.39 164.56 59.38 164.6C59.37 164.64 59.35 164.68 59.32 164.71C59.29 164.74 59.26 164.77 59.22 164.79C59.18 164.81 59.14 164.82 59.1 164.82C58.23 164.88 57.36 164.93 56.49 164.97L56.46 164.97ZM43.46 164.92C42.57 164.86 41.71 164.78 40.85 164.69C40.77 164.68 40.69 164.64 40.64 164.57C40.58 164.5 40.56 164.42 40.57 164.33C40.57 164.29 40.58 164.25 40.6 164.21C40.62 164.17 40.65 164.14 40.68 164.11C40.72 164.08 40.76 164.06 40.8 164.05C40.84 164.04 40.88 164.04 40.93 164.05C41.77 164.13 42.63 164.21 43.53 164.27C43.62 164.27 43.7 164.31 43.76 164.37C43.82 164.43 43.86 164.51 43.86 164.6C43.86 164.69 43.82 164.77 43.76 164.83C43.7 164.89 43.62 164.92 43.53 164.92L43.46 164.92ZM61.66 164.63C61.57 164.63 61.49 164.6 61.43 164.54C61.36 164.48 61.33 164.39 61.33 164.31C61.33 164.22 61.36 164.14 61.43 164.08C61.49 164.01 61.57 163.98 61.66 163.98C62.52 163.91 63.38 163.83 64.26 163.75C64.35 163.74 64.43 163.77 64.5 163.82C64.57 163.88 64.61 163.95 64.62 164.04C64.62 164.08 64.62 164.12 64.61 164.17C64.6 164.21 64.58 164.25 64.55 164.28C64.52 164.31 64.49 164.34 64.45 164.36C64.41 164.38 64.37 164.39 64.33 164.4C63.46 164.48 62.59 164.56 61.72 164.63L61.66 164.63ZM38.28 164.36L38.24 164.36C37.36 164.23 36.5 164.09 35.63 163.93C35.59 163.93 35.55 163.91 35.51 163.89C35.47 163.86 35.44 163.83 35.42 163.8C35.39 163.76 35.38 163.72 35.37 163.68C35.36 163.63 35.36 163.59 35.37 163.55C35.37 163.5 35.39 163.46 35.41 163.43C35.44 163.39 35.47 163.36 35.5 163.33C35.54 163.31 35.58 163.29 35.62 163.28C35.67 163.28 35.71 163.28 35.75 163.28C36.58 163.44 37.44 163.58 38.31 163.71C38.35 163.71 38.39 163.73 38.43 163.75C38.46 163.77 38.5 163.8 38.52 163.84C38.55 163.87 38.56 163.91 38.58 163.95C38.59 163.99 38.59 164.04 38.58 164.08C38.57 164.15 38.53 164.23 38.48 164.28C38.42 164.33 38.35 164.36 38.27 164.36L38.28 164.36ZM66.84 164.13C66.8 164.13 66.76 164.13 66.72 164.11C66.67 164.1 66.64 164.08 66.61 164.05C66.57 164.02 66.55 163.99 66.53 163.95C66.51 163.91 66.5 163.87 66.5 163.82C66.49 163.78 66.5 163.74 66.51 163.7C66.53 163.66 66.55 163.62 66.58 163.59C66.61 163.56 66.64 163.53 66.68 163.51C66.72 163.49 66.76 163.48 66.8 163.48C67.67 163.38 68.54 163.28 69.41 163.17C69.49 163.15 69.58 163.18 69.65 163.23C69.72 163.28 69.76 163.36 69.78 163.45C69.79 163.53 69.76 163.62 69.71 163.69C69.66 163.76 69.58 163.81 69.49 163.82L66.89 164.12L66.84 164.13ZM72.01 163.48C71.93 163.48 71.85 163.45 71.79 163.4C71.73 163.35 71.69 163.28 71.68 163.2C71.68 163.16 71.68 163.11 71.69 163.07C71.7 163.03 71.72 162.99 71.74 162.95C71.77 162.92 71.8 162.89 71.84 162.87C71.88 162.85 71.92 162.83 71.96 162.83L74.53 162.44C74.57 162.44 74.61 162.44 74.66 162.45C74.7 162.46 74.74 162.47 74.77 162.5C74.81 162.52 74.83 162.55 74.86 162.59C74.88 162.63 74.89 162.67 74.9 162.71C74.91 162.75 74.91 162.8 74.9 162.84C74.89 162.88 74.87 162.92 74.85 162.95C74.82 162.99 74.79 163.02 74.75 163.04C74.72 163.07 74.68 163.08 74.63 163.09L72.03 163.47L72.01 163.48ZM33.17 163.41L33.1 163.41C32.23 163.21 31.38 162.99 30.56 162.76C30.48 162.74 30.41 162.68 30.37 162.6C30.33 162.53 30.32 162.44 30.34 162.36C30.35 162.32 30.37 162.28 30.4 162.25C30.43 162.21 30.46 162.18 30.5 162.16C30.53 162.14 30.57 162.13 30.62 162.13C30.66 162.12 30.7 162.12 30.74 162.14C31.55 162.36 32.39 162.59 33.25 162.79C33.29 162.8 33.33 162.81 33.36 162.84C33.4 162.86 33.43 162.89 33.45 162.93C33.47 162.97 33.49 163.01 33.49 163.05C33.5 163.09 33.5 163.14 33.49 163.18C33.46 163.25 33.42 163.31 33.36 163.35C33.3 163.39 33.23 163.41 33.16 163.41L33.17 163.41ZM77.15 162.66C77.07 162.67 77 162.64 76.94 162.59C76.88 162.54 76.84 162.47 76.83 162.4C76.81 162.31 76.84 162.22 76.89 162.15C76.94 162.08 77.01 162.03 77.1 162.02L79.66 161.56C79.7 161.55 79.74 161.55 79.78 161.56C79.82 161.57 79.86 161.59 79.9 161.61C79.94 161.64 79.97 161.67 79.99 161.71C80.01 161.74 80.03 161.78 80.03 161.82C80.05 161.91 80.03 162 79.98 162.07C79.93 162.14 79.86 162.19 79.77 162.2L77.21 162.66L77.15 162.66ZM28.16 161.95C28.13 161.96 28.09 161.96 28.06 161.95C27.23 161.66 26.4 161.34 25.61 161.01C25.57 160.99 25.53 160.97 25.51 160.94C25.48 160.91 25.45 160.87 25.44 160.83C25.42 160.79 25.41 160.75 25.41 160.7C25.41 160.66 25.42 160.62 25.44 160.58C25.48 160.5 25.54 160.44 25.62 160.41C25.7 160.38 25.79 160.38 25.86 160.41C26.64 160.74 27.45 161.06 28.27 161.34C28.36 161.36 28.44 161.4 28.49 161.48C28.54 161.55 28.56 161.64 28.54 161.72C28.53 161.81 28.48 161.89 28.41 161.94C28.34 161.99 28.25 162.01 28.16 161.99L28.16 161.95ZM82.24 161.71C82.16 161.71 82.09 161.68 82.03 161.63C81.97 161.58 81.93 161.52 81.92 161.45C81.91 161.4 81.91 161.36 81.92 161.32C81.92 161.28 81.94 161.24 81.96 161.2C81.99 161.17 82.02 161.13 82.05 161.11C82.09 161.09 82.13 161.07 82.17 161.06L84.72 160.53C84.76 160.52 84.8 160.52 84.84 160.53C84.89 160.53 84.93 160.55 84.96 160.57C85 160.6 85.03 160.63 85.05 160.66C85.08 160.7 85.09 160.74 85.1 160.78C85.11 160.82 85.11 160.87 85.11 160.91C85.1 160.95 85.08 160.99 85.06 161.03C85.04 161.06 85.01 161.09 84.97 161.12C84.94 161.14 84.9 161.16 84.85 161.17L82.3 161.7L82.24 161.71ZM87.33 160.61C87.29 160.62 87.24 160.61 87.2 160.6C87.16 160.59 87.12 160.57 87.09 160.54C87.06 160.52 87.03 160.48 87.01 160.44C86.99 160.41 86.97 160.37 86.97 160.32C86.96 160.28 86.97 160.24 86.98 160.19C86.99 160.15 87.01 160.12 87.04 160.08C87.07 160.05 87.1 160.02 87.14 160C87.17 159.98 87.22 159.97 87.26 159.96C88.11 159.77 88.95 159.57 89.79 159.36C89.87 159.34 89.96 159.36 90.03 159.4C90.1 159.45 90.16 159.52 90.18 159.6C90.19 159.64 90.19 159.69 90.18 159.73C90.18 159.77 90.16 159.81 90.14 159.85C90.12 159.89 90.09 159.92 90.05 159.95C90.02 159.97 89.98 159.99 89.94 160C89.1 160.2 88.26 160.4 87.4 160.59L87.33 160.61ZM23.36 159.92C23.31 159.91 23.26 159.9 23.21 159.88C22.42 159.47 21.66 159.03 20.93 158.57C20.89 158.55 20.86 158.52 20.83 158.49C20.81 158.45 20.79 158.41 20.78 158.37C20.77 158.33 20.77 158.28 20.78 158.24C20.78 158.2 20.8 158.16 20.82 158.12C20.84 158.09 20.87 158.05 20.91 158.03C20.94 158 20.98 157.99 21.02 157.98C21.07 157.97 21.11 157.96 21.15 157.97C21.19 157.98 21.24 158 21.27 158.02C21.98 158.46 22.74 158.88 23.51 159.28C23.6 159.3 23.67 159.35 23.72 159.42C23.77 159.5 23.78 159.59 23.76 159.68C23.74 159.76 23.69 159.84 23.61 159.89C23.54 159.93 23.45 159.95 23.36 159.93L23.36 159.92ZM92.42 159.38C92.33 159.39 92.24 159.37 92.18 159.31C92.11 159.26 92.06 159.18 92.05 159.09C92.04 159.01 92.07 158.92 92.12 158.85C92.17 158.78 92.25 158.74 92.34 158.73L94.85 158.08C94.9 158.07 94.94 158.06 94.99 158.07C95.03 158.08 95.07 158.09 95.11 158.11C95.15 158.14 95.18 158.17 95.21 158.2C95.23 158.24 95.25 158.28 95.26 158.32C95.28 158.36 95.28 158.41 95.27 158.45C95.27 158.49 95.25 158.54 95.23 158.57C95.21 158.61 95.18 158.64 95.14 158.67C95.11 158.7 95.07 158.72 95.02 158.73C94.19 158.96 93.35 159.17 92.5 159.38C92.47 159.39 92.44 159.39 92.4 159.38L92.42 159.38ZM97.45 158.02C97.38 158.02 97.31 158 97.25 157.96C97.19 157.91 97.15 157.85 97.13 157.78C97.11 157.7 97.12 157.61 97.17 157.54C97.21 157.46 97.28 157.41 97.36 157.38L99.86 156.66C99.94 156.63 100.03 156.64 100.1 156.68C100.18 156.72 100.24 156.79 100.26 156.87C100.27 156.91 100.28 156.96 100.28 157C100.27 157.04 100.26 157.08 100.24 157.12C100.22 157.16 100.19 157.19 100.15 157.22C100.12 157.25 100.08 157.27 100.04 157.28C99.21 157.52 98.38 157.77 97.54 158.01C97.51 158.02 97.47 158.02 97.43 158.02L97.45 158.02ZM18.97 157.18C18.89 157.18 18.83 157.16 18.77 157.11C18.06 156.59 17.38 156.03 16.74 155.45C16.71 155.42 16.68 155.38 16.67 155.34C16.65 155.3 16.64 155.26 16.64 155.21C16.64 155.17 16.65 155.13 16.67 155.09C16.68 155.05 16.71 155.01 16.74 154.98C16.77 154.95 16.8 154.93 16.84 154.91C16.88 154.9 16.92 154.89 16.97 154.89C17.01 154.89 17.05 154.9 17.09 154.91C17.13 154.93 17.16 154.95 17.19 154.98C17.83 155.56 18.49 156.1 19.18 156.61C19.25 156.66 19.29 156.74 19.31 156.83C19.32 156.91 19.3 157 19.25 157.07C19.21 157.11 19.17 157.14 19.12 157.16C19.07 157.18 19.02 157.18 18.97 157.18ZM102.42 156.53C102.36 156.53 102.29 156.51 102.23 156.47C102.18 156.42 102.14 156.37 102.12 156.3C102.11 156.26 102.1 156.22 102.1 156.17C102.11 156.13 102.12 156.09 102.14 156.05C102.16 156.01 102.19 155.98 102.22 155.95C102.25 155.92 102.29 155.9 102.33 155.89C103.17 155.63 103.99 155.37 104.81 155.11C104.85 155.09 104.89 155.09 104.94 155.09C104.98 155.09 105.02 155.1 105.06 155.12C105.1 155.14 105.13 155.17 105.16 155.2C105.19 155.24 105.21 155.27 105.22 155.32C105.25 155.4 105.24 155.49 105.2 155.56C105.16 155.64 105.09 155.7 105.01 155.73C104.19 155.99 103.36 156.25 102.52 156.51C102.49 156.53 102.46 156.53 102.42 156.53L102.42 156.53ZM107.38 154.92C107.3 154.93 107.21 154.91 107.14 154.86C107.07 154.81 107.02 154.73 107 154.64C106.99 154.56 107.01 154.47 107.06 154.4C107.11 154.33 107.19 154.28 107.28 154.27C108.11 153.99 108.93 153.71 109.73 153.42C109.82 153.39 109.91 153.4 109.98 153.44C110.06 153.47 110.12 153.54 110.15 153.62C110.17 153.66 110.17 153.7 110.17 153.75C110.17 153.79 110.16 153.83 110.14 153.87C110.12 153.91 110.1 153.94 110.06 153.97C110.03 154 110 154.02 109.96 154.03C109.14 154.32 108.32 154.61 107.49 154.89L107.38 154.92ZM15.13 153.68C15.08 153.68 15.04 153.67 14.99 153.65C14.95 153.63 14.91 153.6 14.88 153.57C14.3 152.91 13.75 152.23 13.24 151.51C13.21 151.48 13.19 151.44 13.17 151.39C13.16 151.35 13.16 151.3 13.16 151.26C13.17 151.22 13.18 151.17 13.21 151.13C13.23 151.09 13.26 151.06 13.3 151.03C13.33 151.01 13.38 150.99 13.42 150.98C13.46 150.97 13.51 150.97 13.55 150.98C13.6 150.99 13.64 151.01 13.68 151.03C13.71 151.06 13.74 151.09 13.77 151.13C14.26 151.83 14.8 152.5 15.37 153.13C15.43 153.2 15.46 153.28 15.46 153.36C15.46 153.45 15.43 153.53 15.37 153.6C15.34 153.63 15.3 153.65 15.26 153.67C15.22 153.68 15.17 153.69 15.13 153.69L15.13 153.68ZM112.29 153.2C112.23 153.2 112.16 153.17 112.11 153.14C112.05 153.1 112.01 153.05 111.99 152.98C111.96 152.9 111.96 152.81 112 152.73C112.04 152.66 112.1 152.6 112.18 152.57C113.01 152.27 113.82 151.96 114.63 151.66C114.7 151.64 114.79 151.65 114.86 151.69C114.93 151.73 114.98 151.79 115.01 151.86C115.04 151.94 115.04 152.02 115.01 152.09C114.98 152.17 114.93 152.23 114.85 152.27C114.05 152.57 113.23 152.87 112.41 153.17C112.37 153.19 112.33 153.2 112.29 153.2L112.29 153.2ZM117.17 151.35C117.12 151.36 117.08 151.36 117.04 151.35C117 151.34 116.96 151.33 116.92 151.3C116.88 151.28 116.85 151.24 116.83 151.21C116.81 151.17 116.79 151.13 116.78 151.09C116.78 151.04 116.78 151 116.79 150.96C116.79 150.92 116.81 150.88 116.84 150.84C116.86 150.8 116.89 150.77 116.93 150.75C116.97 150.73 117.01 150.71 117.05 150.7L119.47 149.75C119.55 149.71 119.64 149.71 119.72 149.75C119.79 149.78 119.86 149.84 119.89 149.92C119.92 150 119.92 150.09 119.89 150.17C119.86 150.25 119.79 150.32 119.71 150.35L117.29 151.34C117.25 151.35 117.21 151.36 117.17 151.36L117.17 151.35ZM12.12 149.45C12.06 149.45 12 149.44 11.95 149.41C11.9 149.38 11.86 149.34 11.83 149.28C11.41 148.51 11.03 147.72 10.69 146.91C10.66 146.82 10.66 146.73 10.69 146.65C10.73 146.57 10.79 146.51 10.87 146.48C10.95 146.45 11.04 146.45 11.12 146.48C11.2 146.51 11.26 146.58 11.3 146.66C11.62 147.45 11.99 148.22 12.4 148.97C12.44 149.05 12.45 149.14 12.43 149.22C12.4 149.3 12.35 149.37 12.27 149.41C12.23 149.44 12.17 149.45 12.12 149.45ZM122 149.41C121.94 149.41 121.87 149.39 121.82 149.35C121.77 149.32 121.72 149.27 121.7 149.2C121.67 149.13 121.67 149.04 121.7 148.96C121.73 148.88 121.79 148.82 121.87 148.78C122.69 148.44 123.49 148.13 124.27 147.77C124.35 147.73 124.44 147.73 124.52 147.76C124.6 147.79 124.66 147.86 124.7 147.93C124.73 148.01 124.73 148.1 124.7 148.18C124.67 148.27 124.61 148.33 124.53 148.36L122.13 149.38C122.09 149.4 122.04 149.41 122 149.41ZM126.78 147.34C126.72 147.34 126.66 147.32 126.61 147.29C126.55 147.26 126.51 147.21 126.48 147.15C126.47 147.11 126.46 147.07 126.45 147.03C126.45 146.98 126.46 146.94 126.48 146.9C126.49 146.86 126.52 146.82 126.55 146.79C126.58 146.76 126.61 146.74 126.65 146.72C127.46 146.36 128.25 146.01 129.02 145.65C129.1 145.61 129.19 145.61 129.27 145.64C129.35 145.67 129.41 145.73 129.45 145.81C129.49 145.89 129.49 145.98 129.46 146.06C129.43 146.14 129.37 146.2 129.29 146.24C128.52 146.6 127.73 146.96 126.91 147.32C126.87 147.33 126.83 147.34 126.78 147.34ZM131.52 145.17C131.46 145.17 131.4 145.15 131.35 145.12C131.29 145.09 131.25 145.04 131.23 144.98C131.21 144.94 131.2 144.9 131.19 144.86C131.19 144.82 131.2 144.77 131.21 144.73C131.22 144.69 131.25 144.66 131.27 144.62C131.3 144.59 131.34 144.57 131.38 144.55C132.18 144.17 132.97 143.79 133.72 143.42C133.8 143.38 133.89 143.38 133.97 143.4C134.05 143.43 134.12 143.49 134.16 143.57C134.2 143.65 134.2 143.74 134.17 143.82C134.14 143.9 134.09 143.97 134.01 144.01L131.66 145.14C131.61 145.16 131.57 145.17 131.52 145.17ZM10.15 144.63C10.08 144.62 10.01 144.6 9.95 144.56C9.9 144.51 9.86 144.45 9.84 144.38C9.6 143.54 9.41 142.68 9.26 141.81C9.25 141.72 9.27 141.64 9.32 141.57C9.37 141.49 9.45 141.45 9.54 141.43C9.62 141.42 9.71 141.44 9.78 141.49C9.85 141.54 9.9 141.62 9.92 141.71C10.05 142.56 10.22 143.4 10.45 144.23C10.46 144.28 10.47 144.32 10.46 144.36C10.46 144.4 10.44 144.44 10.42 144.48C10.4 144.52 10.38 144.55 10.34 144.58C10.31 144.61 10.27 144.63 10.23 144.64L10.15 144.63ZM136.18 142.89C136.12 142.89 136.06 142.87 136.01 142.84C135.96 142.81 135.92 142.76 135.89 142.7C135.85 142.63 135.85 142.54 135.87 142.46C135.9 142.37 135.96 142.31 136.03 142.27C136.84 141.86 137.61 141.47 138.35 141.08C138.43 141.04 138.52 141.03 138.6 141.06C138.68 141.09 138.75 141.14 138.79 141.22C138.83 141.3 138.84 141.39 138.81 141.47C138.79 141.55 138.73 141.62 138.65 141.66C137.91 142.05 137.13 142.44 136.33 142.85C136.28 142.87 136.23 142.88 136.18 142.89ZM140.81 140.48C140.75 140.48 140.69 140.47 140.64 140.44C140.59 140.41 140.55 140.36 140.52 140.31C140.48 140.24 140.47 140.15 140.5 140.06C140.52 139.98 140.58 139.91 140.65 139.87C141.46 139.44 142.22 139.02 142.94 138.63C142.98 138.61 143.02 138.59 143.06 138.58C143.11 138.57 143.16 138.57 143.2 138.58C143.25 138.59 143.29 138.61 143.32 138.64C143.36 138.66 143.39 138.7 143.41 138.74C143.44 138.78 143.45 138.82 143.45 138.87C143.46 138.92 143.45 138.96 143.44 139C143.42 139.05 143.4 139.09 143.36 139.12C143.33 139.15 143.29 139.18 143.25 139.2C142.53 139.6 141.77 140.01 140.96 140.45C140.92 140.47 140.87 140.48 140.83 140.48L140.81 140.48ZM9.28 139.52C9.19 139.52 9.11 139.49 9.05 139.44C8.99 139.38 8.96 139.3 8.95 139.22C8.95 138.71 8.91 138.19 8.91 137.67C8.91 137.31 8.91 136.94 8.91 136.59C8.91 136.54 8.92 136.5 8.94 136.46C8.96 136.42 8.98 136.39 9.02 136.36C9.05 136.33 9.08 136.31 9.13 136.29C9.17 136.28 9.21 136.27 9.25 136.27C9.29 136.28 9.34 136.28 9.38 136.3C9.41 136.32 9.45 136.35 9.48 136.38C9.51 136.41 9.53 136.45 9.54 136.49C9.56 136.53 9.57 136.57 9.56 136.61C9.56 136.96 9.56 137.32 9.56 137.67C9.56 138.17 9.56 138.68 9.6 139.18C9.61 139.22 9.6 139.26 9.59 139.31C9.57 139.35 9.55 139.38 9.52 139.42C9.49 139.45 9.46 139.47 9.42 139.49C9.38 139.51 9.34 139.52 9.3 139.52L9.28 139.52ZM145.37 137.96C145.3 137.96 145.23 137.94 145.17 137.89C145.12 137.85 145.08 137.79 145.06 137.72C145.04 137.65 145.04 137.58 145.07 137.51C145.1 137.45 145.14 137.39 145.21 137.35C146.05 136.87 146.8 136.44 147.45 136.05C147.49 136.03 147.53 136.01 147.57 136.01C147.62 136 147.66 136 147.7 136.01C147.74 136.02 147.78 136.04 147.82 136.07C147.85 136.09 147.88 136.13 147.9 136.16C147.95 136.24 147.96 136.33 147.94 136.41C147.92 136.49 147.87 136.57 147.79 136.61C147.14 137 146.38 137.45 145.53 137.92C145.49 137.94 145.44 137.96 145.39 137.96L145.37 137.96ZM9.51 134.33L9.46 134.33C9.37 134.32 9.3 134.27 9.24 134.2C9.19 134.13 9.17 134.05 9.18 133.96C9.3 133.11 9.45 132.23 9.64 131.35C9.66 131.27 9.71 131.2 9.79 131.15C9.86 131.11 9.95 131.09 10.03 131.11C10.08 131.12 10.12 131.13 10.15 131.16C10.19 131.18 10.22 131.21 10.24 131.25C10.26 131.29 10.28 131.33 10.28 131.37C10.29 131.41 10.29 131.46 10.28 131.5C10.09 132.34 9.94 133.19 9.83 134.03C9.82 134.11 9.78 134.19 9.72 134.24C9.66 134.3 9.59 134.33 9.51 134.33ZM10.64 129.26C10.61 129.26 10.57 129.26 10.54 129.26C10.5 129.24 10.46 129.22 10.43 129.2C10.4 129.17 10.37 129.13 10.35 129.1C10.33 129.06 10.32 129.02 10.31 128.97C10.31 128.93 10.31 128.89 10.33 128.85C10.58 128.03 10.88 127.19 11.21 126.37C11.25 126.3 11.31 126.24 11.39 126.22C11.47 126.19 11.55 126.19 11.62 126.22C11.7 126.25 11.76 126.31 11.79 126.38C11.83 126.46 11.84 126.54 11.81 126.62C11.49 127.42 11.2 128.23 10.95 129.04C10.92 129.11 10.88 129.16 10.83 129.2C10.77 129.24 10.71 129.26 10.64 129.26ZM12.59 124.44C12.53 124.45 12.47 124.45 12.4 124.43C12.37 124.41 12.33 124.38 12.3 124.35C12.28 124.32 12.25 124.28 12.24 124.24C12.23 124.2 12.22 124.16 12.22 124.12C12.23 124.07 12.24 124.03 12.26 123.99C12.64 123.22 13.06 122.44 13.51 121.69C13.53 121.65 13.56 121.62 13.6 121.59C13.63 121.56 13.67 121.55 13.71 121.53C13.75 121.52 13.79 121.52 13.84 121.53C13.88 121.53 13.92 121.55 13.96 121.57C14.03 121.61 14.08 121.69 14.11 121.77C14.13 121.85 14.12 121.94 14.07 122.02C13.63 122.76 13.22 123.52 12.84 124.29C12.81 124.33 12.77 124.37 12.73 124.39C12.68 124.42 12.63 124.43 12.57 124.43L12.59 124.44ZM15.25 119.95C15.16 119.96 15.08 119.93 15.01 119.87C14.98 119.85 14.95 119.81 14.92 119.78C14.9 119.74 14.88 119.7 14.88 119.66C14.87 119.62 14.87 119.58 14.88 119.53C14.89 119.49 14.91 119.45 14.93 119.42C15.43 118.7 15.96 117.99 16.51 117.32C16.56 117.25 16.64 117.21 16.73 117.2C16.81 117.19 16.9 117.22 16.97 117.27C17.03 117.32 17.08 117.4 17.09 117.49C17.09 117.57 17.07 117.66 17.02 117.73C16.48 118.38 15.96 119.09 15.47 119.79C15.44 119.83 15.41 119.87 15.37 119.9C15.32 119.93 15.28 119.95 15.23 119.95L15.25 119.95ZM18.5 115.92C18.44 115.92 18.37 115.9 18.32 115.87C18.27 115.83 18.22 115.78 18.2 115.72C18.17 115.66 18.17 115.6 18.18 115.53C18.19 115.47 18.22 115.41 18.27 115.37C18.87 114.72 19.5 114.12 20.15 113.53C20.18 113.5 20.22 113.48 20.26 113.46C20.29 113.44 20.34 113.43 20.38 113.43C20.42 113.43 20.46 113.44 20.5 113.46C20.54 113.48 20.58 113.5 20.61 113.53C20.64 113.56 20.66 113.6 20.68 113.64C20.69 113.68 20.7 113.72 20.7 113.76C20.7 113.8 20.69 113.85 20.68 113.89C20.66 113.93 20.64 113.96 20.61 113.99C19.96 114.57 19.35 115.17 18.76 115.8C18.73 115.84 18.69 115.87 18.65 115.89C18.6 115.91 18.55 115.92 18.5 115.92Z" fill="#FFFFFF" fill-opacity="0.600000" fill-rule="nonzero"/>
	<path id="Vector" d="M22.4 112.4C22.35 112.4 22.3 112.39 22.26 112.37C22.21 112.35 22.17 112.32 22.14 112.28C22.09 112.21 22.07 112.12 22.08 112.04C22.09 111.95 22.13 111.87 22.2 111.82C22.55 111.56 22.91 111.3 23.26 111.04C23.3 111.01 23.34 111 23.38 110.98C23.43 110.97 23.47 110.97 23.51 110.98C23.56 110.98 23.6 111 23.64 111.02C23.67 111.05 23.71 111.08 23.73 111.11C23.76 111.15 23.77 111.19 23.78 111.23C23.79 111.28 23.79 111.32 23.78 111.37C23.77 111.41 23.76 111.45 23.73 111.49C23.71 111.52 23.67 111.55 23.64 111.58C23.28 111.82 22.94 112.08 22.6 112.34C22.54 112.38 22.47 112.41 22.4 112.4Z" fill="#FFFFFF" fill-opacity="0.600000" fill-rule="nonzero"/>
	<path id="Vector" d="M168.5 73.48C168.46 73.48 168.41 73.47 168.38 73.46C168.34 73.44 168.3 73.42 168.27 73.39C168.24 73.36 168.22 73.32 168.2 73.28C168.19 73.24 168.18 73.2 168.18 73.16C168.18 73.12 168.19 73.07 168.2 73.04C168.22 73 168.24 72.96 168.27 72.93C168.27 72.93 168.59 72.59 169.15 71.98C169.17 71.94 169.21 71.91 169.25 71.89C169.29 71.86 169.33 71.85 169.38 71.84C169.42 71.83 169.47 71.84 169.51 71.85C169.56 71.87 169.6 71.89 169.63 71.92C169.67 71.95 169.7 71.99 169.71 72.03C169.73 72.07 169.74 72.12 169.74 72.17C169.74 72.21 169.73 72.26 169.71 72.3C169.69 72.34 169.67 72.38 169.63 72.41C169.07 73.06 168.74 73.38 168.74 73.38C168.71 73.41 168.67 73.44 168.63 73.46C168.59 73.47 168.54 73.48 168.5 73.48Z" fill="#FFFFFF" fill-opacity="0.600000" fill-rule="nonzero"/>
	<path id="Vector" d="M171.1 70.54C171.02 70.54 170.95 70.51 170.89 70.46C170.86 70.43 170.83 70.4 170.82 70.36C170.8 70.32 170.79 70.28 170.79 70.23C170.79 70.19 170.8 70.15 170.82 70.11C170.83 70.07 170.86 70.04 170.89 70.01C171.39 69.41 171.95 68.7 172.55 67.98C172.6 67.91 172.68 67.87 172.77 67.86C172.85 67.85 172.94 67.87 173 67.93C173.04 67.95 173.07 67.99 173.09 68.02C173.11 68.06 173.12 68.1 173.13 68.14C173.13 68.19 173.13 68.23 173.12 68.27C173.1 68.31 173.08 68.35 173.06 68.38C172.46 69.14 171.89 69.82 171.38 70.42C171.35 70.46 171.31 70.5 171.26 70.52C171.21 70.54 171.16 70.55 171.1 70.54ZM174.36 66.44C174.29 66.43 174.22 66.41 174.16 66.37C174.1 66.32 174.05 66.24 174.04 66.15C174.03 66.06 174.05 65.98 174.11 65.91C174.61 65.26 175.13 64.54 175.66 63.8C175.71 63.73 175.78 63.68 175.87 63.67C175.95 63.66 176.04 63.68 176.11 63.73C176.18 63.78 176.23 63.85 176.25 63.94C176.26 64.02 176.24 64.11 176.19 64.18C175.66 64.92 175.13 65.63 174.62 66.31C174.59 66.35 174.56 66.38 174.52 66.4C174.48 66.43 174.43 66.44 174.39 66.45L174.36 66.44ZM177.42 62.16C177.36 62.16 177.3 62.14 177.25 62.11C177.2 62.08 177.16 62.04 177.13 61.99C177.1 61.93 177.09 61.87 177.09 61.81C177.1 61.75 177.12 61.7 177.15 61.65C177.63 60.94 178.11 60.21 178.58 59.45C178.63 59.38 178.7 59.33 178.78 59.31C178.87 59.29 178.96 59.3 179.03 59.35C179.1 59.39 179.15 59.47 179.17 59.55C179.19 59.64 179.17 59.72 179.13 59.8C178.68 60.52 178.2 61.26 177.7 62.01C177.67 62.05 177.63 62.09 177.59 62.11C177.55 62.14 177.5 62.15 177.45 62.16L177.42 62.16ZM180.21 57.7C180.15 57.7 180.1 57.68 180.05 57.65C180.01 57.63 179.98 57.6 179.95 57.57C179.92 57.54 179.91 57.5 179.89 57.46C179.88 57.42 179.88 57.37 179.89 57.33C179.89 57.29 179.91 57.25 179.93 57.21C180.37 56.44 180.8 55.67 181.18 54.92C181.22 54.84 181.29 54.78 181.37 54.76C181.45 54.73 181.54 54.74 181.62 54.78C181.7 54.82 181.76 54.89 181.78 54.97C181.81 55.05 181.8 55.14 181.76 55.22C181.37 55.98 180.94 56.75 180.49 57.54C180.46 57.58 180.43 57.62 180.38 57.65C180.34 57.68 180.29 57.7 180.24 57.7L180.21 57.7ZM182.63 53.03C182.58 53.04 182.54 53.04 182.49 53.03C182.45 53.01 182.42 52.99 182.39 52.95C182.36 52.92 182.34 52.89 182.32 52.85C182.31 52.81 182.3 52.76 182.3 52.72C182.3 52.68 182.32 52.64 182.33 52.6C182.7 51.78 183.05 50.98 183.35 50.19C183.37 50.15 183.39 50.12 183.42 50.09C183.45 50.05 183.48 50.03 183.52 50.01C183.56 49.99 183.6 49.98 183.65 49.98C183.69 49.98 183.73 49.99 183.77 50.01C183.85 50.04 183.92 50.1 183.95 50.18C183.99 50.26 183.99 50.35 183.96 50.43C183.65 51.22 183.31 52.04 182.93 52.87C182.9 52.91 182.86 52.95 182.81 52.98C182.76 53.01 182.71 53.03 182.65 53.03L182.63 53.03ZM184.52 48.13L184.42 48.13C184.34 48.1 184.27 48.04 184.23 47.97C184.19 47.89 184.19 47.8 184.21 47.72C184.47 46.87 184.69 46.02 184.86 45.2C184.88 45.12 184.93 45.05 185 45C185.07 44.96 185.16 44.94 185.25 44.96C185.33 44.98 185.4 45.03 185.45 45.1C185.5 45.17 185.52 45.26 185.5 45.34C185.32 46.18 185.1 47.04 184.85 47.95C184.82 48 184.78 48.05 184.72 48.08C184.67 48.11 184.61 48.13 184.55 48.13L184.52 48.13ZM185.62 43L185.58 43C185.5 42.99 185.42 42.95 185.37 42.88C185.31 42.81 185.28 42.73 185.29 42.64C185.29 42.37 185.34 42.1 185.36 41.83C185.36 41.22 185.42 40.62 185.43 40.04C185.43 40 185.44 39.96 185.46 39.92C185.48 39.88 185.5 39.84 185.53 39.81C185.56 39.78 185.6 39.76 185.64 39.75C185.68 39.73 185.72 39.72 185.77 39.73C185.85 39.73 185.93 39.77 185.99 39.83C186.05 39.89 186.09 39.97 186.09 40.06C186.09 40.65 186.04 41.25 186.01 41.87C186.01 42.15 185.97 42.42 185.94 42.7C185.93 42.78 185.9 42.86 185.84 42.91C185.78 42.96 185.7 43 185.62 43ZM185.77 37.75C185.68 37.75 185.6 37.71 185.54 37.65C185.48 37.59 185.44 37.51 185.44 37.43C185.44 36.54 185.38 35.67 185.31 34.82C185.31 34.78 185.31 34.73 185.33 34.69C185.34 34.65 185.36 34.62 185.39 34.58C185.42 34.55 185.45 34.53 185.49 34.51C185.53 34.49 185.57 34.48 185.61 34.47C185.65 34.47 185.7 34.48 185.74 34.49C185.78 34.5 185.82 34.52 185.85 34.55C185.88 34.58 185.91 34.61 185.93 34.65C185.95 34.69 185.96 34.73 185.96 34.77C186.03 35.63 186.07 36.51 186.09 37.41C186.09 37.5 186.06 37.58 186 37.64C185.94 37.71 185.86 37.74 185.77 37.75L185.77 37.75ZM185.34 32.53C185.26 32.53 185.19 32.5 185.13 32.45C185.07 32.4 185.03 32.33 185.02 32.25C184.89 31.38 184.73 30.52 184.54 29.7C184.52 29.61 184.54 29.52 184.59 29.45C184.63 29.37 184.71 29.32 184.8 29.3C184.88 29.28 184.97 29.3 185.05 29.35C185.12 29.39 185.17 29.47 185.19 29.56C185.38 30.39 185.55 31.27 185.68 32.16C185.69 32.25 185.66 32.33 185.61 32.4C185.56 32.47 185.49 32.52 185.4 32.53L185.34 32.53ZM184.16 27.43C184.1 27.43 184.03 27.41 183.97 27.37C183.92 27.33 183.87 27.27 183.85 27.2C183.59 26.38 183.27 25.58 182.92 24.79C182.9 24.76 182.89 24.71 182.89 24.67C182.89 24.63 182.9 24.58 182.91 24.54C182.92 24.5 182.95 24.47 182.98 24.44C183.01 24.4 183.04 24.38 183.08 24.36C183.12 24.34 183.16 24.33 183.2 24.33C183.25 24.33 183.29 24.34 183.33 24.35C183.37 24.37 183.41 24.39 183.44 24.42C183.47 24.45 183.49 24.48 183.51 24.52C183.88 25.33 184.2 26.16 184.47 27C184.5 27.08 184.49 27.17 184.45 27.25C184.42 27.33 184.35 27.38 184.27 27.41C184.23 27.42 184.2 27.41 184.16 27.41L184.16 27.43ZM181.99 22.66C181.93 22.66 181.88 22.65 181.83 22.62C181.78 22.6 181.74 22.56 181.71 22.51C181.26 21.78 180.76 21.08 180.21 20.42C180.16 20.35 180.13 20.26 180.14 20.18C180.15 20.09 180.19 20.01 180.26 19.96C180.29 19.93 180.33 19.91 180.37 19.9C180.41 19.88 180.45 19.88 180.49 19.88C180.53 19.89 180.58 19.9 180.61 19.92C180.65 19.94 180.68 19.97 180.71 20C181.28 20.68 181.8 21.4 182.26 22.15C182.29 22.19 182.3 22.23 182.31 22.27C182.32 22.31 182.32 22.35 182.31 22.4C182.3 22.44 182.28 22.48 182.25 22.51C182.23 22.55 182.19 22.58 182.16 22.6C182.11 22.63 182.05 22.65 181.99 22.64L181.99 22.66ZM178.64 18.64C178.56 18.64 178.49 18.62 178.42 18.57C177.78 17.99 177.1 17.47 176.38 17C176.34 16.98 176.31 16.95 176.28 16.92C176.25 16.88 176.23 16.84 176.22 16.8C176.21 16.75 176.21 16.71 176.22 16.67C176.23 16.62 176.24 16.58 176.27 16.54C176.29 16.51 176.32 16.47 176.36 16.45C176.4 16.42 176.44 16.41 176.48 16.4C176.52 16.39 176.57 16.39 176.61 16.4C176.65 16.41 176.7 16.43 176.73 16.46C177.48 16.94 178.19 17.48 178.86 18.08C178.92 18.14 178.95 18.22 178.95 18.31C178.95 18.4 178.92 18.48 178.86 18.54C178.8 18.59 178.72 18.62 178.64 18.62L178.64 18.64ZM174.26 15.8C174.21 15.81 174.16 15.81 174.12 15.8C173.33 15.44 172.53 15.14 171.7 14.89C171.62 14.86 171.54 14.8 171.5 14.72C171.46 14.64 171.45 14.55 171.47 14.47C171.5 14.38 171.55 14.31 171.63 14.26C171.71 14.22 171.8 14.21 171.89 14.23C172.74 14.49 173.58 14.8 174.39 15.17C174.43 15.19 174.47 15.21 174.5 15.25C174.52 15.28 174.55 15.31 174.56 15.35C174.58 15.39 174.58 15.44 174.58 15.48C174.58 15.52 174.57 15.56 174.55 15.6C174.52 15.66 174.48 15.7 174.43 15.73C174.38 15.76 174.32 15.78 174.26 15.78L174.26 15.8ZM169.24 14.27L169.18 14.27C168.33 14.12 167.47 14.02 166.61 13.97C166.56 13.97 166.52 13.96 166.48 13.94C166.45 13.92 166.41 13.9 166.38 13.86C166.35 13.83 166.33 13.79 166.32 13.75C166.3 13.71 166.3 13.67 166.3 13.63C166.3 13.58 166.31 13.54 166.33 13.5C166.35 13.46 166.37 13.43 166.4 13.4C166.44 13.37 166.48 13.35 166.52 13.33C166.56 13.32 166.6 13.32 166.65 13.32C167.53 13.37 168.42 13.47 169.29 13.62C169.38 13.64 169.45 13.69 169.5 13.76C169.55 13.83 169.57 13.91 169.56 14C169.54 14.07 169.5 14.13 169.44 14.18C169.38 14.23 169.31 14.25 169.24 14.25L169.24 14.27Z" fill="#FFFFFF" fill-opacity="0.600000" fill-rule="nonzero"/>
	<path id="Vector" d="M162.68 14.08C162.64 14.08 162.59 14.08 162.55 14.06C162.51 14.05 162.47 14.03 162.44 14C162.41 13.97 162.38 13.94 162.36 13.9C162.34 13.86 162.33 13.82 162.33 13.78C162.32 13.73 162.33 13.69 162.34 13.65C162.36 13.61 162.38 13.57 162.4 13.54C162.46 13.47 162.54 13.43 162.63 13.43C163.06 13.36 163.49 13.31 163.93 13.3C164.02 13.29 164.1 13.32 164.17 13.38C164.23 13.43 164.27 13.52 164.28 13.6C164.28 13.69 164.25 13.77 164.19 13.84C164.14 13.9 164.06 13.94 163.97 13.95C163.18 13.99 162.71 14.06 162.71 14.06L162.68 14.08Z" fill="#FFFFFF" fill-opacity="0.600000" fill-rule="nonzero"/>
	<path id="Vector" d="M10.23 53.7L10.03 53.7C9.52 53.64 9.05 53.38 8.72 52.98L0.45 42.89C0.28 42.69 0.16 42.45 0.08 42.21C0 41.96 -0.02 41.69 0 41.44C0.03 41.18 0.11 40.92 0.23 40.7C0.36 40.47 0.53 40.27 0.73 40.1L20.37 24.04C20.57 23.88 20.8 23.75 21.05 23.68C21.3 23.6 21.56 23.57 21.82 23.6C22.08 23.63 22.33 23.7 22.56 23.83C22.79 23.95 22.99 24.12 23.15 24.33L31.4 34.42C31.57 34.62 31.69 34.85 31.77 35.1C31.85 35.35 31.87 35.61 31.85 35.87C31.82 36.13 31.74 36.38 31.62 36.61C31.49 36.83 31.33 37.04 31.12 37.2L11.48 53.25C11.13 53.54 10.69 53.7 10.23 53.7ZM21.62 24.25C21.32 24.25 21.02 24.36 20.78 24.55L1.14 40.61C1.01 40.72 0.9 40.85 0.82 41C0.74 41.16 0.69 41.33 0.68 41.5C0.65 41.85 0.75 42.2 0.97 42.47L9.22 52.56C9.33 52.7 9.46 52.81 9.62 52.89C9.77 52.97 9.94 53.03 10.11 53.04C10.46 53.07 10.81 52.97 11.08 52.75L30.71 36.69C30.85 36.58 30.96 36.45 31.05 36.29C31.13 36.14 31.18 35.97 31.2 35.8C31.22 35.62 31.2 35.45 31.15 35.28C31.1 35.12 31.01 34.96 30.9 34.83L22.65 24.75C22.53 24.6 22.37 24.47 22.2 24.39C22.02 24.3 21.82 24.25 21.62 24.25Z" fill="#FFFFFF" fill-opacity="0.600000" fill-rule="nonzero"/>
	<path id="Vector" d="M0.35 41.69C0.27 41.69 0.18 41.66 0.12 41.6C0.06 41.54 0.03 41.45 0.03 41.37C0.02 41.32 0.03 41.28 0.04 41.24C0.05 41.2 0.07 41.16 0.1 41.13C0.13 41.1 0.16 41.07 0.2 41.05C0.24 41.03 0.28 41.02 0.32 41.02L16.69 39.6L21.34 23.84C21.35 23.79 21.37 23.76 21.4 23.72C21.43 23.69 21.46 23.66 21.5 23.64C21.54 23.62 21.58 23.61 21.62 23.6C21.66 23.6 21.71 23.6 21.75 23.61C21.83 23.64 21.9 23.7 21.94 23.77C21.98 23.85 21.99 23.94 21.96 24.02L17.26 39.99C17.24 40.06 17.21 40.11 17.16 40.15C17.1 40.2 17.04 40.22 16.98 40.23L0.39 41.69L0.35 41.69Z" fill="#FFFFFF" fill-opacity="0.600000" fill-rule="nonzero"/>
	<path id="Vector" d="M17.62 37.89C17.53 37.89 17.45 37.85 17.39 37.79C17.33 37.73 17.29 37.65 17.29 37.56C17.29 37.48 17.33 37.39 17.39 37.33C17.45 37.27 17.53 37.24 17.62 37.24L31.47 35.65C31.55 35.65 31.64 35.67 31.7 35.73C31.77 35.78 31.81 35.86 31.83 35.94C31.83 35.98 31.83 36.03 31.82 36.07C31.8 36.11 31.78 36.15 31.76 36.18C31.73 36.22 31.7 36.25 31.66 36.27C31.62 36.29 31.58 36.3 31.54 36.31L17.68 37.89L17.62 37.89Z" fill="#FFFFFF" fill-opacity="0.600000" fill-rule="nonzero"/>
	<path id="Vector" d="M10.21 53.7C10.18 53.71 10.14 53.71 10.11 53.7C10.07 53.69 10.03 53.67 10 53.64C9.97 53.61 9.94 53.58 9.92 53.54C9.9 53.5 9.89 53.46 9.89 53.42C9.88 53.37 9.89 53.33 9.9 53.29L14.21 40.03C14.22 39.99 14.24 39.95 14.27 39.91C14.3 39.88 14.34 39.85 14.38 39.83C14.42 39.81 14.46 39.8 14.5 39.79C14.55 39.79 14.59 39.79 14.64 39.81C14.68 39.82 14.72 39.84 14.75 39.87C14.79 39.9 14.82 39.93 14.84 39.97C14.86 40.01 14.87 40.06 14.87 40.1C14.88 40.15 14.87 40.19 14.86 40.23L10.55 53.49C10.53 53.56 10.48 53.62 10.42 53.65C10.35 53.69 10.28 53.71 10.21 53.7Z" fill="#FFFFFF" fill-opacity="0.600000" fill-rule="nonzero"/>
	<path id="Vector" d="M193.05 107.2C192.83 107.2 192.6 107.16 192.4 107.07L173.69 98.95C173.49 98.87 173.31 98.74 173.15 98.59C173 98.43 172.88 98.25 172.8 98.04C172.64 97.64 172.64 97.18 172.8 96.77L176.97 87.17C177.14 86.76 177.47 86.45 177.88 86.29C178.28 86.13 178.74 86.13 179.14 86.31L197.86 94.42C198.06 94.5 198.24 94.63 198.39 94.78C198.54 94.94 198.66 95.13 198.74 95.33C198.82 95.53 198.86 95.74 198.86 95.96C198.86 96.18 198.82 96.39 198.74 96.59L194.57 106.19C194.48 106.39 194.36 106.57 194.2 106.72C194.05 106.87 193.86 106.99 193.66 107.07C193.47 107.15 193.26 107.2 193.05 107.2ZM178.53 86.82C178.33 86.82 178.14 86.88 177.98 86.99C177.82 87.09 177.69 87.25 177.61 87.43L173.42 97.07C173.31 97.31 173.31 97.58 173.41 97.83C173.51 98.07 173.7 98.27 173.94 98.37L192.65 106.49C192.9 106.59 193.18 106.59 193.42 106.49C193.54 106.44 193.66 106.37 193.75 106.28C193.84 106.19 193.92 106.08 193.97 105.95L198.14 96.34C198.24 96.09 198.24 95.82 198.14 95.58C198.09 95.45 198.02 95.34 197.93 95.24C197.84 95.15 197.73 95.07 197.6 95.02L178.9 86.9C178.78 86.85 178.66 86.82 178.53 86.82Z" fill="#FFFFFF" fill-opacity="0.600000" fill-rule="nonzero"/>
	<path id="Vector" d="M185.26 98.2C185.2 98.2 185.15 98.19 185.1 98.16C185.05 98.14 185.01 98.1 184.99 98.05L177.82 86.73C177.8 86.69 177.78 86.65 177.77 86.61C177.77 86.57 177.77 86.52 177.78 86.48C177.79 86.44 177.81 86.4 177.83 86.37C177.86 86.33 177.89 86.3 177.92 86.28C177.96 86.26 178 86.24 178.04 86.23C178.08 86.23 178.13 86.23 178.17 86.24C178.21 86.25 178.25 86.27 178.29 86.29C178.32 86.32 178.35 86.35 178.37 86.38L185.4 97.52L198.33 95.04C198.37 95.03 198.41 95.02 198.45 95.03C198.5 95.04 198.54 95.06 198.57 95.08C198.61 95.1 198.64 95.13 198.66 95.17C198.69 95.21 198.7 95.25 198.71 95.29C198.73 95.37 198.71 95.46 198.66 95.53C198.61 95.61 198.54 95.66 198.45 95.67L185.3 98.2L185.26 98.2Z" fill="#FFFFFF" fill-opacity="0.600000" fill-rule="nonzero"/>
	<path id="Vector" d="M193.43 107.15C193.37 107.15 193.32 107.13 193.27 107.11C193.23 107.08 193.19 107.05 193.15 107L186.91 97.72C186.87 97.65 186.85 97.56 186.87 97.48C186.88 97.39 186.93 97.32 187 97.27C187.04 97.25 187.08 97.23 187.12 97.22C187.16 97.21 187.21 97.21 187.25 97.22C187.29 97.23 187.33 97.25 187.37 97.27C187.4 97.29 187.43 97.32 187.45 97.36L193.7 106.67C193.74 106.74 193.76 106.83 193.74 106.92C193.73 107 193.68 107.08 193.6 107.13C193.55 107.15 193.49 107.16 193.43 107.15Z" fill="#FFFFFF" fill-opacity="0.600000" fill-rule="nonzero"/>
	<path id="Vector" d="M173.15 98.37C173.08 98.37 173 98.34 172.94 98.29C172.88 98.24 172.84 98.17 172.83 98.1C172.82 98.05 172.82 98.01 172.83 97.97C172.84 97.93 172.86 97.89 172.89 97.85C172.91 97.82 172.95 97.79 172.98 97.77C173.02 97.75 173.06 97.73 173.1 97.73L184.18 95.91C184.22 95.91 184.26 95.91 184.31 95.92C184.35 95.93 184.39 95.95 184.42 95.97C184.46 96 184.49 96.03 184.51 96.07C184.53 96.1 184.55 96.15 184.56 96.19C184.56 96.23 184.56 96.27 184.55 96.32C184.54 96.36 184.52 96.4 184.5 96.43C184.47 96.47 184.44 96.5 184.4 96.52C184.37 96.54 184.32 96.56 184.28 96.57L173.21 98.38L173.15 98.37Z" fill="#FFFFFF" fill-opacity="0.600000" fill-rule="nonzero"/>
	<path id="Vector" d="M64.52 24.61C64.38 24.61 64.25 24.59 64.12 24.55L49.96 19.86C49.64 19.75 49.37 19.51 49.21 19.2C49.06 18.9 49.03 18.54 49.14 18.21L51.55 10.94C51.66 10.62 51.89 10.35 52.2 10.19C52.51 10.04 52.86 10.01 53.19 10.12L67.34 14.81C67.67 14.92 67.94 15.15 68.09 15.46C68.25 15.77 68.27 16.12 68.16 16.45L65.76 23.72C65.67 23.98 65.51 24.21 65.29 24.37C65.06 24.53 64.8 24.61 64.52 24.61ZM64.32 23.93C64.48 23.99 64.66 23.99 64.82 23.93C64.89 23.89 64.96 23.84 65.02 23.77C65.07 23.71 65.11 23.63 65.14 23.55L67.56 16.29C67.62 16.13 67.62 15.95 67.56 15.79C67.48 15.64 67.35 15.52 67.19 15.47L53.03 10.77C52.87 10.72 52.69 10.74 52.54 10.81C52.38 10.89 52.27 11.02 52.22 11.18L49.81 18.46C49.74 18.61 49.74 18.79 49.81 18.95C49.88 19.1 50.02 19.22 50.18 19.27L64.32 23.93Z" fill="#FFFFFF" fill-opacity="0.600000" fill-rule="nonzero"/>
	<path id="Vector" d="M58.37 18.57C58.32 18.57 58.27 18.55 58.22 18.53C58.18 18.51 58.14 18.48 58.11 18.44L52.14 10.66C52.1 10.59 52.08 10.5 52.09 10.42C52.11 10.34 52.15 10.27 52.21 10.22C52.28 10.17 52.36 10.14 52.45 10.15C52.53 10.16 52.6 10.2 52.66 10.26L58.46 17.86L67.66 15.26C67.7 15.24 67.75 15.24 67.79 15.25C67.83 15.25 67.87 15.26 67.91 15.29C67.95 15.31 67.98 15.34 68.01 15.37C68.04 15.4 68.05 15.44 68.07 15.48C68.09 15.57 68.08 15.66 68.03 15.73C67.99 15.8 67.92 15.86 67.84 15.88L58.43 18.58L58.37 18.57Z" fill="#FFFFFF" fill-opacity="0.600000" fill-rule="nonzero"/>
	<path id="Vector" d="M64.89 24.55C64.84 24.55 64.8 24.54 64.75 24.51C64.71 24.49 64.67 24.46 64.64 24.42L59.49 18.05C59.44 17.98 59.41 17.9 59.42 17.81C59.43 17.73 59.47 17.65 59.54 17.59C59.61 17.54 59.7 17.51 59.78 17.52C59.87 17.53 59.95 17.57 60 17.64L65.15 24.02C65.2 24.09 65.23 24.17 65.22 24.26C65.21 24.34 65.16 24.42 65.1 24.47C65.04 24.52 64.97 24.55 64.89 24.55Z" fill="#FFFFFF" fill-opacity="0.600000" fill-rule="nonzero"/>
	<path id="Vector" d="M49.54 19.46C49.5 19.47 49.45 19.47 49.41 19.46C49.37 19.44 49.33 19.42 49.3 19.4C49.26 19.37 49.23 19.34 49.21 19.3C49.19 19.26 49.18 19.22 49.17 19.18C49.17 19.14 49.17 19.09 49.18 19.05C49.2 19.01 49.21 18.97 49.24 18.94C49.27 18.9 49.3 18.87 49.34 18.85C49.38 18.83 49.42 18.82 49.46 18.81L57.4 16.78C57.44 16.77 57.48 16.77 57.52 16.77C57.56 16.78 57.61 16.79 57.64 16.82C57.68 16.84 57.71 16.87 57.74 16.9C57.76 16.93 57.78 16.97 57.79 17.02C57.8 17.06 57.81 17.1 57.8 17.14C57.79 17.18 57.78 17.22 57.76 17.26C57.74 17.3 57.71 17.33 57.67 17.35C57.64 17.38 57.6 17.4 57.56 17.41L49.62 19.45L49.54 19.46Z" fill="#FFFFFF" fill-opacity="0.600000" fill-rule="nonzero"/>
</svg>
