<svg width="296.000000" height="218.000977" viewBox="0 0 296 218.001" fill="none" xmlns="http://www.w3.org/2000/svg" xmlns:xlink="http://www.w3.org/1999/xlink">
	<desc>
			Created with Pixso.
	</desc>
	<defs/>
	<path id="Vector" d="M145.29 202.09C75.17 202.09 18.13 162.62 18.13 114.11C18.13 65.61 75.17 26.12 145.29 26.12C215.41 26.12 272.46 65.65 272.46 114.11C272.46 129.1 266.91 143.9 256.41 156.92C257.79 175.94 259.33 198.7 259.35 198.93C259.36 199.05 259.33 199.16 259.26 199.26C259.2 199.35 259.1 199.42 258.99 199.45C258.88 199.48 258.76 199.47 258.65 199.43C258.54 199.39 258.46 199.31 258.4 199.21L243.11 170.34C218.85 190.52 183.25 202.09 145.29 202.09ZM145.29 27.13C75.73 27.13 19.14 66.15 19.14 114.11C19.14 162.07 75.7 201.08 145.29 201.08C183.26 201.08 218.85 189.45 242.94 169.16C243.06 169.07 243.21 169.03 243.36 169.05C243.44 169.06 243.51 169.09 243.57 169.14C243.63 169.18 243.68 169.24 243.72 169.31L258.18 196.69C257.75 190.32 256.51 172.31 255.38 156.85C255.37 156.72 255.41 156.6 255.49 156.5C265.94 143.62 271.45 128.98 271.45 114.16C271.45 66.15 214.86 27.13 145.29 27.13Z" fill="#FFFFFF" fill-opacity="0.160000" fill-rule="evenodd"/>
	<path id="Vector" d="M60.62 21.91C60.62 21.91 62.96 17.59 66.68 11.64C66.68 11.64 78.62 20.54 78.51 20.04C78.41 19.55 60.62 21.91 60.62 21.91Z" fill="#323232" fill-opacity="1.000000" fill-rule="nonzero"/>
	<path id="Vector" d="M60.62 22.41C60.53 22.41 60.44 22.39 60.37 22.35C60.29 22.31 60.23 22.24 60.18 22.17C60.14 22.09 60.11 22.01 60.11 21.92C60.11 21.83 60.13 21.75 60.17 21.67C60.17 21.67 62.57 17.27 66.28 11.37C66.36 11.25 66.48 11.17 66.62 11.14C66.69 11.13 66.76 11.13 66.82 11.15C66.89 11.16 66.96 11.19 67.01 11.24C71.15 14.32 77.97 19.3 78.67 19.58C79 19.66 79.02 19.79 79.05 19.94C79.07 20.05 79.06 20.16 79.02 20.25C78.98 20.35 78.91 20.43 78.82 20.49C78.72 20.55 78.63 20.61 78.33 20.49C77.21 20.34 66.96 21.58 60.68 22.41L60.62 22.41ZM66.85 12.33C64.26 16.46 62.37 19.75 61.54 21.25C70.19 20.12 74.54 19.64 76.69 19.52C75.16 18.49 72.27 16.41 66.85 12.36L66.85 12.33Z" fill="#2FE784" fill-opacity="1.000000" fill-rule="nonzero"/>
	<path id="Vector" d="M218.8 201.69L224.76 191.77L216.52 184.33L218.8 201.69Z" fill="#231F20" fill-opacity="1.000000" fill-rule="nonzero"/>
	<path id="Vector" d="M218.8 202.19L218.68 202.19C218.57 202.17 218.48 202.12 218.41 202.04C218.34 201.96 218.29 201.86 218.28 201.76L215.99 184.41C215.98 184.31 216 184.2 216.05 184.11C216.09 184.02 216.17 183.94 216.26 183.9C216.35 183.85 216.46 183.83 216.56 183.84C216.66 183.85 216.75 183.9 216.83 183.97L225.08 191.4C225.17 191.48 225.22 191.59 225.24 191.71C225.26 191.82 225.23 191.94 225.17 192.04L219.21 201.96C219.17 202.03 219.11 202.09 219.03 202.13C218.96 202.17 218.88 202.19 218.8 202.19ZM217.19 185.6L219.11 200.16L224.11 191.85L217.19 185.6Z" fill="#231F20" fill-opacity="1.000000" fill-rule="nonzero"/>
	<path id="Vector" d="M214.94 203.74L118.99 217.38C117.02 217.64 115.03 217.19 113.36 216.11C111.7 215.03 110.47 213.4 109.9 211.5L60.27 26.16C59.26 22.32 61.72 18.95 65.79 18.61L163.62 10.74C165.56 10.65 167.47 11.21 169.05 12.32C170.63 13.44 171.79 15.06 172.34 16.91L219.95 196.12C220.2 196.95 220.26 197.83 220.13 198.69C220.01 199.55 219.69 200.37 219.22 201.09C218.74 201.82 218.11 202.43 217.37 202.89C216.63 203.35 215.8 203.64 214.94 203.74Z" fill="#323232" fill-opacity="1.000000" fill-rule="nonzero"/>
	<path id="Vector" d="M117.93 218C116.02 217.99 114.16 217.37 112.63 216.23C111.1 215.09 109.98 213.49 109.43 211.67L59.79 26.33C59.52 25.42 59.45 24.46 59.6 23.52C59.75 22.57 60.11 21.68 60.66 20.89C61.24 20.09 62 19.43 62.87 18.96C63.75 18.48 64.72 18.21 65.71 18.15L163.58 10.21C165.63 10.11 167.66 10.7 169.34 11.89C171.02 13.07 172.24 14.79 172.82 16.76L220.43 195.96C220.7 196.87 220.76 197.83 220.62 198.77C220.48 199.71 220.14 200.61 219.62 201.4C219.1 202.18 218.42 202.83 217.62 203.32C216.83 203.81 215.94 204.12 215.01 204.24L119.06 217.89C118.68 217.95 118.31 217.98 117.93 218ZM164.22 11.22L163.66 11.22L65.83 19.09C64.98 19.13 64.14 19.36 63.39 19.76C62.64 20.16 61.98 20.72 61.48 21.41C61.02 22.07 60.72 22.83 60.6 23.63C60.48 24.43 60.53 25.24 60.76 26.01L110.41 211.4C110.95 213.18 112.1 214.71 113.66 215.72C115.22 216.73 117.09 217.16 118.94 216.92L214.89 203.27C215.67 203.17 216.43 202.91 217.1 202.5C217.78 202.09 218.36 201.53 218.8 200.88C219.24 200.2 219.52 199.44 219.64 198.64C219.76 197.84 219.71 197.03 219.49 196.25L171.84 17.04C171.35 15.39 170.35 13.94 168.98 12.89C167.61 11.84 165.94 11.26 164.22 11.22Z" fill="#231F20" fill-opacity="1.000000" fill-rule="nonzero"/>
	<path id="Vector" d="M221.18 193.54L125.23 207.18C123.26 207.44 121.26 206.99 119.6 205.91C117.93 204.84 116.71 203.2 116.14 201.3L66.52 15.93C65.51 12.09 67.96 8.71 72.03 8.38L169.87 0.51C171.81 0.42 173.72 0.97 175.29 2.09C176.87 3.21 178.03 4.83 178.58 6.68L226.19 185.89C226.44 186.72 226.51 187.6 226.39 188.47C226.26 189.33 225.95 190.15 225.47 190.88C225 191.61 224.36 192.23 223.62 192.69C222.88 193.15 222.05 193.44 221.18 193.54Z" fill="#FFFFFF" fill-opacity="1.000000" fill-rule="nonzero"/>
	<path id="Vector" d="M124.17 207.77C122.26 207.77 120.41 207.14 118.88 206.01C117.35 204.87 116.23 203.27 115.67 201.44L66.03 16.06C65.76 15.15 65.7 14.19 65.85 13.24C66 12.3 66.36 11.41 66.9 10.62C67.49 9.82 68.25 9.16 69.12 8.69C69.99 8.21 70.96 7.94 71.95 7.88L169.79 0.01C171.84 -0.09 173.87 0.5 175.54 1.69C177.22 2.87 178.44 4.59 179.02 6.56L226.65 185.76C226.91 186.67 226.97 187.63 226.83 188.57C226.69 189.51 226.35 190.41 225.83 191.2C225.31 191.98 224.63 192.63 223.83 193.12C223.03 193.61 222.14 193.92 221.21 194.04L125.26 207.68C124.9 207.74 124.53 207.77 124.17 207.77ZM170.46 0.99L169.91 0.99L72.07 8.87C71.22 8.91 70.39 9.13 69.64 9.54C68.89 9.94 68.23 10.5 67.73 11.18C67.27 11.85 66.97 12.61 66.84 13.41C66.72 14.2 66.77 15.02 67 15.79L116.66 201.17C117.2 202.95 118.35 204.48 119.91 205.49C121.47 206.5 123.34 206.92 125.19 206.69L221.14 193.04C221.93 192.94 222.68 192.68 223.36 192.27C224.03 191.85 224.61 191.3 225.05 190.65C225.49 189.97 225.78 189.21 225.9 188.41C226.02 187.61 225.96 186.8 225.74 186.02L178.09 6.81C177.6 5.16 176.6 3.71 175.22 2.66C173.85 1.62 172.18 1.03 170.46 0.99Z" fill="#231F20" fill-opacity="1.000000" fill-rule="nonzero"/>
	<path id="Vector" d="M75.99 28.13L176.16 19.47L214.59 164.08L115.9 177.17L75.99 28.13Z" fill="#2FE784" fill-opacity="1.000000" fill-rule="nonzero"/>
	<path id="Vector" d="M181.53 192.46L162.81 195.09C161.62 195.24 160.42 194.96 159.42 194.3C158.42 193.64 157.68 192.65 157.35 191.51L155.49 184.59C155.33 184.06 155.3 183.51 155.38 182.96C155.46 182.42 155.67 181.9 155.98 181.44C156.28 180.99 156.69 180.6 157.16 180.32C157.63 180.03 158.16 179.86 158.71 179.8L177.47 177.26C178.65 177.13 179.83 177.42 180.82 178.08C181.8 178.74 182.53 179.72 182.86 180.85L184.7 187.76C184.85 188.27 184.88 188.82 184.79 189.35C184.71 189.89 184.51 190.39 184.21 190.84C183.9 191.29 183.51 191.67 183.05 191.95C182.58 192.23 182.07 192.4 181.53 192.46Z" fill="#FFFFFF" fill-opacity="1.000000" fill-rule="nonzero"/>
	<path id="Vector" d="M162.18 195.68C160.97 195.67 159.81 195.27 158.85 194.54C157.89 193.81 157.2 192.8 156.86 191.65L155.05 184.67C154.88 184.08 154.84 183.45 154.93 182.84C155.03 182.23 155.25 181.65 155.59 181.13C155.94 180.61 156.4 180.18 156.94 179.85C157.48 179.52 158.08 179.32 158.7 179.25L177.45 176.72C178.75 176.57 180.06 176.89 181.15 177.61C182.23 178.33 183.03 179.42 183.4 180.67L185.25 187.57C185.42 188.17 185.46 188.79 185.37 189.4C185.27 190.01 185.05 190.59 184.7 191.11C184.36 191.62 183.91 192.05 183.38 192.37C182.86 192.7 182.26 192.9 181.65 192.97L162.93 195.59C162.68 195.64 162.43 195.67 162.18 195.68ZM178.07 177.72C177.89 177.7 177.71 177.7 177.53 177.72L158.78 180.25C158.3 180.3 157.84 180.46 157.42 180.71C157.01 180.96 156.65 181.29 156.38 181.69C156.12 182.09 155.95 182.53 155.88 183C155.81 183.47 155.84 183.95 155.97 184.41L157.83 191.37C158.14 192.4 158.8 193.29 159.7 193.88C160.6 194.47 161.67 194.72 162.74 194.59L181.46 191.97C181.93 191.91 182.39 191.76 182.79 191.51C183.2 191.26 183.55 190.93 183.81 190.54C184.07 190.14 184.24 189.7 184.31 189.23C184.38 188.77 184.35 188.29 184.22 187.84L182.38 180.93C182.1 180 181.54 179.18 180.76 178.6C179.99 178.01 179.05 177.69 178.07 177.68L178.07 177.72Z" fill="#E6E7E8" fill-opacity="1.000000" fill-rule="nonzero"/>
	<path id="Vector" d="M105.62 15.7C105.49 15.7 105.36 15.65 105.27 15.55C105.17 15.46 105.12 15.33 105.12 15.2C105.12 15.06 105.17 14.94 105.27 14.84C105.36 14.75 105.49 14.69 105.62 14.69L134.24 12.31C134.3 12.31 134.37 12.31 134.43 12.33C134.5 12.35 134.56 12.38 134.61 12.43C134.66 12.47 134.7 12.52 134.73 12.58C134.76 12.64 134.78 12.7 134.78 12.77C134.79 12.83 134.78 12.9 134.76 12.96C134.74 13.03 134.71 13.09 134.67 13.14C134.62 13.19 134.57 13.23 134.51 13.26C134.45 13.29 134.39 13.31 134.32 13.31L105.71 15.7L105.62 15.7Z" fill="#E6E7E8" fill-opacity="1.000000" fill-rule="nonzero"/>
	<path id="Vector" d="M138.21 12.98C138.07 12.98 137.95 12.93 137.85 12.83C137.76 12.74 137.7 12.61 137.7 12.48C137.7 12.34 137.76 12.21 137.85 12.12C137.95 12.02 138.07 11.97 138.21 11.97L142 11.65C142.14 11.64 142.27 11.68 142.37 11.77C142.48 11.86 142.54 11.98 142.55 12.11C142.56 12.25 142.52 12.38 142.43 12.48C142.34 12.58 142.22 12.65 142.09 12.66L138.3 12.97L138.21 12.98Z" fill="#E6E7E8" fill-opacity="1.000000" fill-rule="nonzero"/>
	<path id="Vector" d="M111.83 97.9C111.72 97.9 111.62 97.87 111.53 97.81C111.43 97.74 111.35 97.62 111.33 97.49C111.3 97.36 111.33 97.23 111.4 97.12L156.72 31.08C156.8 30.97 156.91 30.9 157.04 30.87C157.18 30.84 157.31 30.87 157.42 30.95C157.53 31.02 157.61 31.14 157.64 31.27C157.66 31.4 157.64 31.54 157.56 31.65L112.24 97.68C112.19 97.75 112.13 97.8 112.06 97.84C111.99 97.88 111.91 97.9 111.83 97.9Z" fill="#FFFFFF" fill-opacity="1.000000" fill-rule="nonzero"/>
	<path id="Vector" d="M148.63 153.72C148.53 153.72 148.42 153.68 148.34 153.63C148.28 153.59 148.24 153.54 148.2 153.48C148.17 153.43 148.14 153.36 148.13 153.3C148.12 153.23 148.12 153.17 148.14 153.1C148.15 153.03 148.18 152.97 148.22 152.92L175.49 113.82C175.57 113.72 175.68 113.65 175.81 113.63C175.94 113.61 176.07 113.64 176.18 113.71C176.28 113.79 176.36 113.9 176.38 114.03C176.41 114.15 176.39 114.28 176.32 114.39L149.05 153.5C149 153.57 148.94 153.62 148.86 153.66C148.79 153.7 148.71 153.72 148.63 153.72Z" fill="#FFFFFF" fill-opacity="1.000000" fill-rule="nonzero"/>
	<path id="Vector" d="M141.16 116.67C141.06 116.67 140.96 116.64 140.87 116.58C140.82 116.55 140.77 116.5 140.74 116.44C140.7 116.39 140.67 116.33 140.66 116.26C140.65 116.2 140.65 116.13 140.66 116.07C140.68 116 140.71 115.94 140.74 115.89L151.4 100.07C151.47 99.96 151.59 99.88 151.72 99.86C151.85 99.83 151.98 99.86 152.1 99.93C152.21 100.01 152.28 100.12 152.31 100.25C152.34 100.39 152.31 100.52 152.24 100.64L141.58 116.45C141.53 116.52 141.47 116.57 141.4 116.61C141.32 116.65 141.24 116.67 141.16 116.67Z" fill="#FFFFFF" fill-opacity="1.000000" fill-rule="nonzero"/>
	<path id="Vector" d="M106.86 72.36L56.6 76.47C55.7 76.48 54.83 76.17 54.13 75.61C53.43 75.04 52.96 74.25 52.78 73.37L45.38 39.7C45.25 39.32 45.22 38.91 45.28 38.51C45.33 38.11 45.48 37.73 45.7 37.39C45.93 37.06 46.23 36.78 46.58 36.57C46.93 36.37 47.32 36.25 47.72 36.21L97.85 33.19C98.71 33.21 99.53 33.52 100.2 34.07C100.86 34.62 101.31 35.37 101.49 36.21L109.02 68.86C109.43 70.69 108.46 72.23 106.86 72.36Z" fill="#FFFFFF" fill-opacity="1.000000" fill-rule="nonzero"/>
	<path id="Vector" d="M98.01 33.19C98.84 33.25 99.62 33.58 100.25 34.12C100.88 34.67 101.32 35.4 101.49 36.21L109.02 68.86C109.43 70.66 108.46 72.22 106.86 72.35L56.6 76.46L56.36 76.46C55.51 76.41 54.69 76.08 54.04 75.52C53.4 74.96 52.95 74.2 52.78 73.36L45.38 39.69C45.25 39.31 45.22 38.9 45.28 38.5C45.33 38.1 45.48 37.72 45.7 37.38C45.93 37.05 46.23 36.77 46.58 36.56C46.93 36.36 47.32 36.24 47.72 36.2L97.85 33.18L98.01 33.18L98.01 33.19ZM98.01 32.17L97.79 32.17L47.66 35.2C47.15 35.22 46.65 35.36 46.19 35.59C45.74 35.83 45.34 36.17 45.03 36.58C44.69 37.05 44.45 37.6 44.34 38.17C44.23 38.75 44.24 39.34 44.39 39.91L51.79 73.58C52.01 74.64 52.58 75.6 53.41 76.31C54.24 77.01 55.28 77.42 56.36 77.47L56.68 77.47L106.94 73.37C107.42 73.33 107.89 73.19 108.32 72.95C108.74 72.71 109.11 72.39 109.4 72C109.73 71.51 109.96 70.96 110.06 70.39C110.16 69.81 110.14 69.22 110 68.65L102.52 35.99C102.3 34.96 101.74 34.02 100.94 33.33C100.13 32.64 99.12 32.24 98.06 32.18L98.01 32.17Z" fill="#231F20" fill-opacity="1.000000" fill-rule="nonzero"/>
	<path id="Vector" d="M79.15 61.99C79.04 61.99 78.94 61.95 78.86 61.89L45.53 37.7C45.42 37.62 45.35 37.5 45.33 37.36C45.31 37.23 45.34 37.1 45.42 36.99C45.45 36.93 45.5 36.89 45.56 36.85C45.62 36.82 45.68 36.79 45.75 36.78C45.81 36.77 45.88 36.78 45.94 36.79C46.01 36.81 46.07 36.84 46.12 36.88L79.06 60.82L99.64 33.67C99.73 33.57 99.85 33.5 99.98 33.48C100.12 33.46 100.25 33.5 100.36 33.58C100.46 33.66 100.53 33.78 100.55 33.91C100.57 34.05 100.53 34.18 100.45 34.29L79.57 61.82C79.51 61.87 79.45 61.92 79.38 61.95C79.31 61.98 79.23 61.99 79.15 61.99Z" fill="#D1D3D4" fill-opacity="1.000000" fill-rule="nonzero"/>
	<path id="Vector" d="M108.58 71.85C108.48 71.84 108.38 71.81 108.3 71.75L83.96 55.18C83.9 55.15 83.86 55.1 83.82 55.04C83.78 54.99 83.76 54.93 83.75 54.86C83.73 54.8 83.73 54.73 83.75 54.67C83.76 54.6 83.79 54.54 83.83 54.49C83.9 54.38 84.02 54.3 84.15 54.27C84.28 54.25 84.42 54.27 84.53 54.35L108.91 70.93C108.99 70.99 109.06 71.08 109.1 71.18C109.13 71.28 109.13 71.39 109.1 71.49C109.07 71.59 109.01 71.68 108.92 71.75C108.84 71.81 108.73 71.84 108.62 71.85L108.58 71.85Z" fill="#D1D3D4" fill-opacity="1.000000" fill-rule="nonzero"/>
	<path id="Vector" d="M54.32 76.25C54.21 76.25 54.1 76.21 54 76.14C53.9 76.05 53.84 75.93 53.83 75.79C53.81 75.66 53.86 75.53 53.94 75.42L70.81 55.37C70.89 55.27 71.02 55.21 71.15 55.19C71.28 55.18 71.42 55.22 71.52 55.31C71.62 55.39 71.69 55.52 71.7 55.65C71.71 55.78 71.67 55.92 71.59 56.02L54.72 76.07C54.67 76.13 54.61 76.17 54.54 76.2C54.47 76.24 54.4 76.25 54.32 76.25Z" fill="#D1D3D4" fill-opacity="1.000000" fill-rule="nonzero"/>
	<path id="Vector" d="M211.03 26.75L158.51 30.17C157.79 30.22 157.09 30.41 156.45 30.75C155.81 31.09 155.26 31.57 154.82 32.14C154.39 32.72 154.09 33.38 153.94 34.09C153.79 34.79 153.79 35.52 153.95 36.22L162.34 67.96C162.67 69.5 163.56 70.87 164.82 71.82C166.09 72.77 167.66 73.23 169.24 73.12L171.74 72.87L172.75 85.15L179.93 72.05L221.18 69.58C221.9 69.52 222.6 69.31 223.23 68.95C223.86 68.6 224.4 68.11 224.81 67.52C225.23 66.93 225.51 66.26 225.63 65.55C225.76 64.84 225.73 64.11 225.54 63.42L217.75 31.71C217.37 30.23 216.5 28.94 215.28 28.03C214.05 27.13 212.55 26.67 211.03 26.75Z" fill="#FFFFFF" fill-opacity="1.000000" fill-rule="nonzero"/>
	<path id="Vector" d="M172.83 85.63L172.73 85.63C172.62 85.62 172.53 85.56 172.45 85.48C172.38 85.4 172.34 85.3 172.33 85.19L171.32 73.43L169.3 73.61C167.59 73.74 165.9 73.25 164.53 72.22C163.16 71.2 162.21 69.72 161.85 68.06L153.48 36.35C153.3 35.58 153.3 34.77 153.46 33.99C153.63 33.21 153.97 32.48 154.45 31.85C154.93 31.21 155.54 30.69 156.25 30.32C156.95 29.95 157.73 29.73 158.53 29.69L211.05 26.26C212.71 26.17 214.35 26.66 215.68 27.64C217.02 28.62 217.97 30.04 218.37 31.65L226.16 63.35C226.36 64.13 226.38 64.95 226.23 65.74C226.09 66.53 225.77 67.29 225.3 67.94C224.84 68.57 224.25 69.09 223.57 69.47C222.89 69.85 222.14 70.07 221.36 70.13L180.3 72.56L173.23 85.37C173.19 85.44 173.13 85.51 173.06 85.55C172.99 85.6 172.91 85.63 172.83 85.63ZM171.82 72.35C171.94 72.35 172.06 72.39 172.15 72.47C172.2 72.51 172.24 72.56 172.27 72.62C172.3 72.68 172.32 72.75 172.33 72.81L173.24 83.43L179.61 71.83C179.65 71.76 179.71 71.7 179.78 71.65C179.85 71.61 179.94 71.58 180.02 71.57L221.27 69.11C221.9 69.06 222.51 68.88 223.07 68.57C223.62 68.27 224.1 67.85 224.48 67.34C224.85 66.8 225.11 66.18 225.23 65.53C225.35 64.87 225.33 64.2 225.17 63.56L217.38 31.86C217.05 30.48 216.24 29.26 215.09 28.42C213.95 27.58 212.54 27.16 211.12 27.25L158.6 30.68C157.95 30.72 157.32 30.89 156.75 31.2C156.18 31.5 155.68 31.93 155.3 32.44C154.91 32.96 154.63 33.55 154.5 34.19C154.36 34.82 154.37 35.47 154.51 36.1L162.88 67.8C163.19 69.24 164 70.51 165.17 71.39C166.34 72.27 167.79 72.7 169.26 72.59L171.75 72.35L171.82 72.35Z" fill="#231F20" fill-opacity="1.000000" fill-rule="nonzero"/>
	<path id="Vector" d="M194.24 64.88C193.44 64.27 192.66 63.64 191.86 63.05L185.16 58.14C183.69 57.05 182.21 55.96 180.83 54.74C179.59 53.69 178.53 52.44 177.69 51.05C177.16 50.12 176.74 49.13 176.46 48.1C176.19 47.2 176.01 46.28 175.91 45.36C175.68 43.89 175.96 42.38 176.71 41.1C177.47 39.81 178.64 38.82 180.03 38.3C183.06 37.17 186.09 37.81 188.84 40.01C189.47 40.53 190.04 41.11 190.55 41.75L190.67 41.88C190.67 41.82 190.67 41.76 190.75 41.71C191.4 40.27 192.48 39.08 193.84 38.28C195.08 37.55 196.51 37.21 197.95 37.27C199.75 37.35 201.49 37.96 202.93 39.04C204.37 40.12 205.46 41.61 206.03 43.32C206.32 44.21 206.49 45.14 206.55 46.07C206.66 47.04 206.66 48.02 206.55 48.98C206.34 50.43 205.82 51.8 205.01 53.02C204.16 54.29 203.19 55.48 202.12 56.58C200.58 58.2 199 59.79 197.47 61.42C196.41 62.54 195.38 63.69 194.34 64.83L194.24 64.88Z" fill="#D1D3D4" fill-opacity="1.000000" fill-rule="nonzero"/>
	<path id="Vector" d="M114.99 119.07L113.42 119.18L113.14 108.09C113.14 108.09 109.32 115.42 106.9 119.66L58.42 123.27C55.79 123.47 53.97 125.45 54.38 127.72L60.67 163.42C60.97 164.66 61.72 165.75 62.78 166.47C63.83 167.19 65.12 167.5 66.38 167.33L124.97 161.58C125.53 161.56 126.09 161.42 126.59 161.16C127.09 160.91 127.53 160.54 127.88 160.1C128.22 159.65 128.46 159.13 128.58 158.58C128.7 158.03 128.7 157.46 128.57 156.91L120.39 122.64C120.03 121.52 119.3 120.55 118.32 119.9C117.34 119.25 116.16 118.96 114.99 119.07Z" fill="#FFFFFF" fill-opacity="1.000000" fill-rule="nonzero"/>
	<path id="Vector" d="M65.84 167.85C64.54 167.88 63.26 167.47 62.23 166.68C61.2 165.88 60.47 164.76 60.17 163.49L53.88 127.79C53.78 127.23 53.8 126.67 53.94 126.12C54.08 125.57 54.33 125.06 54.68 124.62C55.13 124.06 55.7 123.61 56.34 123.29C56.98 122.97 57.68 122.79 58.4 122.75L106.56 119.16C108.96 114.95 112.62 107.91 112.62 107.84C112.68 107.74 112.76 107.66 112.86 107.62C112.96 107.57 113.07 107.56 113.18 107.58C113.29 107.61 113.39 107.67 113.46 107.76C113.53 107.84 113.57 107.95 113.57 108.06L113.85 118.61L114.86 118.54C116.15 118.43 117.44 118.77 118.52 119.49C119.6 120.22 120.4 121.28 120.79 122.52L128.96 156.79C129.11 157.37 129.13 157.98 129.02 158.57C128.91 159.16 128.67 159.72 128.32 160.21C127.92 160.74 127.4 161.19 126.82 161.51C126.23 161.84 125.58 162.03 124.91 162.08L66.32 167.84C66.16 167.85 66 167.85 65.84 167.85ZM112.68 110C111.4 112.43 109.02 116.91 107.34 119.86C107.3 119.93 107.24 119.99 107.17 120.04C107.1 120.08 107.02 120.1 106.94 120.11L58.46 123.73C57.87 123.75 57.3 123.89 56.78 124.15C56.26 124.4 55.8 124.76 55.43 125.21C55.16 125.54 54.97 125.92 54.87 126.33C54.77 126.74 54.75 127.16 54.83 127.58L61.11 163.28C61.39 164.4 62.07 165.38 63.03 166.02C63.98 166.67 65.14 166.94 66.28 166.79L124.87 161.02C125.39 160.99 125.9 160.84 126.37 160.59C126.83 160.34 127.24 159.99 127.55 159.57C127.81 159.2 127.99 158.77 128.07 158.32C128.16 157.88 128.14 157.41 128.03 156.97L119.86 122.7C119.53 121.69 118.87 120.82 117.98 120.24C117.09 119.66 116.03 119.39 114.98 119.49L113.42 119.61C113.35 119.61 113.29 119.6 113.22 119.58C113.16 119.56 113.1 119.52 113.05 119.47C112.99 119.43 112.95 119.38 112.92 119.31C112.89 119.25 112.88 119.18 112.88 119.11L112.68 110Z" fill="#231F20" fill-opacity="1.000000" fill-rule="nonzero"/>
	<path id="Vector" d="M83.27 157.11L76.39 157.76L72.93 139.69L79.73 139.12L83.27 157.11Z" fill="#D1D3D4" fill-opacity="1.000000" fill-rule="nonzero"/>
	<path id="Vector" d="M76.39 157.91C76.36 157.91 76.32 157.9 76.29 157.88C76.26 157.85 76.24 157.82 76.23 157.79L72.78 139.72C72.78 139.69 72.78 139.67 72.78 139.65C72.79 139.63 72.8 139.61 72.81 139.6C72.82 139.58 72.84 139.56 72.86 139.55C72.88 139.54 72.9 139.53 72.92 139.53L79.71 138.96C79.75 138.96 79.79 138.97 79.82 138.99C79.85 139.02 79.87 139.05 79.88 139.09L83.43 157.08C83.44 157.1 83.44 157.13 83.43 157.14C83.42 157.17 83.41 157.19 83.4 157.2C83.39 157.22 83.37 157.23 83.35 157.24C83.33 157.25 83.31 157.26 83.29 157.26L76.4 157.91L76.39 157.91ZM73.12 139.84L76.51 157.59L83.09 156.97L79.6 139.29L73.12 139.84Z" fill="#D1D3D4" fill-opacity="1.000000" fill-rule="nonzero"/>
	<path id="Vector" d="M82.58 140.37C82.58 140.37 88.14 138.5 89.88 135.15C91.62 131.79 90.89 126.24 91.77 125.87C92.52 125.66 93.32 125.7 94.06 125.97C94.79 126.24 95.42 126.74 95.86 127.39C97.07 129.08 97.54 134.22 96.23 137.74C96.23 137.74 103.6 137.04 106.93 136.73C110.25 136.42 111.5 139.26 109.84 140.59C109.84 140.59 112.53 140.68 112.1 143.11C111.66 145.54 110.71 145.71 109.24 145.84C109.74 145.91 110.19 146.16 110.52 146.55C110.84 146.93 111.01 147.42 110.99 147.92C110.83 149.72 108.61 150.38 108.61 150.38C108.61 150.38 110.94 151.2 109.84 153.29C108.74 155.39 105.13 155.55 96.63 155.82C88.14 156.1 85.4 154.45 85.4 154.45L82.58 140.37Z" fill="#D1D3D4" fill-opacity="1.000000" fill-rule="nonzero"/>
	<path id="Vector" d="M94.73 156.04C87.72 156.04 85.41 154.68 85.31 154.62C85.28 154.6 85.25 154.56 85.24 154.52L82.42 140.41C82.42 140.37 82.42 140.33 82.44 140.3C82.46 140.27 82.49 140.24 82.52 140.23C82.59 140.23 88.05 138.34 89.74 135.09C90.75 133.2 90.91 130.54 91.06 128.6C91.21 126.65 91.28 125.92 91.71 125.73C92.49 125.51 93.33 125.54 94.1 125.82C94.87 126.11 95.53 126.63 95.99 127.31C97.23 129.04 97.68 134.05 96.46 137.57C97.79 137.44 103.97 136.86 106.92 136.56C109.02 136.4 110.2 137.41 110.57 138.33C110.72 138.69 110.77 139.08 110.7 139.46C110.63 139.84 110.46 140.19 110.2 140.47C110.84 140.55 111.44 140.85 111.88 141.33C112.07 141.58 112.2 141.88 112.27 142.19C112.33 142.5 112.33 142.82 112.25 143.13C111.88 145.23 111.13 145.72 109.98 145.9C110.37 146.07 110.69 146.35 110.9 146.72C111.12 147.08 111.2 147.5 111.15 147.92C111.05 148.48 110.8 149.01 110.43 149.44C110.06 149.87 109.57 150.2 109.03 150.38C109.53 150.63 109.94 151.05 110.17 151.57C110.27 151.86 110.31 152.17 110.28 152.48C110.24 152.79 110.14 153.09 109.98 153.35C108.81 155.58 105 155.7 96.64 155.97L94.73 156.04ZM85.54 154.35C85.98 154.57 88.9 155.92 96.66 155.67C104.88 155.4 108.63 155.28 109.72 153.22C109.85 152.99 109.94 152.74 109.97 152.48C110.01 152.21 109.98 151.94 109.9 151.69C109.62 151.15 109.15 150.74 108.58 150.53C108.55 150.52 108.53 150.5 108.51 150.47C108.49 150.44 108.48 150.41 108.48 150.38C108.48 150.35 108.49 150.31 108.51 150.29C108.53 150.26 108.55 150.24 108.58 150.23C108.58 150.23 110.68 149.58 110.84 147.9C110.87 147.44 110.72 146.98 110.42 146.62C110.12 146.27 109.69 146.04 109.23 145.99C109.19 145.99 109.16 145.97 109.13 145.94C109.11 145.91 109.1 145.87 109.1 145.83C109.1 145.8 109.11 145.76 109.14 145.73C109.17 145.7 109.2 145.68 109.24 145.68C110.61 145.56 111.52 145.48 111.95 143.09C112.02 142.83 112.02 142.55 111.97 142.28C111.92 142.01 111.81 141.76 111.64 141.54C111.16 141.06 110.52 140.78 109.84 140.75C109.8 140.75 109.77 140.74 109.75 140.72C109.72 140.7 109.7 140.67 109.7 140.64C109.68 140.62 109.67 140.59 109.67 140.56C109.67 140.53 109.68 140.5 109.7 140.47C110 140.24 110.21 139.92 110.31 139.56C110.41 139.19 110.39 138.8 110.24 138.45C109.91 137.63 108.83 136.7 106.9 136.88C103.61 137.15 96.28 137.89 96.21 137.89C96.18 137.89 96.16 137.89 96.13 137.88C96.11 137.87 96.08 137.85 96.07 137.83C96.06 137.81 96.05 137.78 96.05 137.75C96.05 137.73 96.06 137.7 96.07 137.68C97.32 134.3 96.92 129.16 95.72 127.48C95.3 126.86 94.7 126.39 94 126.12C93.3 125.86 92.54 125.82 91.82 126.01C91.54 126.13 91.44 127.39 91.35 128.61C91.21 130.62 91 133.28 90 135.22C88.37 138.34 83.62 140.17 82.74 140.48L85.54 154.35Z" fill="#D1D3D4" fill-opacity="1.000000" fill-rule="nonzero"/>
	<path id="Vector" d="M227.36 151.06L177.79 155.85C175.96 155.95 174.15 155.41 172.67 154.32C171.2 153.23 170.15 151.66 169.71 149.89L162.46 120.4C161.55 116.7 163.7 113.35 167.27 112.96L217.04 107.56C218.91 107.43 220.77 107.96 222.29 109.07C223.8 110.18 224.87 111.79 225.3 113.61L232.37 143.66C232.62 144.47 232.68 145.34 232.55 146.18C232.42 147.03 232.1 147.83 231.62 148.54C231.14 149.25 230.51 149.84 229.78 150.28C229.04 150.72 228.22 150.98 227.36 151.06Z" fill="#FFFFFF" fill-opacity="1.000000" fill-rule="nonzero"/>
	<path id="Vector" d="M177.17 156.37C175.33 156.3 173.57 155.64 172.14 154.49C170.71 153.34 169.7 151.76 169.25 149.99L162 120.49C161.75 119.56 161.7 118.59 161.86 117.63C162.02 116.68 162.38 115.77 162.91 114.97C163.41 114.26 164.05 113.66 164.8 113.23C165.55 112.79 166.38 112.52 167.25 112.44L217.01 107.04C219.01 106.89 220.99 107.46 222.61 108.65C224.23 109.83 225.37 111.55 225.83 113.5L232.9 143.55C233.14 144.47 233.17 145.44 232.99 146.39C232.82 147.33 232.44 148.22 231.89 149.01C231.37 149.73 230.69 150.33 229.91 150.77C229.14 151.21 228.27 151.47 227.38 151.55L177.84 156.37C177.62 156.37 177.39 156.37 177.17 156.37ZM217.83 107.98C217.59 107.97 217.36 107.97 217.12 107.98L167.36 113.38C166.64 113.45 165.94 113.67 165.32 114.04C164.7 114.4 164.16 114.89 163.74 115.48C163.28 116.17 162.98 116.94 162.85 117.76C162.72 118.57 162.76 119.41 162.98 120.2L170.2 149.76C170.61 151.42 171.58 152.88 172.95 153.9C174.32 154.92 175.99 155.43 177.7 155.36L227.27 150.57C228.02 150.51 228.75 150.29 229.4 149.92C230.05 149.55 230.62 149.05 231.06 148.44C231.52 147.77 231.83 147.01 231.97 146.21C232.11 145.41 232.08 144.58 231.87 143.8L224.8 113.75C224.43 112.16 223.54 110.74 222.28 109.7C221.03 108.66 219.46 108.05 217.83 107.98Z" fill="#231F20" fill-opacity="1.000000" fill-rule="nonzero"/>
	<path id="Vector" d="M211.66 131.44L193.87 145.28C192.6 146.29 190.53 145.36 190.1 143.64L184.43 120.23C184.32 119.86 184.33 119.46 184.44 119.09C184.55 118.72 184.77 118.39 185.07 118.14C185.36 117.89 185.73 117.74 186.11 117.68C186.49 117.64 186.88 117.7 187.24 117.86L210.71 127.41C212.46 128.14 212.99 130.4 211.66 131.44Z" fill="#D1D3D4" fill-opacity="1.000000" fill-rule="nonzero"/>
	<path id="Vector" d="M244.94 107.98C244.85 107.98 244.76 107.96 244.69 107.91C244.58 107.85 244.51 107.76 244.47 107.64C244.43 107.53 244.43 107.41 244.47 107.3L248.88 95.55C243.12 91.27 239.84 85.23 239.84 78.92C239.84 66.44 252.43 56.3 267.92 56.3C283.4 56.3 296 66.44 296 78.92C296 91.4 283.4 101.55 267.92 101.55C262.95 101.57 258.03 100.48 253.54 98.36L245.32 107.81C245.27 107.87 245.21 107.91 245.15 107.94C245.08 107.97 245.01 107.98 244.94 107.98ZM267.92 57.31C252.99 57.31 240.85 67.01 240.85 78.92C240.85 85.02 244.1 90.87 249.78 94.96C249.86 95.03 249.93 95.12 249.96 95.22C249.99 95.33 249.99 95.44 249.96 95.54L246.39 105.04L253.04 97.41C253.11 97.32 253.21 97.26 253.32 97.24C253.43 97.22 253.55 97.24 253.64 97.29C258.09 99.46 262.97 100.57 267.92 100.54C282.83 100.54 294.99 90.85 294.99 78.92C294.99 67 282.79 57.35 267.88 57.35L267.92 57.31Z" fill="#FFFFFF" fill-opacity="0.160000" fill-rule="evenodd"/>
	<path id="Vector" d="M38.37 134.19C38.25 134.19 38.14 134.16 38.05 134.09C34.71 131.51 31.57 128.69 28.63 125.65C28.23 125.65 27.82 125.65 27.42 125.65C12.27 125.65 0 117.53 0 107.51C0 97.49 12.3 89.37 27.42 89.37C42.54 89.37 54.83 97.49 54.83 107.51C54.83 114.93 47.88 121.62 37.49 124.37L38.89 133.59C38.91 133.68 38.89 133.79 38.85 133.88C38.81 133.97 38.74 134.04 38.65 134.09C38.57 134.15 38.47 134.19 38.37 134.19ZM28.79 124.62C28.86 124.61 28.93 124.63 28.99 124.65C29.05 124.68 29.11 124.72 29.15 124.77C31.81 127.52 34.65 130.1 37.64 132.49L36.43 124.11C36.41 123.99 36.43 123.86 36.5 123.76C36.57 123.65 36.68 123.58 36.8 123.55C46.98 121.03 53.82 114.6 53.82 107.55C53.82 98.1 41.97 90.41 27.42 90.41C12.86 90.41 1.01 98.08 1.01 107.55C1.01 117.02 12.85 124.69 27.42 124.69L28.81 124.69L28.79 124.62Z" fill="#FFFFFF" fill-opacity="0.160000" fill-rule="evenodd"/>
</svg>
