<svg width="160.000000" height="38.000000" viewBox="0 0 160 38" fill="none" xmlns="http://www.w3.org/2000/svg" xmlns:xlink="http://www.w3.org/1999/xlink">
	<desc>
			Created with Pixso.
	</desc>
	<defs>
		<clipPath id="clip9_1231">
			<rect id="logoipsum-286 1" rx="-0.500000" width="159.000000" height="37.000000" transform="translate(0.500000 0.500000)" fill="white" fill-opacity="0"/>
		</clipPath>
	</defs>
	<rect id="logoipsum-286 1" rx="-0.500000" width="159.000000" height="37.000000" transform="translate(0.500000 0.500000)" fill="#FFFFFF" fill-opacity="0"/>
	<g clip-path="url(#clip9_1231)">
		<path id="Vector" d="M89.3 25.76L92.54 25.76L92.54 13.36L89.3 13.36L89.3 25.76ZM89.3 11.43L92.54 11.43L92.54 8.48L89.3 8.48L89.3 11.43Z" fill="#246241" fill-opacity="1.000000" fill-rule="nonzero"/>
		<path id="Vector" d="M94.64 29.82L97.89 29.82L97.89 24.36L97.93 24.36C98.62 25.42 99.75 26.12 101.47 26.12C104.62 26.12 106.77 23.59 106.77 19.57C106.77 15.71 104.69 13.03 101.44 13.03C99.77 13.03 98.62 13.82 97.84 14.91L97.77 14.91L97.77 13.36L94.64 13.36L94.64 29.82ZM100.77 23.39C98.84 23.39 97.81 21.92 97.81 19.67C97.81 17.45 98.62 15.68 100.66 15.68C102.66 15.68 103.47 17.33 103.47 19.67C103.47 22.02 102.42 23.39 100.77 23.39Z" fill="#246241" fill-opacity="1.000000" fill-rule="nonzero"/>
		<path id="Vector" d="M113.25 26.12C116.3 26.12 118.41 24.63 118.41 22.14C118.41 19.24 116.14 18.66 114.08 18.22C112.34 17.86 110.72 17.76 110.72 16.7C110.72 15.8 111.55 15.32 112.82 15.32C114.2 15.32 115.04 15.8 115.18 17.13L118.12 17.13C117.88 14.64 116.09 13.03 112.87 13.03C110.07 13.03 107.87 14.31 107.87 16.99C107.87 19.7 110.02 20.3 112.22 20.73C113.89 21.07 115.44 21.19 115.44 22.38C115.44 23.25 114.63 23.8 113.2 23.8C111.74 23.8 110.74 23.18 110.53 21.75L107.52 21.75C107.71 24.38 109.69 26.12 113.25 26.12Z" fill="#246241" fill-opacity="1.000000" fill-rule="nonzero"/>
		<path id="Vector" d="M130.74 25.76L130.74 13.36L127.49 13.36L127.49 20.52C127.49 22.16 126.56 23.32 125.03 23.32C123.64 23.32 123 22.52 123 21.07L123 13.36L119.77 13.36L119.77 21.63C119.77 24.33 121.3 26.1 124.03 26.1C125.75 26.1 126.7 25.45 127.54 24.31L127.61 24.31L127.61 25.76L130.74 25.76Z" fill="#246241" fill-opacity="1.000000" fill-rule="nonzero"/>
		<path id="Vector" d="M132.84 25.76L136.08 25.76L136.08 18.56C136.08 16.92 136.97 15.85 138.28 15.85C139.48 15.85 140.17 16.58 140.17 17.98L140.17 25.76L143.42 25.76L143.42 18.56C143.42 16.92 144.25 15.85 145.61 15.85C146.81 15.85 147.5 16.58 147.5 17.98L147.5 25.76L150.75 25.76L150.75 17.42C150.75 14.72 149.29 13.03 146.71 13.03C145.16 13.03 143.87 13.85 143.03 15.2L142.99 15.2C142.39 13.9 141.15 13.03 139.59 13.03C137.9 13.03 136.71 13.9 136.04 15.03L135.96 15.03L135.96 13.36L132.84 13.36L132.84 25.76Z" fill="#246241" fill-opacity="1.000000" fill-rule="nonzero"/>
		<path id="Vector" d="M4.65 25.76L7.9 25.76L7.9 8.48L4.65 8.48L4.65 25.76Z" fill="#246241" fill-opacity="1.000000" fill-rule="nonzero"/>
		<path id="Vector" d="M15.84 26.12C19.64 26.12 22.24 23.27 22.24 19.57C22.24 15.88 19.64 13.03 15.84 13.03C12.04 13.03 9.44 15.88 9.44 19.57C9.44 23.27 12.04 26.12 15.84 26.12ZM15.84 23.61C13.83 23.61 12.74 21.99 12.74 19.57C12.74 17.16 13.83 15.51 15.84 15.51C17.82 15.51 18.94 17.16 18.94 19.57C18.94 21.99 17.82 23.61 15.84 23.61Z" fill="#246241" fill-opacity="1.000000" fill-rule="nonzero"/>
		<path id="Vector" d="M29.15 29.99C30.96 29.99 32.54 29.56 33.56 28.59C34.47 27.74 35.02 26.56 35.02 24.82L35.02 13.36L31.89 13.36L31.89 14.67L31.84 14.67C31.1 13.63 29.98 13.03 28.45 13.03C25.35 13.03 23.15 15.39 23.15 19.09C23.15 22.84 25.83 25.01 28.55 25.01C30.1 25.01 31.03 24.38 31.75 23.56L31.82 23.56L31.82 24.92C31.82 26.61 30.94 27.5 29.1 27.5C27.59 27.5 26.9 26.9 26.64 26.12L23.41 26.12C23.75 28.54 25.8 29.99 29.15 29.99ZM29.1 22.38C27.43 22.38 26.33 21.15 26.33 19.04C26.33 16.96 27.43 15.66 29.07 15.66C31.03 15.66 31.99 17.21 31.99 19.02C31.99 20.86 31.15 22.38 29.1 22.38Z" fill="#246241" fill-opacity="1.000000" fill-rule="nonzero"/>
		<path id="Vector" d="M42.91 26.12C46.71 26.12 49.31 23.27 49.31 19.57C49.31 15.88 46.71 13.03 42.91 13.03C39.12 13.03 36.51 15.88 36.51 19.57C36.51 23.27 39.12 26.12 42.91 26.12ZM42.91 23.61C40.91 23.61 39.81 21.99 39.81 19.57C39.81 17.16 40.91 15.51 42.91 15.51C44.9 15.51 46.02 17.16 46.02 19.57C46.02 21.99 44.9 23.61 42.91 23.61Z" fill="#246241" fill-opacity="1.000000" fill-rule="nonzero"/>
		<path id="Vector" d="M151.93 11.33C151.93 10.77 152.37 10.32 152.92 10.32L154.91 10.32C155.46 10.32 155.91 10.77 155.91 11.33C155.91 11.88 155.46 12.34 154.91 12.34L152.92 12.34C152.37 12.34 151.93 11.88 151.93 11.33Z" fill="#246241" fill-opacity="1.000000" fill-rule="nonzero"/>
		<path id="Vector" d="M69.01 4.95C76.7 4.95 82.94 11.26 82.94 19.05C82.94 26.83 76.7 33.14 69.01 33.14C61.32 33.14 55.08 26.83 55.08 19.05C55.08 11.26 61.32 4.95 69.01 4.95ZM68.51 6.01C66.92 6.23 65.4 7.53 64.23 9.69C63.89 10.31 63.58 11.01 63.31 11.75C64.91 11.35 66.66 11.11 68.51 11.07L68.51 6.01ZM62.14 12.09C62.47 11.03 62.88 10.06 63.35 9.19C63.93 8.12 64.62 7.2 65.4 6.49C61.16 7.73 57.83 11.11 56.6 15.39C57.3 14.61 58.21 13.91 59.27 13.32C60.13 12.84 61.09 12.43 62.14 12.09ZM61.8 13.28C61.4 14.9 61.16 16.68 61.13 18.54L56.12 18.54C56.35 16.93 57.62 15.4 59.76 14.21C60.38 13.87 61.06 13.55 61.8 13.28ZM62.13 18.54C62.18 16.51 62.46 14.6 62.94 12.91C64.61 12.42 66.5 12.13 68.51 12.09L68.51 14.29C67.76 16.23 66.23 17.78 64.31 18.54L62.13 18.54ZM61.13 19.56L56.12 19.56C56.35 21.17 57.62 22.7 59.76 23.89C60.38 24.23 61.06 24.54 61.8 24.81C61.4 23.2 61.16 21.42 61.13 19.56ZM62.94 25.19C62.46 23.5 62.18 21.59 62.13 19.56L64.31 19.56C66.23 20.32 67.76 21.86 68.51 23.81L68.51 26.01C66.5 25.96 64.61 25.67 62.94 25.19ZM62.14 26C61.09 25.67 60.13 25.25 59.27 24.78C58.21 24.19 57.3 23.49 56.6 22.7C57.83 26.99 61.16 30.36 65.4 31.61C64.62 30.9 63.93 29.97 63.35 28.9C62.88 28.04 62.47 27.06 62.14 26ZM68.51 32.09C66.92 31.86 65.4 30.57 64.23 28.41C63.89 27.78 63.58 27.09 63.31 26.34C64.91 26.75 66.66 26.99 68.51 27.03L68.51 32.09ZM72.62 31.61C73.4 30.9 74.09 29.97 74.67 28.9C75.14 28.04 75.55 27.06 75.88 26C76.93 25.67 77.89 25.25 78.75 24.78C79.8 24.19 80.72 23.49 81.42 22.7C80.19 26.99 76.85 30.36 72.62 31.61ZM74.71 26.34C74.44 27.09 74.13 27.78 73.79 28.41C72.62 30.57 71.1 31.86 69.51 32.09L69.51 27.03C71.35 26.99 73.11 26.75 74.71 26.34ZM76.22 24.81C76.96 24.54 77.64 24.23 78.26 23.89C80.4 22.7 81.67 21.17 81.9 19.56L76.89 19.56C76.86 21.42 76.62 23.2 76.22 24.81ZM75.89 19.56C75.84 21.59 75.55 23.5 75.08 25.19C73.41 25.67 71.52 25.96 69.51 26.01L69.51 23.81C70.26 21.86 71.79 20.32 73.71 19.56L75.89 19.56ZM76.89 18.54L81.9 18.54C81.67 16.93 80.4 15.4 78.26 14.21C77.64 13.87 76.96 13.55 76.22 13.28C76.62 14.9 76.86 16.68 76.89 18.54ZM75.08 12.91C75.55 14.6 75.84 16.51 75.89 18.54L73.71 18.54C71.79 17.78 70.26 16.23 69.51 14.29L69.51 12.09C71.52 12.13 73.41 12.42 75.08 12.91ZM75.88 12.09C76.93 12.43 77.89 12.84 78.75 13.32C79.8 13.91 80.72 14.61 81.42 15.39C80.19 11.11 76.85 7.73 72.62 6.49C73.4 7.2 74.09 8.12 74.67 9.19C75.14 10.06 75.55 11.03 75.88 12.09ZM69.51 6.01C71.1 6.23 72.62 7.53 73.79 9.69C74.13 10.31 74.44 11.01 74.71 11.75C73.11 11.35 71.35 11.11 69.51 11.07L69.51 6.01Z" fill="#246241" fill-opacity="1.000000" fill-rule="evenodd"/>
	</g>
</svg>
