<svg width="160.000000" height="38.000000" viewBox="0 0 160 38" fill="none" xmlns="http://www.w3.org/2000/svg" xmlns:xlink="http://www.w3.org/1999/xlink">
	<desc>
			Created with Pixso.
	</desc>
	<defs>
		<clipPath id="clip9_1219">
			<rect id="logoipsum-297 1" rx="-0.500000" width="159.000000" height="37.000000" transform="translate(0.500000 0.500000)" fill="white" fill-opacity="0"/>
		</clipPath>
	</defs>
	<rect id="logoipsum-297 1" rx="-0.500000" width="159.000000" height="37.000000" transform="translate(0.500000 0.500000)" fill="#FFFFFF" fill-opacity="0"/>
	<g clip-path="url(#clip9_1219)">
		<path id="Vector" d="M25.01 12.68C23.82 11.87 22.42 11.45 20.99 11.45L20.99 4.13C23.85 4.13 26.65 4.98 29.03 6.59C31.41 8.2 33.26 10.49 34.36 13.16C35.45 15.84 35.74 18.78 35.18 21.62C34.62 24.46 33.25 27.07 31.22 29.12C29.2 31.17 26.62 32.56 23.82 33.13C21.01 33.69 18.1 33.4 15.46 32.29C12.81 31.18 10.55 29.31 8.96 26.9C7.37 24.49 6.53 21.66 6.53 18.77L13.76 18.77C13.76 20.21 14.18 21.63 14.98 22.83C15.77 24.04 16.9 24.98 18.22 25.53C19.55 26.08 21 26.23 22.4 25.95C23.81 25.66 25.1 24.97 26.11 23.94C27.12 22.92 27.81 21.61 28.09 20.19C28.37 18.77 28.22 17.3 27.68 15.96C27.13 14.63 26.2 13.48 25.01 12.68Z" fill="#246241" fill-opacity="1.000000" fill-rule="evenodd"/>
		<path id="Vector" d="M13.76 4.13C13.76 5.09 13.57 6.04 13.21 6.93C12.85 7.81 12.31 8.62 11.64 9.3C10.97 9.98 10.17 10.52 9.29 10.89C8.42 11.26 7.48 11.45 6.53 11.45L6.53 18.77C8.43 18.77 10.31 18.39 12.06 17.65C13.82 16.92 15.41 15.84 16.76 14.48C18.1 13.12 19.16 11.5 19.89 9.73C20.62 7.95 20.99 6.05 20.99 4.13L13.76 4.13Z" fill="#246241" fill-opacity="1.000000" fill-rule="evenodd"/>
		<path id="Vector" d="M97.4 14.71L93.89 14.71L93.89 25.99L97.4 25.99L97.4 14.71Z" fill="#246241" fill-opacity="1.000000" fill-rule="nonzero"/>
		<path id="Vector" d="M94.28 12.59C94.64 12.96 95.1 13.15 95.65 13.15C96.2 13.15 96.65 12.96 97.01 12.59C97.36 12.21 97.53 11.74 97.53 11.2C97.53 10.64 97.36 10.18 97.01 9.81C96.65 9.44 96.2 9.25 95.65 9.25C95.1 9.25 94.64 9.44 94.28 9.81C93.92 10.18 93.75 10.64 93.75 11.2C93.75 11.74 93.92 12.21 94.28 12.59Z" fill="#246241" fill-opacity="1.000000" fill-rule="nonzero"/>
		<path id="Vector" d="M43.53 25.99L43.53 9.6L47.13 9.6L47.13 22.78L54.31 22.78L54.31 25.99L43.53 25.99Z" fill="#246241" fill-opacity="1.000000" fill-rule="nonzero"/>
		<path id="Vector" d="M60.8 26.24C59.65 26.24 58.61 25.99 57.68 25.48C56.76 24.95 56.04 24.24 55.5 23.34C54.96 22.44 54.7 21.44 54.7 20.32C54.7 19.21 54.96 18.21 55.5 17.33C56.04 16.45 56.76 15.75 57.68 15.24C58.6 14.71 59.64 14.45 60.8 14.45C61.96 14.45 63 14.71 63.92 15.22C64.84 15.73 65.56 16.43 66.1 17.33C66.63 18.21 66.9 19.21 66.9 20.32C66.9 21.44 66.63 22.44 66.1 23.34C65.56 24.24 64.84 24.95 63.92 25.48C63 25.99 61.96 26.24 60.8 26.24ZM60.8 23.02C61.3 23.02 61.75 22.91 62.13 22.69C62.51 22.46 62.8 22.14 63 21.74C63.22 21.32 63.32 20.85 63.32 20.32C63.32 19.8 63.22 19.34 63 18.95C62.79 18.55 62.49 18.24 62.11 18.02C61.74 17.79 61.3 17.68 60.8 17.68C60.31 17.68 59.87 17.79 59.49 18.02C59.11 18.24 58.81 18.55 58.6 18.95C58.38 19.36 58.28 19.82 58.28 20.35C58.28 20.86 58.38 21.32 58.6 21.74C58.81 22.14 59.11 22.46 59.49 22.69C59.87 22.91 60.31 23.02 60.8 23.02Z" fill="#246241" fill-opacity="1.000000" fill-rule="evenodd"/>
		<path id="Vector" d="M69.68 30.4C70.61 30.83 71.69 31.05 72.92 31.05C74.11 31.05 75.17 30.81 76.1 30.33C77.04 29.85 77.77 29.18 78.31 28.33C78.84 27.48 79.11 26.48 79.11 25.31L79.11 14.71L75.67 14.71L75.67 15.46C75.41 15.25 75.12 15.06 74.8 14.91C74.2 14.62 73.52 14.47 72.75 14.47C71.73 14.47 70.82 14.72 70.02 15.22C69.23 15.7 68.6 16.36 68.14 17.21C67.68 18.05 67.46 18.99 67.46 20.04C67.46 21.08 67.68 22.03 68.14 22.88C68.6 23.73 69.23 24.4 70.02 24.9C70.82 25.39 71.73 25.64 72.75 25.64C73.5 25.64 74.18 25.49 74.8 25.2C75.09 25.06 75.36 24.89 75.6 24.69L75.6 25.41C75.6 26.2 75.35 26.81 74.84 27.24C74.35 27.67 73.67 27.89 72.8 27.89C72.1 27.89 71.49 27.77 70.99 27.52C70.5 27.27 70.06 26.91 69.66 26.43L67.5 28.61C68.04 29.38 68.76 29.98 69.68 30.4ZM74.68 22.16C74.33 22.37 73.91 22.48 73.42 22.48C72.93 22.48 72.5 22.37 72.14 22.16C71.78 21.94 71.51 21.65 71.31 21.27C71.11 20.89 71.01 20.48 71.01 20.04C71.01 19.58 71.11 19.16 71.31 18.79C71.51 18.42 71.79 18.13 72.16 17.91C72.53 17.69 72.95 17.58 73.42 17.58C73.91 17.58 74.33 17.69 74.68 17.91C75.05 18.13 75.32 18.42 75.51 18.79C75.71 19.16 75.81 19.58 75.81 20.04C75.81 20.51 75.71 20.93 75.51 21.3C75.32 21.65 75.05 21.94 74.68 22.16Z" fill="#246241" fill-opacity="1.000000" fill-rule="evenodd"/>
		<path id="Vector" d="M86.5 26.24C85.35 26.24 84.31 25.99 83.38 25.48C82.46 24.95 81.73 24.24 81.2 23.34C80.66 22.44 80.39 21.44 80.39 20.32C80.39 19.21 80.66 18.21 81.2 17.33C81.73 16.45 82.46 15.75 83.38 15.24C84.29 14.71 85.33 14.45 86.5 14.45C87.66 14.45 88.7 14.71 89.62 15.22C90.53 15.73 91.26 16.43 91.79 17.33C92.33 18.21 92.6 19.21 92.6 20.32C92.6 21.44 92.33 22.44 91.79 23.34C91.26 24.24 90.53 24.95 89.62 25.48C88.7 25.99 87.66 26.24 86.5 26.24ZM86.5 23.02C87 23.02 87.44 22.91 87.83 22.69C88.21 22.46 88.5 22.14 88.7 21.74C88.91 21.32 89.02 20.85 89.02 20.32C89.02 19.8 88.91 19.34 88.7 18.95C88.48 18.55 88.19 18.24 87.8 18.02C87.44 17.79 87 17.68 86.5 17.68C86.01 17.68 85.57 17.79 85.19 18.02C84.81 18.24 84.51 18.55 84.29 18.95C84.08 19.36 83.97 19.82 83.97 20.35C83.97 20.86 84.08 21.32 84.29 21.74C84.51 22.14 84.81 22.46 85.19 22.69C85.57 22.91 86.01 23.02 86.5 23.02Z" fill="#246241" fill-opacity="1.000000" fill-rule="evenodd"/>
		<path id="Vector" d="M105.83 26.22C105.08 26.22 104.39 26.07 103.77 25.78C103.44 25.62 103.14 25.44 102.87 25.22L102.87 30.75L99.41 30.75L99.41 14.71L102.92 14.71L102.92 15.48C103.17 15.27 103.46 15.09 103.77 14.94C104.39 14.63 105.08 14.47 105.83 14.47C106.89 14.47 107.82 14.73 108.63 15.24C109.46 15.75 110.1 16.45 110.56 17.33C111.03 18.21 111.27 19.22 111.27 20.35C111.27 21.48 111.03 22.48 110.56 23.36C110.1 24.25 109.46 24.94 108.63 25.45C107.82 25.96 106.89 26.22 105.83 26.22ZM105.19 23.02C105.69 23.02 106.13 22.9 106.5 22.67C106.88 22.44 107.18 22.12 107.39 21.72C107.61 21.31 107.71 20.86 107.71 20.35C107.71 19.82 107.61 19.36 107.39 18.95C107.18 18.55 106.88 18.24 106.5 18.02C106.13 17.79 105.7 17.68 105.21 17.68C104.72 17.68 104.29 17.79 103.91 18.02C103.54 18.24 103.25 18.55 103.03 18.95C102.82 19.36 102.71 19.82 102.71 20.35C102.71 20.86 102.81 21.31 103.01 21.72C103.23 22.12 103.52 22.44 103.91 22.67C104.29 22.9 104.72 23.02 105.19 23.02Z" fill="#246241" fill-opacity="1.000000" fill-rule="evenodd"/>
		<path id="Vector" d="M114.7 26.01C115.35 26.18 116 26.27 116.65 26.27C118.05 26.27 119.15 25.94 119.96 25.29C120.78 24.64 121.2 23.77 121.2 22.67C121.2 21.96 121.07 21.38 120.81 20.95C120.55 20.5 120.21 20.15 119.8 19.88C119.38 19.62 118.95 19.41 118.49 19.26C118.03 19.1 117.59 18.97 117.18 18.86C116.77 18.75 116.43 18.63 116.17 18.49C115.91 18.35 115.78 18.16 115.78 17.93C115.78 17.72 115.88 17.55 116.08 17.44C116.28 17.32 116.58 17.26 116.98 17.26C117.39 17.26 117.81 17.34 118.24 17.51C118.68 17.68 119.08 17.98 119.43 18.4L121.43 16.35C120.92 15.7 120.26 15.22 119.45 14.89C118.66 14.55 117.79 14.38 116.84 14.38C115.94 14.38 115.15 14.54 114.48 14.84C113.8 15.15 113.28 15.58 112.91 16.12C112.55 16.65 112.36 17.27 112.36 18C112.36 18.68 112.49 19.25 112.75 19.7C113.01 20.13 113.35 20.47 113.76 20.72C114.18 20.97 114.61 21.16 115.07 21.3C115.53 21.44 115.97 21.57 116.38 21.69C116.79 21.8 117.13 21.93 117.39 22.09C117.66 22.23 117.8 22.44 117.8 22.71C117.8 22.93 117.69 23.1 117.46 23.23C117.24 23.35 116.93 23.41 116.52 23.41C115.92 23.41 115.37 23.3 114.87 23.09C114.36 22.85 113.92 22.54 113.56 22.13L111.56 24.18C111.94 24.59 112.4 24.97 112.94 25.29C113.49 25.6 114.08 25.84 114.7 26.01Z" fill="#246241" fill-opacity="1.000000" fill-rule="nonzero"/>
		<path id="Vector" d="M127.6 26.24C126.57 26.24 125.66 26.03 124.87 25.62C124.09 25.18 123.48 24.59 123.03 23.85C122.59 23.09 122.37 22.23 122.37 21.25L122.37 14.71L125.88 14.71L125.88 21.21C125.88 21.59 125.94 21.92 126.06 22.2C126.2 22.48 126.4 22.7 126.66 22.85C126.92 23.01 127.23 23.09 127.6 23.09C128.12 23.09 128.53 22.92 128.84 22.6C129.14 22.26 129.29 21.79 129.29 21.21L129.29 14.71L132.8 14.71L132.8 21.23C132.8 22.22 132.58 23.09 132.14 23.85C131.7 24.59 131.08 25.18 130.3 25.62C129.52 26.03 128.62 26.24 127.6 26.24Z" fill="#246241" fill-opacity="1.000000" fill-rule="nonzero"/>
		<path id="Vector" d="M138.06 14.71L134.55 14.71L134.55 25.99L138.06 25.99L138.06 19.39C138.06 19.01 138.14 18.68 138.29 18.42C138.46 18.16 138.68 17.96 138.95 17.82C139.23 17.66 139.54 17.58 139.89 17.58C140.4 17.58 140.82 17.75 141.16 18.07C141.51 18.38 141.68 18.82 141.68 19.39L141.68 25.99L145.19 25.99L145.19 19.39C145.19 19.01 145.27 18.68 145.42 18.42C145.59 18.16 145.81 17.96 146.09 17.82C146.36 17.66 146.68 17.58 147.03 17.58C147.53 17.58 147.95 17.75 148.29 18.07C148.64 18.38 148.82 18.82 148.82 19.39L148.82 25.99L152.33 25.99L152.33 19C152.33 18.06 152.13 17.25 151.73 16.59C151.35 15.9 150.82 15.39 150.15 15.03C149.49 14.66 148.73 14.47 147.88 14.47C147 14.47 146.22 14.67 145.51 15.05C145.06 15.3 144.66 15.62 144.32 16.01C144 15.6 143.61 15.27 143.15 15.01C142.54 14.65 141.84 14.47 141.06 14.47C140.24 14.47 139.5 14.65 138.84 15.01C138.55 15.16 138.29 15.33 138.06 15.54L138.06 14.71Z" fill="#246241" fill-opacity="1.000000" fill-rule="nonzero"/>
	</g>
</svg>
