<svg width="160.000000" height="38.000000" viewBox="0 0 160 38" fill="none" xmlns="http://www.w3.org/2000/svg" xmlns:xlink="http://www.w3.org/1999/xlink">
	<desc>
			Created with Pixso.
	</desc>
	<defs>
		<clipPath id="clip9_1251">
			<rect id="logoipsum-311 1" rx="-0.500000" width="159.000000" height="37.000000" transform="translate(0.500000 0.500000)" fill="white" fill-opacity="0"/>
		</clipPath>
	</defs>
	<rect id="logoipsum-311 1" rx="-0.500000" width="159.000000" height="37.000000" transform="translate(0.500000 0.500000)" fill="#FFFFFF" fill-opacity="0"/>
	<g clip-path="url(#clip9_1251)">
		<path id="Vector" d="M20.94 6.12L20.94 36L13.06 36L13.06 6.12L20.94 6.12Z" fill="#246241" fill-opacity="1.000000" fill-rule="evenodd"/>
		<path id="Vector" d="M24.88 6.12L41.64 6.12C47.08 6.12 51.5 10.58 51.5 16.08C51.5 21.58 47.08 26.04 41.64 26.04L32.77 26.04L32.77 36L24.88 36L24.88 6.12ZM32.77 18.07L41.64 18.07C42.73 18.07 43.61 17.18 43.61 16.08C43.61 14.98 42.73 14.08 41.64 14.08L32.77 14.08L32.77 18.07Z" fill="#246241" fill-opacity="1.000000" fill-rule="evenodd"/>
		<path id="Vector" d="M81.07 6.12L81.07 21.55C81.07 25.13 83.93 28.03 87.47 28.03C91.01 28.03 93.88 25.13 93.88 21.55L93.88 6.12L101.76 6.12L101.76 21.55C101.76 29.53 95.37 36 87.47 36C79.58 36 73.18 29.53 73.18 21.55L73.18 6.12L81.07 6.12Z" fill="#246241" fill-opacity="1.000000" fill-rule="evenodd"/>
		<path id="Vector" d="M54.45 20.06C54.45 12.36 60.63 6.12 68.25 6.12L70.22 6.12L70.22 14.08L68.25 14.08C64.99 14.08 62.34 16.76 62.34 20.06L62.34 21.06C62.34 29.31 55.72 36 47.55 36L46.57 36L46.57 28.03L47.55 28.03C51.36 28.03 54.45 24.91 54.45 21.06L54.45 20.06Z" fill="#246241" fill-opacity="1.000000" fill-rule="evenodd"/>
		<path id="Vector" d="M146.12 7.11C146.12 8.76 144.79 10.1 143.16 10.1C141.53 10.1 140.2 8.76 140.2 7.11C140.2 5.46 141.53 4.13 143.16 4.13C144.79 4.13 146.12 5.46 146.12 7.11Z" fill="#246241" fill-opacity="1.000000" fill-rule="nonzero"/>
		<path id="Vector" d="M110.23 36L113.99 20.08L116.79 29.65C118.46 35.37 126.47 35.37 128.13 29.65L130.93 20.08L134.69 36L142.8 36L136.88 10.96C135.48 5.01 127.18 4.79 125.46 10.66L122.46 20.92L119.46 10.66C117.75 4.79 109.45 5.01 108.04 10.96L102.12 36L110.23 36Z" fill="#246241" fill-opacity="1.000000" fill-rule="nonzero"/>
	</g>
</svg>
