<svg width="160.000000" height="38.000000" viewBox="0 0 160 38" fill="none" xmlns="http://www.w3.org/2000/svg" xmlns:xlink="http://www.w3.org/1999/xlink">
	<desc>
			Created with Pixso.
	</desc>
	<defs>
		<clipPath id="clip9_1244">
			<rect id="logoipsum-216 1" rx="-0.500000" width="159.000000" height="37.000000" transform="translate(0.500000 0.500000)" fill="white" fill-opacity="0"/>
		</clipPath>
	</defs>
	<rect id="logoipsum-216 1" rx="-0.500000" width="159.000000" height="37.000000" transform="translate(0.500000 0.500000)" fill="#FFFFFF" fill-opacity="0"/>
	<g clip-path="url(#clip9_1244)">
		<path id="Vector" d="M30.38 8.95L30.38 4.81L17.48 4.81L17.48 33.25L30.38 33.25L30.38 29.11C27.73 29.11 25.2 28.05 23.33 26.16C21.46 24.27 20.41 21.71 20.41 19.03C20.41 16.36 21.46 13.79 23.33 11.9C25.2 10.01 27.73 8.95 30.38 8.95Z" fill="#246241" fill-opacity="1.000000" fill-rule="nonzero"/>
		<path id="Vector" d="M30.38 8.95L30.38 29.11C33.02 29.11 35.55 28.05 37.42 26.16C39.29 24.27 40.34 21.71 40.34 19.03C40.34 16.36 39.29 13.79 37.42 11.9C35.55 10.01 33.02 8.95 30.38 8.95Z" fill="#246241" fill-opacity="1.000000" fill-rule="nonzero"/>
		<path id="Vector" d="M47.58 11.48L50.46 11.48L50.46 25.56L47.58 25.56L47.58 11.48Z" fill="#246241" fill-opacity="1.000000" fill-rule="nonzero"/>
		<path id="Vector" d="M52.08 20.74C52.08 19.72 52.38 18.73 52.94 17.89C53.49 17.05 54.28 16.4 55.21 16.01C56.13 15.62 57.15 15.52 58.13 15.72C59.11 15.92 60.01 16.41 60.72 17.13C61.42 17.85 61.9 18.76 62.09 19.76C62.29 20.75 62.18 21.78 61.8 22.71C61.41 23.65 60.76 24.44 59.92 25C59.09 25.56 58.11 25.86 57.11 25.85C56.44 25.86 55.78 25.73 55.17 25.47C54.56 25.22 54 24.84 53.53 24.36C53.06 23.89 52.69 23.32 52.45 22.7C52.2 22.07 52.07 21.41 52.08 20.74ZM59.32 20.74C59.31 20.3 59.17 19.88 58.92 19.52C58.67 19.16 58.33 18.89 57.93 18.73C57.52 18.57 57.08 18.53 56.66 18.62C56.24 18.72 55.86 18.93 55.55 19.25C55.25 19.56 55.05 19.95 54.97 20.38C54.89 20.81 54.94 21.26 55.1 21.66C55.27 22.06 55.55 22.4 55.91 22.65C56.27 22.89 56.69 23.02 57.13 23.02C57.42 23.02 57.71 22.97 57.98 22.85C58.25 22.74 58.5 22.57 58.7 22.36C58.91 22.14 59.07 21.89 59.17 21.61C59.27 21.33 59.32 21.03 59.3 20.74L59.32 20.74Z" fill="#246241" fill-opacity="1.000000" fill-rule="nonzero"/>
		<path id="Vector" d="M73.56 15.92L73.56 25.08C73.56 28.31 71.05 29.69 68.52 29.69C67.63 29.76 66.73 29.58 65.94 29.17C65.14 28.76 64.47 28.13 64.01 27.35L66.44 25.93C66.64 26.33 66.95 26.66 67.34 26.88C67.73 27.1 68.18 27.19 68.62 27.15C68.9 27.18 69.19 27.15 69.45 27.06C69.72 26.97 69.97 26.82 70.18 26.63C70.38 26.43 70.54 26.19 70.65 25.92C70.75 25.65 70.79 25.37 70.77 25.08L70.77 24.19C70.44 24.61 70.01 24.93 69.53 25.15C69.05 25.37 68.52 25.47 67.99 25.44C66.72 25.44 65.49 24.93 64.59 24.02C63.69 23.1 63.18 21.86 63.18 20.57C63.18 19.28 63.69 18.04 64.59 17.13C65.49 16.21 66.72 15.7 67.99 15.7C68.52 15.68 69.05 15.78 69.53 15.99C70.01 16.21 70.44 16.54 70.77 16.95L70.77 15.97L73.56 15.92ZM70.77 20.54C70.79 20.08 70.67 19.61 70.43 19.22C70.19 18.82 69.84 18.51 69.42 18.31C69 18.12 68.53 18.06 68.08 18.14C67.62 18.22 67.2 18.43 66.87 18.76C66.53 19.08 66.31 19.5 66.21 19.95C66.11 20.41 66.15 20.88 66.32 21.32C66.49 21.75 66.79 22.12 67.17 22.38C67.55 22.64 68 22.78 68.46 22.78C68.76 22.8 69.07 22.76 69.35 22.66C69.63 22.56 69.89 22.39 70.11 22.18C70.33 21.97 70.5 21.72 70.61 21.43C70.73 21.15 70.78 20.85 70.77 20.54Z" fill="#246241" fill-opacity="1.000000" fill-rule="nonzero"/>
		<path id="Vector" d="M75.18 20.74C75.18 19.72 75.48 18.74 76.03 17.89C76.59 17.05 77.38 16.4 78.3 16.01C79.23 15.62 80.24 15.52 81.23 15.72C82.21 15.92 83.11 16.41 83.81 17.12C84.52 17.84 85 18.75 85.19 19.75C85.39 20.74 85.29 21.77 84.9 22.7C84.52 23.63 83.87 24.43 83.04 24.99C82.2 25.55 81.23 25.85 80.23 25.85C79.56 25.86 78.9 25.73 78.29 25.47C77.67 25.22 77.11 24.84 76.64 24.37C76.17 23.89 75.8 23.32 75.55 22.7C75.3 22.08 75.17 21.41 75.18 20.74ZM82.42 20.74C82.41 20.3 82.27 19.88 82.02 19.52C81.77 19.16 81.43 18.89 81.02 18.73C80.62 18.57 80.18 18.53 79.76 18.63C79.34 18.72 78.95 18.94 78.65 19.25C78.35 19.56 78.15 19.96 78.07 20.39C77.99 20.82 78.04 21.26 78.21 21.66C78.38 22.07 78.66 22.41 79.02 22.65C79.38 22.89 79.8 23.02 80.24 23.02C80.53 23.02 80.82 22.97 81.09 22.85C81.36 22.74 81.61 22.57 81.81 22.36C82.02 22.14 82.18 21.89 82.28 21.61C82.38 21.33 82.43 21.03 82.41 20.74L82.42 20.74Z" fill="#246241" fill-opacity="1.000000" fill-rule="nonzero"/>
		<path id="Vector" d="M86.61 13.33C86.61 12.99 86.71 12.66 86.9 12.37C87.08 12.09 87.35 11.86 87.67 11.73C87.98 11.6 88.32 11.57 88.66 11.63C88.99 11.7 89.29 11.87 89.53 12.11C89.77 12.35 89.94 12.66 90 13C90.07 13.33 90.03 13.68 89.9 14C89.77 14.31 89.55 14.59 89.27 14.78C88.99 14.97 88.66 15.07 88.32 15.07C87.87 15.06 87.44 14.88 87.11 14.55C86.79 14.23 86.61 13.79 86.61 13.33ZM86.89 15.92L89.77 15.92L89.77 25.56L86.89 25.56L86.89 15.92Z" fill="#246241" fill-opacity="1.000000" fill-rule="nonzero"/>
		<path id="Vector" d="M102.13 20.74C102.17 21.38 102.07 22.02 101.86 22.62C101.65 23.23 101.32 23.78 100.89 24.26C100.46 24.74 99.95 25.12 99.37 25.39C98.8 25.67 98.18 25.82 97.54 25.85C97 25.89 96.46 25.8 95.97 25.6C95.46 25.39 95.02 25.08 94.65 24.67L94.65 29.43L91.77 29.43L91.77 15.91L94.65 15.91L94.65 16.82C95.02 16.42 95.47 16.1 95.97 15.9C96.47 15.7 97 15.61 97.54 15.65C98.17 15.68 98.79 15.83 99.37 16.11C99.94 16.38 100.45 16.76 100.88 17.23C101.31 17.7 101.64 18.26 101.85 18.86C102.07 19.46 102.16 20.1 102.13 20.74ZM99.25 20.74C99.23 20.28 99.09 19.85 98.83 19.47C98.58 19.1 98.22 18.82 97.8 18.65C97.39 18.49 96.93 18.45 96.49 18.55C96.06 18.64 95.66 18.87 95.35 19.19C95.03 19.52 94.82 19.93 94.74 20.37C94.66 20.82 94.71 21.28 94.88 21.69C95.06 22.11 95.35 22.47 95.73 22.71C96.1 22.96 96.54 23.1 96.98 23.09C97.29 23.11 97.6 23.05 97.88 22.94C98.17 22.82 98.42 22.65 98.64 22.43C98.85 22.21 99.01 21.94 99.12 21.65C99.22 21.36 99.27 21.05 99.25 20.74Z" fill="#246241" fill-opacity="1.000000" fill-rule="nonzero"/>
		<path id="Vector" d="M110.92 22.67C110.92 24.89 109 25.83 106.96 25.83C106.12 25.91 105.29 25.73 104.56 25.32C103.83 24.91 103.23 24.29 102.86 23.53L105.34 22.11C105.44 22.46 105.65 22.76 105.94 22.97C106.24 23.18 106.59 23.27 106.95 23.25C107.63 23.25 107.98 23.04 107.98 22.65C107.98 21.58 103.29 22.15 103.29 18.81C103.29 16.7 105.04 15.65 107.02 15.65C107.78 15.62 108.53 15.79 109.19 16.15C109.85 16.51 110.41 17.05 110.8 17.71L108.31 19.03C108.2 18.78 108.02 18.57 107.8 18.42C107.57 18.27 107.3 18.19 107.03 18.18C106.53 18.18 106.23 18.38 106.23 18.72C106.23 19.83 110.92 19.1 110.92 22.67Z" fill="#246241" fill-opacity="1.000000" fill-rule="nonzero"/>
		<path id="Vector" d="M121.38 15.91L121.38 25.56L118.5 25.56L118.5 24.65C118.17 25.05 117.75 25.37 117.28 25.58C116.81 25.79 116.3 25.88 115.78 25.85C113.86 25.85 112.21 24.46 112.21 21.86L112.21 15.91L115.1 15.91L115.1 21.42C115.08 21.65 115.1 21.88 115.18 22.1C115.25 22.32 115.37 22.52 115.53 22.68C115.69 22.85 115.88 22.98 116.1 23.06C116.31 23.15 116.54 23.19 116.76 23.17C117.8 23.17 118.54 22.55 118.54 21.22L118.54 15.91L121.38 15.91Z" fill="#246241" fill-opacity="1.000000" fill-rule="nonzero"/>
		<path id="Vector" d="M137.75 19.64L137.75 25.56L134.86 25.56L134.86 19.89C134.86 18.92 134.41 18.31 133.49 18.31C132.58 18.31 132 18.98 132 20.12L132 25.56L129.11 25.56L129.11 19.89C129.11 18.92 128.66 18.31 127.75 18.31C126.83 18.31 126.25 18.98 126.25 20.12L126.25 25.56L123.37 25.56L123.37 15.92L126.25 15.92L126.25 16.8C126.55 16.41 126.94 16.1 127.39 15.9C127.84 15.7 128.33 15.61 128.82 15.65C129.3 15.63 129.79 15.73 130.23 15.95C130.66 16.17 131.04 16.51 131.31 16.92C131.63 16.49 132.05 16.15 132.53 15.93C133.01 15.7 133.54 15.61 134.07 15.65C136.32 15.65 137.75 17.23 137.75 19.64Z" fill="#246241" fill-opacity="1.000000" fill-rule="nonzero"/>
		<path id="Vector" d="M140.17 15.86C141.34 15.86 142.29 14.9 142.29 13.71C142.29 12.53 141.34 11.57 140.17 11.57C139 11.57 138.06 12.53 138.06 13.71C138.06 14.9 139 15.86 140.17 15.86Z" fill="#246241" fill-opacity="1.000000" fill-rule="nonzero"/>
	</g>
</svg>
