<svg width="296.000000" height="296.000000" viewBox="0 0 296 296" fill="none" xmlns="http://www.w3.org/2000/svg" xmlns:xlink="http://www.w3.org/1999/xlink">
	<desc>
			Created with Pixso.
	</desc>
	<defs>
		<clipPath id="clip9_2460">
			<rect id="Illustration 4" rx="-0.260465" width="295.479065" height="295.479065" transform="translate(0.260465 0.260465) rotate(0.000000)" fill="white" fill-opacity="0"/>
		</clipPath>
	</defs>
	<rect id="Illustration 4" rx="-0.260465" width="295.479065" height="295.479065" transform="translate(0.260465 0.260465) rotate(0.000000)" fill="#FFFFFF" fill-opacity="0"/>
	<g clip-path="url(#clip9_2460)">
		<path id="Vector" d="M201.12 252.49L199.28 259.28L170.66 248.92L180.84 246.43L201.12 252.49Z" fill="#FFFFFF" fill-opacity="1.000000" fill-rule="nonzero"/>
		<path id="Vector" d="M199.28 259.76C199.23 259.78 199.17 259.78 199.12 259.76L170.49 249.4C170.4 249.37 170.31 249.3 170.25 249.21C170.19 249.12 170.17 249.02 170.17 248.91C170.18 248.81 170.21 248.71 170.28 248.63C170.35 248.55 170.44 248.49 170.54 248.46L180.72 245.99C180.85 245.96 180.99 245.98 181.1 246.05C181.21 246.12 181.29 246.23 181.33 246.36C181.36 246.49 181.34 246.63 181.27 246.74C181.2 246.86 181.08 246.94 180.95 246.97L172.34 249.06L198.95 258.7L200.64 252.42C200.68 252.3 200.76 252.19 200.87 252.12C200.99 252.06 201.12 252.04 201.25 252.07C201.37 252.11 201.48 252.19 201.54 252.31C201.6 252.42 201.62 252.55 201.59 252.68L199.75 259.46C199.72 259.59 199.63 259.71 199.51 259.78C199.43 259.79 199.36 259.78 199.28 259.76Z" fill="#000000" fill-opacity="1.000000" fill-rule="nonzero"/>
		<path id="Vector" d="M98.2 240.87C98.07 240.87 97.95 240.82 97.86 240.73C97.76 240.63 97.71 240.51 97.71 240.38L97.71 35.6C97.71 35.47 97.76 35.34 97.86 35.25C97.95 35.16 98.07 35.11 98.2 35.11C98.33 35.11 98.46 35.16 98.55 35.25C98.64 35.34 98.69 35.47 98.69 35.6L98.69 240.38C98.69 240.51 98.64 240.63 98.55 240.73C98.46 240.82 98.33 240.87 98.2 240.87Z" fill="#D1D3D4" fill-opacity="1.000000" fill-rule="nonzero"/>
		<path id="Vector" d="M116.74 259.95C116.61 259.95 116.48 259.9 116.39 259.8L98.29 241.11L80.2 259.8C80.15 259.85 80.1 259.89 80.04 259.91C79.98 259.94 79.91 259.95 79.85 259.95C79.78 259.95 79.72 259.94 79.66 259.91C79.6 259.89 79.55 259.85 79.5 259.8C79.41 259.71 79.36 259.59 79.36 259.46C79.36 259.33 79.41 259.2 79.5 259.11L97.95 240.07C98.04 239.97 98.17 239.92 98.3 239.92C98.43 239.92 98.56 239.97 98.65 240.07L117.1 259.11C117.15 259.16 117.18 259.21 117.21 259.27C117.23 259.33 117.24 259.39 117.24 259.46C117.24 259.52 117.23 259.59 117.21 259.65C117.18 259.71 117.15 259.76 117.1 259.8C117.05 259.85 117 259.89 116.93 259.92C116.87 259.94 116.8 259.95 116.74 259.95Z" fill="#D1D3D4" fill-opacity="1.000000" fill-rule="nonzero"/>
		<path id="Vector" d="M98.2 240.87C98.07 240.87 97.95 240.82 97.86 240.73C97.76 240.63 97.71 240.51 97.71 240.38L97.71 35.6C97.71 35.47 97.76 35.34 97.86 35.25C97.95 35.16 98.07 35.11 98.2 35.11C98.33 35.11 98.46 35.16 98.55 35.25C98.64 35.34 98.69 35.47 98.69 35.6L98.69 240.38C98.69 240.51 98.64 240.63 98.55 240.73C98.46 240.82 98.33 240.87 98.2 240.87Z" fill="#000000" fill-opacity="1.000000" fill-rule="nonzero"/>
		<path id="Vector" d="M116.74 259.95C116.61 259.95 116.48 259.9 116.39 259.8L98.29 241.11L80.2 259.8C80.15 259.85 80.1 259.89 80.04 259.91C79.98 259.94 79.91 259.95 79.85 259.95C79.78 259.95 79.72 259.94 79.66 259.91C79.6 259.89 79.55 259.85 79.5 259.8C79.41 259.71 79.36 259.59 79.36 259.46C79.36 259.33 79.41 259.2 79.5 259.11L97.95 240.07C98.04 239.97 98.17 239.92 98.3 239.92C98.43 239.92 98.56 239.97 98.65 240.07L117.1 259.11C117.15 259.16 117.18 259.21 117.21 259.27C117.23 259.33 117.24 259.39 117.24 259.46C117.24 259.52 117.23 259.59 117.21 259.65C117.18 259.71 117.15 259.76 117.1 259.8C117.05 259.85 117 259.89 116.93 259.92C116.87 259.94 116.8 259.95 116.74 259.95Z" fill="#000000" fill-opacity="1.000000" fill-rule="nonzero"/>
		<path id="Vector" d="M18.56 39.98L178.03 39.98L178.03 157.84L18.56 157.84L18.56 39.98Z" fill="#FFFFFF" fill-opacity="1.000000" fill-rule="evenodd"/>
		<path id="Vector" d="M178.02 158.35L18.52 158.35C18.39 158.35 18.26 158.3 18.16 158.2C18.07 158.11 18.01 157.98 18.01 157.84L18.01 39.98C18.01 39.91 18.02 39.85 18.05 39.78C18.08 39.72 18.11 39.67 18.16 39.62C18.21 39.57 18.26 39.54 18.33 39.51C18.39 39.49 18.45 39.48 18.52 39.48L178.02 39.48C178.09 39.48 178.15 39.49 178.22 39.51C178.28 39.54 178.33 39.57 178.38 39.62C178.43 39.67 178.47 39.72 178.49 39.78C178.52 39.85 178.53 39.91 178.53 39.98L178.53 157.84C178.53 157.91 178.52 157.98 178.49 158.04C178.47 158.1 178.43 158.16 178.38 158.2C178.33 158.25 178.28 158.29 178.22 158.31C178.15 158.34 178.09 158.35 178.02 158.35ZM19.06 157.37L177.52 157.37L177.52 40.49L19.06 40.49L19.06 157.37Z" fill="#000000" fill-opacity="1.000000" fill-rule="nonzero"/>
		<path id="Vector" d="M56.34 90.64C56.34 92.06 55.19 93.22 53.77 93.22C52.35 93.22 51.2 92.06 51.2 90.64C51.2 89.23 52.35 88.07 53.77 88.07C55.19 88.07 56.34 89.23 56.34 90.64Z" fill="#FFFFFF" fill-opacity="1.000000" fill-rule="evenodd"/>
		<path id="Vector" d="M86.25 80.92C86.25 82.34 85.1 83.49 83.68 83.49C82.26 83.49 81.1 82.34 81.1 80.92C81.1 79.5 82.26 78.35 83.68 78.35C85.1 78.35 86.25 79.5 86.25 80.92Z" fill="#FFFFFF" fill-opacity="1.000000" fill-rule="evenodd"/>
		<path id="Vector" d="M104.78 92.48C104.78 93.9 103.63 95.05 102.21 95.05C100.79 95.05 99.64 93.9 99.64 92.48C99.64 91.06 100.79 89.91 102.21 89.91C103.63 89.91 104.78 91.06 104.78 92.48Z" fill="#FFFFFF" fill-opacity="1.000000" fill-rule="evenodd"/>
		<path id="Vector" d="M72.67 103.49C72.67 104.91 71.52 106.06 70.1 106.06C68.68 106.06 67.53 104.91 67.53 103.49C67.53 102.07 68.68 100.92 70.1 100.92C71.52 100.92 72.67 102.07 72.67 103.49Z" fill="#FFFFFF" fill-opacity="1.000000" fill-rule="evenodd"/>
		<path id="Vector" d="M203.4 133.55C203.4 133.55 186.52 185.67 180.8 246.43L201.07 252.49L228.44 164.41L238.72 253.37L260.18 253.83C260.18 253.83 260.37 200.7 254.87 133.59C243.75 133.36 203.4 133.55 203.4 133.55Z" fill="#000000" fill-opacity="1.000000" fill-rule="nonzero"/>
		<path id="Vector" d="M150.1 106.66C150.1 106.66 172.11 134.15 182.25 133.27C192.4 132.39 204.98 111.64 204.98 111.64L194.61 93.33C194.61 93.33 181.37 109.43 178.97 108.34C176.57 107.24 160.22 95.32 160.22 95.32L150.1 106.66Z" fill="#FFFFFF" fill-opacity="1.000000" fill-rule="nonzero"/>
		<path id="Vector" d="M181.78 133.78C171.31 133.78 150.61 108.08 149.72 106.96C149.67 106.91 149.64 106.85 149.62 106.79C149.59 106.73 149.58 106.66 149.59 106.59C149.59 106.52 149.61 106.46 149.64 106.4C149.67 106.34 149.72 106.29 149.77 106.24C149.83 106.2 149.89 106.17 149.95 106.15C150.02 106.14 150.09 106.13 150.15 106.14C150.22 106.15 150.28 106.18 150.34 106.21C150.4 106.25 150.45 106.3 150.48 106.35C150.71 106.62 172.45 133.62 182.22 132.75C191.41 131.95 202.96 113.92 204.41 111.6L194.53 94.15C193.5 95.4 190.85 98.53 188.04 101.56C180.57 109.59 179.29 109 178.75 108.75C176.3 107.64 160.57 96.17 159.9 95.68C159.79 95.6 159.73 95.49 159.71 95.36C159.69 95.23 159.72 95.1 159.79 95C159.87 94.89 159.98 94.82 160.11 94.8C160.24 94.79 160.37 94.82 160.47 94.9C160.64 95.01 176.79 106.79 179.15 107.86C180.12 108.3 186.2 102.77 194.23 92.99C194.28 92.93 194.34 92.88 194.42 92.85C194.49 92.82 194.57 92.81 194.65 92.82C194.73 92.82 194.81 92.85 194.87 92.89C194.94 92.93 194.99 92.99 195.03 93.06L205.4 111.37C205.45 111.44 205.47 111.53 205.47 111.62C205.47 111.71 205.45 111.79 205.4 111.87C204.89 112.73 192.59 132.83 182.3 133.73L181.78 133.78Z" fill="#000000" fill-opacity="1.000000" fill-rule="nonzero"/>
		<path id="Vector" d="M252.29 102.07L265.85 96.49C261.03 86.21 255.6 80.1 251.86 77.71C247.08 73.73 235.24 73.46 224.36 73.04C220.88 72.82 217.4 73.15 214.03 74.02C201.32 77.53 189.59 95.87 189.59 95.87L200.94 102.64C200.94 102.64 199.68 127.61 201.31 136.05C201.31 136.05 230.74 148.76 255.46 141.81C255.44 141.84 251.99 105.3 252.29 102.07Z" fill="#2FE784" fill-opacity="1.000000" fill-rule="nonzero"/>
		<path id="Vector" d="M226.25 69.7L224.55 77.85C224.55 77.85 226.36 83.26 231.84 82.74C233.46 82.55 235.02 82.01 236.4 81.14C237.79 80.28 238.96 79.12 239.84 77.75L241.8 62.76C241.8 62.76 238.14 60.13 240.45 51.75C235.86 53.03 231 53.06 226.39 51.82C226.39 51.82 222.74 60.76 222.82 64.96C222.91 69.17 226.25 69.7 226.25 69.7Z" fill="#FFFFFF" fill-opacity="1.000000" fill-rule="nonzero"/>
		<path id="Vector" d="M231.05 83.25C225.88 83.25 224.09 78.07 224.08 78.02C224.05 77.94 224.05 77.85 224.08 77.76L225.68 70.06C224.65 69.68 223.77 68.97 223.16 68.05C222.56 67.13 222.27 66.04 222.34 64.94C222.25 60.68 225.79 51.96 225.93 51.59C225.98 51.48 226.06 51.38 226.17 51.33C226.28 51.28 226.41 51.26 226.53 51.3C231.04 52.5 235.79 52.48 240.29 51.24C240.38 51.21 240.47 51.2 240.56 51.22C240.65 51.24 240.73 51.28 240.8 51.35C240.87 51.41 240.92 51.49 240.94 51.58C240.96 51.66 240.96 51.76 240.94 51.84C238.78 59.74 242.07 62.3 242.1 62.32C242.18 62.38 242.23 62.45 242.27 62.54C242.31 62.62 242.32 62.71 242.31 62.8L240.35 77.79C240.34 77.85 240.32 77.92 240.29 77.98C239.38 79.42 238.15 80.64 236.69 81.54C235.24 82.45 233.61 83.02 231.91 83.21C231.63 83.23 231.32 83.25 231.05 83.25ZM225.07 77.82C225.38 78.61 227.16 82.71 231.79 82.2C233.31 82.02 234.78 81.5 236.09 80.69C237.4 79.88 238.51 78.8 239.35 77.52L241.25 62.85C240.46 62.1 238.1 59.19 239.73 52.35C235.44 53.38 230.96 53.36 226.69 52.29C225.98 54.08 223.24 61.29 223.32 64.83C223.4 68.54 226.26 69.1 226.33 69.12C226.4 69.13 226.47 69.16 226.52 69.19C226.58 69.23 226.63 69.28 226.67 69.33C226.71 69.39 226.73 69.45 226.75 69.52C226.76 69.59 226.76 69.66 226.74 69.72L225.07 77.82Z" fill="#000000" fill-opacity="1.000000" fill-rule="nonzero"/>
		<path id="Vector" d="M238.71 62.06C238.99 61.35 239.49 60.76 240.14 60.36C240.75 60.03 241.41 59.8 242.09 59.68C242.47 59.59 242.86 59.59 243.24 59.68C243.5 59.75 243.74 59.88 243.96 60.05C244.5 60.4 244.89 60.94 245.06 61.56C245.14 62.07 245.09 62.6 244.93 63.09C244.78 63.63 244.57 64.16 244.3 64.65C244.01 65.13 243.63 65.55 243.18 65.89C242.73 66.22 242.22 66.46 241.67 66.6C241.12 66.73 240.56 66.76 240 66.67C239.45 66.59 238.92 66.39 238.44 66.1L238.71 62.06Z" fill="#FFFFFF" fill-opacity="1.000000" fill-rule="nonzero"/>
		<path id="Vector" d="M240.69 67.17C239.82 67.17 238.95 66.93 238.2 66.48C238.09 66.41 238.01 66.3 237.98 66.17C237.94 66.04 237.97 65.9 238.03 65.79C238.07 65.73 238.11 65.68 238.17 65.64C238.22 65.6 238.28 65.57 238.35 65.56C238.41 65.54 238.48 65.54 238.54 65.55C238.61 65.56 238.67 65.58 238.73 65.62C239.15 65.88 239.62 66.05 240.11 66.12C240.6 66.2 241.1 66.18 241.58 66.06C242.06 65.94 242.51 65.73 242.91 65.43C243.3 65.14 243.64 64.76 243.89 64.34C244.15 63.89 244.34 63.4 244.47 62.9C244.61 62.49 244.65 62.05 244.59 61.62C244.44 61.12 244.12 60.69 243.69 60.41C243.53 60.27 243.35 60.17 243.15 60.12C242.84 60.05 242.53 60.05 242.23 60.12C241.59 60.22 240.97 60.43 240.4 60.74C239.85 61.08 239.42 61.59 239.18 62.19C239.13 62.31 239.03 62.41 238.91 62.47C238.79 62.52 238.65 62.53 238.52 62.48C238.4 62.43 238.3 62.33 238.25 62.21C238.2 62.09 238.19 61.95 238.24 61.83C238.56 61.01 239.13 60.33 239.87 59.87C240.54 59.5 241.27 59.25 242.02 59.12C242.47 59.01 242.94 59.01 243.39 59.12C243.72 59.21 244.03 59.37 244.29 59.58C244.92 60.01 245.38 60.65 245.58 61.39C245.68 61.98 245.63 62.59 245.44 63.16C245.29 63.75 245.06 64.31 244.76 64.84C244.11 65.92 243.06 66.71 241.83 67.02C241.46 67.12 241.08 67.17 240.69 67.17Z" fill="#000000" fill-opacity="1.000000" fill-rule="nonzero"/>
		<path id="Vector" d="M242.54 70.85C242.43 70.83 242.33 70.78 242.25 70.7C242.17 70.62 242.12 70.52 242.1 70.41C242.09 70.29 242.11 70.18 242.17 70.08C242.23 69.99 242.32 69.91 242.42 69.87C243.96 69.48 245.4 68.78 246.65 67.82C247.9 66.85 248.95 65.64 249.72 64.26C252.1 60.05 252.86 55.12 251.86 50.39C251.2 47.78 250.35 47.04 249.75 46.87C249.45 46.83 249.15 46.86 248.87 46.96C248.59 47.05 248.33 47.21 248.12 47.42C248.05 47.49 247.96 47.54 247.85 47.56C247.75 47.58 247.64 47.57 247.55 47.52C247.45 47.48 247.38 47.4 247.33 47.31C247.28 47.22 247.25 47.12 247.26 47.02C247.26 46.88 247.55 43.73 244.33 40.56C241.94 38.25 234.1 35.36 228.16 36.14C225.11 36.54 222.92 37.82 221.65 39.94C220.29 42.23 219.89 44.34 220.46 46.22C221.16 48.13 222.56 49.71 224.37 50.64C224.43 50.67 224.48 50.71 224.53 50.76C224.57 50.81 224.6 50.87 224.63 50.93C224.65 50.99 224.66 51.06 224.66 51.12C224.65 51.19 224.64 51.25 224.61 51.31C224.58 51.37 224.54 51.43 224.49 51.47C224.44 51.51 224.38 51.55 224.32 51.57C224.2 51.62 224.06 51.61 223.94 51.55C221.86 50.52 220.26 48.72 219.47 46.53C218.81 44.36 219.24 41.96 220.76 39.42C222.19 37.02 224.62 35.58 228 35.14C234.44 34.29 242.5 37.41 245.01 39.84C246.79 41.48 247.94 43.69 248.25 46.1C248.79 45.8 249.42 45.72 250.01 45.87C251.26 46.21 252.21 47.64 252.84 50.12C253.9 55.12 253.1 60.34 250.58 64.79C249.74 66.28 248.6 67.59 247.24 68.64C245.89 69.68 244.33 70.44 242.67 70.87L242.54 70.85Z" fill="#000000" fill-opacity="1.000000" fill-rule="nonzero"/>
		<path id="Vector" d="M225.59 73.78C226.56 74.02 227.56 74.06 228.54 73.88C229.52 73.7 230.45 73.31 231.27 72.75C233.91 70.79 233.88 69.47 233.88 69.47C233.88 69.47 229.83 71.03 226.45 69.86L225.59 73.78Z" fill="#000000" fill-opacity="1.000000" fill-rule="nonzero"/>
		<path id="Vector" d="M227.32 74.49C226.69 74.49 226.06 74.41 225.45 74.25C225.34 74.22 225.24 74.14 225.18 74.03C225.11 73.93 225.09 73.8 225.12 73.68L225.97 69.77C225.99 69.71 226.02 69.64 226.06 69.59C226.1 69.53 226.15 69.49 226.21 69.45C226.27 69.42 226.34 69.41 226.41 69.41C226.48 69.41 226.54 69.42 226.61 69.45C229.77 70.55 233.67 69.08 233.7 69.06C233.78 69.03 233.86 69.02 233.94 69.03C234.01 69.04 234.09 69.07 234.15 69.11C234.22 69.16 234.27 69.21 234.31 69.28C234.35 69.35 234.37 69.43 234.37 69.51C234.37 69.67 234.32 71.15 231.55 73.19C230.32 74.06 228.83 74.52 227.32 74.49ZM226.18 73.41C227.85 73.71 229.58 73.33 230.98 72.35C231.81 71.79 232.53 71.07 233.09 70.23C231.05 70.85 228.89 70.94 226.81 70.49L226.18 73.41Z" fill="#000000" fill-opacity="1.000000" fill-rule="nonzero"/>
		<path id="Vector" d="M201.33 136.57C201.2 136.57 201.08 136.52 200.99 136.44C200.9 136.35 200.85 136.24 200.84 136.11C200.34 119.07 201.74 102.02 205.01 85.28C205.02 85.22 205.05 85.16 205.08 85.1C205.12 85.05 205.16 85 205.22 84.97C205.27 84.93 205.33 84.91 205.39 84.9C205.45 84.88 205.52 84.88 205.58 84.9C205.64 84.91 205.7 84.93 205.76 84.97C205.81 85 205.86 85.05 205.9 85.1C205.93 85.16 205.96 85.22 205.97 85.28C205.98 85.34 205.98 85.41 205.97 85.47C202.72 102.12 201.32 119.08 201.82 136.03C201.82 136.1 201.81 136.16 201.79 136.22C201.77 136.28 201.74 136.34 201.69 136.39C201.65 136.44 201.6 136.48 201.54 136.5C201.48 136.53 201.42 136.55 201.36 136.55L201.33 136.57Z" fill="#000000" fill-opacity="1.000000" fill-rule="nonzero"/>
		<path id="Vector" d="M227.86 132C227.86 131.23 223.83 100.71 223.83 100.71L194.33 99.2L199.37 129.5L227.86 132Z" fill="#000000" fill-opacity="1.000000" fill-rule="nonzero"/>
		<path id="Vector" d="M264.79 93.68C264.79 93.68 287.64 134.14 273.05 136.61C262.89 138.34 242.63 133.68 235.06 129.77C227.5 125.86 224.36 123 224.36 123C224.36 123 215.91 122.38 216.92 120.36C217.2 119.8 217.67 119.34 218.24 119.06C218.81 118.79 219.46 118.71 220.08 118.85C220.08 118.85 216.04 118.47 216.55 116.58C217.06 114.69 220.33 115.32 220.33 115.32C220.33 115.32 214.65 113.3 216.17 112.16C217.68 111.03 220.58 111.91 220.58 111.91C220.58 111.91 216.67 111.2 216.8 109.51C217.04 106.65 229.28 109.77 231.67 112.03C234.07 114.3 248.65 116.58 251.3 116.83L244.46 102.25L264.79 93.68Z" fill="#FFFFFF" fill-opacity="1.000000" fill-rule="nonzero"/>
		<path id="Vector" d="M267.95 137.47C257.07 137.47 241.42 133.56 234.84 130.17C231.04 128.33 227.46 126.08 224.16 123.46C222.72 123.35 217.4 122.82 216.51 121.23C216.41 121.06 216.36 120.87 216.36 120.68C216.36 120.48 216.41 120.29 216.51 120.12C216.77 119.56 217.19 119.09 217.72 118.77C217.17 118.58 216.69 118.24 216.32 117.79C216.18 117.6 216.09 117.38 216.05 117.15C216.01 116.92 216.02 116.68 216.09 116.45C216.21 116.04 216.46 115.67 216.78 115.38C217.11 115.1 217.52 114.91 217.95 114.85C216.73 114.26 215.57 113.51 215.45 112.74C215.42 112.55 215.45 112.36 215.53 112.18C215.61 112.01 215.73 111.86 215.89 111.76C216.32 111.46 216.8 111.26 217.31 111.17C217.01 111 216.76 110.75 216.59 110.45C216.42 110.15 216.33 109.81 216.33 109.46C216.36 109.16 216.49 108.87 216.69 108.63C216.89 108.4 217.16 108.23 217.46 108.15C220.39 107.02 229.79 109.55 232.03 111.67C234.08 113.63 246.27 115.71 250.51 116.24L244 102.44C243.97 102.39 243.95 102.32 243.95 102.26C243.95 102.19 243.96 102.13 243.98 102.07C244 102.01 244.03 101.95 244.08 101.9C244.12 101.86 244.17 101.82 244.23 101.79C244.35 101.74 244.49 101.73 244.61 101.77C244.73 101.82 244.83 101.91 244.89 102.02L251.73 116.62C251.77 116.69 251.8 116.78 251.8 116.86C251.8 116.95 251.77 117.03 251.73 117.11C251.68 117.18 251.61 117.23 251.54 117.27C251.46 117.3 251.38 117.32 251.29 117.31C248.86 117.08 233.95 114.82 231.37 112.43C229.41 110.55 220.41 108.11 217.81 109.1C217.34 109.29 217.32 109.5 217.31 109.59C217.26 110.28 218.61 110.92 219.87 111.27C220.17 111.32 220.46 111.39 220.75 111.48C220.87 111.51 220.97 111.59 221.03 111.7C221.1 111.81 221.11 111.93 221.08 112.05C221.06 112.18 220.98 112.28 220.88 112.35C220.78 112.42 220.65 112.45 220.53 112.43C220.41 112.43 220.08 112.34 219.65 112.22C218.59 111.95 217.46 112.08 216.49 112.58C216.49 113.06 218.44 114.15 220.52 114.89C220.63 114.93 220.73 115.01 220.79 115.12C220.85 115.23 220.86 115.36 220.83 115.48C220.8 115.6 220.72 115.7 220.62 115.76C220.51 115.83 220.38 115.85 220.26 115.83C220.26 115.83 217.42 115.33 217.05 116.73C217.02 116.82 217.01 116.91 217.02 117.01C217.04 117.1 217.08 117.19 217.13 117.26C217.85 117.88 218.74 118.26 219.69 118.33C219.86 118.34 220.04 118.36 220.21 118.4C220.34 118.42 220.46 118.49 220.54 118.6C220.61 118.7 220.65 118.84 220.62 118.97C220.6 119.1 220.53 119.21 220.43 119.29C220.32 119.37 220.19 119.4 220.06 119.38L219.63 119.32C219.17 119.27 218.71 119.36 218.31 119.57C217.9 119.79 217.57 120.12 217.36 120.53C217.34 120.56 217.33 120.59 217.33 120.63C217.33 120.66 217.34 120.7 217.36 120.73C217.86 121.61 221.78 122.27 224.4 122.48C224.51 122.48 224.61 122.52 224.69 122.59C224.69 122.59 227.89 125.47 235.29 129.29C242.69 133.11 262.98 137.81 272.96 136.13C273.76 136.03 274.52 135.74 275.16 135.27C275.81 134.79 276.32 134.16 276.66 133.43C281.19 123.91 264.54 94.21 264.36 93.91C264.31 93.8 264.29 93.67 264.33 93.55C264.37 93.43 264.45 93.33 264.56 93.27C264.67 93.21 264.8 93.19 264.92 93.22C265.04 93.25 265.14 93.33 265.21 93.43C265.92 94.67 282.29 123.88 277.54 133.85C277.14 134.72 276.52 135.48 275.75 136.04C274.98 136.61 274.08 136.97 273.13 137.09C271.42 137.36 269.68 137.49 267.95 137.47Z" fill="#000000" fill-opacity="1.000000" fill-rule="nonzero"/>
		<path id="Vector" d="M162.76 97.34C162.76 97.34 156.9 81.7 155.62 82.25C154.33 82.8 156.59 92.5 156.59 92.5C156.59 92.5 147.22 82.3 146.01 82.96C144.79 83.63 145.56 86.15 149.09 91.33C149.09 91.33 142.86 84.14 141.87 85.64C140.88 87.14 146.99 93.58 146.99 93.58C146.99 93.58 141.13 87.37 140.3 88.61C139.47 89.85 145.84 96.31 145.84 96.31C145.84 96.31 139.88 89.36 139.47 91.52C139.06 93.67 150.87 107.67 154.27 111.52L162.76 97.34Z" fill="#FFFFFF" fill-opacity="1.000000" fill-rule="nonzero"/>
		<path id="Vector" d="M154.28 112.01C154.21 112.01 154.14 111.99 154.08 111.96C154.01 111.94 153.96 111.89 153.91 111.84C153.76 111.66 138.45 94.24 139 91.42C139.02 91.24 139.09 91.07 139.21 90.93C139.33 90.79 139.49 90.69 139.66 90.65C139.96 90.59 140.26 90.64 140.53 90.77C139.88 89.73 139.55 88.82 139.9 88.35C139.97 88.24 140.06 88.15 140.18 88.08C140.29 88.01 140.42 87.97 140.55 87.97C141.25 88.04 141.91 88.33 142.45 88.79C141.54 87.37 141 86.07 141.47 85.37C141.55 85.24 141.66 85.14 141.79 85.07C141.92 85 142.07 84.96 142.21 84.95C143.13 84.89 144.71 86.14 146.19 87.56C144.93 85.15 144.9 84.11 145.05 83.51C145.09 83.3 145.18 83.11 145.31 82.94C145.43 82.77 145.6 82.63 145.78 82.53C146.76 82 150.08 84.8 155.72 90.83C154.81 86.64 154.19 82.26 155.44 81.79C155.53 81.75 155.62 81.73 155.72 81.73C155.81 81.73 155.91 81.75 156 81.79C157.66 82.54 161.95 93.73 163.22 97.15C163.25 97.26 163.24 97.39 163.18 97.49C163.12 97.6 163.03 97.68 162.92 97.72C162.81 97.77 162.68 97.77 162.57 97.72C162.46 97.68 162.37 97.6 162.31 97.49C159.84 90.88 156.79 83.8 155.72 82.82C155.41 83.74 156.12 88.39 157.08 92.4C157.11 92.51 157.1 92.62 157.05 92.72C157.01 92.81 156.93 92.89 156.84 92.94C156.74 93 156.63 93.01 156.52 93C156.41 92.98 156.32 92.93 156.24 92.84C152.09 88.27 147.24 83.61 146.19 83.38C146.09 83.46 146.02 83.58 146 83.7C145.82 84.43 146.28 86.3 149.5 91.02C149.57 91.12 149.59 91.25 149.57 91.37C149.55 91.49 149.49 91.6 149.39 91.68C149.29 91.75 149.17 91.79 149.04 91.78C148.92 91.77 148.81 91.71 148.72 91.61C145.93 88.39 142.92 85.75 142.26 85.88C141.87 86.49 144.22 89.89 147.34 93.18C147.42 93.27 147.47 93.4 147.47 93.53C147.47 93.66 147.41 93.78 147.32 93.87C147.22 93.96 147.1 94.01 146.96 94.01C146.83 94 146.71 93.95 146.62 93.85C144.09 91.17 141.46 88.96 140.76 88.96C140.76 89.51 141.92 91.19 143.69 93.2C144.67 94.17 145.64 95.3 146.3 96.01C146.38 96.1 146.43 96.22 146.43 96.35C146.43 96.47 146.38 96.59 146.3 96.69C146.21 96.78 146.09 96.83 145.96 96.83C145.83 96.83 145.71 96.78 145.61 96.69C144.82 95.88 143.87 94.87 142.97 93.83C141.56 92.46 140.38 91.55 140.03 91.61C139.8 93.12 148.45 104.05 154.77 111.22C154.86 111.32 154.9 111.45 154.89 111.58C154.88 111.71 154.82 111.83 154.73 111.92C154.66 111.97 154.59 112 154.51 112.02C154.43 112.03 154.35 112.03 154.28 112.01Z" fill="#000000" fill-opacity="1.000000" fill-rule="nonzero"/>
		<path id="Vector" d="M156.6 92.5C155.7 93.08 155.04 93.95 154.72 94.97C154.39 95.99 154.44 97.09 154.84 98.07L156.6 92.5Z" fill="#FFFFFF" fill-opacity="1.000000" fill-rule="nonzero"/>
		<path id="Vector" d="M154.84 98.56C154.74 98.56 154.64 98.53 154.56 98.47C154.48 98.42 154.41 98.34 154.37 98.24C153.94 97.15 153.89 95.93 154.25 94.81C154.61 93.69 155.34 92.72 156.33 92.08C156.38 92.05 156.45 92.03 156.51 92.02C156.57 92.01 156.64 92.01 156.7 92.03C156.76 92.05 156.82 92.07 156.87 92.11C156.92 92.15 156.96 92.2 156.99 92.26C157.06 92.37 157.08 92.5 157.05 92.62C157.02 92.75 156.94 92.86 156.83 92.92C156.02 93.44 155.43 94.22 155.14 95.13C154.86 96.04 154.9 97.03 155.27 97.91C155.31 98.03 155.31 98.17 155.25 98.28C155.19 98.4 155.09 98.49 154.97 98.53C154.93 98.55 154.89 98.56 154.84 98.56Z" fill="#000000" fill-opacity="1.000000" fill-rule="nonzero"/>
		<path id="Vector" d="M238.73 253.41L239.35 259.99L269.93 259.99C266.87 257.65 263.6 255.6 260.16 253.87L238.73 253.41Z" fill="#FFFFFF" fill-opacity="1.000000" fill-rule="nonzero"/>
		<path id="Vector" d="M269.93 260.48L239.34 260.48C239.22 260.48 239.1 260.43 239.01 260.35C238.92 260.26 238.87 260.15 238.86 260.03L238.25 253.45C238.24 253.39 238.25 253.32 238.27 253.26C238.29 253.2 238.32 253.14 238.36 253.09C238.4 253.04 238.45 253 238.51 252.97C238.56 252.95 238.63 252.93 238.69 252.92C238.75 252.92 238.82 252.92 238.88 252.94C238.94 252.96 239 252.99 239.05 253.03C239.1 253.07 239.14 253.12 239.17 253.18C239.2 253.24 239.21 253.3 239.22 253.36L239.79 259.5L268.48 259.5C265.77 257.57 262.92 255.83 259.96 254.3C259.85 254.24 259.76 254.14 259.72 254.02C259.68 253.89 259.69 253.76 259.75 253.64C259.81 253.53 259.91 253.44 260.04 253.4C260.16 253.36 260.3 253.37 260.41 253.43C263.87 255.18 267.16 257.25 270.24 259.61C270.32 259.67 270.38 259.76 270.4 259.85C270.43 259.95 270.43 260.05 270.39 260.15C270.36 260.24 270.3 260.32 270.21 260.39C270.13 260.44 270.03 260.48 269.93 260.48Z" fill="#000000" fill-opacity="1.000000" fill-rule="nonzero"/>
		<path id="Vector" d="M295.51 260.42L0.48 260.42C0.35 260.42 0.23 260.37 0.14 260.27C0.05 260.18 0 260.06 0 259.93C0 259.8 0.05 259.68 0.14 259.59C0.23 259.49 0.35 259.44 0.48 259.44L295.51 259.44C295.64 259.44 295.76 259.49 295.85 259.59C295.94 259.68 296 259.8 296 259.93C296 260.06 295.94 260.19 295.85 260.28C295.76 260.37 295.64 260.42 295.51 260.42Z" fill="#000000" fill-opacity="1.000000" fill-rule="nonzero"/>
		<path id="Vector" d="M237.26 168.21C237.21 168.22 237.16 168.22 237.11 168.21L221.69 162.69C221.57 162.65 221.47 162.56 221.42 162.45C221.36 162.33 221.35 162.2 221.4 162.08C221.44 161.96 221.53 161.86 221.64 161.8C221.76 161.75 221.89 161.74 222.01 161.78L237.43 167.29C237.49 167.3 237.55 167.32 237.61 167.36C237.66 167.39 237.71 167.44 237.75 167.49C237.79 167.54 237.81 167.6 237.83 167.67C237.84 167.73 237.85 167.8 237.83 167.86C237.82 167.92 237.8 167.99 237.77 168.04C237.73 168.1 237.69 168.14 237.63 168.18C237.58 168.22 237.52 168.25 237.46 168.26C237.39 168.27 237.33 168.28 237.26 168.27L237.26 168.21Z" fill="#FFFFFF" fill-opacity="1.000000" fill-rule="nonzero"/>
		<path id="Vector" d="M200.02 153.15C199.89 153.16 199.76 153.11 199.66 153.03C199.57 152.94 199.51 152.82 199.5 152.69C199.5 152.56 199.54 152.43 199.63 152.33C199.72 152.24 199.84 152.18 199.97 152.17C206.86 151.49 208.33 143.12 208.35 143.03C208.37 142.91 208.44 142.79 208.54 142.72C208.65 142.64 208.78 142.61 208.9 142.63C209.03 142.66 209.14 142.73 209.22 142.83C209.29 142.94 209.32 143.07 209.3 143.2C209.3 143.29 207.69 152.38 200.07 153.14L200.02 153.15Z" fill="#FFFFFF" fill-opacity="1.000000" fill-rule="nonzero"/>
		<path id="Vector" d="M254.33 153.15C254.29 153.16 254.24 153.16 254.19 153.15C252.39 152.68 250.79 151.62 249.66 150.13C248.53 148.64 247.94 146.82 247.98 144.95C247.98 144.89 247.99 144.82 248.02 144.77C248.05 144.71 248.09 144.66 248.14 144.62C248.18 144.57 248.24 144.54 248.3 144.52C248.36 144.5 248.42 144.49 248.49 144.5C248.55 144.5 248.61 144.52 248.67 144.54C248.73 144.57 248.78 144.61 248.82 144.66C248.86 144.7 248.9 144.76 248.92 144.82C248.94 144.88 248.95 144.94 248.94 145.01C248.9 146.66 249.43 148.28 250.43 149.59C251.44 150.9 252.86 151.83 254.47 152.22C254.6 152.24 254.71 152.31 254.79 152.41C254.87 152.52 254.91 152.65 254.89 152.78C254.87 152.91 254.8 153.03 254.7 153.11C254.59 153.18 254.46 153.22 254.33 153.2L254.33 153.15Z" fill="#FFFFFF" fill-opacity="1.000000" fill-rule="nonzero"/>
		<path id="Vector" d="M231.14 57.51C231.14 57.51 227.67 61.16 228.21 61.99C228.75 62.82 230.67 62.67 230.67 62.67L231.14 57.51Z" fill="#FFFFFF" fill-opacity="1.000000" fill-rule="nonzero"/>
		<path id="Vector" d="M230.27 63.17C229.82 63.21 229.36 63.15 228.93 62.99C228.5 62.84 228.11 62.58 227.79 62.26C227.17 61.28 229.08 58.96 230.78 57.17C230.83 57.13 230.88 57.09 230.94 57.07C231 57.04 231.06 57.03 231.13 57.03C231.19 57.03 231.26 57.04 231.32 57.07C231.38 57.09 231.43 57.13 231.48 57.17C231.52 57.22 231.56 57.27 231.58 57.33C231.61 57.39 231.62 57.45 231.62 57.51C231.62 57.58 231.61 57.64 231.58 57.7C231.56 57.76 231.52 57.81 231.48 57.86C229.9 59.52 228.54 61.36 228.62 61.77C228.85 62.11 229.94 62.23 230.58 62.17C230.7 62.16 230.83 62.2 230.93 62.28C231.03 62.36 231.09 62.48 231.1 62.61C231.11 62.67 231.1 62.74 231.09 62.8C231.07 62.86 231.04 62.92 231 62.97C230.95 63.01 230.9 63.05 230.85 63.08C230.79 63.11 230.73 63.13 230.66 63.14L230.27 63.17Z" fill="#000000" fill-opacity="1.000000" fill-rule="nonzero"/>
		<path id="Vector" d="M229.57 65.53C229.57 65.53 232.5 67.06 233.82 64.21L229.57 65.53Z" fill="#FFFFFF" fill-opacity="1.000000" fill-rule="nonzero"/>
		<path id="Vector" d="M231.29 66.42C230.61 66.41 229.95 66.25 229.33 65.96C229.28 65.93 229.23 65.89 229.19 65.84C229.14 65.79 229.11 65.74 229.09 65.68C229.07 65.62 229.07 65.55 229.07 65.49C229.08 65.42 229.1 65.36 229.13 65.31C229.19 65.19 229.29 65.1 229.41 65.06C229.54 65.02 229.67 65.03 229.78 65.09C230.48 65.43 231.26 65.52 232.01 65.34C232.32 65.22 232.6 65.04 232.83 64.81C233.06 64.58 233.25 64.31 233.37 64.01C233.44 63.9 233.53 63.83 233.65 63.79C233.76 63.76 233.89 63.77 233.99 63.82C234.1 63.87 234.19 63.96 234.24 64.07C234.28 64.18 234.29 64.3 234.25 64.42C234.03 65.01 233.62 65.52 233.1 65.88C232.57 66.24 231.95 66.42 231.32 66.42L231.29 66.42Z" fill="#000000" fill-opacity="1.000000" fill-rule="nonzero"/>
		<path id="Vector" d="M236.2 57.28C236.56 57.43 236.68 57.95 236.48 58.45C236.28 58.95 235.83 59.24 235.47 59.1C235.12 58.95 234.99 58.43 235.19 57.93C235.39 57.43 235.85 57.14 236.2 57.28Z" fill="#000000" fill-opacity="1.000000" fill-rule="evenodd"/>
		<path id="Vector" d="M229 56.1C229.36 56.24 229.48 56.76 229.28 57.27C229.08 57.77 228.63 58.06 228.27 57.91C227.92 57.77 227.79 57.25 227.99 56.75C228.2 56.25 228.65 55.96 229 56.1Z" fill="#000000" fill-opacity="1.000000" fill-rule="evenodd"/>
		<path id="Vector" d="M46.78 241.2L34.07 241.2C33.99 241.2 33.91 241.18 33.83 241.14C33.76 241.1 33.7 241.04 33.65 240.97C29.88 234.63 25.45 224.85 25.75 214.18C25.76 214.1 25.78 214.02 25.82 213.95C25.85 213.88 25.91 213.82 25.98 213.78C26.05 213.75 26.13 213.73 26.2 213.73C26.28 213.73 26.36 213.75 26.43 213.78C30.03 215.4 33.36 217.57 36.29 220.21C36.37 220.3 36.41 220.42 36.41 220.54C36.41 220.66 36.37 220.77 36.29 220.86C36.21 220.95 36.1 221 35.98 221.02C35.86 221.03 35.75 221 35.65 220.94C32.96 218.55 29.96 216.55 26.72 214.98C26.64 225 30.77 234.19 34.35 240.26L46.76 240.26C46.89 240.26 47.02 240.32 47.11 240.41C47.2 240.5 47.25 240.62 47.25 240.75C47.25 240.88 47.2 241.01 47.11 241.1C47.02 241.19 46.89 241.24 46.76 241.24L46.78 241.2Z" fill="#000000" fill-opacity="1.000000" fill-rule="nonzero"/>
		<path id="Vector" d="M54.03 241.2L40.34 241.2C40.24 241.2 40.14 241.17 40.06 241.11C39.98 241.05 39.91 240.96 39.88 240.87C37.61 234.3 36.13 227.49 35.46 220.57C34.6 212.53 35.4 204.4 37.81 196.68C37.83 196.61 37.87 196.54 37.93 196.49C37.99 196.43 38.06 196.39 38.13 196.37C38.21 196.35 38.28 196.35 38.36 196.36C38.44 196.38 38.51 196.41 38.57 196.46C38.71 196.57 51.49 206.99 54.61 223.24C54.62 223.31 54.62 223.37 54.61 223.44C54.59 223.5 54.57 223.56 54.53 223.61C54.49 223.67 54.45 223.71 54.39 223.75C54.34 223.78 54.28 223.81 54.21 223.82C54.15 223.83 54.08 223.83 54.02 223.82C53.95 223.8 53.89 223.78 53.84 223.74C53.79 223.7 53.74 223.65 53.71 223.6C53.67 223.54 53.65 223.48 53.63 223.42C50.96 209.45 40.93 199.86 38.49 197.69C36.31 205.08 35.61 212.83 36.42 220.49C37.07 227.21 38.49 233.83 40.67 240.22L53.97 240.22C54.1 240.22 54.22 240.28 54.31 240.37C54.4 240.46 54.46 240.58 54.46 240.71C54.46 240.84 54.4 240.97 54.31 241.06C54.22 241.15 54.1 241.2 53.97 241.2L54.03 241.2Z" fill="#000000" fill-opacity="1.000000" fill-rule="nonzero"/>
		<path id="Vector" d="M60.91 241.2L48.82 241.2C48.7 241.2 48.58 241.15 48.49 241.07C48.39 240.98 48.34 240.86 48.34 240.73C48.23 237.34 48.94 231.76 52.98 224.46C53.24 223.99 53.5 223.53 53.75 223.09C60.82 211.13 67.33 211.12 67.58 211.12C67.7 211.12 67.8 211.16 67.89 211.24C67.97 211.31 68.03 211.4 68.05 211.51C70.8 224.22 65.01 235.41 61.32 240.99C61.27 241.05 61.21 241.11 61.14 241.15C61.07 241.18 60.99 241.2 60.91 241.2ZM49.3 240.22L60.65 240.22C64.22 234.77 69.61 224.11 67.19 212.14C65.75 212.35 60.35 213.8 54.6 223.59C54.35 224.02 54.09 224.47 53.83 224.94C50.09 231.71 49.28 236.92 49.3 240.22Z" fill="#000000" fill-opacity="1.000000" fill-rule="nonzero"/>
		<path id="Vector" d="M58.71 259.87L35.01 259.87L31.2 240.72L62.53 240.72L58.71 259.87Z" fill="#000000" fill-opacity="1.000000" fill-rule="nonzero"/>
		<path id="Vector" d="M33.76 84.59C33.9 92.45 37.12 99.93 42.73 105.44C48.33 110.94 55.87 114.03 63.73 114.03C71.58 114.03 79.13 110.94 84.73 105.44C90.33 99.93 93.55 92.45 93.7 84.59L63.73 84.59L63.73 54.62C55.78 54.62 48.16 57.78 42.54 63.4C36.92 69.02 33.76 76.65 33.76 84.59Z" fill="#2FE784" fill-opacity="1.000000" fill-rule="nonzero"/>
		<path id="Vector" d="M68.57 50.2L68.57 80.17L98.54 80.17C98.54 72.23 95.38 64.6 89.76 58.98C84.14 53.36 76.52 50.21 68.57 50.2Z" fill="#E6E7E8" fill-opacity="1.000000" fill-rule="nonzero"/>
		<path id="Vector" d="M38.06 149.94L58.59 149.94L58.59 167.98L38.06 167.98L38.06 149.94Z" fill="#2FE784" fill-opacity="1.000000" fill-rule="evenodd"/>
		<path id="Vector" d="M46.88 148.07L49.26 148.07L49.26 151.69L46.88 151.69L46.88 148.07Z" fill="#E6E7E8" fill-opacity="1.000000" fill-rule="evenodd"/>
		<path id="Vector" d="M48.08 155.72L41.86 155.72C41.74 155.72 41.61 155.67 41.52 155.58C41.43 155.49 41.38 155.36 41.38 155.23C41.38 155.1 41.43 154.98 41.52 154.89C41.61 154.8 41.74 154.75 41.86 154.75L48.08 154.75C48.21 154.75 48.34 154.8 48.43 154.89C48.52 154.98 48.57 155.1 48.57 155.23C48.57 155.36 48.52 155.49 48.43 155.58C48.34 155.67 48.21 155.72 48.08 155.72Z" fill="#FFFFFF" fill-opacity="1.000000" fill-rule="nonzero"/>
		<path id="Vector" d="M52.85 159.63L41.86 159.63C41.74 159.63 41.61 159.58 41.52 159.49C41.43 159.4 41.38 159.27 41.38 159.14C41.38 159.01 41.43 158.89 41.52 158.8C41.61 158.71 41.74 158.66 41.86 158.66L52.85 158.66C52.98 158.66 53.11 158.71 53.2 158.8C53.29 158.89 53.34 159.01 53.34 159.14C53.34 159.27 53.29 159.4 53.2 159.49C53.11 159.58 52.98 159.63 52.85 159.63Z" fill="#FFFFFF" fill-opacity="1.000000" fill-rule="nonzero"/>
		<path id="Vector" d="M55.42 155.87L50.84 155.87C50.71 155.87 50.58 155.82 50.49 155.73C50.4 155.63 50.35 155.51 50.35 155.38C50.35 155.25 50.4 155.13 50.49 155.03C50.58 154.94 50.71 154.89 50.84 154.89L55.42 154.89C55.55 154.89 55.68 154.94 55.77 155.03C55.86 155.13 55.91 155.25 55.91 155.38C55.91 155.51 55.86 155.63 55.77 155.73C55.68 155.82 55.55 155.87 55.42 155.87Z" fill="#FFFFFF" fill-opacity="1.000000" fill-rule="nonzero"/>
		<path id="Vector" d="M12.6 45.87L30.72 45.87L30.72 61.8L12.6 61.8L12.6 45.87Z" fill="#2FE784" fill-opacity="1.000000" fill-rule="evenodd"/>
		<path id="Vector" d="M20.37 44.23L22.47 44.23L22.47 47.44L20.37 47.44L20.37 44.23Z" fill="#E6E7E8" fill-opacity="1.000000" fill-rule="evenodd"/>
		<path id="Vector" d="M27.66 50.91L15.93 50.91C15.84 50.91 15.76 50.87 15.69 50.81C15.63 50.75 15.6 50.66 15.6 50.57C15.6 50.49 15.63 50.4 15.69 50.34C15.76 50.28 15.84 50.24 15.93 50.24L27.66 50.24C27.75 50.24 27.83 50.28 27.9 50.34C27.96 50.4 27.99 50.49 27.99 50.57C27.99 50.66 27.96 50.75 27.9 50.81C27.83 50.87 27.75 50.91 27.66 50.91Z" fill="#FFFFFF" fill-opacity="1.000000" fill-rule="nonzero"/>
		<path id="Vector" d="M27.66 54.33L15.93 54.33C15.85 54.31 15.78 54.27 15.73 54.21C15.67 54.15 15.64 54.07 15.64 53.99C15.64 53.91 15.67 53.83 15.73 53.77C15.78 53.71 15.85 53.67 15.93 53.65L27.66 53.65C27.71 53.65 27.76 53.65 27.81 53.66C27.86 53.67 27.9 53.7 27.94 53.73C27.98 53.76 28.01 53.8 28.03 53.85C28.05 53.89 28.06 53.94 28.06 53.99C28.06 54.04 28.05 54.09 28.03 54.13C28.01 54.18 27.98 54.22 27.94 54.25C27.9 54.28 27.86 54.31 27.81 54.32C27.76 54.33 27.71 54.34 27.66 54.33Z" fill="#FFFFFF" fill-opacity="1.000000" fill-rule="nonzero"/>
		<path id="Vector" d="M23.41 57.74L15.95 57.74C15.86 57.74 15.78 57.71 15.71 57.64C15.65 57.58 15.62 57.5 15.62 57.41C15.62 57.32 15.65 57.23 15.71 57.17C15.78 57.11 15.86 57.08 15.95 57.08L23.41 57.08C23.5 57.08 23.58 57.11 23.64 57.17C23.71 57.23 23.74 57.32 23.74 57.41C23.74 57.5 23.71 57.58 23.64 57.64C23.58 57.71 23.5 57.74 23.41 57.74Z" fill="#FFFFFF" fill-opacity="1.000000" fill-rule="nonzero"/>
		<path id="Vector" d="M68.31 127.16L35.14 127.16C35.03 127.14 34.93 127.09 34.86 127C34.79 126.92 34.75 126.81 34.75 126.7C34.75 126.59 34.79 126.49 34.86 126.4C34.93 126.32 35.03 126.27 35.14 126.25L68.31 126.25C68.42 126.27 68.52 126.32 68.59 126.4C68.66 126.49 68.7 126.59 68.7 126.7C68.7 126.81 68.66 126.92 68.59 127C68.52 127.09 68.42 127.14 68.31 127.16Z" fill="#D1D3D4" fill-opacity="1.000000" fill-rule="nonzero"/>
		<path id="Vector" d="M80.81 127.16L74.5 127.16C74.39 127.14 74.29 127.09 74.22 127C74.14 126.92 74.1 126.81 74.1 126.7C74.1 126.59 74.14 126.49 74.22 126.4C74.29 126.32 74.39 126.27 74.5 126.25L80.81 126.25C80.92 126.27 81.02 126.32 81.09 126.4C81.16 126.49 81.2 126.59 81.2 126.7C81.2 126.81 81.16 126.92 81.09 127C81.02 127.09 80.92 127.14 80.81 127.16Z" fill="#D1D3D4" fill-opacity="1.000000" fill-rule="nonzero"/>
		<path id="Vector" d="M92.48 126.6L86.18 126.6C86.06 126.6 85.94 126.55 85.86 126.47C85.78 126.38 85.73 126.27 85.73 126.15C85.73 126.03 85.78 125.92 85.86 125.84C85.95 125.75 86.06 125.7 86.18 125.7L92.48 125.7C92.6 125.7 92.72 125.75 92.8 125.83C92.89 125.92 92.93 126.03 92.93 126.15C92.93 126.21 92.92 126.27 92.9 126.32C92.88 126.38 92.85 126.43 92.8 126.47C92.76 126.51 92.71 126.55 92.66 126.57C92.6 126.59 92.54 126.6 92.48 126.6Z" fill="#D1D3D4" fill-opacity="1.000000" fill-rule="nonzero"/>
		<path id="Vector" d="M83.76 134.86L34.88 134.86C34.77 134.86 34.65 134.81 34.57 134.73C34.49 134.64 34.44 134.53 34.44 134.41C34.44 134.29 34.48 134.18 34.57 134.09C34.65 134.01 34.77 133.96 34.88 133.96L83.76 133.96C83.82 133.96 83.88 133.97 83.94 133.99C83.99 134.02 84.04 134.05 84.08 134.09C84.13 134.13 84.16 134.18 84.18 134.24C84.2 134.29 84.21 134.35 84.21 134.41C84.21 134.47 84.2 134.53 84.18 134.58C84.16 134.64 84.12 134.69 84.08 134.73C84.04 134.77 83.99 134.8 83.94 134.83C83.88 134.85 83.82 134.86 83.76 134.86Z" fill="#D1D3D4" fill-opacity="1.000000" fill-rule="nonzero"/>
		<path id="Vector" d="M50.91 142.56L35.02 142.56C34.9 142.56 34.79 142.52 34.7 142.43C34.62 142.35 34.57 142.23 34.57 142.11C34.57 142 34.62 141.88 34.71 141.8C34.79 141.72 34.9 141.67 35.02 141.66L50.91 141.66C51.03 141.67 51.14 141.72 51.22 141.8C51.31 141.88 51.35 142 51.36 142.11C51.36 142.23 51.31 142.35 51.23 142.43C51.14 142.52 51.03 142.56 50.91 142.56Z" fill="#D1D3D4" fill-opacity="1.000000" fill-rule="nonzero"/>
		<path id="Vector" d="M88.98 142.29L60.72 142.29C60.66 142.29 60.6 142.28 60.55 142.26C60.49 142.24 60.44 142.2 60.4 142.16C60.36 142.12 60.33 142.07 60.3 142.01C60.28 141.96 60.27 141.9 60.27 141.84C60.27 141.72 60.32 141.61 60.4 141.52C60.49 141.44 60.6 141.39 60.72 141.39L88.98 141.39C89.1 141.39 89.22 141.44 89.3 141.53C89.38 141.61 89.43 141.72 89.43 141.84C89.43 141.96 89.39 142.07 89.3 142.16C89.22 142.24 89.1 142.29 88.98 142.29Z" fill="#D1D3D4" fill-opacity="1.000000" fill-rule="nonzero"/>
		<path id="Vector" d="M68.31 127.19L35.14 127.19C35.01 127.19 34.88 127.14 34.79 127.04C34.7 126.95 34.65 126.83 34.65 126.7C34.65 126.57 34.7 126.45 34.8 126.36C34.89 126.26 35.01 126.21 35.14 126.21L68.31 126.21C68.44 126.21 68.56 126.26 68.65 126.35C68.75 126.44 68.8 126.57 68.8 126.7C68.8 126.83 68.75 126.95 68.65 127.04C68.56 127.14 68.44 127.19 68.31 127.19Z" fill="#E6E7E8" fill-opacity="1.000000" fill-rule="nonzero"/>
		<path id="Vector" d="M80.81 127.19L74.5 127.19C74.37 127.19 74.24 127.14 74.15 127.04C74.06 126.95 74.01 126.83 74.01 126.7C74.01 126.57 74.06 126.45 74.15 126.36C74.24 126.26 74.37 126.21 74.5 126.21L80.81 126.21C80.94 126.21 81.06 126.26 81.15 126.36C81.25 126.45 81.3 126.57 81.3 126.7C81.3 126.83 81.25 126.95 81.16 127.04C81.07 127.14 80.94 127.19 80.81 127.19Z" fill="#E6E7E8" fill-opacity="1.000000" fill-rule="nonzero"/>
		<path id="Vector" d="M92.48 126.64L86.18 126.64C86.05 126.64 85.92 126.59 85.83 126.5C85.74 126.4 85.69 126.28 85.69 126.15C85.69 126.02 85.74 125.9 85.83 125.81C85.92 125.71 86.05 125.66 86.18 125.66L92.48 125.66C92.61 125.66 92.74 125.71 92.83 125.81C92.92 125.9 92.97 126.02 92.97 126.15C92.97 126.28 92.92 126.4 92.83 126.5C92.74 126.59 92.61 126.64 92.48 126.64Z" fill="#E6E7E8" fill-opacity="1.000000" fill-rule="nonzero"/>
		<path id="Vector" d="M83.76 134.9L34.88 134.9C34.75 134.9 34.63 134.85 34.54 134.76C34.45 134.67 34.4 134.54 34.4 134.41C34.4 134.28 34.45 134.16 34.54 134.07C34.63 133.97 34.75 133.92 34.88 133.92L83.76 133.92C83.89 133.92 84.02 133.97 84.11 134.07C84.2 134.16 84.25 134.28 84.25 134.41C84.25 134.54 84.2 134.67 84.11 134.76C84.02 134.85 83.89 134.9 83.76 134.9Z" fill="#E6E7E8" fill-opacity="1.000000" fill-rule="nonzero"/>
		<path id="Vector" d="M50.91 142.6L35.02 142.6C34.89 142.6 34.77 142.55 34.68 142.46C34.58 142.37 34.53 142.24 34.53 142.11C34.54 141.99 34.59 141.86 34.68 141.77C34.77 141.68 34.89 141.63 35.02 141.63L50.91 141.63C51.04 141.63 51.16 141.68 51.25 141.77C51.34 141.86 51.4 141.99 51.4 142.11C51.4 142.24 51.34 142.37 51.25 142.46C51.16 142.55 51.04 142.6 50.91 142.6Z" fill="#E6E7E8" fill-opacity="1.000000" fill-rule="nonzero"/>
		<path id="Vector" d="M88.98 142.33L60.72 142.33C60.59 142.33 60.47 142.28 60.38 142.19C60.28 142.1 60.23 141.97 60.23 141.84C60.23 141.71 60.28 141.59 60.38 141.5C60.47 141.4 60.59 141.35 60.72 141.35L88.98 141.35C89.11 141.35 89.24 141.4 89.33 141.5C89.42 141.59 89.47 141.71 89.47 141.84C89.47 141.97 89.42 142.1 89.33 142.19C89.24 142.28 89.11 142.33 88.98 142.33Z" fill="#E6E7E8" fill-opacity="1.000000" fill-rule="nonzero"/>
		<path id="Vector" d="M111.22 118.08L121.33 118.08L121.33 146.74L111.22 146.74L111.22 118.08Z" fill="#2FE784" fill-opacity="1.000000" fill-rule="evenodd"/>
		<path id="Vector" d="M128.66 127.81L138.77 127.81L138.77 146.75L128.66 146.75L128.66 127.81Z" fill="#E6E7E8" fill-opacity="1.000000" fill-rule="evenodd"/>
		<path id="Vector" d="M146.09 122.27L156.2 122.27L156.2 146.74L146.09 146.74L146.09 122.27Z" fill="#E6E7E8" fill-opacity="1.000000" fill-rule="evenodd"/>
		<path id="Vector" d="M160.59 56.55L107.8 56.55C107.67 56.55 107.55 56.5 107.46 56.4C107.37 56.31 107.31 56.19 107.31 56.06C107.31 55.93 107.37 55.8 107.46 55.71C107.55 55.62 107.67 55.57 107.8 55.57L160.59 55.57C160.72 55.57 160.85 55.62 160.94 55.71C161.03 55.8 161.08 55.93 161.08 56.06C161.08 56.19 161.03 56.31 160.93 56.4C160.84 56.49 160.72 56.54 160.59 56.55Z" fill="#D1D3D4" fill-opacity="1.000000" fill-rule="nonzero"/>
		<path id="Vector" d="M149.2 64.25L108.59 64.25C108.46 64.25 108.34 64.2 108.25 64.11C108.16 64.02 108.11 63.89 108.11 63.76C108.11 63.63 108.16 63.51 108.25 63.42C108.34 63.33 108.47 63.28 108.59 63.27L149.2 63.27C149.33 63.27 149.46 63.32 149.55 63.42C149.64 63.51 149.69 63.63 149.69 63.76C149.69 63.89 149.64 64.02 149.55 64.11C149.46 64.2 149.33 64.25 149.2 64.25Z" fill="#D1D3D4" fill-opacity="1.000000" fill-rule="nonzero"/>
		<path id="Vector" d="M154.9 71.65L107.82 71.65C107.69 71.65 107.57 71.6 107.48 71.51C107.38 71.42 107.33 71.29 107.33 71.16C107.33 71.03 107.38 70.91 107.48 70.82C107.57 70.72 107.69 70.67 107.82 70.67L154.9 70.67C155.03 70.68 155.15 70.73 155.24 70.82C155.34 70.91 155.39 71.03 155.39 71.16C155.39 71.29 155.34 71.42 155.25 71.51C155.16 71.6 155.03 71.65 154.9 71.65Z" fill="#D1D3D4" fill-opacity="1.000000" fill-rule="nonzero"/>
		<path id="Vector" d="M162.4 63.89L154.9 63.89C154.77 63.89 154.65 63.84 154.56 63.75C154.46 63.65 154.41 63.53 154.41 63.4C154.41 63.27 154.46 63.15 154.56 63.05C154.65 62.96 154.77 62.91 154.9 62.91L162.4 62.91C162.53 62.91 162.65 62.96 162.75 63.05C162.84 63.15 162.89 63.27 162.89 63.4C162.89 63.53 162.84 63.65 162.75 63.75C162.65 63.84 162.53 63.89 162.4 63.89Z" fill="#D1D3D4" fill-opacity="1.000000" fill-rule="nonzero"/>
		<path id="Vector" d="M136.25 109.3L108.72 109.3C108.59 109.3 108.47 109.25 108.38 109.15C108.28 109.06 108.23 108.94 108.23 108.81L108.23 86.25C108.23 86.12 108.28 85.99 108.38 85.9C108.47 85.81 108.59 85.76 108.72 85.76C108.85 85.76 108.98 85.81 109.07 85.9C109.16 85.99 109.21 86.12 109.21 86.25L109.21 108.32L136.25 108.32C136.38 108.32 136.5 108.37 136.6 108.46C136.69 108.55 136.74 108.68 136.74 108.81C136.74 108.94 136.69 109.06 136.6 109.15C136.5 109.25 136.38 109.3 136.25 109.3Z" fill="#E6E7E8" fill-opacity="1.000000" fill-rule="nonzero"/>
		<path id="Vector" d="M108.72 109.3C108.62 109.3 108.53 109.27 108.45 109.22C108.37 109.17 108.3 109.1 108.26 109.01C108.23 108.92 108.22 108.82 108.23 108.73C108.25 108.63 108.3 108.54 108.37 108.48L119.92 96.09C119.98 96.04 120.04 95.99 120.11 95.97C120.18 95.94 120.26 95.93 120.34 95.94C120.41 95.95 120.48 95.97 120.54 96.01C120.61 96.05 120.66 96.1 120.7 96.17L123.12 100L130.94 91.4C130.99 91.35 131.04 91.32 131.1 91.29C131.16 91.27 131.22 91.25 131.29 91.25C131.35 91.25 131.42 91.27 131.48 91.29C131.54 91.32 131.59 91.35 131.64 91.4C131.68 91.44 131.72 91.5 131.74 91.55C131.77 91.61 131.78 91.68 131.78 91.74C131.78 91.8 131.77 91.87 131.74 91.93C131.72 91.98 131.68 92.04 131.64 92.08L123.39 101.16C123.33 101.22 123.27 101.27 123.2 101.29C123.13 101.32 123.05 101.34 122.97 101.33C122.9 101.32 122.82 101.3 122.76 101.26C122.7 101.22 122.64 101.16 122.6 101.1L120.19 97.18L109.06 109.1C109.02 109.16 108.97 109.2 108.91 109.24C108.85 109.27 108.79 109.29 108.72 109.3Z" fill="#E6E7E8" fill-opacity="1.000000" fill-rule="nonzero"/>
		<path id="Vector" d="M164.05 147.01L104.05 147.01C103.92 147.01 103.79 146.96 103.7 146.87C103.61 146.78 103.56 146.65 103.56 146.52C103.56 146.39 103.61 146.27 103.7 146.18C103.79 146.09 103.92 146.03 104.05 146.03L164.05 146.03C164.18 146.03 164.31 146.09 164.4 146.18C164.49 146.27 164.54 146.39 164.54 146.52C164.54 146.65 164.49 146.78 164.39 146.87C164.3 146.96 164.18 147.01 164.05 147.01Z" fill="#E6E7E8" fill-opacity="1.000000" fill-rule="nonzero"/>
	</g>
</svg>
