<svg width="296.000000" height="213.000000" viewBox="0 0 296 213" fill="none" xmlns="http://www.w3.org/2000/svg" xmlns:xlink="http://www.w3.org/1999/xlink">
	<desc>
			Created with Pixso.
	</desc>
	<defs/>
	<path id="Vector" d="M284.85 206.26L11.36 206.26C11.23 206.26 11.11 206.21 11.02 206.12C10.93 206.03 10.88 205.91 10.88 205.78C10.88 205.65 10.93 205.53 11.02 205.44C11.11 205.35 11.23 205.3 11.36 205.3L284.85 205.3C284.97 205.3 285.09 205.35 285.18 205.44C285.27 205.53 285.32 205.65 285.32 205.78C285.32 205.91 285.27 206.03 285.18 206.12C285.09 206.21 284.97 206.26 284.85 206.26Z" fill="#D1D3D4" fill-opacity="1.000000" fill-rule="nonzero"/>
	<path id="Vector" d="M12.43 9.72L275.92 9.72C282.51 9.72 287.86 15.08 287.86 21.69L287.86 156.08C287.86 162.69 282.51 168.04 275.92 168.04L12.43 168.04C5.84 168.04 0.49 162.69 0.49 156.08L0.49 21.69C0.49 15.08 5.84 9.72 12.43 9.72Z" fill="#FFFFFF" fill-opacity="1.000000" fill-rule="evenodd"/>
	<path id="Vector" d="M275.92 168.54L12.43 168.54C9.14 168.54 5.97 167.22 3.64 164.89C1.31 162.55 0 159.38 0 156.08L0 21.69C0 18.38 1.31 15.21 3.64 12.88C5.97 10.54 9.14 9.23 12.43 9.22L275.92 9.22C279.21 9.23 282.38 10.54 284.71 12.88C287.04 15.21 288.35 18.38 288.35 21.69L288.35 156.08C288.35 159.38 287.04 162.55 284.71 164.89C282.38 167.22 279.21 168.54 275.92 168.54ZM12.43 10.21C9.4 10.21 6.48 11.42 4.34 13.57C2.19 15.72 0.98 18.64 0.98 21.69L0.98 156.08C1 159.11 2.21 162.01 4.36 164.15C6.5 166.3 9.41 167.5 12.43 167.5L275.92 167.5C278.94 167.49 281.83 166.28 283.96 164.14C286.1 162 287.3 159.1 287.32 156.08L287.32 21.69C287.32 18.65 286.12 15.74 283.98 13.59C281.85 11.44 278.95 10.22 275.92 10.21L12.43 10.21Z" fill="#000000" fill-opacity="1.000000" fill-rule="nonzero"/>
	<path id="Vector" d="M0.49 27.73L287.86 27.73L287.86 150.02L0.49 150.02L0.49 27.73Z" fill="#FFFFFF" fill-opacity="1.000000" fill-rule="evenodd"/>
	<path id="Vector" d="M287.86 150.52L0.49 150.52C0.42 150.52 0.36 150.51 0.3 150.48C0.24 150.46 0.19 150.42 0.14 150.38C0.09 150.33 0.06 150.28 0.03 150.22C0.01 150.16 0 150.1 0 150.03L0 27.73C0 27.67 0.01 27.6 0.03 27.54C0.06 27.48 0.09 27.43 0.14 27.38C0.19 27.34 0.24 27.3 0.3 27.28C0.36 27.26 0.42 27.24 0.49 27.25L287.86 27.25C287.92 27.24 287.99 27.26 288.05 27.28C288.11 27.3 288.16 27.34 288.21 27.38C288.26 27.43 288.29 27.48 288.32 27.54C288.34 27.6 288.35 27.67 288.35 27.73L288.35 150.03C288.35 150.1 288.34 150.16 288.32 150.22C288.29 150.28 288.26 150.33 288.21 150.38C288.16 150.42 288.11 150.46 288.05 150.48C287.99 150.51 287.92 150.52 287.86 150.52ZM0.98 149.57L287.37 149.57L287.37 28.23L0.98 28.23L0.98 149.57Z" fill="#000000" fill-opacity="1.000000" fill-rule="nonzero"/>
	<path id="Vector" d="M194.42 202.73L93.93 202.73L105.3 168.04L183.05 168.04L194.42 202.73Z" fill="#FFFFFF" fill-opacity="1.000000" fill-rule="nonzero"/>
	<path id="Vector" d="M194.42 203.23L93.93 203.23C93.86 203.23 93.78 203.21 93.71 203.17C93.64 203.14 93.59 203.08 93.54 203.02C93.5 202.96 93.46 202.89 93.45 202.81C93.44 202.73 93.44 202.65 93.47 202.58L104.87 167.89C104.9 167.79 104.96 167.71 105.05 167.64C105.13 167.58 105.23 167.55 105.34 167.55L183.09 167.55C183.19 167.55 183.3 167.58 183.38 167.64C183.46 167.71 183.52 167.79 183.56 167.89L194.96 202.58C194.98 202.65 194.99 202.73 194.97 202.81C194.96 202.89 194.93 202.96 194.88 203.02C194.83 203.1 194.76 203.16 194.68 203.19C194.6 203.23 194.51 203.24 194.42 203.23ZM94.65 202.28L193.73 202.28L182.7 168.58L105.65 168.58L94.65 202.28Z" fill="#000000" fill-opacity="1.000000" fill-rule="nonzero"/>
	<path id="Vector" d="M85.64 202.73L202.71 202.73C205.4 202.73 207.59 204.92 207.59 207.62C207.59 210.31 205.4 212.5 202.71 212.5L85.64 212.5C82.94 212.5 80.76 210.31 80.76 207.62C80.76 204.92 82.94 202.73 85.64 202.73Z" fill="#FFFFFF" fill-opacity="1.000000" fill-rule="evenodd"/>
	<path id="Vector" d="M202.71 213L85.64 213C84.21 213 82.85 212.43 81.84 211.42C80.83 210.41 80.27 209.04 80.27 207.62C80.27 206.19 80.83 204.82 81.84 203.81C82.85 202.81 84.21 202.24 85.64 202.24L202.71 202.24C204.14 202.24 205.5 202.81 206.51 203.81C207.52 204.82 208.08 206.19 208.08 207.62C208.08 209.04 207.52 210.41 206.51 211.42C205.5 212.43 204.14 213 202.71 213ZM85.64 203.23C84.48 203.23 83.36 203.69 82.54 204.51C81.72 205.34 81.26 206.45 81.26 207.62C81.26 208.78 81.72 209.9 82.54 210.72C83.36 211.54 84.48 212.01 85.64 212.01L202.71 212.01C203.87 212.01 204.99 211.54 205.81 210.72C206.63 209.9 207.09 208.78 207.09 207.62C207.09 206.45 206.63 205.34 205.81 204.51C204.99 203.69 203.87 203.23 202.71 203.23L85.64 203.23Z" fill="#000000" fill-opacity="1.000000" fill-rule="nonzero"/>
	<path id="Vector" d="M97.3 193.54C98.92 192.68 185.9 176.75 185.9 176.75L183.05 168.04L105.26 168.04L97.3 193.54Z" fill="#000000" fill-opacity="1.000000" fill-rule="nonzero"/>
	<path id="Vector" d="M97.32 194C97.2 194.01 97.08 193.96 96.99 193.89C96.92 193.83 96.88 193.75 96.85 193.66C96.82 193.58 96.82 193.48 96.85 193.39L104.84 167.9C104.87 167.8 104.93 167.72 105.01 167.66C105.1 167.6 105.2 167.57 105.3 167.57L183.05 167.57C183.15 167.57 183.25 167.6 183.33 167.66C183.41 167.71 183.48 167.8 183.51 167.89L186.36 176.6C186.39 176.66 186.4 176.73 186.4 176.8C186.4 176.86 186.39 176.93 186.36 176.99C186.33 177.05 186.28 177.1 186.22 177.14C186.17 177.18 186.1 177.21 186.04 177.22C156.21 182.68 99.32 193.21 97.55 193.97C97.48 194 97.4 194.01 97.32 194ZM105.64 168.52L98.04 192.86C106.93 190.76 174.82 178.31 185.31 176.38L182.74 168.52L105.64 168.52Z" fill="#000000" fill-opacity="1.000000" fill-rule="nonzero"/>
	<path id="Vector" d="M185.86 51.7C185.86 51.7 129.17 37.78 111.57 51.7C93.96 65.62 76.11 81.12 76.11 81.12L90.17 108.59L111.91 90.67L102.41 138.15L177.04 139.24L181.25 96.11C181.25 96.11 188.94 121.73 197.25 122.77C205.55 123.81 219.86 112.54 212.03 94.21C204.2 75.87 185.86 51.7 185.86 51.7Z" fill="#72B0F9" fill-opacity="1.000000" fill-rule="nonzero"/>
	<path id="Vector" d="M230.4 82.4C231.15 83.87 231.48 85.52 231.35 87.16C231.15 88.71 230.67 90.21 229.94 91.59C226.29 99.6 222.63 107.59 218.53 115.39C216.12 119.99 212.01 125.27 206.35 125.79C201.47 126.24 193.23 121.62 192.1 116.65C190.6 109.98 199.33 102.09 203.01 97.24C207.95 90.74 212.86 83.74 218.56 77.87C221.69 74.66 222.74 74.36 226.23 77.4C227.93 78.78 229.35 80.48 230.4 82.4Z" fill="#FFFFFF" fill-opacity="1.000000" fill-rule="nonzero"/>
	<path id="Vector" d="M205.57 126.32C199.61 126.32 192.63 121.01 191.68 116.8C190.44 111.28 195.67 105.22 199.87 100.36C200.93 99.14 201.91 97.99 202.67 96.99C203.62 95.7 204.63 94.39 205.62 93.07C209.5 87.64 213.72 82.46 218.27 77.57C221.54 74.21 222.86 73.76 226.61 77.06C228.34 78.49 229.78 80.24 230.84 82.22C231.64 83.77 232 85.51 231.88 87.25C231.67 88.86 231.17 90.41 230.42 91.85C226.83 99.73 223.11 107.87 219.02 115.65C217.06 119.38 212.82 125.72 206.44 126.31C206.15 126.33 205.86 126.33 205.57 126.32ZM222.52 75.79C221.48 75.79 220.53 76.62 218.97 78.21C214.45 83.08 210.25 88.22 206.4 93.63L203.45 97.55C202.67 98.57 201.68 99.73 200.6 100.96C196.55 105.66 191.49 111.52 192.62 116.54C193.67 121.19 201.71 125.72 206.34 125.3C212.26 124.76 216.27 118.71 218.14 115.16C222.22 107.39 225.93 99.26 229.55 91.36C230.25 90.03 230.72 88.58 230.92 87.09C231.02 85.52 230.7 83.96 229.97 82.57C228.98 80.71 227.62 79.06 225.98 77.72C224.42 76.42 223.44 75.79 222.52 75.79Z" fill="#000000" fill-opacity="1.000000" fill-rule="nonzero"/>
	<path id="Vector" d="M203.59 68.01L218.33 96.64C219.65 99.2 222.42 100.21 224.7 98.95L231.64 95.06C234.08 93.72 235.07 90.3 233.83 87.45L224.33 65.55L229.43 59.21C229.43 59.21 205.52 66.59 203.59 68.01Z" fill="#FFFFFF" fill-opacity="1.000000" fill-rule="nonzero"/>
	<path id="Vector" d="M222.6 99.98C222.12 99.97 221.65 99.9 221.19 99.77C220.47 99.53 219.81 99.15 219.24 98.65C218.67 98.15 218.2 97.54 217.87 96.86L203.13 68.24C203.08 68.13 203.07 68.01 203.09 67.9C203.12 67.78 203.19 67.68 203.28 67.61C205.18 66.19 226.86 59.56 229.32 58.8C229.42 58.77 229.52 58.77 229.62 58.81C229.72 58.84 229.8 58.91 229.86 58.99C229.92 59.08 229.96 59.18 229.96 59.28C229.96 59.39 229.92 59.49 229.86 59.57L224.99 65.69L234.37 87.31C235.7 90.37 234.62 94.06 231.96 95.52L224.96 99.38C224.24 99.78 223.42 99.98 222.6 99.98ZM204.24 68.2L218.74 96.42C219.01 96.98 219.4 97.49 219.87 97.9C220.34 98.31 220.88 98.63 221.48 98.82C221.97 98.98 222.48 99.02 222.99 98.97C223.5 98.92 224 98.76 224.44 98.51L231.45 94.7C233.67 93.47 234.55 90.35 233.42 87.73L223.92 65.84C223.89 65.76 223.87 65.67 223.89 65.58C223.9 65.49 223.93 65.4 223.99 65.33L228.09 60.24C221.03 62.38 206.93 66.83 204.24 68.2Z" fill="#72B0F9" fill-opacity="1.000000" fill-rule="nonzero"/>
	<path id="Vector" d="M193.44 41.75L186.72 43.9C186.72 43.9 183.87 62.46 196.54 69.13L203.03 66.84L193.44 41.75Z" fill="#000000" fill-opacity="1.000000" fill-rule="nonzero"/>
	<path id="Vector" d="M196.54 69.64C196.46 69.64 196.38 69.62 196.32 69.58C183.54 62.83 186.23 44.05 186.25 43.88C186.27 43.79 186.31 43.71 186.36 43.64C186.42 43.57 186.49 43.52 186.58 43.5L193.3 41.34C193.41 41.31 193.53 41.32 193.64 41.37C193.75 41.42 193.83 41.52 193.88 41.63L203.47 66.72C203.5 66.78 203.51 66.85 203.5 66.91C203.5 66.97 203.49 67.03 203.46 67.09C203.43 67.15 203.4 67.2 203.35 67.24C203.3 67.28 203.25 67.31 203.19 67.33L196.7 69.63C196.64 69.64 196.59 69.64 196.54 69.64ZM187.15 44.29C186.87 46.64 185.45 62.58 196.58 68.65L202.42 66.58L193.15 42.36L187.15 44.29Z" fill="#000000" fill-opacity="1.000000" fill-rule="nonzero"/>
	<path id="Vector" d="M267.86 2.09C267.86 2.09 258.12 15.58 238.18 24.55C220.91 32.32 192.05 39.93 192.05 39.93C192.05 39.93 185.65 58.55 201.33 69.44C201.33 69.44 228.02 62.21 240.2 60.13C255.87 57.44 287.09 64.89 287.09 64.89L267.86 2.09Z" fill="#FFFFFF" fill-opacity="1.000000" fill-rule="nonzero"/>
	<path id="Vector" d="M201.33 69.94C201.24 69.94 201.14 69.9 201.06 69.85C185.24 58.87 191.56 39.95 191.56 39.76C191.58 39.69 191.63 39.62 191.69 39.56C191.75 39.51 191.82 39.47 191.9 39.45C192.18 39.37 220.92 31.77 237.96 24.1C257.54 15.29 267.34 1.94 267.41 1.81C267.47 1.73 267.54 1.68 267.63 1.64C267.71 1.61 267.81 1.59 267.9 1.61C267.99 1.62 268.07 1.66 268.14 1.72C268.21 1.79 268.26 1.86 268.29 1.95L287.51 64.7C287.53 64.78 287.54 64.87 287.52 64.95C287.5 65.04 287.46 65.12 287.4 65.18C287.34 65.24 287.27 65.29 287.18 65.31C287.1 65.34 287.01 65.34 286.93 65.32C286.62 65.25 255.63 57.98 240.24 60.62C228.22 62.68 201.69 69.85 201.42 69.92L201.33 69.94ZM192.44 40.33C191.78 42.53 187.41 59.01 201.43 68.88C204.03 68.18 228.63 61.59 240.12 59.62C254.27 57.19 281.29 63 286.37 64.14L267.67 3.14C259.68 12.56 249.67 20.05 238.38 25.04C222.13 32.3 195.38 39.54 192.44 40.33Z" fill="#000000" fill-opacity="1.000000" fill-rule="nonzero"/>
	<path id="Vector" d="M288.92 64.6C283.49 66.19 276.44 59.32 271.09 48.21C269.29 44.41 267.79 40.47 266.62 36.43C265.46 32.5 264.62 28.48 264.1 24.42C262.55 12.04 264.78 2.28 270.25 0.68C277.41 -1.42 287.36 11.15 292.54 28.84C297.71 46.52 296.07 62.53 288.92 64.6Z" fill="#000000" fill-opacity="1.000000" fill-rule="nonzero"/>
	<path id="Vector" d="M287.33 65.32C282.08 65.32 275.75 58.98 270.67 48.45C268.85 44.62 267.35 40.66 266.17 36.59C265 32.64 264.15 28.6 263.63 24.5C261.99 11.4 264.53 1.88 270.12 0.25C277.65 -1.96 287.69 10.57 292.99 28.73C298.22 46.6 296.45 62.91 289.05 65.09C288.49 65.25 287.91 65.33 287.33 65.32ZM271.9 0.94C271.39 0.94 270.88 1.02 270.39 1.16C265.35 2.64 263.01 11.97 264.57 24.38C265.08 28.42 265.92 32.42 267.08 36.33C268.25 40.35 269.74 44.26 271.54 48.04C276.89 59.15 283.84 65.63 288.81 64.22C295.71 62.19 297.19 46.42 292.11 29.04C287.38 12.87 278.64 0.94 271.9 0.94Z" fill="#000000" fill-opacity="1.000000" fill-rule="nonzero"/>
	<path id="Vector" d="M192.05 39.93C192.05 39.93 185.65 58.55 201.33 69.44C201.33 69.44 219.29 64.57 232.46 61.68C229.77 58.94 226.48 53.98 224.86 45.3C223.83 40.33 223.51 35.23 223.91 30.16C208.39 35.61 192.05 39.93 192.05 39.93Z" fill="#FFFFFF" fill-opacity="1.000000" fill-rule="nonzero"/>
	<path id="Vector" d="M201.33 69.94C201.24 69.94 201.14 69.9 201.06 69.85C185.24 58.87 191.56 39.95 191.56 39.76C191.58 39.69 191.63 39.62 191.69 39.56C191.75 39.51 191.82 39.47 191.9 39.45C192.06 39.45 208.4 35.08 223.66 29.71C223.74 29.68 223.83 29.68 223.91 29.69C223.99 29.7 224.07 29.74 224.13 29.79C224.19 29.84 224.24 29.9 224.27 29.98C224.31 30.05 224.32 30.13 224.31 30.22C223.91 35.24 224.23 40.29 225.26 45.22C226.92 53.92 230.26 58.79 232.77 61.35C232.83 61.41 232.87 61.49 232.89 61.57C232.92 61.66 232.91 61.75 232.89 61.83C232.87 61.91 232.82 61.99 232.76 62.05C232.69 62.11 232.61 62.15 232.53 62.16C219.51 65.02 201.6 69.87 201.42 69.92L201.33 69.94ZM192.44 40.33C191.78 42.53 187.41 59.01 201.43 68.88C203.49 68.33 219.36 64.12 231.52 61.36C229 58.57 225.93 53.64 224.34 45.37C223.36 40.6 223.01 35.72 223.29 30.85C209.27 35.78 194.58 39.76 192.44 40.33Z" fill="#000000" fill-opacity="1.000000" fill-rule="nonzero"/>
	<path id="Vector" d="M280.61 44.55L271.11 48.24C269.31 44.44 267.81 40.5 266.64 36.46C265.48 32.53 264.64 28.51 264.12 24.45L274.4 23.03L280.61 44.55Z" fill="#FFFFFF" fill-opacity="1.000000" fill-rule="nonzero"/>
	<path id="Vector" d="M271.09 48.73C271 48.73 270.91 48.7 270.83 48.66C270.75 48.61 270.69 48.54 270.65 48.46C268.84 44.63 267.33 40.67 266.15 36.6C264.98 32.64 264.13 28.6 263.61 24.5C263.6 24.38 263.63 24.25 263.71 24.15C263.79 24.04 263.91 23.98 264.04 23.96L274.31 22.54C274.43 22.52 274.55 22.55 274.65 22.62C274.75 22.68 274.82 22.78 274.85 22.89L281.05 44.41C281.08 44.53 281.07 44.65 281.01 44.77C280.96 44.88 280.87 44.96 280.75 45.01L271.25 48.69C271.2 48.72 271.15 48.73 271.09 48.73ZM264.65 24.87C265.17 28.73 265.99 32.55 267.09 36.29C268.21 40.16 269.63 43.93 271.34 47.58L280.01 44.22L274.03 23.53L264.65 24.87Z" fill="#000000" fill-opacity="1.000000" fill-rule="nonzero"/>
	<path id="Vector" d="M280.65 32.9C282.37 38.84 282.36 44.07 280.62 44.57C278.88 45.08 276.07 40.67 274.35 34.73C272.63 28.78 272.64 23.56 274.38 23.05C276.12 22.55 278.93 26.95 280.65 32.9Z" fill="#FFFFFF" fill-opacity="1.000000" fill-rule="evenodd"/>
	<path id="Vector" d="M280.33 45.09C279.38 45.09 278.23 44.13 277.07 42.31C275.67 39.97 274.59 37.46 273.87 34.84C272.29 29.4 271.89 23.24 274.24 22.56C275.33 22.24 276.6 23.18 277.93 25.27C279.32 27.6 280.4 30.11 281.11 32.74C282.69 38.18 283.1 44.33 280.75 45.02C280.62 45.06 280.48 45.08 280.33 45.09ZM274.63 23.49C274.58 23.48 274.53 23.48 274.48 23.49C273.37 23.81 272.94 28.18 274.79 34.55C275.49 37.08 276.54 39.5 277.89 41.75C279.1 43.66 280.02 44.18 280.48 44.05C281.6 43.72 282.02 39.35 280.17 32.99C279.48 30.45 278.45 28.02 277.1 25.77C276.01 24.08 275.16 23.49 274.66 23.49L274.63 23.49Z" fill="#000000" fill-opacity="1.000000" fill-rule="nonzero"/>
	<path id="Vector" d="M222.18 71.83C221.06 71.86 219.98 72.24 219.08 72.91C218.27 73.67 218.13 75.23 219.08 75.77C219.4 75.93 219.74 76.01 220.09 76.02C221.55 76.17 223.02 76.08 224.45 75.78C223.21 76.36 222.14 77.25 221.33 78.36C221.14 78.57 221.04 78.84 221.04 79.13C221.11 79.66 221.76 79.85 222.29 79.87C223.62 79.93 224.95 79.7 226.17 79.18C225.35 79.35 224.57 79.72 223.91 80.24C222.19 81.83 223.76 83.1 225.28 82.96C227.85 82.68 233 85.5 233 85.5C233 85.5 234.35 82.74 234.25 81.34C234.07 79.87 233.73 78.42 233.25 77.01C232.46 74.26 231.46 71.11 229.52 68.93C226.67 65.73 217.59 65.75 217.55 71.27C219.04 71.78 220.62 71.97 222.18 71.83Z" fill="#FFFFFF" fill-opacity="1.000000" fill-rule="nonzero"/>
	<path id="Vector" d="M233.01 86.01C232.93 86.01 232.85 85.99 232.78 85.94C232.73 85.94 227.73 83.21 225.34 83.46C224.85 83.54 224.34 83.47 223.89 83.25C223.45 83.04 223.07 82.7 222.82 82.27C222.69 81.95 222.65 81.61 222.7 81.27C222.76 80.93 222.92 80.62 223.15 80.37C222.86 80.37 222.57 80.37 222.28 80.37C221.33 80.37 220.64 79.87 220.57 79.19C220.55 78.99 220.58 78.79 220.64 78.59C220.71 78.4 220.81 78.22 220.95 78.07C221.35 77.51 221.82 77 222.34 76.56C221.58 76.62 220.82 76.62 220.05 76.56C219.63 76.55 219.22 76.44 218.85 76.24C218.59 76.09 218.36 75.89 218.2 75.63C218.03 75.38 217.93 75.1 217.9 74.8C217.86 74.39 217.91 73.98 218.05 73.6C218.18 73.21 218.41 72.87 218.69 72.58C218.83 72.46 218.98 72.34 219.13 72.24C218.52 72.15 217.92 71.99 217.35 71.78C217.25 71.74 217.17 71.68 217.11 71.6C217.06 71.51 217.03 71.41 217.03 71.31C217.03 70.31 217.35 69.34 217.95 68.54C218.55 67.74 219.38 67.16 220.34 66.88C223.49 65.68 227.94 66.51 229.84 68.65C231.74 70.78 232.87 74.1 233.64 76.93L233.81 77.52C234.22 78.76 234.51 80.03 234.66 81.33C234.76 82.82 233.51 85.45 233.36 85.74C233.33 85.8 233.29 85.85 233.24 85.9C233.19 85.94 233.13 85.97 233.07 85.99C233.05 86 233.03 86.01 233.01 86.01ZM225.65 82.46C227.95 82.46 231.51 84.18 232.79 84.84C233.31 83.76 233.63 82.58 233.74 81.38C233.6 80.16 233.32 78.95 232.93 77.78L232.76 77.17C231.98 74.44 230.98 71.37 229.12 69.27C227.48 67.44 223.47 66.71 220.7 67.76C219.99 67.97 219.36 68.38 218.89 68.95C218.41 69.52 218.12 70.21 218.04 70.95C219.36 71.33 220.74 71.46 222.12 71.33C222.22 71.35 222.32 71.4 222.39 71.48C222.47 71.56 222.51 71.67 222.52 71.77C222.53 71.88 222.51 71.99 222.45 72.08C222.39 72.18 222.3 72.25 222.2 72.28C221.18 72.3 220.18 72.63 219.35 73.24C219.17 73.41 219.03 73.63 218.95 73.87C218.86 74.11 218.83 74.36 218.86 74.62C218.86 74.76 218.91 74.9 218.98 75.02C219.05 75.14 219.15 75.25 219.27 75.32C219.53 75.45 219.8 75.51 220.08 75.52C221.49 75.66 222.91 75.57 224.3 75.28C224.43 75.24 224.56 75.25 224.68 75.31C224.8 75.37 224.89 75.48 224.93 75.61C224.97 75.73 224.96 75.87 224.9 75.99C224.84 76.1 224.73 76.19 224.61 76.23C223.44 76.78 222.43 77.61 221.67 78.65C221.61 78.73 221.45 78.96 221.47 79.08C221.49 79.2 221.84 79.38 222.26 79.39C223.1 79.43 223.95 79.34 224.77 79.13C225.16 78.96 225.56 78.82 225.97 78.71C226.09 78.68 226.22 78.69 226.34 78.75C226.45 78.8 226.53 78.9 226.58 79.01C226.62 79.13 226.62 79.26 226.57 79.38C226.51 79.49 226.42 79.58 226.31 79.63C225.91 79.8 225.5 79.95 225.08 80.06C224.75 80.19 224.45 80.38 224.19 80.61C223.9 80.88 223.45 81.4 223.65 81.85C223.81 82.09 224.05 82.27 224.31 82.39C224.58 82.5 224.88 82.53 225.17 82.48C225.33 82.46 225.49 82.45 225.65 82.46Z" fill="#000000" fill-opacity="1.000000" fill-rule="nonzero"/>
	<path id="Vector" d="M164.36 65.21L146.51 109.7L141.07 58.68L164.36 65.21Z" fill="#000000" fill-opacity="1.000000" fill-rule="nonzero"/>
	<path id="Vector" d="M146.51 110.17L146.44 110.17C146.34 110.16 146.24 110.11 146.17 110.03C146.09 109.96 146.05 109.86 146.03 109.75L140.6 58.73C140.59 58.65 140.6 58.57 140.63 58.5C140.66 58.43 140.71 58.37 140.77 58.32C140.83 58.27 140.89 58.23 140.97 58.21C141.04 58.2 141.12 58.2 141.2 58.22L164.5 64.75C164.56 64.77 164.62 64.8 164.67 64.85C164.72 64.89 164.76 64.94 164.79 65C164.82 65.06 164.83 65.13 164.83 65.2C164.83 65.26 164.82 65.33 164.79 65.39L146.92 109.88C146.89 109.96 146.83 110.03 146.76 110.09C146.69 110.14 146.6 110.17 146.51 110.17ZM141.61 59.32L146.77 107.76L163.73 65.55L141.61 59.32Z" fill="#000000" fill-opacity="1.000000" fill-rule="nonzero"/>
	<path id="Vector" d="M145.23 5.64C146.35 5.5 147.48 5.7 148.49 6.21C149.49 6.71 150.32 7.51 150.86 8.5C150.91 7.57 151.21 6.67 151.72 5.89C152.24 5.12 152.95 4.49 153.79 4.08C155.47 3.29 157.3 2.86 159.16 2.82C161.74 2.53 164.35 2.7 166.87 3.34C173.32 5.25 177.28 11.83 179.22 18.29C180.25 21.72 181.04 26.47 178.91 29.71C176.95 32.69 171.31 34.73 168.14 36.14C163.56 38.16 158.64 39.61 153.62 39.27C140.4 38.37 133.61 24.8 137.76 12.87C138.71 10.07 140.5 7.37 143.21 6.21C143.85 5.91 144.53 5.72 145.23 5.64Z" fill="#FFFFFF" fill-opacity="1.000000" fill-rule="nonzero"/>
	<path id="Vector" d="M155.05 39.77C154.56 39.77 154.05 39.77 153.56 39.77C150.73 39.61 147.98 38.77 145.53 37.35C143.08 35.92 141.01 33.93 139.47 31.55C137.7 28.78 136.58 25.64 136.21 22.37C135.84 19.11 136.22 15.8 137.32 12.7C138.5 9.3 140.53 6.82 143.02 5.71C143.72 5.41 144.47 5.23 145.22 5.17C146.21 5.06 147.21 5.19 148.14 5.54C149.07 5.89 149.91 6.46 150.58 7.19C151.08 5.67 152.16 4.4 153.58 3.66C155.32 2.83 157.22 2.38 159.14 2.34C161.78 2.05 164.46 2.24 167.03 2.88C172.68 4.57 177.28 10.13 179.68 18.12C180.73 21.65 181.52 26.57 179.31 29.92C177.53 32.61 173.04 34.52 169.75 35.91L168.33 36.52C164.18 38.52 159.66 39.63 155.05 39.77ZM145.27 6.12C144.62 6.17 143.97 6.32 143.37 6.59C140.32 7.93 138.8 11.19 138.17 13C137.12 15.96 136.75 19.13 137.1 22.25C137.46 25.38 138.52 28.38 140.22 31.02C141.69 33.28 143.66 35.16 145.99 36.5C148.32 37.85 150.93 38.63 153.62 38.77C157.86 39.07 162.55 38.05 167.93 35.69C168.36 35.49 168.88 35.29 169.36 35.07C172.52 33.73 176.87 31.89 178.49 29.43C180.5 26.39 179.74 21.76 178.74 18.42C177.65 14.77 174.3 6.04 166.73 3.8C164.26 3.18 161.71 3.01 159.18 3.29C157.39 3.33 155.63 3.74 154 4.5C153.24 4.87 152.6 5.43 152.13 6.13C151.65 6.83 151.38 7.65 151.33 8.49C151.33 8.6 151.29 8.71 151.22 8.79C151.16 8.88 151.06 8.94 150.95 8.96C150.85 8.98 150.74 8.97 150.64 8.92C150.55 8.88 150.47 8.8 150.42 8.7C149.47 6.71 147.16 5.97 145.26 6.12L145.27 6.12Z" fill="#000000" fill-opacity="1.000000" fill-rule="nonzero"/>
	<path id="Vector" d="M163.78 51.19L164.36 65.21C164.36 65.21 158.73 73.14 150.11 69.48C141.49 65.81 141.09 58.68 141.09 58.68L143.87 31.95C143.87 31.95 151.13 29.49 151.55 14.65C158.38 19.03 166.26 21.5 174.36 21.78C174.36 21.78 175.86 38.19 173.67 44.99C171.49 51.79 163.78 51.19 163.78 51.19Z" fill="#FFFFFF" fill-opacity="1.000000" fill-rule="nonzero"/>
	<path id="Vector" d="M154.59 70.91C152.98 70.91 151.39 70.59 149.9 69.96C141.09 66.22 140.62 59.05 140.6 58.75L143.37 31.95C143.38 31.86 143.42 31.77 143.47 31.7C143.53 31.63 143.61 31.58 143.7 31.55C143.76 31.55 150.64 28.96 151.06 14.69C151.06 14.6 151.09 14.52 151.13 14.45C151.18 14.37 151.25 14.32 151.33 14.28C151.4 14.23 151.48 14.21 151.57 14.21C151.65 14.21 151.74 14.23 151.81 14.28C158.58 18.59 166.37 21.02 174.39 21.31C174.5 21.32 174.61 21.36 174.7 21.44C174.78 21.52 174.83 21.63 174.84 21.74C174.91 22.42 176.32 38.34 174.07 45.15C172.11 51.15 166.11 51.66 164.28 51.68L164.84 65.2C164.85 65.31 164.82 65.41 164.75 65.5C164.7 65.55 160.81 70.91 154.59 70.91ZM144.28 32.28L141.55 58.73C141.55 58.93 142.03 65.53 150.27 69.04C157.96 72.29 163.11 66.09 163.89 65.07L163.31 51.21C163.31 51.07 163.36 50.94 163.45 50.85C163.5 50.8 163.56 50.76 163.62 50.74C163.69 50.72 163.75 50.71 163.82 50.71C164.12 50.71 171.08 51.2 173.17 44.85C175.16 38.81 174.12 24.86 173.93 22.24C166.17 21.86 158.63 19.55 151.98 15.52C151.36 28.3 145.67 31.65 144.28 32.28Z" fill="#000000" fill-opacity="1.000000" fill-rule="nonzero"/>
	<path id="Vector" d="M147.6 39C146.67 39.24 145.71 39.29 144.77 39.16C143.82 39.02 142.91 38.7 142.09 38.21C140.97 37.48 140.05 36.48 139.42 35.29C138.8 34.11 138.49 32.78 138.52 31.44C138.47 30.47 138.64 29.49 139.01 28.59C139.21 28.14 139.5 27.74 139.87 27.41C140.23 27.08 140.66 26.83 141.13 26.68C142.32 26.49 143.53 26.69 144.6 27.25C146.24 27.89 146.35 28.8 147.37 30.03C147.26 29.92 147.15 29.59 147.05 29.47L147.6 39Z" fill="#FFFFFF" fill-opacity="1.000000" fill-rule="nonzero"/>
	<path id="Vector" d="M145.8 39.71C144.41 39.71 143.05 39.33 141.85 38.62C140.66 37.85 139.68 36.79 139.01 35.54C138.35 34.28 138.02 32.87 138.05 31.45C137.99 30.39 138.18 29.32 138.59 28.34C138.82 27.82 139.15 27.35 139.57 26.97C139.98 26.59 140.48 26.31 141.02 26.13C142.31 25.9 143.65 26.11 144.82 26.71C145.78 27.07 146.58 27.77 147.07 28.68L147.25 28.95C147.31 28.97 147.37 29.01 147.41 29.05C147.52 29.17 147.61 29.31 147.67 29.46C147.69 29.52 147.71 29.57 147.74 29.62C147.79 29.66 147.83 29.71 147.85 29.77C147.88 29.83 147.89 29.89 147.9 29.96C147.9 30.02 147.89 30.09 147.86 30.15C147.84 30.21 147.81 30.26 147.76 30.31C147.72 30.36 147.66 30.4 147.61 30.42C147.55 30.45 147.48 30.46 147.42 30.46C147.35 30.47 147.29 30.46 147.23 30.43C147.17 30.41 147.12 30.37 147.07 30.33L146.99 30.24C146.7 29.88 146.48 29.56 146.28 29.29C145.89 28.54 145.24 27.97 144.45 27.67C143.48 27.16 142.37 26.97 141.29 27.13C140.89 27.26 140.52 27.46 140.21 27.74C139.89 28.02 139.64 28.36 139.47 28.74C139.11 29.59 138.96 30.51 139.01 31.43C138.97 32.69 139.25 33.94 139.83 35.05C140.41 36.17 141.27 37.11 142.32 37.8C143.87 38.72 145.72 38.98 147.47 38.55C147.53 38.53 147.59 38.53 147.66 38.54C147.72 38.55 147.78 38.57 147.84 38.6C147.89 38.63 147.94 38.68 147.98 38.73C148.02 38.78 148.05 38.84 148.06 38.9C148.08 38.96 148.08 39.03 148.07 39.09C148.06 39.16 148.04 39.22 148.01 39.27C147.97 39.33 147.93 39.38 147.88 39.42C147.83 39.45 147.77 39.48 147.7 39.5C147.08 39.65 146.44 39.72 145.8 39.71Z" fill="#000000" fill-opacity="1.000000" fill-rule="nonzero"/>
	<path id="Vector" d="M164.09 58.56C162.49 58.6 160.9 58.26 159.47 57.55C158.03 56.85 156.79 55.8 155.85 54.51C152.52 50.03 153.36 46.89 153.36 46.89C153.36 46.89 157.69 51.43 163.81 51.22L164.09 58.56Z" fill="#000000" fill-opacity="1.000000" fill-rule="nonzero"/>
	<path id="Vector" d="M163.7 59.05C162.09 59.03 160.51 58.64 159.08 57.9C157.65 57.16 156.41 56.1 155.47 54.8C152.05 50.18 152.86 46.88 152.9 46.75C152.92 46.67 152.96 46.59 153.02 46.53C153.08 46.47 153.15 46.43 153.24 46.41C153.32 46.38 153.41 46.38 153.49 46.4C153.58 46.41 153.66 46.46 153.72 46.51C153.72 46.51 157.99 50.85 163.78 50.68C163.85 50.68 163.91 50.68 163.97 50.7C164.03 50.72 164.09 50.76 164.13 50.8C164.18 50.84 164.22 50.9 164.24 50.95C164.27 51.01 164.28 51.08 164.28 51.14L164.58 58.51C164.59 58.63 164.54 58.75 164.47 58.84C164.39 58.93 164.27 58.99 164.15 59C164.15 59 163.94 59.05 163.7 59.05ZM153.72 47.87C153.85 50.21 154.73 52.43 156.21 54.23C157.06 55.4 158.16 56.36 159.44 57.03C160.72 57.7 162.13 58.06 163.57 58.1L163.31 51.66C159.77 51.54 156.38 50.21 153.72 47.87Z" fill="#000000" fill-opacity="1.000000" fill-rule="nonzero"/>
	<path id="Vector" d="M162.66 28.93C162.66 28.93 166.46 36.62 165.2 37.71C163.93 38.79 160.87 37.57 160.87 37.57L162.66 28.93Z" fill="#FFFFFF" fill-opacity="1.000000" fill-rule="nonzero"/>
	<path id="Vector" d="M163.64 38.64C162.63 38.61 161.63 38.39 160.69 38.01C160.63 38 160.57 37.97 160.52 37.92C160.46 37.88 160.42 37.83 160.39 37.77C160.36 37.71 160.34 37.64 160.34 37.57C160.34 37.5 160.35 37.44 160.37 37.37C160.4 37.31 160.44 37.25 160.48 37.21C160.53 37.16 160.59 37.13 160.66 37.1C160.72 37.08 160.79 37.07 160.85 37.08C160.92 37.08 160.99 37.1 161.05 37.14C161.82 37.44 164.02 38.09 164.85 37.35C165.38 36.9 164.13 33.06 162.19 29.14C162.15 29.08 162.13 29.02 162.12 28.96C162.11 28.89 162.12 28.83 162.14 28.76C162.15 28.7 162.19 28.64 162.23 28.59C162.27 28.54 162.32 28.5 162.38 28.47C162.44 28.44 162.5 28.42 162.57 28.42C162.63 28.42 162.7 28.43 162.76 28.45C162.82 28.47 162.88 28.51 162.92 28.55C162.97 28.6 163.01 28.65 163.03 28.71C164.24 31.13 166.83 36.88 165.45 38.07C164.94 38.47 164.29 38.67 163.64 38.64Z" fill="#000000" fill-opacity="1.000000" fill-rule="nonzero"/>
	<path id="Vector" d="M157.38 26.07C158.02 26.21 158.38 27.05 158.18 27.95C157.99 28.85 157.32 29.46 156.68 29.33C156.04 29.19 155.69 28.35 155.88 27.45C156.07 26.55 156.75 25.93 157.38 26.07Z" fill="#000000" fill-opacity="1.000000" fill-rule="evenodd"/>
	<path id="Vector" d="M169.26 29.07C169.34 29.98 168.88 30.77 168.23 30.83C167.58 30.88 166.99 30.19 166.91 29.27C166.84 28.35 167.3 27.56 167.95 27.51C168.59 27.45 169.18 28.15 169.26 29.07Z" fill="#000000" fill-opacity="1.000000" fill-rule="evenodd"/>
	<path id="Vector" d="M163.1 48.34C162.78 48.34 162.46 48.31 162.15 48.25C161.15 48.05 160.21 47.62 159.39 47C158.58 46.39 157.92 45.59 157.46 44.68C156.72 43.2 156.33 41.57 156.33 39.92C156.33 39.85 156.35 39.78 156.37 39.72C156.4 39.65 156.44 39.6 156.49 39.55C156.7 39.37 156.79 39.29 167.51 40.51C167.62 40.52 167.72 40.57 167.8 40.65C167.87 40.74 167.92 40.84 167.93 40.95C167.93 41.13 168.16 45.29 165.8 47.42C165.04 48.04 164.08 48.37 163.1 48.34ZM157.28 40.37C157.34 41.7 157.68 43 158.29 44.18C158.67 44.97 159.23 45.66 159.92 46.21C160.61 46.75 161.41 47.13 162.27 47.31C162.76 47.43 163.27 47.44 163.76 47.34C164.26 47.24 164.72 47.03 165.12 46.72C166.78 45.25 166.96 42.45 166.96 41.42C163.63 41.03 158.77 40.49 157.28 40.37Z" fill="#000000" fill-opacity="1.000000" fill-rule="nonzero"/>
	<path id="Vector" d="M157.86 44.46C159.76 48.06 163.76 48.57 165.46 47.08C164.91 45.68 164.01 44.28 162.57 43.88C160.98 43.5 159.31 43.71 157.86 44.46Z" fill="#000000" fill-opacity="1.000000" fill-rule="nonzero"/>
	<path id="Vector" d="M163.11 48.33C162.79 48.33 162.47 48.3 162.16 48.25C161.16 48.05 160.22 47.62 159.41 47C158.6 46.38 157.94 45.59 157.48 44.68C157.46 44.62 157.44 44.55 157.44 44.49C157.44 44.43 157.46 44.36 157.48 44.3C157.5 44.24 157.53 44.19 157.58 44.14C157.62 44.09 157.67 44.06 157.73 44.03C159.28 43.24 161.05 43.03 162.74 43.42C164.11 43.79 165.19 44.97 165.95 46.91C165.99 47 165.99 47.1 165.97 47.2C165.95 47.29 165.9 47.37 165.83 47.44C165.06 48.06 164.09 48.38 163.11 48.33ZM158.55 44.68C158.95 45.35 159.49 45.93 160.13 46.39C160.77 46.84 161.5 47.16 162.27 47.31C163.14 47.51 164.06 47.37 164.84 46.93C164.65 46.34 164.34 45.8 163.91 45.35C163.49 44.9 162.97 44.55 162.39 44.33C161.11 44.03 159.76 44.15 158.55 44.68Z" fill="#000000" fill-opacity="1.000000" fill-rule="nonzero"/>
	<path id="Vector" d="M90.17 108.59C90.17 108.59 79.65 113.25 70.22 106.45C60.78 99.65 36.9 45.56 36.9 45.56L47.22 39.85L76.11 81.09L90.17 108.59Z" fill="#FFFFFF" fill-opacity="1.000000" fill-rule="nonzero"/>
	<path id="Vector" d="M81.86 110.62C77.58 110.65 73.4 109.32 69.93 106.81C60.49 100.02 37.43 47.89 36.45 45.68C36.41 45.56 36.4 45.44 36.44 45.32C36.48 45.21 36.56 45.11 36.66 45.05L46.98 39.41C47.09 39.35 47.21 39.34 47.33 39.37C47.45 39.39 47.55 39.47 47.62 39.56L76.51 80.8L90.61 108.39C90.63 108.45 90.65 108.52 90.65 108.59C90.65 108.65 90.63 108.72 90.61 108.78C90.59 108.84 90.55 108.9 90.51 108.95C90.47 109 90.41 109.03 90.35 109.06C87.64 110.1 84.76 110.63 81.86 110.62ZM37.53 45.73C39.77 50.76 61.71 99.73 70.5 106.05C78.45 111.76 87.34 109.12 89.5 108.34L75.69 81.35L47.07 40.53L37.53 45.73Z" fill="#000000" fill-opacity="1.000000" fill-rule="nonzero"/>
	<path id="Vector" d="M50.15 45.29C51.18 39.1 51.59 32.83 51.37 26.57C51.37 25.28 50.71 23.55 49.47 23.82C48.83 23.96 48.44 24.63 48.17 25.24C46.89 28.16 46.25 31.31 46.27 34.5C45.05 31.43 43.87 28.37 42.72 25.32C42.36 24.37 40.17 17.16 39.09 20.32C38.57 21.79 39.26 24.08 39.44 25.57C39.69 27.59 40 29.62 40.39 31.63C40.16 30.21 38 19.73 36.06 21.16C34.45 22.39 35.85 25.22 36.15 26.75C36.59 28.95 36.71 31.65 37.55 33.74C36.47 31.18 35.3 28.66 34.01 26.22C33.69 25.59 32.89 23.36 32.2 23.11C31.5 22.87 30.65 24.01 30.57 24.67C30.41 26.13 31.46 28.56 31.83 30.01C32.32 31.91 33 33.81 33.67 35.72C33.12 34.17 31.77 32.8 31.01 31.38C30.35 30.21 29.89 28.52 28.62 27.82C28.42 27.7 28.21 27.63 27.99 27.61C27.77 27.58 27.54 27.6 27.33 27.67C27.12 27.74 26.92 27.86 26.76 28.01C26.59 28.16 26.46 28.34 26.37 28.55C26.31 28.99 26.38 29.44 26.58 29.84C30.12 39.17 35.27 47.8 41.79 55.35L50.15 45.29Z" fill="#FFFFFF" fill-opacity="1.000000" fill-rule="nonzero"/>
	<path id="Vector" d="M41.71 55.89C41.57 55.89 41.44 55.83 41.34 55.73C34.81 48.14 29.66 39.46 26.14 30.08C25.9 29.59 25.82 29.03 25.91 28.49C25.97 28.25 26.09 28.02 26.25 27.82C26.42 27.63 26.62 27.48 26.86 27.38C27.17 27.24 27.51 27.18 27.86 27.18C28.2 27.2 28.54 27.28 28.84 27.44C29.85 28.13 30.6 29.13 30.98 30.29C31.13 30.62 31.28 30.94 31.44 31.24C31.6 31.55 31.67 31.65 31.81 31.86C31.65 31.32 31.49 30.77 31.35 30.23C31.25 29.83 31.1 29.35 30.92 28.84C30.36 27.51 30.07 26.07 30.05 24.62C30.17 23.92 30.57 23.3 31.14 22.89C31.31 22.78 31.5 22.71 31.7 22.68C31.9 22.65 32.1 22.66 32.29 22.71C32.99 22.9 33.52 24.01 34.13 25.43C34.24 25.68 34.34 25.91 34.41 26.06C34.96 27.1 35.49 28.16 36 29.23L36 29.17C35.88 28.37 35.78 27.62 35.64 26.91C35.56 26.54 35.46 26.17 35.34 25.81C34.86 24.2 34.2 22 35.74 20.84C35.89 20.71 36.07 20.62 36.27 20.58C36.46 20.55 36.66 20.57 36.84 20.65C37.66 21.22 38.26 22.05 38.54 23.01C38.36 22.06 38.4 21.08 38.65 20.15C38.91 19.4 39.29 19.03 39.78 19.03C40.73 19.03 41.61 20.52 43.01 24.57C43.1 24.83 43.16 25.03 43.21 25.13C44.09 27.43 44.97 29.75 45.81 32.06C46.08 29.63 46.72 27.26 47.71 25.03C47.83 24.63 48.05 24.27 48.33 23.98C48.62 23.68 48.98 23.46 49.37 23.33C49.6 23.28 49.84 23.28 50.07 23.33C50.3 23.38 50.51 23.49 50.7 23.64C51.43 24.42 51.83 25.45 51.81 26.52C52.04 32.82 51.63 39.13 50.58 45.34C50.57 45.41 50.55 45.47 50.52 45.52C50.49 45.58 50.44 45.63 50.39 45.66C50.34 45.7 50.28 45.73 50.21 45.74C50.15 45.75 50.09 45.75 50.02 45.74C49.96 45.73 49.9 45.71 49.84 45.67C49.79 45.64 49.74 45.59 49.7 45.54C49.67 45.49 49.64 45.43 49.63 45.36C49.61 45.3 49.61 45.23 49.62 45.17C50.65 39.02 51.06 32.79 50.83 26.56C50.85 25.76 50.56 24.99 50.04 24.39C49.97 24.33 49.88 24.29 49.79 24.27C49.7 24.25 49.6 24.25 49.51 24.28C49.06 24.36 48.76 24.93 48.56 25.41C47.3 28.26 46.66 31.35 46.66 34.47C46.66 34.59 46.62 34.7 46.54 34.79C46.47 34.88 46.37 34.94 46.25 34.96C46.14 34.98 46.02 34.96 45.92 34.9C45.82 34.84 45.74 34.75 45.7 34.64C44.6 31.6 43.45 28.5 42.27 25.47C42.27 25.35 42.16 25.14 42.06 24.87C40.69 20.88 40.04 20.12 39.76 19.99C39.68 20.14 39.61 20.29 39.55 20.45C39.32 21.7 39.36 22.99 39.69 24.22C39.78 24.68 39.86 25.17 39.9 25.51C40.15 27.49 40.45 29.5 40.8 31.46C40.79 31.49 40.79 31.52 40.8 31.55C40.79 31.66 40.75 31.77 40.67 31.85C40.6 31.93 40.5 31.99 40.39 32.01C40.28 32.03 40.16 32.01 40.06 31.95C39.97 31.9 39.89 31.81 39.85 31.71C39.85 31.48 39.77 31.25 39.72 31.02C39.15 27.98 37.59 22.01 36.44 21.55C36.44 21.55 36.38 21.55 36.31 21.55C35.36 22.3 35.84 24.06 36.25 25.46C36.38 25.89 36.5 26.3 36.57 26.65C36.72 27.39 36.83 28.15 36.94 28.96C37.08 30.52 37.4 32.06 37.89 33.55C37.94 33.67 37.94 33.81 37.88 33.94C37.83 34.06 37.73 34.16 37.6 34.21C37.47 34.26 37.33 34.26 37.21 34.2C37.09 34.15 36.99 34.04 36.94 33.92C35.88 31.4 34.71 28.87 33.43 26.45C33.35 26.29 33.24 26.04 33.11 25.75C32.87 25.2 32.25 23.73 31.9 23.59C31.84 23.57 31.78 23.57 31.72 23.59C31.66 23.6 31.6 23.63 31.55 23.68C31.21 23.93 30.98 24.31 30.91 24.73C30.96 26.01 31.23 27.26 31.7 28.44C31.87 28.97 32.04 29.46 32.15 29.88C32.65 31.87 33.37 33.83 33.98 35.59C34.01 35.66 34.02 35.72 34.01 35.79C34.01 35.85 33.99 35.92 33.96 35.98C33.93 36.04 33.89 36.09 33.84 36.14C33.79 36.18 33.74 36.21 33.68 36.24C33.61 36.26 33.55 36.27 33.48 36.26C33.41 36.26 33.35 36.24 33.29 36.22C33.23 36.19 33.18 36.15 33.13 36.1C33.09 36.05 33.06 35.99 33.03 35.93C32.64 35.01 32.13 34.14 31.51 33.35C31.11 32.81 30.74 32.24 30.4 31.66C30.23 31.36 30.07 31.01 29.91 30.65C29.6 29.71 29 28.89 28.21 28.29C28.03 28.21 27.84 28.17 27.64 28.17C27.45 28.17 27.25 28.21 27.08 28.29C26.98 28.33 26.89 28.39 26.82 28.47C26.75 28.55 26.7 28.64 26.67 28.74C26.64 29.09 26.7 29.44 26.86 29.75C30.4 39.03 35.56 47.6 42.08 55.08C42.12 55.13 42.16 55.19 42.18 55.25C42.2 55.31 42.21 55.37 42.2 55.44C42.2 55.5 42.18 55.57 42.15 55.62C42.12 55.68 42.08 55.73 42.03 55.78C41.94 55.85 41.83 55.89 41.71 55.89Z" fill="#000000" fill-opacity="1.000000" fill-rule="nonzero"/>
	<path id="Vector" d="M41.32 46.01C41.21 46.01 41.11 45.97 41.03 45.91C40.94 45.85 40.88 45.76 40.85 45.66C38.74 38.18 45.84 34.14 45.92 34.07C46.03 34.02 46.16 34.01 46.28 34.05C46.4 34.09 46.5 34.17 46.56 34.28C46.63 34.39 46.64 34.52 46.61 34.64C46.58 34.77 46.5 34.87 46.39 34.94C46.13 35.08 39.87 38.67 41.79 45.41C41.83 45.53 41.82 45.67 41.75 45.78C41.69 45.9 41.59 45.98 41.46 46.02L41.32 46.01Z" fill="#000000" fill-opacity="1.000000" fill-rule="nonzero"/>
	<path id="Vector" d="M102.35 138.15L98.31 150.03L176.98 150.03L176.98 139.24L102.35 138.15Z" fill="#FFFFFF" fill-opacity="1.000000" fill-rule="nonzero"/>
	<path id="Vector" d="M176.98 150.52L98.31 150.52C98.24 150.52 98.16 150.5 98.09 150.46C98.02 150.43 97.96 150.38 97.91 150.32C97.87 150.25 97.84 150.18 97.83 150.1C97.82 150.02 97.83 149.94 97.86 149.87L101.89 138C101.91 137.89 101.98 137.81 102.06 137.74C102.15 137.68 102.26 137.66 102.36 137.67L176.99 138.74C177.12 138.75 177.24 138.8 177.33 138.89C177.42 138.98 177.47 139.11 177.47 139.24L177.47 150.03C177.47 150.16 177.42 150.28 177.33 150.38C177.23 150.47 177.11 150.52 176.98 150.52ZM99 149.57L176.52 149.57L176.52 139.72L102.74 138.64L99 149.57Z" fill="#000000" fill-opacity="1.000000" fill-rule="nonzero"/>
	<path id="Vector" d="M178.37 124.52C178.3 124.52 178.24 124.5 178.18 124.47C178.12 124.44 178.07 124.4 178.03 124.35C177.99 124.3 177.96 124.24 177.94 124.18C177.92 124.12 177.91 124.05 177.92 123.99L182.38 72.06C182.38 71.99 182.4 71.93 182.43 71.87C182.46 71.81 182.5 71.76 182.55 71.72C182.6 71.67 182.65 71.64 182.72 71.62C182.78 71.61 182.85 71.6 182.91 71.61C182.97 71.61 183.04 71.63 183.09 71.66C183.15 71.69 183.2 71.73 183.24 71.78C183.28 71.83 183.32 71.88 183.33 71.94C183.35 72 183.36 72.07 183.36 72.13L178.9 124.07C178.89 124.2 178.83 124.32 178.73 124.41C178.63 124.49 178.5 124.53 178.37 124.52Z" fill="#000000" fill-opacity="1.000000" fill-rule="nonzero"/>
	<path id="Vector" d="M95.83 104.4C95.76 104.4 95.69 104.39 95.62 104.36C95.55 104.33 95.49 104.28 95.44 104.22C95.4 104.17 95.37 104.12 95.36 104.05C95.34 103.99 95.33 103.93 95.34 103.86C95.35 103.8 95.37 103.74 95.4 103.68C95.43 103.63 95.47 103.58 95.52 103.54L118.06 85.14C118.16 85.07 118.28 85.05 118.4 85.07C118.52 85.09 118.62 85.15 118.7 85.25C118.78 85.34 118.81 85.46 118.81 85.58C118.81 85.7 118.76 85.81 118.68 85.9L96.14 104.3C96.05 104.37 95.94 104.41 95.83 104.4Z" fill="#000000" fill-opacity="1.000000" fill-rule="nonzero"/>
	<path id="Vector" d="M23.71 112.87L25.38 112.87C25.44 112.89 25.5 112.91 25.57 112.92C28.08 113.06 30.51 113.88 32.59 115.3C34.88 116.76 36.72 118.84 37.88 121.3C39.05 123.75 39.5 126.49 39.17 129.19C38.91 132.47 37.49 135.54 35.16 137.86C33.62 139.5 31.71 140.77 29.6 141.54C27.48 142.32 25.21 142.59 22.97 142.33C20.61 142.12 18.34 141.3 16.39 139.96C14.65 138.82 13.18 137.32 12.07 135.57C10.96 133.81 10.23 131.84 9.94 129.78C9.88 129.35 9.83 128.93 9.77 128.51L9.77 126.83L9.83 126.52C9.92 125.9 9.96 125.26 10.1 124.61C10.71 121.64 12.23 118.93 14.44 116.86C16.65 114.78 19.45 113.44 22.45 113.01C22.84 112.97 23.28 112.92 23.71 112.87ZM35.32 135.88C37 133.68 37.95 131.02 38.07 128.26L32.23 128.26C32.13 129.31 32.07 130.35 31.93 131.37C31.79 132.4 31.59 133.4 31.41 134.37L35.32 135.88ZM10.98 128.26C11.1 131.02 12.05 133.68 13.73 135.88L17.68 134.33C17.17 132.34 16.9 130.3 16.87 128.24L10.98 128.26ZM38.05 127.07C38.16 124.89 36.59 120.58 35.3 119.45L31.37 120.98C31.87 122.97 32.15 125.01 32.19 127.07L38.05 127.07ZM17.68 120.99L13.74 119.45C12.32 120.96 10.75 125.27 11.02 127.07L16.89 127.07C16.91 125.01 17.18 122.96 17.68 120.97L17.68 120.99ZM25.12 133.55C25.98 133.62 26.83 133.67 27.67 133.76C28.5 133.86 29.35 134 30.2 134.13C30.2 134.06 30.2 133.98 30.27 133.89C30.7 132.14 30.95 130.35 30.99 128.55C30.99 128.3 30.93 128.24 30.7 128.24L25.38 128.24L25.12 128.24L25.12 133.55ZM18.06 128.25C18.06 130.22 18.31 132.18 18.79 134.1L23.87 133.52L23.87 128.26L18.06 128.25ZM31 127.06C30.97 125.1 30.71 123.15 30.22 121.25L25.12 121.83L25.12 127.06L31 127.06ZM18.79 121.23C18.3 123.13 18.04 125.08 18.02 127.04L23.92 127.04L23.92 121.82L18.79 121.23ZM29.82 120.02C29.42 118.73 28.84 117.52 28.08 116.41C27.58 115.63 26.9 114.98 26.1 114.5C25.78 114.33 25.44 114.23 25.08 114.08L25.08 120.54C26.69 120.52 28.29 120.34 29.86 120.02L29.82 120.02ZM25.07 134.75L25.07 141.15C25.78 141.02 26.44 140.69 26.97 140.2C28.07 139.13 28.92 137.83 29.45 136.39C29.58 136.06 29.71 135.71 29.84 135.34C28.29 135 26.71 134.8 25.13 134.75L25.07 134.75ZM23.86 141.17L23.86 134.74C22.27 134.78 20.68 134.96 19.11 135.3C19.39 135.97 19.64 136.63 19.93 137.26C20.43 138.39 21.16 139.41 22.09 140.25C22.61 140.71 23.24 141.03 23.92 141.17L23.86 141.17ZM19.07 120C20.64 120.33 22.25 120.52 23.86 120.55L23.86 114.1C23.38 114.2 22.92 114.4 22.51 114.69C21.55 115.39 20.78 116.31 20.25 117.38C19.88 118.24 19.53 119.11 19.12 120L19.07 120ZM34.43 136.87C33.33 136.3 32.18 135.87 30.98 135.56C30.41 137.47 29.44 139.24 28.13 140.74C30.57 140.07 32.77 138.72 34.49 136.87L34.43 136.87ZM20.88 114.61C19.41 114.67 15.34 117.16 14.57 118.51L17.94 119.82C18.37 118.86 18.74 117.91 19.17 117.06C19.61 116.16 20.19 115.33 20.88 114.61ZM14.56 136.87C16.29 138.73 18.49 140.08 20.94 140.76C19.59 139.26 18.6 137.48 18.03 135.55C16.83 135.86 15.66 136.3 14.56 136.87ZM28.23 114.62C28.88 115.34 29.44 116.16 29.88 117.04C30.3 117.92 30.68 118.82 31.08 119.73C32.26 119.43 33.4 118.99 34.49 118.43C32.8 116.59 30.63 115.27 28.23 114.62Z" fill="#D1D3D4" fill-opacity="1.000000" fill-rule="nonzero"/>
	<path id="Vector" d="M249.99 144.78L214.94 144.78C214.82 144.78 214.69 144.73 214.61 144.64C214.52 144.55 214.47 144.43 214.47 144.3L214.47 124.96C214.47 124.83 214.52 124.71 214.61 124.62C214.7 124.53 214.82 124.48 214.94 124.48L249.99 124.48C250.11 124.48 250.23 124.53 250.32 124.62C250.41 124.71 250.46 124.83 250.46 124.96L250.46 144.3C250.46 144.43 250.41 144.55 250.32 144.64C250.23 144.73 250.11 144.78 249.99 144.78ZM215.42 143.83L249.51 143.83L249.51 125.43L215.42 125.43L215.42 143.83Z" fill="#D1D3D4" fill-opacity="1.000000" fill-rule="nonzero"/>
	<path id="Vector" d="M232.47 137.5C232.38 137.5 232.28 137.47 232.21 137.42L214.68 125.35C214.62 125.31 214.57 125.27 214.54 125.22C214.5 125.16 214.47 125.1 214.46 125.04C214.45 124.98 214.45 124.91 214.46 124.85C214.47 124.78 214.5 124.72 214.54 124.67C214.57 124.62 214.62 124.57 214.67 124.54C214.73 124.5 214.79 124.48 214.85 124.47C214.92 124.46 214.98 124.47 215.05 124.48C215.11 124.5 215.17 124.53 215.22 124.57L232.47 136.45L249.69 124.58C249.74 124.54 249.8 124.51 249.86 124.49C249.92 124.48 249.99 124.47 250.05 124.48C250.12 124.49 250.18 124.51 250.23 124.55C250.29 124.58 250.33 124.63 250.37 124.68C250.41 124.73 250.43 124.79 250.45 124.86C250.46 124.92 250.46 124.99 250.45 125.05C250.43 125.11 250.41 125.17 250.37 125.22C250.33 125.28 250.29 125.32 250.23 125.36L232.71 137.43C232.64 137.47 232.56 137.5 232.47 137.5Z" fill="#D1D3D4" fill-opacity="1.000000" fill-rule="nonzero"/>
	<path id="Vector" d="M214.94 144.78C214.84 144.78 214.74 144.74 214.66 144.68C214.58 144.62 214.52 144.54 214.49 144.44C214.46 144.34 214.47 144.24 214.5 144.14C214.53 144.05 214.59 143.97 214.68 143.91L228.72 134.24C228.77 134.2 228.83 134.17 228.89 134.15C228.95 134.14 229.02 134.13 229.08 134.14C229.15 134.15 229.21 134.18 229.26 134.21C229.32 134.25 229.36 134.29 229.4 134.34C229.44 134.39 229.46 134.46 229.48 134.52C229.49 134.58 229.49 134.65 229.48 134.71C229.46 134.77 229.44 134.83 229.4 134.89C229.36 134.94 229.32 134.98 229.26 135.02L215.22 144.69C215.14 144.75 215.04 144.78 214.94 144.78Z" fill="#D1D3D4" fill-opacity="1.000000" fill-rule="nonzero"/>
	<path id="Vector" d="M249.99 144.78C249.89 144.78 249.8 144.75 249.72 144.69L235.68 135.05C235.63 135.01 235.58 134.97 235.55 134.92C235.51 134.86 235.48 134.8 235.47 134.74C235.46 134.68 235.46 134.61 235.47 134.55C235.48 134.48 235.51 134.42 235.54 134.37C235.58 134.32 235.63 134.27 235.68 134.24C235.74 134.21 235.8 134.18 235.86 134.17C235.93 134.16 235.99 134.17 236.05 134.18C236.12 134.2 236.18 134.23 236.23 134.27L250.26 143.94C250.34 144 250.41 144.08 250.44 144.18C250.47 144.27 250.47 144.38 250.44 144.47C250.41 144.57 250.35 144.66 250.27 144.71C250.19 144.77 250.09 144.81 249.99 144.81L249.99 144.78Z" fill="#D1D3D4" fill-opacity="1.000000" fill-rule="nonzero"/>
	<path id="Vector" d="M263.62 99.21C260.65 99.21 257.75 98.33 255.29 96.68C252.82 95.03 250.9 92.68 249.76 89.94C248.62 87.19 248.33 84.17 248.9 81.25C249.48 78.34 250.91 75.66 253.01 73.56C255.11 71.46 257.78 70.03 260.69 69.45C263.6 68.87 266.61 69.17 269.35 70.31C272.09 71.44 274.44 73.37 276.08 75.84C277.73 78.32 278.61 81.22 278.6 84.19C278.6 88.17 277.02 91.99 274.21 94.8C271.4 97.61 267.59 99.2 263.62 99.21ZM263.62 70.12C260.84 70.12 258.13 70.94 255.82 72.49C253.5 74.03 251.7 76.23 250.64 78.8C249.57 81.37 249.29 84.2 249.84 86.93C250.38 89.66 251.71 92.17 253.68 94.14C255.64 96.11 258.14 97.45 260.87 97.99C263.59 98.54 266.42 98.26 268.98 97.19C271.55 96.13 273.74 94.32 275.29 92.01C276.83 89.7 277.66 86.98 277.66 84.19C277.65 80.46 276.17 76.89 273.54 74.25C270.91 71.62 267.34 70.13 263.62 70.12Z" fill="#D1D3D4" fill-opacity="1.000000" fill-rule="nonzero"/>
	<path id="Vector" d="M267.83 98.58C267.73 98.58 267.63 98.54 267.55 98.48C267.47 98.42 267.41 98.34 267.37 98.24L263.16 84.33C263.14 84.26 263.14 84.18 263.15 84.11C263.16 84.04 263.19 83.97 263.23 83.92L271.66 72.08C271.7 72.03 271.74 71.99 271.79 71.95C271.85 71.92 271.91 71.9 271.97 71.89C272.03 71.88 272.09 71.88 272.15 71.89C272.22 71.91 272.27 71.93 272.32 71.97C272.42 72.05 272.49 72.16 272.51 72.28C272.53 72.41 272.5 72.53 272.43 72.64L264.14 84.28L268.29 97.92C268.32 98.04 268.31 98.17 268.25 98.28C268.19 98.4 268.09 98.48 267.97 98.52L267.83 98.58Z" fill="#D1D3D4" fill-opacity="1.000000" fill-rule="nonzero"/>
	<path id="Vector" d="M263.61 84.67C263.53 84.67 263.46 84.65 263.39 84.61L250.56 77.81C250.51 77.79 250.46 77.75 250.42 77.7C250.38 77.65 250.35 77.59 250.33 77.53C250.31 77.47 250.31 77.41 250.31 77.35C250.32 77.28 250.34 77.22 250.37 77.17C250.39 77.11 250.43 77.06 250.48 77.02C250.53 76.98 250.59 76.95 250.65 76.93C250.71 76.91 250.77 76.91 250.83 76.91C250.9 76.92 250.96 76.94 251.01 76.97L263.84 83.76C263.95 83.82 264.03 83.93 264.07 84.05C264.11 84.17 264.1 84.3 264.04 84.41C264 84.49 263.94 84.55 263.86 84.6C263.79 84.64 263.7 84.67 263.61 84.67Z" fill="#D1D3D4" fill-opacity="1.000000" fill-rule="nonzero"/>
	<path id="Vector" d="M63.26 138.96L58.28 138.96C58.15 138.96 58.03 138.91 57.94 138.82C57.86 138.73 57.81 138.61 57.81 138.48L57.81 115.64C57.81 115.51 57.86 115.39 57.94 115.3C58.03 115.21 58.15 115.16 58.28 115.16L63.26 115.16C63.39 115.16 63.51 115.21 63.6 115.3C63.68 115.39 63.73 115.51 63.73 115.64L63.73 138.48C63.73 138.61 63.68 138.73 63.6 138.82C63.51 138.91 63.39 138.96 63.26 138.96ZM58.76 138.01L62.78 138.01L62.78 116.11L58.76 116.11L58.76 138.01Z" fill="#D1D3D4" fill-opacity="1.000000" fill-rule="nonzero"/>
	<path id="Vector" d="M74.15 138.96L69.15 138.96C69.02 138.96 68.9 138.91 68.82 138.82C68.73 138.73 68.68 138.61 68.68 138.48L68.68 122.67C68.68 122.55 68.73 122.42 68.82 122.34C68.9 122.25 69.02 122.2 69.15 122.2L74.13 122.2C74.26 122.2 74.38 122.25 74.47 122.34C74.56 122.42 74.61 122.55 74.61 122.67L74.61 138.51C74.6 138.63 74.55 138.74 74.46 138.83C74.38 138.91 74.27 138.96 74.15 138.96ZM69.65 138.01L73.67 138.01L73.67 123.12L69.65 123.12L69.65 138.01Z" fill="#D1D3D4" fill-opacity="1.000000" fill-rule="nonzero"/>
	<path id="Vector" d="M85.04 138.96L80.06 138.96C79.93 138.96 79.81 138.91 79.72 138.82C79.63 138.73 79.58 138.61 79.58 138.48L79.58 128.32C79.58 128.19 79.63 128.07 79.72 127.98C79.81 127.89 79.93 127.84 80.06 127.84L85.04 127.84C85.16 127.84 85.29 127.89 85.37 127.98C85.46 128.07 85.51 128.19 85.51 128.32L85.51 138.48C85.51 138.61 85.46 138.73 85.37 138.82C85.29 138.91 85.16 138.96 85.04 138.96ZM80.53 138.01L84.56 138.01L84.56 128.79L80.55 128.79L80.53 138.01Z" fill="#D1D3D4" fill-opacity="1.000000" fill-rule="nonzero"/>
	<path id="Vector" d="M89.15 138.96L53.43 138.96C53.31 138.96 53.19 138.91 53.1 138.82C53.01 138.73 52.96 138.61 52.96 138.48C52.96 138.36 53.01 138.24 53.1 138.15C53.19 138.06 53.31 138.01 53.43 138.01L89.15 138.01C89.28 138.01 89.4 138.06 89.49 138.15C89.58 138.24 89.63 138.36 89.63 138.48C89.63 138.61 89.58 138.73 89.49 138.82C89.4 138.91 89.28 138.96 89.15 138.96Z" fill="#D1D3D4" fill-opacity="1.000000" fill-rule="nonzero"/>
	<path id="Vector" d="M35.43 81.22L14.4 81.22C13.22 81.22 12.09 80.75 11.26 79.92C10.43 79.09 9.96 77.96 9.96 76.78L9.96 64.79C9.96 64.21 10.08 63.63 10.3 63.09C10.52 62.55 10.85 62.06 11.26 61.65C11.67 61.23 12.16 60.91 12.7 60.68C13.24 60.46 13.82 60.35 14.4 60.35L35.43 60.35C36.01 60.35 36.59 60.46 37.13 60.68C37.66 60.91 38.15 61.23 38.57 61.65C38.98 62.06 39.3 62.55 39.53 63.09C39.75 63.63 39.87 64.21 39.87 64.79L39.87 76.78C39.87 77.96 39.4 79.09 38.57 79.92C37.73 80.75 36.61 81.22 35.43 81.22ZM14.4 61.3C13.48 61.3 12.59 61.67 11.93 62.32C11.28 62.98 10.91 63.86 10.91 64.79L10.91 76.78C10.92 77.7 11.28 78.59 11.94 79.24C12.59 79.9 13.48 80.27 14.4 80.27L35.43 80.27C36.35 80.27 37.24 79.9 37.89 79.25C38.55 78.59 38.92 77.7 38.92 76.78L38.92 64.79C38.92 63.86 38.55 62.98 37.89 62.32C37.24 61.67 36.35 61.3 35.43 61.3L14.4 61.3Z" fill="#D1D3D4" fill-opacity="1.000000" fill-rule="nonzero"/>
	<path id="Vector" d="M20.08 77.34C19.99 77.34 19.91 77.31 19.84 77.26C19.77 77.22 19.71 77.16 19.67 77.09C19.63 77.02 19.61 76.94 19.61 76.86L19.61 64.71C19.61 64.62 19.63 64.54 19.67 64.47C19.71 64.4 19.77 64.34 19.84 64.3C19.9 64.26 19.98 64.24 20.06 64.24C20.14 64.24 20.22 64.26 20.29 64.3L32.78 70.31C32.86 70.35 32.93 70.41 32.98 70.49C33.03 70.57 33.06 70.65 33.06 70.75C33.06 70.84 33.03 70.93 32.98 71C32.93 71.08 32.86 71.14 32.78 71.18L20.29 77.25C20.23 77.3 20.16 77.33 20.08 77.34ZM20.56 65.47L20.56 76.1L31.48 70.79L20.56 65.47Z" fill="#D1D3D4" fill-opacity="1.000000" fill-rule="nonzero"/>
	<path id="Vector" d="M99.93 54.89L69.8 54.89C69.67 54.89 69.55 54.84 69.46 54.75C69.37 54.66 69.32 54.54 69.32 54.41L69.32 33.33C69.32 33.2 69.37 33.08 69.46 32.99C69.55 32.9 69.67 32.85 69.8 32.85L99.93 32.85C100.05 32.85 100.18 32.9 100.26 32.99C100.35 33.08 100.4 33.2 100.4 33.33L100.4 54.41C100.4 54.54 100.35 54.66 100.26 54.75C100.18 54.84 100.05 54.89 99.93 54.89ZM70.27 53.94L99.45 53.94L99.45 33.8L70.27 33.8L70.27 53.94Z" fill="#D1D3D4" fill-opacity="1.000000" fill-rule="nonzero"/>
	<path id="Vector" d="M69.8 54.89C69.69 54.89 69.59 54.86 69.51 54.8C69.41 54.72 69.35 54.61 69.33 54.48C69.31 54.36 69.34 54.23 69.42 54.13L81.31 38.08C81.36 38.02 81.41 37.98 81.48 37.95C81.54 37.92 81.61 37.9 81.68 37.9C81.76 37.9 81.83 37.92 81.89 37.95C81.95 37.98 82.01 38.02 82.05 38.08L91.37 49.13C91.45 49.23 91.49 49.35 91.48 49.48C91.47 49.61 91.41 49.73 91.31 49.81C91.21 49.89 91.09 49.93 90.96 49.92C90.83 49.91 90.72 49.85 90.64 49.75L81.71 39.15L70.18 54.7C70.13 54.76 70.07 54.81 70.01 54.84C69.94 54.87 69.87 54.89 69.8 54.89Z" fill="#D1D3D4" fill-opacity="1.000000" fill-rule="nonzero"/>
	<path id="Vector" d="M88.45 46.87C88.35 46.86 88.26 46.83 88.17 46.78C88.07 46.71 88 46.6 87.98 46.47C87.96 46.35 87.99 46.23 88.06 46.12L92.91 39.14C92.95 39.09 93 39.04 93.06 39C93.12 38.97 93.19 38.95 93.26 38.94C93.33 38.94 93.4 38.95 93.46 38.97C93.53 39 93.59 39.04 93.64 39.09L100.29 46.07C100.33 46.11 100.37 46.16 100.39 46.22C100.42 46.28 100.43 46.34 100.43 46.4C100.43 46.46 100.42 46.52 100.39 46.58C100.37 46.64 100.33 46.69 100.29 46.73C100.25 46.78 100.19 46.81 100.14 46.84C100.08 46.86 100.02 46.87 99.95 46.87C99.89 46.87 99.83 46.86 99.77 46.84C99.71 46.81 99.66 46.78 99.61 46.73L93.35 40.17L88.87 46.67C88.82 46.74 88.76 46.79 88.68 46.83C88.61 46.86 88.53 46.87 88.45 46.87Z" fill="#D1D3D4" fill-opacity="1.000000" fill-rule="nonzero"/>
	<path id="Vector" d="M88.97 39.9C88.51 39.9 88.06 39.76 87.67 39.5C87.29 39.25 86.99 38.88 86.81 38.45C86.64 38.02 86.59 37.55 86.68 37.1C86.77 36.64 86.99 36.23 87.32 35.9C87.65 35.57 88.06 35.35 88.52 35.26C88.97 35.17 89.44 35.21 89.87 35.39C90.29 35.57 90.66 35.87 90.92 36.25C91.17 36.64 91.31 37.09 91.31 37.56C91.31 38.18 91.06 38.77 90.63 39.21C90.19 39.65 89.59 39.9 88.97 39.9ZM88.97 36.17C88.7 36.17 88.43 36.25 88.2 36.4C87.97 36.55 87.8 36.77 87.69 37.02C87.59 37.28 87.56 37.56 87.61 37.83C87.67 38.1 87.8 38.34 87.99 38.54C88.19 38.73 88.43 38.86 88.7 38.92C88.97 38.97 89.25 38.94 89.5 38.84C89.76 38.73 89.97 38.56 90.13 38.33C90.28 38.1 90.36 37.83 90.36 37.56C90.36 37.19 90.21 36.83 89.95 36.57C89.69 36.31 89.34 36.17 88.97 36.17Z" fill="#D1D3D4" fill-opacity="1.000000" fill-rule="nonzero"/>
	<path id="Vector" d="M253.16 106.18L235.87 106.18C235.74 106.18 235.62 106.13 235.53 106.04C235.44 105.95 235.39 105.83 235.39 105.71C235.39 105.58 235.44 105.46 235.53 105.37C235.62 105.28 235.74 105.23 235.87 105.23L253.16 105.23C253.28 105.23 253.41 105.28 253.49 105.37C253.58 105.46 253.63 105.58 253.63 105.71C253.63 105.83 253.58 105.95 253.49 106.04C253.41 106.13 253.28 106.18 253.16 106.18Z" fill="#D1D3D4" fill-opacity="1.000000" fill-rule="nonzero"/>
	<path id="Vector" d="M253.16 109.92L235.87 109.92C235.74 109.92 235.62 109.87 235.53 109.78C235.44 109.69 235.39 109.57 235.39 109.44C235.39 109.31 235.44 109.19 235.53 109.1C235.62 109.01 235.74 108.96 235.87 108.96L253.16 108.96C253.28 108.96 253.41 109.01 253.49 109.1C253.58 109.19 253.63 109.31 253.63 109.44C253.63 109.57 253.58 109.69 253.49 109.78C253.41 109.87 253.28 109.92 253.16 109.92Z" fill="#D1D3D4" fill-opacity="1.000000" fill-rule="nonzero"/>
	<path id="Vector" d="M247.9 113.66L235.87 113.66C235.74 113.66 235.62 113.61 235.53 113.52C235.44 113.43 235.39 113.31 235.39 113.18C235.39 113.05 235.44 112.93 235.53 112.84C235.62 112.76 235.74 112.7 235.87 112.7L247.9 112.7C248.03 112.7 248.15 112.76 248.24 112.84C248.33 112.93 248.38 113.05 248.38 113.18C248.38 113.31 248.33 113.43 248.24 113.52C248.15 113.61 248.03 113.66 247.9 113.66Z" fill="#D1D3D4" fill-opacity="1.000000" fill-rule="nonzero"/>
	<path id="Vector" d="M43.81 91.26L14.52 91.26C14.4 91.26 14.28 91.21 14.19 91.12C14.1 91.03 14.05 90.91 14.05 90.78C14.05 90.65 14.1 90.53 14.19 90.44C14.28 90.35 14.4 90.3 14.52 90.3L43.81 90.3C43.94 90.3 44.06 90.35 44.14 90.44C44.23 90.53 44.28 90.65 44.28 90.78C44.28 90.91 44.23 91.03 44.14 91.12C44.06 91.21 43.94 91.26 43.81 91.26Z" fill="#D1D3D4" fill-opacity="1.000000" fill-rule="nonzero"/>
	<path id="Vector" d="M43.81 94.98L14.52 94.98C14.4 94.98 14.28 94.93 14.19 94.84C14.1 94.75 14.05 94.63 14.05 94.5C14.05 94.38 14.1 94.26 14.19 94.17C14.28 94.08 14.4 94.03 14.52 94.03L43.81 94.03C43.93 94.03 44.05 94.08 44.14 94.17C44.23 94.26 44.28 94.38 44.28 94.5C44.28 94.63 44.23 94.75 44.14 94.84C44.06 94.93 43.94 94.98 43.81 94.98Z" fill="#D1D3D4" fill-opacity="1.000000" fill-rule="nonzero"/>
	<path id="Vector" d="M34.94 98.72L14.52 98.72C14.4 98.72 14.28 98.67 14.19 98.58C14.1 98.49 14.05 98.37 14.05 98.24C14.05 98.12 14.1 98 14.19 97.91C14.28 97.82 14.4 97.77 14.52 97.77L34.94 97.77C35.07 97.77 35.19 97.82 35.28 97.91C35.37 98 35.42 98.12 35.42 98.24C35.42 98.37 35.37 98.49 35.28 98.58C35.19 98.67 35.07 98.72 34.94 98.72Z" fill="#D1D3D4" fill-opacity="1.000000" fill-rule="nonzero"/>
	<path id="Vector" d="M269.52 122.28L267.22 122.28L267.22 120.87L269.81 120.87L270.27 118.82L267.96 118.82L267.96 117.4L270.6 117.4L271.36 113.89L273.62 113.89L272.85 117.4L275.49 117.4L276.26 113.89L278.48 113.89L277.71 117.4L280.02 117.4L280.02 118.86L277.41 118.86L276.97 120.92L279.28 120.92L279.28 122.33L276.71 122.33L275.93 125.85L273.69 125.85L274.46 122.33L271.8 122.33L271.03 125.85L268.81 125.85L269.52 122.28ZM272.5 118.86L272.06 120.92L274.7 120.92L275.14 118.86L272.5 118.86Z" fill="#D1D3D4" fill-opacity="1.000000" fill-rule="nonzero"/>
	<path id="Vector" d="M235.48 131.59C235.16 132.04 234.74 132.39 234.24 132.63C233.75 132.87 233.2 132.99 232.65 132.99C232.18 133 231.71 132.91 231.27 132.73C230.84 132.58 230.46 132.34 230.13 132.03C229.8 131.72 229.54 131.35 229.36 130.94C229.16 130.51 229.07 130.04 229.07 129.56C229.07 129.09 229.16 128.63 229.35 128.19C229.53 127.79 229.78 127.42 230.11 127.11C230.43 126.8 230.81 126.55 231.23 126.38C232.05 126.05 232.96 126.03 233.79 126.32C234.17 126.45 234.53 126.64 234.84 126.9C235.15 127.16 235.4 127.49 235.58 127.85C235.78 128.25 235.87 128.7 235.87 129.14C235.87 129.43 235.83 129.72 235.74 129.99C235.68 130.21 235.58 130.42 235.45 130.6C235.34 130.76 235.21 130.9 235.05 131.01C234.91 131.11 234.75 131.19 234.59 131.25C234.45 131.3 234.31 131.34 234.16 131.36C234.05 131.38 233.93 131.38 233.81 131.36C233.62 131.38 233.42 131.32 233.26 131.2C233.16 131.12 233.09 130.99 233.08 130.86C232.94 130.99 232.78 131.11 232.62 131.2C232.39 131.32 232.14 131.37 231.89 131.36C231.71 131.37 231.53 131.33 231.36 131.25C231.2 131.17 231.05 131.06 230.93 130.92C230.82 130.78 230.72 130.62 230.67 130.44C230.6 130.24 230.57 130.03 230.57 129.81C230.57 129.55 230.61 129.28 230.7 129.03C230.78 128.79 230.9 128.56 231.06 128.37C231.22 128.17 231.41 128.01 231.64 127.9C231.88 127.78 232.15 127.72 232.42 127.73C232.63 127.72 232.83 127.76 233.02 127.85C233.2 127.94 233.33 128.08 233.4 128.26L233.48 127.84L234.34 127.84L234 129.66L233.96 129.92C233.95 130.01 233.95 130.1 233.96 130.19C233.95 130.28 233.97 130.36 234 130.44C234.03 130.47 234.06 130.49 234.09 130.51C234.13 130.52 234.16 130.53 234.2 130.53C234.31 130.53 234.41 130.5 234.5 130.45C234.6 130.39 234.68 130.3 234.74 130.2C234.83 130.07 234.89 129.92 234.92 129.77C235.04 129.24 235 128.69 234.81 128.18C234.7 127.91 234.53 127.67 234.32 127.47C234.1 127.27 233.84 127.13 233.56 127.04C233.25 126.95 232.93 126.9 232.61 126.9C232.25 126.9 231.89 126.96 231.56 127.09C231.26 127.21 230.99 127.4 230.76 127.64C230.53 127.88 230.35 128.16 230.24 128.47C230.11 128.8 230.05 129.16 230.05 129.52C230.04 129.89 230.11 130.26 230.26 130.6C230.39 130.91 230.58 131.19 230.82 131.42C231.07 131.64 231.37 131.82 231.68 131.93C232.03 132.05 232.4 132.11 232.77 132.11C233.09 132.11 233.41 132.06 233.72 131.96C234 131.87 234.26 131.73 234.5 131.54L235.48 131.59ZM232.47 128.61C232.33 128.61 232.19 128.64 232.06 128.7C231.94 128.75 231.84 128.84 231.75 128.94C231.67 129.05 231.6 129.17 231.56 129.3C231.52 129.44 231.5 129.58 231.5 129.73C231.5 129.8 231.5 129.87 231.5 129.95C231.51 130.04 231.54 130.14 231.59 130.23C231.64 130.33 231.72 130.41 231.82 130.47C231.95 130.55 232.1 130.59 232.25 130.57C232.41 130.58 232.56 130.54 232.69 130.48C232.8 130.41 232.9 130.32 232.97 130.21C233.04 130.1 233.08 129.98 233.11 129.85C233.12 129.72 233.12 129.59 233.11 129.46C233.12 129.25 233.06 129.03 232.95 128.85C232.89 128.78 232.82 128.72 232.74 128.67C232.66 128.63 232.57 128.61 232.47 128.61Z" fill="#D1D3D4" fill-opacity="1.000000" fill-rule="nonzero"/>
</svg>
