<svg width="296.000000" height="242.000000" viewBox="0 0 296 242" fill="none" xmlns="http://www.w3.org/2000/svg" xmlns:xlink="http://www.w3.org/1999/xlink">
	<desc>
			Created with Pixso.
	</desc>
	<defs/>
	<path id="Vector" d="M295.57 211.47L2.73 211.47C2.65 211.49 2.57 211.49 2.49 211.48C2.41 211.47 2.34 211.43 2.27 211.38C2.21 211.34 2.16 211.27 2.12 211.2C2.09 211.13 2.07 211.05 2.07 210.97C2.07 210.89 2.09 210.81 2.12 210.74C2.16 210.67 2.21 210.6 2.27 210.56C2.34 210.51 2.41 210.47 2.49 210.46C2.57 210.45 2.65 210.45 2.73 210.47L295.62 210.47C295.73 210.5 295.82 210.57 295.89 210.66C295.96 210.75 296 210.86 296 210.97C296 211.08 295.96 211.19 295.89 211.28C295.82 211.37 295.73 211.44 295.62 211.47L295.57 211.47Z" fill="#D1D3D4" fill-opacity="1.000000" fill-rule="nonzero"/>
	<path id="Vector" d="M19.79 7.7L278.5 7.7L278.5 159.01L19.79 159.01L19.79 7.7Z" fill="#FFFFFF" fill-opacity="1.000000" fill-rule="evenodd"/>
	<path id="Vector" d="M278.51 159.53L19.79 159.53C19.73 159.53 19.66 159.52 19.6 159.49C19.53 159.47 19.48 159.43 19.43 159.38C19.38 159.33 19.34 159.28 19.32 159.21C19.29 159.15 19.28 159.08 19.28 159.01L19.28 7.7C19.28 7.56 19.33 7.43 19.43 7.33C19.52 7.23 19.66 7.18 19.79 7.18L278.51 7.18C278.58 7.18 278.65 7.19 278.71 7.22C278.77 7.24 278.83 7.28 278.88 7.33C278.92 7.38 278.96 7.44 278.99 7.5C279.01 7.56 279.02 7.63 279.02 7.7L279.02 159.01C279.02 159.15 278.97 159.28 278.87 159.38C278.78 159.47 278.65 159.53 278.51 159.53ZM20.31 158.53L277.99 158.53L277.99 8.22L20.3 8.22L20.31 158.53Z" fill="#D1D3D4" fill-opacity="1.000000" fill-rule="nonzero"/>
	<path id="Vector" d="M19.79 0.51L278.5 0.51L278.5 7.7L19.79 7.7L19.79 0.51Z" fill="#FFFFFF" fill-opacity="1.000000" fill-rule="evenodd"/>
	<path id="Vector" d="M278.51 8.22L19.79 8.22C19.66 8.22 19.52 8.16 19.43 8.06C19.33 7.97 19.28 7.83 19.28 7.7L19.28 0.51C19.28 0.38 19.33 0.24 19.43 0.15C19.52 0.05 19.66 0 19.79 0L278.51 0C278.58 0 278.65 0.01 278.71 0.03C278.77 0.06 278.83 0.1 278.88 0.15C278.92 0.2 278.96 0.25 278.99 0.32C279.01 0.38 279.02 0.45 279.02 0.51L279.02 7.7C279.02 7.83 278.97 7.96 278.87 8.06C278.78 8.16 278.65 8.21 278.51 8.22ZM20.31 7.22L277.99 7.22L277.99 1.02L20.3 1.02L20.31 7.22Z" fill="#D1D3D4" fill-opacity="1.000000" fill-rule="nonzero"/>
	<path id="Vector" d="M143.53 102.77L157.59 102.77L157.59 147.98L143.53 147.98L143.53 102.77Z" fill="#FFFFFF" fill-opacity="1.000000" fill-rule="evenodd"/>
	<path id="Vector" d="M157.59 148.49L143.53 148.49C143.46 148.49 143.39 148.48 143.33 148.45C143.27 148.43 143.21 148.39 143.16 148.34C143.11 148.3 143.07 148.24 143.05 148.18C143.02 148.12 143.01 148.05 143.01 147.98L143.01 102.77C143.01 102.63 143.06 102.5 143.16 102.4C143.26 102.31 143.39 102.25 143.53 102.25L157.59 102.25C157.73 102.25 157.86 102.31 157.96 102.4C158.06 102.5 158.11 102.63 158.11 102.77L158.11 147.98C158.11 148.05 158.1 148.12 158.07 148.18C158.04 148.24 158.01 148.3 157.96 148.34C157.91 148.39 157.85 148.43 157.79 148.45C157.73 148.48 157.66 148.49 157.59 148.49ZM144.04 147.49L157.08 147.49L157.08 103.28L144.02 103.28L144.04 147.49Z" fill="#D1D3D4" fill-opacity="1.000000" fill-rule="nonzero"/>
	<path id="Vector" d="M89.85 159.01C89.85 159.01 92.93 141.86 104.5 137.15C116.08 132.44 122.37 142.14 122.37 142.14C122.37 142.14 125.35 126.17 143.74 126.17C162.14 126.17 166.38 138.72 166.38 138.72C166.38 138.72 170.15 131.14 178.45 131.66C186.75 132.18 188.02 142.63 188.02 142.63C190.43 141.56 193.05 141.01 195.69 141.01C198.33 141.01 200.94 141.56 203.36 142.63C211.33 146.35 214.69 159.06 214.69 159.06L89.85 159.01Z" fill="#FFFFFF" fill-opacity="1.000000" fill-rule="nonzero"/>
	<path id="Vector" d="M214.69 159.53L89.85 159.53C89.77 159.53 89.7 159.52 89.63 159.48C89.56 159.45 89.5 159.4 89.45 159.34C89.36 159.22 89.32 159.07 89.34 158.92C89.47 158.21 92.61 141.43 104.28 136.67C107.31 135.3 110.7 134.98 113.93 135.76C117.16 136.54 120.03 138.37 122.11 140.97C123.19 137.36 127.93 125.64 143.72 125.64C159.24 125.64 164.96 134.62 166.43 137.62C167.77 135.57 171.69 130.72 178.47 131.16C185.83 131.62 187.93 139.48 188.44 141.87C190.85 140.88 193.44 140.4 196.05 140.45C198.65 140.49 201.22 141.07 203.6 142.14C211.7 145.91 215.05 158.38 215.19 158.9C215.21 158.98 215.22 159.06 215.2 159.13C215.19 159.21 215.15 159.28 215.1 159.34C215.06 159.41 214.99 159.46 214.92 159.49C214.85 159.52 214.77 159.54 214.69 159.53ZM90.48 158.53L214.01 158.53C213.2 155.93 209.8 146.18 203.16 143.09C200.8 142.06 198.26 141.52 195.69 141.52C193.12 141.52 190.57 142.06 188.22 143.09C188.14 143.13 188.06 143.15 187.98 143.15C187.9 143.15 187.82 143.13 187.75 143.09C187.68 143.05 187.61 143 187.57 142.93C187.52 142.86 187.49 142.78 187.48 142.7C187.48 142.6 186.16 132.73 178.39 132.22C170.62 131.71 166.85 138.92 166.82 138.99C166.77 139.08 166.7 139.16 166.61 139.21C166.52 139.25 166.42 139.28 166.32 139.27C166.22 139.27 166.12 139.23 166.04 139.17C165.96 139.11 165.9 139.03 165.87 138.93C165.82 138.8 161.47 126.72 143.71 126.72C136.28 126.72 130.51 129.33 126.57 134.46C124.8 136.77 123.53 139.42 122.83 142.25C122.82 142.35 122.77 142.45 122.7 142.52C122.63 142.59 122.54 142.64 122.44 142.66C122.33 142.68 122.23 142.67 122.13 142.64C122.04 142.6 121.96 142.53 121.9 142.44C120.04 139.75 117.3 137.8 114.15 136.92C111 136.05 107.64 136.31 104.66 137.67C94.74 141.68 91.16 155.43 90.48 158.5L90.48 158.53Z" fill="#D1D3D4" fill-opacity="1.000000" fill-rule="nonzero"/>
	<path id="Vector" d="M158.01 109.94L142.74 109.94L140.91 102.6L159.84 102.6L158.01 109.94Z" fill="#FFFFFF" fill-opacity="1.000000" fill-rule="nonzero"/>
	<path id="Vector" d="M157.97 110.46L142.74 110.46C142.62 110.46 142.51 110.42 142.42 110.35C142.33 110.28 142.27 110.18 142.24 110.07L140.41 102.73C140.39 102.65 140.38 102.57 140.4 102.49C140.42 102.42 140.45 102.34 140.5 102.28C140.55 102.22 140.61 102.17 140.68 102.14C140.75 102.11 140.83 102.09 140.91 102.09L159.83 102.09C159.91 102.09 159.99 102.11 160.06 102.14C160.13 102.17 160.19 102.22 160.24 102.28C160.29 102.34 160.32 102.42 160.34 102.5C160.35 102.57 160.35 102.65 160.33 102.73L158.5 110.07C158.47 110.19 158.4 110.29 158.31 110.36C158.21 110.43 158.09 110.47 157.97 110.46ZM143.1 109.46L157.57 109.46L159.15 103.15L141.56 103.15L143.1 109.46Z" fill="#D1D3D4" fill-opacity="1.000000" fill-rule="nonzero"/>
	<path id="Vector" d="M133.25 79.66C133.25 79.66 125.28 84.65 122.47 93.02C119.65 101.39 126.03 117.51 126.03 117.51L140.59 101.71L133.25 79.66Z" fill="#FFFFFF" fill-opacity="1.000000" fill-rule="nonzero"/>
	<path id="Vector" d="M126.03 118.03L125.93 118.03C125.85 118.02 125.77 117.98 125.7 117.92C125.63 117.87 125.58 117.79 125.55 117.71C125.28 117.04 119.18 101.3 121.99 92.87C124.8 84.44 132.65 79.44 132.95 79.24C133.01 79.2 133.09 79.18 133.16 79.18C133.24 79.18 133.32 79.2 133.38 79.24C133.46 79.26 133.53 79.3 133.58 79.36C133.64 79.41 133.68 79.48 133.7 79.55L141.03 101.54C141.07 101.63 141.07 101.72 141.05 101.82C141.03 101.91 140.99 101.99 140.92 102.06L126.36 117.86C126.32 117.91 126.27 117.95 126.21 117.98C126.16 118.01 126.1 118.03 126.03 118.03ZM133 80.47C131.17 81.77 125.24 86.37 122.97 93.19C120.63 100.25 125.04 113.25 126.23 116.56L140.03 101.59L133 80.47Z" fill="#D1D3D4" fill-opacity="1.000000" fill-rule="nonzero"/>
	<path id="Vector" d="M167.86 79.66C167.86 79.66 175.83 84.65 178.65 93.02C181.47 101.39 175.09 117.51 175.09 117.51L160.53 101.71L167.86 79.66Z" fill="#FFFFFF" fill-opacity="1.000000" fill-rule="nonzero"/>
	<path id="Vector" d="M175.1 118.03C175.02 118.03 174.95 118.02 174.89 117.99C174.82 117.96 174.76 117.92 174.72 117.86L160.15 102.06C160.09 101.99 160.05 101.91 160.03 101.82C160.01 101.73 160.01 101.63 160.04 101.54L167.38 79.5C167.4 79.43 167.44 79.36 167.5 79.31C167.55 79.25 167.62 79.21 167.69 79.19C167.76 79.15 167.84 79.13 167.91 79.13C167.99 79.13 168.06 79.15 168.13 79.19C168.47 79.39 176.33 84.39 179.14 92.82C181.95 101.25 175.83 117 175.57 117.66C175.54 117.75 175.49 117.82 175.42 117.87C175.35 117.93 175.27 117.97 175.19 117.98L175.1 118.03ZM161.15 101.58L174.95 116.55C176.14 113.24 180.55 100.23 178.2 93.18C175.93 86.36 170.01 81.76 168.18 80.46L161.15 101.58Z" fill="#D1D3D4" fill-opacity="1.000000" fill-rule="nonzero"/>
	<path id="Vector" d="M163.46 105.38C167.45 95.85 169.94 82.02 169.94 66.65C169.93 43.35 157.1 31.19 152.22 27.39C151.7 26.97 151.05 26.75 150.37 26.75C149.7 26.75 149.05 26.97 148.53 27.39C143.64 31.15 130.8 43.29 130.8 66.61C130.8 81.98 133.31 95.81 137.29 105.34C137.29 105.34 141.27 107.34 150.37 107.34C159.47 107.34 163.46 105.38 163.46 105.38Z" fill="#72B0F9" fill-opacity="1.000000" fill-rule="nonzero"/>
	<path id="Vector" d="M150.37 107.9C141.24 107.9 137.23 105.9 137.06 105.84C136.95 105.79 136.87 105.7 136.82 105.58C132.67 95.61 130.3 81.45 130.3 66.68C130.3 43.41 142.83 31.21 148.23 27.05C148.85 26.57 149.61 26.31 150.39 26.31C151.18 26.31 151.94 26.57 152.56 27.05C157.94 31.21 170.49 43.4 170.49 66.68C170.49 81.49 168.11 95.68 163.97 105.58C163.92 105.69 163.84 105.78 163.73 105.84C163.52 105.92 159.5 107.9 150.37 107.9ZM137.69 104.99C138.52 105.35 142.53 106.87 150.37 106.87C158.21 106.87 162.22 105.35 163.06 104.99C167.11 95.2 169.43 81.23 169.43 66.65C169.43 43.83 157.17 31.9 151.91 27.83C151.47 27.49 150.93 27.31 150.37 27.31C149.82 27.31 149.28 27.49 148.84 27.83C143.58 31.91 131.32 43.79 131.32 66.65C131.32 81.26 133.64 95.23 137.69 104.99Z" fill="#D1D3D4" fill-opacity="1.000000" fill-rule="nonzero"/>
	<path id="Vector" d="M148.53 27.39C142.54 32.16 137.86 38.38 134.92 45.45L165.8 45.45C162.87 38.38 158.2 32.17 152.22 27.39C151.7 26.97 151.05 26.75 150.37 26.75C149.7 26.75 149.05 26.97 148.53 27.39Z" fill="#FFFFFF" fill-opacity="1.000000" fill-rule="nonzero"/>
	<path id="Vector" d="M165.83 46.01L134.95 46.01C134.86 46.01 134.78 45.99 134.7 45.94C134.63 45.9 134.57 45.85 134.52 45.78C134.47 45.7 134.44 45.62 134.43 45.54C134.43 45.45 134.44 45.37 134.47 45.29C137.43 38.13 142.16 31.85 148.21 27.02C148.83 26.54 149.59 26.28 150.37 26.28C151.16 26.28 151.92 26.54 152.54 27.02C158.6 31.84 163.34 38.13 166.31 45.29C166.34 45.37 166.35 45.45 166.34 45.54C166.34 45.62 166.31 45.7 166.26 45.78C166.21 45.85 166.15 45.9 166.07 45.94C166 45.98 165.92 46 165.83 46.01ZM135.7 45.01L165.04 45.01C162.14 38.3 157.63 32.41 151.91 27.86C151.47 27.52 150.93 27.34 150.37 27.34C149.82 27.34 149.28 27.52 148.84 27.86C143.12 32.4 138.61 38.28 135.7 44.98L135.7 45.01Z" fill="#D1D3D4" fill-opacity="1.000000" fill-rule="nonzero"/>
	<path id="Vector" d="M163.07 62.81C163.07 69.41 157.73 74.77 151.14 74.77C144.55 74.77 139.2 69.41 139.2 62.81C139.2 56.21 144.55 50.86 151.14 50.86C157.73 50.86 163.07 56.21 163.07 62.81Z" fill="#FFFFFF" fill-opacity="1.000000" fill-rule="evenodd"/>
	<path id="Vector" d="M151.14 75.28C148.67 75.28 146.27 74.54 144.22 73.17C142.17 71.8 140.57 69.86 139.63 67.58C138.69 65.3 138.44 62.79 138.92 60.37C139.4 57.95 140.59 55.73 142.33 53.99C144.07 52.24 146.29 51.06 148.71 50.57C151.12 50.09 153.63 50.34 155.9 51.28C158.18 52.23 160.12 53.83 161.49 55.88C162.86 57.93 163.59 60.34 163.59 62.81C163.59 66.11 162.27 69.28 159.94 71.62C157.6 73.96 154.44 75.27 151.14 75.28ZM151.14 51.33C148.88 51.33 146.67 52 144.79 53.26C142.91 54.52 141.44 56.31 140.58 58.4C139.71 60.49 139.49 62.79 139.93 65.01C140.37 67.23 141.46 69.27 143.06 70.87C144.66 72.47 146.7 73.56 148.91 74C151.13 74.44 153.43 74.21 155.52 73.34C157.6 72.48 159.39 71.01 160.64 69.12C161.9 67.24 162.57 65.03 162.56 62.77C162.55 59.74 161.34 56.85 159.2 54.71C157.05 52.58 154.16 51.38 151.14 51.38L151.14 51.33Z" fill="#D1D3D4" fill-opacity="1.000000" fill-rule="nonzero"/>
	<path id="Vector" d="M158.5 62.81C158.5 66.89 155.2 70.19 151.14 70.19C147.07 70.19 143.77 66.89 143.77 62.81C143.77 58.74 147.07 55.44 151.14 55.44C155.2 55.44 158.5 58.74 158.5 62.81Z" fill="#FFFFFF" fill-opacity="1.000000" fill-rule="evenodd"/>
	<path id="Vector" d="M151.14 70.71C149.58 70.71 148.05 70.24 146.76 69.38C145.46 68.51 144.45 67.28 143.86 65.83C143.26 64.39 143.1 62.81 143.41 61.28C143.71 59.74 144.46 58.34 145.56 57.23C146.67 56.13 148.07 55.38 149.6 55.08C151.13 54.77 152.71 54.93 154.15 55.52C155.59 56.12 156.82 57.13 157.69 58.43C158.55 59.73 159.02 61.25 159.02 62.81C159.02 64.91 158.19 66.91 156.71 68.39C155.23 69.87 153.23 70.71 151.14 70.71ZM151.14 55.96C149.78 55.96 148.46 56.36 147.33 57.12C146.2 57.87 145.32 58.95 144.8 60.2C144.28 61.46 144.15 62.84 144.42 64.17C144.68 65.5 145.33 66.72 146.29 67.68C147.25 68.64 148.48 69.29 149.81 69.56C151.14 69.82 152.51 69.68 153.77 69.16C155.02 68.64 156.09 67.76 156.84 66.63C157.59 65.5 157.99 64.17 157.99 62.81C157.99 61 157.27 59.25 155.98 57.97C154.69 56.68 152.95 55.96 151.14 55.96Z" fill="#D1D3D4" fill-opacity="1.000000" fill-rule="nonzero"/>
	<path id="Vector" d="M156.97 62.64C156.85 62.63 156.74 62.59 156.65 62.51C156.56 62.43 156.5 62.33 156.48 62.21C156.4 60.87 155.79 59.62 154.8 58.73C153.81 57.83 152.5 57.36 151.17 57.43C151.1 57.43 151.03 57.42 150.97 57.4C150.91 57.38 150.85 57.35 150.8 57.31C150.7 57.22 150.64 57.1 150.63 56.96C150.62 56.83 150.67 56.7 150.75 56.6C150.84 56.5 150.96 56.44 151.1 56.43C152.68 56.37 154.22 56.92 155.41 57.97C156.6 59.02 157.33 60.49 157.46 62.07C157.48 62.2 157.45 62.33 157.37 62.43C157.29 62.54 157.17 62.61 157.04 62.62L156.97 62.64Z" fill="#D1D3D4" fill-opacity="1.000000" fill-rule="nonzero"/>
	<path id="Vector" d="M148.55 58.14C148.47 58.14 148.39 58.12 148.33 58.09C148.26 58.05 148.2 58.01 148.15 57.95C148.07 57.84 148.04 57.71 148.05 57.58C148.07 57.45 148.14 57.33 148.24 57.25C148.67 56.93 149.17 56.72 149.69 56.64C149.76 56.63 149.82 56.64 149.89 56.65C149.95 56.67 150.01 56.7 150.06 56.74C150.11 56.78 150.16 56.83 150.19 56.89C150.22 56.95 150.24 57.01 150.25 57.08C150.26 57.21 150.23 57.34 150.15 57.44C150.07 57.55 149.95 57.62 149.82 57.64C149.46 57.69 149.12 57.83 148.83 58.04C148.75 58.1 148.65 58.13 148.55 58.14Z" fill="#D1D3D4" fill-opacity="1.000000" fill-rule="nonzero"/>
	<path id="Vector" d="M162.02 102.35C161.96 102.36 161.91 102.36 161.86 102.35C161.73 102.31 161.63 102.22 161.57 102.1C161.51 101.98 161.5 101.85 161.54 101.72C163.6 95.18 165.26 88.51 166.52 81.77C166.53 81.7 166.55 81.64 166.59 81.59C166.62 81.53 166.67 81.48 166.72 81.45C166.78 81.41 166.84 81.38 166.9 81.37C166.97 81.36 167.03 81.36 167.1 81.37C167.23 81.39 167.34 81.47 167.41 81.58C167.49 81.69 167.52 81.82 167.49 81.95C166.24 88.75 164.58 95.46 162.51 102.06C162.47 102.15 162.4 102.23 162.31 102.28C162.22 102.34 162.12 102.36 162.02 102.35Z" fill="#FFFFFF" fill-opacity="1.000000" fill-rule="nonzero"/>
	<path id="Vector" d="M152.26 120.92C152.13 120.92 152 120.86 151.91 120.77C151.82 120.68 151.76 120.55 151.76 120.42L151.76 110.95C151.76 110.82 151.82 110.69 151.91 110.6C152 110.5 152.13 110.45 152.26 110.45C152.39 110.45 152.52 110.5 152.61 110.6C152.71 110.69 152.76 110.82 152.76 110.95L152.76 120.42C152.76 120.55 152.71 120.68 152.61 120.77C152.52 120.86 152.39 120.92 152.26 120.92Z" fill="#D1D3D4" fill-opacity="1.000000" fill-rule="nonzero"/>
	<path id="Vector" d="M147.16 125.87C147.03 125.87 146.91 125.82 146.81 125.72C146.72 125.63 146.67 125.51 146.66 125.38L146.66 115.47C146.67 115.34 146.72 115.21 146.81 115.12C146.91 115.03 147.03 114.97 147.16 114.97C147.29 114.97 147.42 115.02 147.51 115.12C147.61 115.21 147.66 115.34 147.66 115.47L147.66 125.38C147.66 125.51 147.61 125.63 147.51 125.73C147.42 125.82 147.29 125.87 147.16 125.87Z" fill="#D1D3D4" fill-opacity="1.000000" fill-rule="nonzero"/>
	<path id="Vector" d="M116.74 150.28L116.65 150.28C116.58 150.26 116.52 150.24 116.47 150.2C116.41 150.17 116.36 150.12 116.33 150.06C116.29 150.01 116.26 149.95 116.25 149.88C116.24 149.82 116.24 149.75 116.25 149.69C116.25 149.49 117.25 144.59 121.58 142.32C124.72 140.68 128.73 140.9 133.53 142.98C133.6 143 133.66 143.04 133.71 143.09C133.77 143.13 133.81 143.19 133.84 143.25C133.87 143.32 133.88 143.39 133.88 143.46C133.88 143.53 133.87 143.6 133.84 143.66C133.81 143.72 133.77 143.78 133.72 143.83C133.67 143.88 133.61 143.91 133.54 143.93C133.47 143.95 133.4 143.96 133.33 143.95C133.26 143.95 133.2 143.92 133.14 143.89C128.64 141.89 124.92 141.71 122.06 143.2C118.19 145.2 117.25 149.84 117.24 149.89C117.21 150 117.15 150.1 117.06 150.17C116.97 150.24 116.85 150.28 116.74 150.28Z" fill="#D1D3D4" fill-opacity="1.000000" fill-rule="nonzero"/>
	<path id="Vector" d="M173.32 144.34C173.25 144.34 173.18 144.32 173.12 144.29C173.06 144.27 173 144.22 172.95 144.17C165.87 136.33 160.51 139.52 160.46 139.55C160.41 139.59 160.34 139.61 160.28 139.62C160.21 139.64 160.15 139.63 160.08 139.62C160.02 139.6 159.96 139.58 159.91 139.54C159.85 139.5 159.81 139.45 159.77 139.39C159.71 139.28 159.69 139.14 159.72 139.01C159.75 138.88 159.83 138.77 159.94 138.7C160.18 138.55 166.06 135.05 173.69 143.5C173.74 143.55 173.78 143.6 173.8 143.66C173.83 143.72 173.84 143.79 173.84 143.86C173.84 143.92 173.83 143.99 173.8 144.05C173.78 144.11 173.74 144.16 173.69 144.21C173.59 144.3 173.46 144.34 173.32 144.34Z" fill="#D1D3D4" fill-opacity="1.000000" fill-rule="nonzero"/>
	<path id="Vector" d="M207.58 44.04L179.35 44.04C179.22 44.04 179.09 43.99 179 43.89C178.9 43.8 178.85 43.67 178.85 43.54C178.85 43.41 178.9 43.28 179 43.19C179.09 43.09 179.22 43.04 179.35 43.04L207.58 43.04C207.72 43.04 207.84 43.09 207.94 43.19C208.03 43.28 208.08 43.41 208.08 43.54C208.08 43.67 208.03 43.8 207.94 43.89C207.84 43.99 207.72 44.04 207.58 44.04Z" fill="#D1D3D4" fill-opacity="1.000000" fill-rule="nonzero"/>
	<path id="Vector" d="M207.58 50.45L179.35 50.45C179.22 50.45 179.09 50.4 179 50.31C178.9 50.21 178.85 50.09 178.85 49.96C178.85 49.82 178.91 49.7 179 49.61C179.09 49.51 179.22 49.46 179.35 49.46L207.58 49.46C207.72 49.46 207.84 49.51 207.94 49.6C208.03 49.7 208.08 49.82 208.08 49.96C208.08 50.09 208.03 50.21 207.94 50.31C207.84 50.4 207.72 50.45 207.58 50.45Z" fill="#D1D3D4" fill-opacity="1.000000" fill-rule="nonzero"/>
	<path id="Vector" d="M207.58 56.88L179.35 56.88C179.22 56.88 179.09 56.82 179 56.73C178.91 56.64 178.85 56.51 178.85 56.38C178.85 56.25 178.9 56.12 179 56.03C179.09 55.93 179.22 55.88 179.35 55.88L207.58 55.88C207.72 55.88 207.84 55.93 207.94 56.03C208.03 56.12 208.08 56.25 208.08 56.38C208.08 56.51 208.03 56.64 207.94 56.73C207.84 56.83 207.72 56.88 207.58 56.88Z" fill="#D1D3D4" fill-opacity="1.000000" fill-rule="nonzero"/>
	<path id="Vector" d="M197.57 63.3L179.35 63.3C179.22 63.3 179.09 63.25 179 63.16C178.9 63.06 178.85 62.94 178.85 62.8C178.85 62.67 178.9 62.55 179 62.45C179.09 62.36 179.22 62.31 179.35 62.31L197.57 62.31C197.7 62.31 197.83 62.36 197.92 62.45C198.02 62.55 198.07 62.67 198.07 62.8C198.07 62.94 198.02 63.06 197.92 63.16C197.83 63.25 197.7 63.3 197.57 63.3Z" fill="#D1D3D4" fill-opacity="1.000000" fill-rule="nonzero"/>
	<path id="Vector" d="M155.17 124.6C155.04 124.59 154.92 124.54 154.82 124.45C154.73 124.35 154.68 124.23 154.67 124.1L154.67 119.98C154.67 119.85 154.73 119.72 154.82 119.62C154.91 119.53 155.04 119.48 155.17 119.48C155.3 119.48 155.43 119.53 155.52 119.62C155.62 119.72 155.67 119.85 155.67 119.98L155.67 124.1C155.67 124.23 155.62 124.36 155.52 124.45C155.43 124.54 155.3 124.6 155.17 124.6Z" fill="#D1D3D4" fill-opacity="1.000000" fill-rule="nonzero"/>
	<path id="Vector" d="M123.56 53.67L83.32 53.67C83.19 53.67 83.06 53.61 82.97 53.52C82.88 53.43 82.83 53.3 82.83 53.17L82.83 29.53C82.83 29.4 82.88 29.28 82.97 29.18C83.07 29.09 83.19 29.04 83.32 29.04C83.46 29.04 83.58 29.09 83.68 29.18C83.77 29.28 83.82 29.4 83.82 29.53L83.82 52.67L123.56 52.67C123.69 52.67 123.82 52.72 123.91 52.81C124.01 52.91 124.06 53.04 124.06 53.17C124.06 53.3 124.01 53.43 123.91 53.52C123.82 53.61 123.69 53.67 123.56 53.67Z" fill="#D1D3D4" fill-opacity="1.000000" fill-rule="nonzero"/>
	<path id="Vector" d="M87.7 50.02C87.65 50.04 87.6 50.04 87.56 50.02C87.43 49.99 87.32 49.9 87.26 49.79C87.2 49.67 87.18 49.53 87.22 49.41C87.33 49.06 89.89 40.84 95.94 39.24C99.31 38.34 100.22 40.03 101.1 41.64C101.97 43.26 102.68 44.58 105.42 44.7L105.6 44.7C111.28 44.7 115.74 32.1 115.78 31.97C115.82 31.84 115.92 31.74 116.04 31.68C116.09 31.65 116.16 31.64 116.22 31.63C116.29 31.63 116.36 31.64 116.42 31.66C116.48 31.68 116.54 31.71 116.59 31.76C116.64 31.8 116.68 31.85 116.7 31.91C116.73 31.97 116.75 32.04 116.75 32.1C116.76 32.17 116.75 32.24 116.73 32.3C116.53 32.86 111.98 45.7 105.59 45.7L105.38 45.7C102.07 45.55 101.05 43.7 100.22 42.12C99.39 40.55 98.8 39.51 96.23 40.2C90.72 41.66 88.26 49.62 88.21 49.7C88.18 49.8 88.11 49.89 88.01 49.95C87.92 50.01 87.81 50.04 87.7 50.02Z" fill="#D1D3D4" fill-opacity="1.000000" fill-rule="nonzero"/>
	<path id="Vector" d="M190.92 126.86C189.19 126.86 187.5 126.35 186.07 125.39C184.63 124.43 183.51 123.06 182.85 121.47C182.19 119.87 182.02 118.11 182.36 116.42C182.69 114.72 183.52 113.16 184.75 111.94C185.97 110.72 187.52 109.89 189.21 109.55C190.91 109.21 192.66 109.39 194.26 110.05C195.85 110.71 197.21 111.83 198.17 113.27C199.13 114.7 199.64 116.39 199.64 118.12C199.64 120.44 198.72 122.66 197.08 124.3C195.45 125.94 193.23 126.86 190.92 126.86ZM190.92 110.38C189.39 110.38 187.89 110.83 186.62 111.69C185.35 112.54 184.36 113.75 183.77 115.16C183.19 116.57 183.04 118.13 183.33 119.63C183.63 121.13 184.37 122.51 185.45 123.6C186.53 124.68 187.91 125.42 189.41 125.71C190.91 126.01 192.46 125.86 193.87 125.27C195.29 124.69 196.49 123.7 197.34 122.42C198.19 121.15 198.65 119.65 198.65 118.12C198.64 116.07 197.83 114.1 196.38 112.65C194.93 111.2 192.97 110.38 190.92 110.38Z" fill="#D1D3D4" fill-opacity="1.000000" fill-rule="nonzero"/>
	<path id="Vector" d="M197.7 123.28C197.6 123.28 197.5 123.25 197.42 123.19L190.64 118.53C190.57 118.49 190.51 118.43 190.47 118.36C190.44 118.28 190.42 118.2 190.42 118.12L190.42 109.88C190.42 109.75 190.47 109.62 190.57 109.53C190.66 109.44 190.78 109.39 190.92 109.38C191.05 109.38 191.18 109.44 191.27 109.53C191.36 109.62 191.41 109.75 191.41 109.88L191.41 117.86L197.99 122.37C198.08 122.43 198.14 122.52 198.18 122.62C198.21 122.72 198.21 122.83 198.18 122.93C198.15 123.03 198.08 123.12 198 123.18C197.91 123.25 197.81 123.28 197.7 123.28Z" fill="#D1D3D4" fill-opacity="1.000000" fill-rule="nonzero"/>
	<path id="Vector" d="M183.21 120.38C183.09 120.38 182.98 120.34 182.89 120.27C182.8 120.2 182.74 120.1 182.72 119.99C182.7 119.92 182.7 119.86 182.71 119.79C182.72 119.73 182.75 119.67 182.78 119.61C182.82 119.56 182.86 119.51 182.92 119.47C182.97 119.44 183.03 119.41 183.1 119.4L190.81 117.63C190.87 117.62 190.94 117.62 191.01 117.63C191.07 117.64 191.13 117.67 191.19 117.7C191.25 117.74 191.3 117.79 191.33 117.84C191.37 117.9 191.4 117.96 191.41 118.02C191.43 118.09 191.43 118.16 191.42 118.22C191.41 118.29 191.38 118.35 191.35 118.41C191.31 118.46 191.26 118.51 191.21 118.55C191.15 118.59 191.09 118.62 191.03 118.63L183.32 120.39L183.21 120.38Z" fill="#D1D3D4" fill-opacity="1.000000" fill-rule="nonzero"/>
	<path id="Vector" d="M112.84 119.5L101.07 119.5C100.93 119.5 100.81 119.45 100.71 119.35C100.62 119.26 100.57 119.13 100.57 119C100.57 118.87 100.62 118.74 100.71 118.65C100.81 118.55 100.93 118.5 101.07 118.5L112.84 118.5C112.97 118.5 113.1 118.55 113.19 118.65C113.29 118.74 113.34 118.87 113.34 119C113.34 119.13 113.29 119.26 113.19 119.35C113.1 119.45 112.97 119.5 112.84 119.5Z" fill="#D1D3D4" fill-opacity="1.000000" fill-rule="nonzero"/>
	<path id="Vector" d="M108.55 124.6L101.07 124.6C100.93 124.6 100.81 124.54 100.71 124.45C100.62 124.36 100.57 124.23 100.57 124.1C100.57 123.97 100.62 123.84 100.71 123.75C100.81 123.65 100.93 123.6 101.07 123.6L108.55 123.6C108.68 123.6 108.81 123.65 108.9 123.75C108.99 123.84 109.05 123.97 109.05 124.1C109.04 124.23 108.99 124.36 108.9 124.45C108.8 124.54 108.68 124.59 108.55 124.6Z" fill="#D1D3D4" fill-opacity="1.000000" fill-rule="nonzero"/>
	<path id="Vector" d="M227.99 53.23C227.37 52.77 226.88 52.17 226.57 51.47C226.26 50.77 226.14 50 226.22 49.24C225.44 49.41 224.63 49.32 223.91 48.98C223.19 48.64 222.6 48.07 222.24 47.36C221.54 45.91 221.35 44.26 221.69 42.68C220.48 42.09 219.46 41.16 218.78 40C218.09 38.84 217.76 37.5 217.82 36.16C217.88 34.81 218.34 33.51 219.14 32.42C219.94 31.33 221.03 30.5 222.3 30.03C222.08 29.94 221.89 29.79 221.75 29.6C221.6 29.42 221.5 29.2 221.46 28.97C220.56 25.97 222.34 22.62 225.07 21.13C226.47 20.45 227.99 20.07 229.55 20.03C231.11 19.98 232.66 20.27 234.09 20.87C234.01 20.47 234.05 20.06 234.19 19.68C234.33 19.3 234.58 18.97 234.91 18.73C235.57 18.26 236.32 17.95 237.12 17.81C241.13 16.94 245.3 17.25 249.14 18.68C250.96 19.37 252.96 20.76 252.81 22.67C254 22.47 255.23 22.63 256.32 23.14C257.42 23.65 258.34 24.47 258.96 25.51C259.57 26.56 259.86 27.76 259.78 28.97C259.7 30.17 259.26 31.33 258.51 32.28C259.41 33.14 260.06 34.23 260.39 35.43C260.72 36.63 260.73 37.9 260.4 39.1C260.07 40.31 259.43 41.4 258.54 42.26C257.64 43.13 256.53 43.74 255.32 44.03C255.45 43.58 256.14 43.98 256.32 44.41C257.5 47.4 255.32 50.9 252.54 52.58C249.76 54.26 245.72 54.57 243.4 52.24C243.41 53.01 243.16 53.77 242.69 54.38C242.22 55 241.56 55.43 240.81 55.62C239.3 55.96 237.72 55.92 236.23 55.49C234.74 55.18 233.41 54.37 231.96 54.05C230.52 53.72 229.29 54.17 227.99 53.23Z" fill="#FFFFFF" fill-opacity="1.000000" fill-rule="nonzero"/>
	<path id="Vector" d="M239.03 56.32C238.04 56.29 237.06 56.17 236.1 55.94C235.3 55.75 234.53 55.49 233.78 55.17C233.14 54.9 232.47 54.67 231.79 54.49C231.35 54.41 230.9 54.36 230.45 54.35C229.48 54.41 228.52 54.15 227.71 53.63C227.11 53.18 226.62 52.61 226.27 51.95C225.93 51.29 225.74 50.56 225.71 49.82C224.92 49.85 224.12 49.66 223.43 49.26C222.74 48.87 222.17 48.28 221.8 47.57C221.08 46.14 220.84 44.51 221.13 42.93C219.95 42.29 218.98 41.33 218.3 40.17C217.63 39.01 217.28 37.68 217.3 36.34C217.32 35 217.71 33.68 218.42 32.54C219.14 31.4 220.14 30.48 221.34 29.87C221.18 29.63 221.05 29.36 220.97 29.08C220.06 26.08 221.74 22.35 224.82 20.67C226.16 19.99 227.62 19.6 229.12 19.5C230.62 19.41 232.12 19.62 233.53 20.12C233.66 19.41 234.03 18.77 234.58 18.31C235.3 17.79 236.13 17.45 237 17.31C241.1 16.42 245.37 16.73 249.3 18.19C251.66 19.08 253.1 20.53 253.28 22.13C254.49 22.05 255.71 22.3 256.78 22.87C257.85 23.44 258.75 24.3 259.36 25.35C259.97 26.41 260.27 27.61 260.23 28.83C260.19 30.04 259.81 31.23 259.14 32.24C259.94 33.11 260.53 34.16 260.85 35.3C261.16 36.44 261.2 37.64 260.96 38.8C260.72 39.96 260.21 41.05 259.46 41.97C258.72 42.89 257.76 43.61 256.68 44.09C256.7 44.14 256.73 44.19 256.75 44.24C258.06 47.6 255.68 51.27 252.76 53.01C250.13 54.58 246.38 55.08 243.8 53.26C243.59 53.94 243.22 54.55 242.72 55.05C242.22 55.55 241.6 55.91 240.92 56.11C240.3 56.27 239.67 56.35 239.03 56.32ZM226.22 48.67C226.34 48.66 226.45 48.7 226.53 48.78C226.6 48.83 226.65 48.9 226.68 48.98C226.71 49.05 226.72 49.13 226.71 49.22C226.64 49.9 226.75 50.58 227.02 51.21C227.3 51.83 227.73 52.37 228.27 52.78C228.94 53.21 229.72 53.41 230.51 53.36C231.02 53.36 231.54 53.42 232.04 53.53C232.76 53.71 233.47 53.95 234.15 54.25C234.84 54.55 235.56 54.79 236.29 54.96C237.7 55.37 239.19 55.41 240.62 55.1C241.24 54.95 241.8 54.6 242.21 54.1C242.61 53.6 242.84 52.97 242.86 52.33C242.85 52.23 242.87 52.12 242.92 52.03C242.97 51.94 243.05 51.87 243.14 51.82C243.23 51.78 243.34 51.76 243.44 51.78C243.54 51.8 243.63 51.85 243.71 51.92C245.91 54.13 249.68 53.72 252.25 52.18C254.82 50.64 256.89 47.37 255.81 44.62C255.78 44.56 255.75 44.51 255.7 44.47L255.41 44.55C255.33 44.57 255.24 44.57 255.15 44.54C255.07 44.52 254.99 44.47 254.93 44.41C254.87 44.34 254.83 44.27 254.81 44.18C254.79 44.09 254.79 44 254.81 43.92C254.86 43.76 254.95 43.63 255.07 43.53C255.2 43.43 255.35 43.37 255.51 43.36C255.6 43.35 255.69 43.35 255.78 43.36C256.76 43 257.65 42.42 258.36 41.65C259.08 40.89 259.6 39.97 259.9 38.96C260.18 37.84 260.17 36.67 259.86 35.56C259.55 34.45 258.95 33.44 258.13 32.63C258.04 32.54 257.99 32.42 257.98 32.3C257.98 32.18 258.01 32.06 258.08 31.96C258.75 31.08 259.15 30.03 259.21 28.93C259.28 27.83 259.01 26.73 258.45 25.79C257.89 24.84 257.06 24.08 256.06 23.61C255.06 23.14 253.95 22.99 252.86 23.16C252.79 23.17 252.71 23.16 252.64 23.14C252.57 23.12 252.5 23.08 252.45 23.03C252.39 22.98 252.35 22.92 252.32 22.85C252.29 22.78 252.28 22.71 252.28 22.63C252.4 21.01 250.63 19.75 248.93 19.11C245.18 17.71 241.11 17.42 237.2 18.26C236.48 18.38 235.8 18.66 235.21 19.08C234.96 19.26 234.77 19.51 234.66 19.79C234.55 20.08 234.51 20.38 234.56 20.69C234.59 20.77 234.59 20.87 234.56 20.96C234.54 21.04 234.49 21.12 234.42 21.18C234.35 21.25 234.27 21.29 234.18 21.31C234.09 21.33 234 21.32 233.91 21.29C232.54 20.72 231.07 20.44 229.58 20.48C228.09 20.52 226.63 20.87 225.3 21.52C222.62 22.99 221.14 26.18 221.93 28.78C222 29.02 222.17 29.43 222.43 29.51C222.53 29.54 222.62 29.6 222.68 29.69C222.74 29.77 222.78 29.87 222.79 29.97C222.79 30.08 222.76 30.18 222.7 30.27C222.64 30.36 222.55 30.42 222.46 30.46C221.29 30.9 220.27 31.67 219.53 32.68C218.79 33.69 218.37 34.89 218.31 36.14C218.25 37.39 218.56 38.63 219.2 39.71C219.83 40.78 220.77 41.65 221.9 42.19C222 42.24 222.08 42.32 222.13 42.41C222.17 42.51 222.19 42.62 222.17 42.72C221.84 44.19 222.02 45.73 222.67 47.08C222.98 47.69 223.48 48.18 224.1 48.48C224.72 48.78 225.41 48.86 226.08 48.72C226.13 48.71 226.18 48.7 226.22 48.71L226.22 48.67Z" fill="#000000" fill-opacity="1.000000" fill-rule="nonzero"/>
	<path id="Vector" d="M221.94 64.96C221.94 64.96 204.92 95.53 202.64 100.87C200.36 106.22 210.46 118.64 214.37 115.63C218.27 112.62 221.94 64.96 221.94 64.96Z" fill="#72B0F9" fill-opacity="1.000000" fill-rule="nonzero"/>
	<path id="Vector" d="M254.55 224.38C254.55 224.38 255.21 228.87 254.21 230.59C252.84 233.04 252.04 235.77 251.86 238.57C252.65 239.49 253.63 240.23 254.73 240.75C255.82 241.27 257.02 241.54 258.23 241.57C262.27 241.57 266.29 238.45 266.74 236.96C267.19 235.46 263.49 219.57 263.49 219.57L254.55 224.38Z" fill="#FFFFFF" fill-opacity="1.000000" fill-rule="nonzero"/>
	<path id="Vector" d="M258.23 242C256.95 241.98 255.68 241.68 254.52 241.14C253.36 240.59 252.33 239.8 251.5 238.82C251.46 238.78 251.43 238.72 251.42 238.67C251.4 238.61 251.4 238.55 251.41 238.49C251.59 235.64 252.41 232.86 253.82 230.36C254.58 229.07 254.28 225.64 254.1 224.45C254.08 224.35 254.09 224.26 254.13 224.18C254.18 224.09 254.24 224.02 254.33 223.98L263.29 219.14C263.35 219.11 263.43 219.09 263.5 219.09C263.57 219.09 263.64 219.11 263.7 219.14C263.76 219.17 263.82 219.21 263.86 219.27C263.91 219.32 263.94 219.38 263.96 219.45C264.58 222.13 267.66 235.54 267.2 237.08C266.74 238.61 262.48 242 258.23 242ZM252.33 238.39C253.08 239.22 253.99 239.88 255.01 240.34C256.02 240.81 257.12 241.06 258.23 241.08C262.09 241.08 265.93 238.08 266.3 236.8C266.56 235.92 264.92 227.72 263.18 220.22L255.03 224.63C255.17 225.71 255.52 229.24 254.6 230.82C253.29 233.15 252.52 235.73 252.33 238.39Z" fill="#000000" fill-opacity="1.000000" fill-rule="nonzero"/>
	<path id="Vector" d="M226.81 115.43L246.21 120.96L250.7 63.23C250.7 63.23 234.64 59.31 230.78 61.16C226.91 63 226.81 115.43 226.81 115.43Z" fill="#000000" fill-opacity="1.000000" fill-rule="nonzero"/>
	<path id="Vector" d="M246.21 121.45L246.07 121.45L226.71 115.91C226.61 115.88 226.51 115.82 226.45 115.73C226.38 115.64 226.34 115.54 226.34 115.43C226.34 106.62 226.62 62.56 230.58 60.71C234.53 58.86 250.18 62.58 250.85 62.7C250.96 62.73 251.06 62.8 251.13 62.9C251.2 63 251.24 63.11 251.23 63.23L246.74 120.96C246.73 121.03 246.71 121.1 246.67 121.16C246.63 121.23 246.59 121.28 246.53 121.32C246.44 121.4 246.32 121.45 246.21 121.45ZM227.28 115.05L245.73 120.31L250.14 63.61C245.42 62.5 233.9 60.2 230.94 61.62C228.7 62.71 227.36 89.89 227.31 115.05L227.28 115.05Z" fill="#000000" fill-opacity="1.000000" fill-rule="nonzero"/>
	<path id="Vector" d="M233.28 213.99L233.28 227.5L227.01 229.35L227.16 226.58L224.33 229.51C224.33 229.51 207.49 232.62 207.58 230.3C207.67 227.99 209.38 226.73 211.5 225.59C213.78 224.35 219.78 220.87 219.78 220.87L220.67 210.96L233.28 213.99Z" fill="#FFFFFF" fill-opacity="1.000000" fill-rule="nonzero"/>
	<path id="Vector" d="M210.7 231.6C209.59 231.72 208.46 231.52 207.46 231.02C207.35 230.94 207.27 230.82 207.21 230.7C207.15 230.57 207.12 230.43 207.12 230.29C207.22 227.73 209.19 226.3 211.28 225.19C213.37 224.07 218.25 221.2 219.35 220.59L220.22 210.91C220.23 210.79 220.29 210.68 220.38 210.61C220.48 210.53 220.59 210.49 220.71 210.5C220.77 210.51 220.83 210.52 220.88 210.55C220.94 210.58 220.99 210.62 221.02 210.66C221.06 210.71 221.09 210.76 221.11 210.82C221.12 210.88 221.13 210.94 221.12 211L220.24 220.93C220.23 221 220.2 221.07 220.16 221.13C220.12 221.19 220.07 221.24 220.01 221.28C219.95 221.28 214.03 224.78 211.72 226C209.41 227.23 208.11 228.36 208.04 230.34C208.52 231.18 215.86 230.61 224.1 229.1L226.83 226.28C226.9 226.22 226.98 226.17 227.07 226.16C227.17 226.14 227.26 226.15 227.35 226.18C227.43 226.22 227.5 226.28 227.55 226.36C227.6 226.44 227.62 226.53 227.62 226.62L227.5 228.75L232.83 227.18L232.83 214.01C232.83 213.95 232.84 213.89 232.86 213.84C232.88 213.78 232.91 213.73 232.96 213.69C233 213.65 233.05 213.61 233.1 213.59C233.16 213.57 233.22 213.55 233.28 213.55C233.4 213.55 233.51 213.6 233.6 213.69C233.69 213.77 233.73 213.89 233.73 214.01L233.73 227.52C233.74 227.62 233.7 227.72 233.64 227.8C233.58 227.88 233.5 227.93 233.41 227.96L227.14 229.81C227.07 229.82 227 229.83 226.93 229.81C226.85 229.8 226.79 229.77 226.73 229.72C226.67 229.68 226.63 229.62 226.6 229.56C226.57 229.49 226.56 229.42 226.56 229.35L226.64 227.79L224.65 229.83C224.58 229.9 224.49 229.95 224.4 229.96C219.88 230.84 215.3 231.39 210.7 231.6Z" fill="#000000" fill-opacity="1.000000" fill-rule="nonzero"/>
	<path id="Vector" d="M263.36 120.88L268.55 223.45C268.55 223.45 268.05 227.2 260.14 227.67C252.23 228.14 253.03 226.22 253.03 226.22L240.66 150.98L235.59 217.82L218.55 218.93L221.94 113.58L263.36 120.88Z" fill="#000000" fill-opacity="1.000000" fill-rule="nonzero"/>
	<path id="Vector" d="M257.82 228.24C254.97 228.24 253.29 227.83 252.71 227.01C252.54 226.78 252.46 226.49 252.5 226.2L240.87 155.17L236.12 217.85C236.11 217.97 236.05 218.09 235.97 218.17C235.88 218.26 235.77 218.31 235.65 218.31L218.58 219.4C218.51 219.41 218.44 219.39 218.38 219.37C218.31 219.35 218.25 219.31 218.2 219.26C218.15 219.21 218.11 219.16 218.09 219.09C218.06 219.03 218.05 218.96 218.05 218.89L221.44 113.54C221.44 113.47 221.46 113.4 221.49 113.34C221.52 113.27 221.57 113.21 221.62 113.17C221.68 113.12 221.75 113.09 221.81 113.07C221.88 113.05 221.96 113.05 222.03 113.06L263.45 120.39C263.56 120.41 263.67 120.46 263.74 120.55C263.81 120.63 263.86 120.74 263.86 120.86L269.02 223.43C269.02 223.69 268.37 227.68 260.15 228.16C259.31 228.21 258.53 228.24 257.82 228.24ZM253.49 226.4L253.58 226.49C253.89 226.79 255.14 227.49 260.09 227.17C267.42 226.74 268.06 223.42 268.06 223.38L262.91 121.29L222.42 114.18L219.06 218.4L235.15 217.4L240.19 151C240.2 150.88 240.26 150.77 240.34 150.69C240.43 150.6 240.55 150.55 240.67 150.54C240.79 150.54 240.91 150.58 241 150.65C241.09 150.73 241.16 150.83 241.18 150.95L253.51 226.19C253.53 226.29 253.53 226.38 253.51 226.47L253.49 226.4Z" fill="#000000" fill-opacity="1.000000" fill-rule="nonzero"/>
	<path id="Vector" d="M247.2 57.72C247.2 57.72 240.56 127.38 243.54 131.37C246.52 135.36 264.9 138.52 266.27 130.78C268.53 118.05 267.27 72.32 264.62 68.02C253.92 58.5 247.2 57.72 247.2 57.72Z" fill="#72B0F9" fill-opacity="1.000000" fill-rule="nonzero"/>
	<path id="Vector" d="M221.94 64.96C221.94 64.96 212.43 128.23 214.23 130.06C216.02 131.9 225.76 134.38 228.45 132.54C231.14 130.69 234.82 58.05 234.82 58.05C229.97 59.12 225.51 61.51 221.94 64.96Z" fill="#72B0F9" fill-opacity="1.000000" fill-rule="nonzero"/>
	<path id="Vector" d="M235.34 56.79L234.52 63.54C234.96 64.88 235.9 66 237.13 66.67C238.36 67.35 239.8 67.54 241.17 67.19C246.31 66.11 246.37 63.12 246.37 63.12C246.37 63.12 247.06 47.9 247.06 47.86C246.94 47.51 246.77 47.17 246.57 46.86C245.8 45.13 244.7 42.74 245.03 40.82C245.31 39.23 246.1 37.78 247.28 36.69C246.67 36.96 246.01 37.09 245.34 37.06C244.68 37.03 244.03 36.85 243.44 36.53C242.86 36.21 242.35 35.76 241.97 35.21C241.59 34.66 241.34 34.04 241.24 33.37C241.24 34.06 240.63 34.57 240.05 34.95C239.2 35.62 238.14 35.97 237.06 35.95C235.65 35.79 234.59 34.58 233.27 34.06C233.47 34.52 233.51 35.03 233.36 35.51C233.22 35.99 232.91 36.4 232.49 36.67C231.62 37.18 230.59 37.33 229.62 37.09C230.27 37.22 229.72 44.43 229.71 45.07C229.62 47.3 229.67 49.54 229.87 51.77C230.35 55.75 235.34 56.79 235.34 56.79Z" fill="#FFFFFF" fill-opacity="1.000000" fill-rule="nonzero"/>
	<path id="Vector" d="M239.66 67.85C235.39 67.85 234.03 63.74 234.02 63.69C234.01 63.62 234.01 63.55 234.02 63.48L234.78 57.17C233.48 56.79 229.8 55.41 229.36 51.72C229.17 49.64 229.11 47.55 229.19 45.47L229.19 44.95C229.19 44.85 229.19 44.57 229.19 44.17C229.48 39.33 229.39 37.81 229.25 37.42C229.18 37.36 229.12 37.28 229.09 37.2C229.06 37.11 229.05 37.02 229.07 36.93C229.08 36.86 229.11 36.8 229.14 36.75C229.18 36.69 229.22 36.64 229.28 36.61C229.33 36.57 229.39 36.55 229.46 36.53C229.52 36.52 229.59 36.52 229.65 36.54C230.5 36.74 231.39 36.62 232.15 36.2C232.47 35.99 232.71 35.68 232.83 35.31C232.94 34.95 232.92 34.55 232.77 34.2C232.72 34.11 232.7 34.01 232.71 33.91C232.72 33.8 232.76 33.71 232.83 33.63C232.89 33.55 232.98 33.5 233.08 33.47C233.18 33.45 233.29 33.46 233.39 33.49C233.95 33.74 234.48 34.04 234.98 34.39C235.59 34.88 236.3 35.22 237.06 35.39C238.02 35.4 238.96 35.09 239.72 34.5C240.37 34.08 240.72 33.7 240.72 33.35C240.72 33.22 240.77 33.1 240.86 33C240.94 32.91 241.06 32.86 241.19 32.85C241.31 32.83 241.44 32.87 241.53 32.95C241.63 33.03 241.7 33.14 241.71 33.27C241.79 33.85 242.01 34.42 242.35 34.91C242.68 35.4 243.12 35.81 243.64 36.1C244.16 36.39 244.74 36.55 245.33 36.58C245.93 36.61 246.52 36.5 247.06 36.26C247.17 36.21 247.29 36.2 247.41 36.23C247.52 36.26 247.62 36.34 247.68 36.44C247.75 36.54 247.77 36.65 247.76 36.77C247.74 36.89 247.69 37 247.6 37.08C246.49 38.09 245.75 39.44 245.5 40.93C245.21 42.63 246.2 44.92 246.91 46.49L247 46.68C247.04 46.77 247.09 46.86 247.14 46.94C247.36 47.24 247.5 47.58 247.54 47.94C247.54 47.94 247.54 47.94 246.84 63.23C246.84 63.36 246.71 66.63 241.25 67.76C240.72 67.85 240.19 67.88 239.66 67.85ZM235 63.48C235.4 64.68 236.25 65.67 237.35 66.27C238.46 66.87 239.76 67.02 240.98 66.71C245.62 65.71 245.78 63.21 245.79 63.1C245.8 62.99 246.48 48.06 246.49 47.84C246.49 47.84 246.32 47.54 246.24 47.4C246.16 47.28 246.09 47.16 246.03 47.03L245.95 46.85C245.18 45.1 244.12 42.71 244.46 40.71C244.65 39.56 245.11 38.46 245.79 37.52C244.86 37.57 243.94 37.37 243.12 36.94C242.21 36.42 241.49 35.64 241.06 34.69C240.81 34.94 240.54 35.16 240.24 35.34C239.28 36.04 238.12 36.39 236.93 36.34C236.02 36.17 235.16 35.79 234.42 35.22L233.88 34.87C233.85 35.29 233.73 35.69 233.53 36.06C233.32 36.42 233.03 36.73 232.69 36.97C231.97 37.43 231.12 37.64 230.28 37.56C230.41 39.77 230.37 41.98 230.17 44.18C230.17 44.56 230.17 44.82 230.17 44.92L230.17 45.43C230.09 47.47 230.15 49.52 230.34 51.56C230.77 55.24 235.32 56.24 235.41 56.25C235.53 56.28 235.63 56.35 235.71 56.45C235.78 56.55 235.81 56.68 235.8 56.8L235 63.48Z" fill="#000000" fill-opacity="1.000000" fill-rule="nonzero"/>
	<path id="Vector" d="M234.4 44.4C234.4 44.4 231.41 48.3 232.04 49.06C232.67 49.82 234.43 49.48 234.43 49.48L234.4 44.4Z" fill="#FFFFFF" fill-opacity="1.000000" fill-rule="nonzero"/>
	<path id="Vector" d="M233.55 50.05C233.21 50.07 232.87 50.02 232.55 49.9C232.22 49.78 231.93 49.58 231.69 49.34C231.01 48.46 232.61 46 234.05 44.08C234.13 43.97 234.25 43.9 234.38 43.89C234.51 43.87 234.64 43.9 234.75 43.98C234.8 44.02 234.85 44.07 234.88 44.12C234.92 44.18 234.94 44.24 234.95 44.31C234.96 44.37 234.95 44.44 234.94 44.5C234.92 44.57 234.89 44.63 234.85 44.68C233.52 46.44 232.43 48.36 232.51 48.79C232.75 49.08 233.77 49.08 234.38 48.97C234.45 48.96 234.51 48.95 234.58 48.97C234.64 48.98 234.7 49 234.76 49.04C234.81 49.08 234.86 49.12 234.89 49.18C234.93 49.23 234.96 49.29 234.97 49.36C234.98 49.42 234.98 49.49 234.97 49.55C234.96 49.62 234.93 49.68 234.89 49.74C234.86 49.79 234.81 49.84 234.75 49.87C234.7 49.91 234.64 49.93 234.57 49.95C234.24 50.01 233.9 50.04 233.55 50.05Z" fill="#000000" fill-opacity="1.000000" fill-rule="nonzero"/>
	<path id="Vector" d="M235.34 56.79C235.34 56.79 239.32 56.79 241.15 55.71C241.15 55.71 239.59 60.37 235.29 61.52L235.34 56.79Z" fill="#000000" fill-opacity="1.000000" fill-rule="nonzero"/>
	<path id="Vector" d="M235.29 62.02C235.18 62.02 235.07 61.98 234.98 61.92C234.92 61.87 234.87 61.81 234.84 61.74C234.8 61.67 234.79 61.59 234.79 61.52L234.84 56.79C234.84 56.66 234.89 56.53 234.99 56.44C235.08 56.34 235.21 56.29 235.34 56.29C235.55 56.29 239.21 56.29 240.89 55.29C240.97 55.23 241.07 55.2 241.17 55.2C241.27 55.2 241.37 55.23 241.45 55.29C241.53 55.36 241.59 55.45 241.62 55.54C241.65 55.64 241.64 55.74 241.61 55.84C241.54 56.04 239.92 60.76 235.41 61.98L235.29 62.02ZM235.83 57.29L235.83 60.84C237.74 60.02 239.3 58.54 240.22 56.67C238.79 57.07 237.31 57.28 235.83 57.32L235.83 57.29Z" fill="#000000" fill-opacity="1.000000" fill-rule="nonzero"/>
	<path id="Vector" d="M268.65 114.02L268.6 114.02C267.95 113.94 252.81 112.19 248 109.48C247.94 109.45 247.89 109.41 247.85 109.36C247.81 109.31 247.78 109.25 247.76 109.18C247.74 109.12 247.74 109.06 247.75 108.99C247.76 108.92 247.78 108.86 247.81 108.81C247.88 108.69 247.99 108.61 248.11 108.57C248.24 108.54 248.37 108.55 248.49 108.62C253.12 111.22 268.56 113 268.71 113.02C268.84 113.03 268.97 113.09 269.06 113.19C269.14 113.29 269.19 113.42 269.18 113.55C269.17 113.69 269.11 113.81 269.01 113.9C268.91 113.99 268.78 114.03 268.65 114.02Z" fill="#000000" fill-opacity="1.000000" fill-rule="nonzero"/>
	<path id="Vector" d="M264.62 68.02C264.62 68.02 294.66 110.92 281.79 122.01C270 132.16 243.94 115.31 243.94 115.31L245.51 101.06C245.51 101.06 266.14 112.57 266.48 107.21C266.97 99.33 256.86 88.56 256.86 88.56C255.95 86.82 255.4 84.91 255.24 82.95C255.08 80.98 255.32 79.01 255.94 77.14C256.53 75.02 257.63 73.09 259.14 71.5C260.65 69.91 262.53 68.71 264.62 68.02Z" fill="#72B0F9" fill-opacity="1.000000" fill-rule="nonzero"/>
	<path id="Vector" d="M217.74 102.6C217.68 102.59 217.62 102.57 217.56 102.53C217.51 102.5 217.46 102.45 217.42 102.4C217.38 102.35 217.35 102.29 217.33 102.23C217.32 102.16 217.32 102.1 217.33 102.03C218.25 95.81 222.71 72.03 222.76 71.79C222.78 71.66 222.86 71.55 222.96 71.48C223.07 71.4 223.2 71.37 223.33 71.39C223.46 71.42 223.58 71.5 223.65 71.61C223.73 71.72 223.76 71.85 223.73 71.98C223.68 72.22 219.23 95.93 218.31 102.18C218.29 102.31 218.22 102.43 218.11 102.5C218.01 102.58 217.88 102.62 217.74 102.6Z" fill="#000000" fill-opacity="1.000000" fill-rule="nonzero"/>
	<path id="Vector" d="M213.55 121.4L243.51 121.4C244.07 121.39 244.61 121.26 245.11 121.01C245.61 120.76 246.05 120.41 246.4 119.97C246.74 119.53 246.99 119.02 247.11 118.47C247.23 117.93 247.23 117.36 247.11 116.82L240.75 85.98C240.57 85.09 240.09 84.3 239.4 83.72C238.7 83.14 237.83 82.82 236.93 82.8L207.41 82.8C206.82 82.81 206.24 82.95 205.71 83.21C205.18 83.47 204.71 83.85 204.35 84.32C203.98 84.78 203.72 85.32 203.59 85.9C203.46 86.48 203.46 87.08 203.59 87.66L209.94 118.39C210.11 119.23 210.55 119.99 211.21 120.54C211.87 121.09 212.69 121.4 213.55 121.4Z" fill="#FFFFFF" fill-opacity="1.000000" fill-rule="nonzero"/>
	<path id="Vector" d="M243.51 121.85L213.55 121.85C212.59 121.84 211.67 121.5 210.93 120.89C210.19 120.27 209.68 119.42 209.5 118.48L203.15 87.75C203.01 87.08 203.02 86.4 203.18 85.74C203.34 85.08 203.64 84.47 204.07 83.94C204.47 83.44 204.98 83.04 205.56 82.76C206.14 82.48 206.77 82.34 207.41 82.34L236.93 82.34C237.94 82.35 238.91 82.71 239.69 83.36C240.47 84.01 241 84.9 241.2 85.89L247.56 116.72C247.7 117.34 247.69 118 247.54 118.62C247.39 119.24 247.1 119.83 246.69 120.33C246.31 120.8 245.82 121.19 245.27 121.45C244.72 121.71 244.12 121.85 243.51 121.85ZM207.41 83.26C206.91 83.26 206.41 83.37 205.95 83.59C205.49 83.81 205.09 84.13 204.77 84.52C204.44 84.94 204.2 85.42 204.07 85.94C203.95 86.45 203.93 86.99 204.04 87.52L210.39 118.26C210.54 119 210.93 119.66 211.5 120.14C212.08 120.63 212.8 120.89 213.55 120.91L243.51 120.91C243.98 120.9 244.45 120.79 244.88 120.59C245.31 120.38 245.69 120.08 245.99 119.71C246.31 119.32 246.54 118.86 246.65 118.37C246.77 117.87 246.78 117.36 246.68 116.87L240.3 86.03C240.14 85.25 239.73 84.54 239.11 84.03C238.5 83.51 237.73 83.23 236.93 83.22L207.41 83.26Z" fill="#000000" fill-opacity="1.000000" fill-rule="nonzero"/>
	<path id="Vector" d="M249.67 105.92C249.85 104.84 249.76 103.74 249.43 102.7C249.11 102 248.66 101.37 248.11 100.82C247.17 99.83 246.18 98.89 245.12 98.02C244.12 97.24 243 96.48 241.8 96.74C242.17 98.53 243.18 100.12 244.64 101.21C244.17 100.64 243.53 100.22 242.82 100.01C242.34 99.86 241.69 99.88 241.49 100.35C241.45 100.51 241.43 100.67 241.45 100.83C241.47 100.99 241.52 101.14 241.6 101.28C242.16 102.52 243.02 103.59 244.09 104.42L242.94 103.68C242.64 103.46 242.3 103.31 241.94 103.25C241.77 103.22 241.58 103.25 241.42 103.33C241.26 103.41 241.14 103.55 241.06 103.71C240.98 103.98 241.01 104.26 241.14 104.52C241.44 105.23 241.93 105.85 242.57 106.3C242.15 105.94 241.65 105.7 241.12 105.59C240.84 105.55 240.57 105.61 240.34 105.76C240.1 105.9 239.93 106.13 239.85 106.39C239.82 106.69 239.88 106.99 240.03 107.26C240.89 108.96 242.93 109.15 243.93 110.59C244.67 111.66 244.32 112.81 245.84 113.45C249.62 115.02 249.46 108.2 249.67 105.92Z" fill="#FFFFFF" fill-opacity="1.000000" fill-rule="nonzero"/>
	<path id="Vector" d="M246.93 114.18C246.51 114.18 246.09 114.08 245.7 113.9C245.28 113.73 244.9 113.46 244.61 113.11C244.32 112.77 244.11 112.35 244.02 111.91C243.91 111.56 243.76 111.22 243.57 110.91C243.12 110.37 242.56 109.92 241.92 109.61C240.97 109.16 240.18 108.43 239.64 107.53C239.43 107.17 239.35 106.74 239.41 106.33C239.5 106 239.69 105.7 239.96 105.48C240.23 105.27 240.56 105.15 240.91 105.13C240.84 105.01 240.78 104.88 240.73 104.75C240.55 104.38 240.52 103.96 240.64 103.57C240.74 103.33 240.91 103.13 241.13 102.99C241.35 102.85 241.6 102.77 241.86 102.78C241.6 102.38 241.37 101.96 241.18 101.52C241.06 101.32 240.99 101.1 240.97 100.87C240.95 100.64 240.98 100.41 241.06 100.2C241.17 99.96 241.36 99.76 241.59 99.63C241.81 99.5 242.08 99.44 242.34 99.47C241.87 98.68 241.53 97.82 241.35 96.91C241.32 96.85 241.3 96.78 241.3 96.71C241.3 96.64 241.32 96.57 241.35 96.5C241.38 96.44 241.42 96.38 241.47 96.33C241.52 96.28 241.59 96.25 241.65 96.23C243.08 95.93 244.39 96.8 245.38 97.6C246.46 98.48 247.48 99.43 248.43 100.46C249.02 101.03 249.5 101.7 249.85 102.45C250.22 103.56 250.31 104.74 250.12 105.89C250.12 106.18 250.12 106.54 250.05 106.95C249.93 109.24 249.73 112.71 248.06 113.77C247.73 114.02 247.34 114.16 246.93 114.18ZM241.04 106.07C240.9 106.06 240.77 106.1 240.65 106.17C240.53 106.24 240.44 106.35 240.39 106.47C240.38 106.67 240.43 106.86 240.53 107.03C240.98 107.76 241.64 108.34 242.42 108.71C243.2 109.08 243.88 109.62 244.41 110.29C244.67 110.68 244.87 111.12 244.99 111.57C245.04 111.88 245.17 112.18 245.37 112.43C245.56 112.68 245.82 112.87 246.12 112.99C246.34 113.11 246.59 113.17 246.84 113.17C247.09 113.17 247.34 113.11 247.56 112.99C248.84 112.19 249.03 108.79 249.14 107C249.14 106.57 249.14 106.19 249.21 105.9C249.37 104.9 249.3 103.88 249 102.91C248.7 102.26 248.28 101.68 247.77 101.18C246.84 100.2 245.84 99.28 244.78 98.43C244.13 97.81 243.31 97.38 242.42 97.21C242.74 98.26 243.3 99.23 244.06 100.03C244.43 100.25 244.77 100.54 245.05 100.87C245.13 100.97 245.18 101.08 245.18 101.21C245.18 101.33 245.13 101.45 245.05 101.54C244.97 101.63 244.86 101.69 244.73 101.7C244.61 101.71 244.49 101.68 244.39 101.6C244.06 101.36 243.75 101.09 243.46 100.8C243.22 100.66 242.97 100.55 242.71 100.47C242.39 100.38 242.04 100.41 241.99 100.54C241.96 100.72 242 100.91 242.1 101.06C242.62 102.23 243.42 103.24 244.43 104.01C244.49 104.04 244.53 104.09 244.56 104.14C244.6 104.2 244.62 104.26 244.63 104.32C244.64 104.39 244.64 104.45 244.62 104.51C244.61 104.58 244.58 104.63 244.54 104.68C244.47 104.79 244.36 104.87 244.23 104.89C244.11 104.92 243.97 104.89 243.87 104.82L242.71 104.1C242.49 103.92 242.23 103.8 241.95 103.74C241.88 103.72 241.81 103.73 241.75 103.75C241.68 103.78 241.63 103.82 241.58 103.88C241.56 104.03 241.59 104.18 241.66 104.32C241.9 104.9 242.3 105.41 242.81 105.79L242.93 105.88C242.98 105.92 243.03 105.97 243.06 106.02C243.1 106.08 243.12 106.14 243.13 106.2C243.14 106.27 243.14 106.33 243.13 106.39C243.11 106.46 243.09 106.52 243.05 106.57C242.97 106.68 242.86 106.75 242.73 106.78C242.6 106.8 242.47 106.77 242.36 106.7L242.23 106.61C241.91 106.35 241.54 106.17 241.14 106.08L241.04 106.07Z" fill="#000000" fill-opacity="1.000000" fill-rule="nonzero"/>
	<path id="Vector" d="M204.06 103.78C204.21 101.71 204.82 99.43 206.57 98.39C207.11 98.08 207.71 97.91 208.34 97.9C208.96 97.89 209.57 98.03 210.12 98.32C210.22 98.36 210.32 98.42 210.39 98.5C210.46 98.58 210.52 98.67 210.55 98.78C210.62 99.11 210.32 99.38 210.05 99.55C209.48 99.91 208.85 100.18 208.19 100.35C208.73 100.31 209.26 100.44 209.73 100.71C210.19 100.99 210.55 101.4 210.77 101.89C210.12 102.66 209.21 103.15 208.22 103.29C208.55 103.2 208.9 103.21 209.22 103.33C209.54 103.44 209.82 103.65 210.02 103.93C210.67 104.86 210.15 105.12 209.45 105.68C209.76 105.62 210.08 105.65 210.37 105.77C210.52 105.84 210.65 105.95 210.73 106.09C210.82 106.23 210.86 106.39 210.85 106.55C210.8 107.15 210.07 107.34 209.57 107.64C209.16 107.89 208.85 108.27 208.69 108.72C208.63 108.99 208.55 109.24 208.44 109.48C207.44 111.27 205.23 109.78 204.68 108.49C204.12 106.98 203.91 105.37 204.06 103.78Z" fill="#FFFFFF" fill-opacity="1.000000" fill-rule="nonzero"/>
	<path id="Vector" d="M207.14 110.81L207.03 110.81C206.42 110.73 205.85 110.49 205.37 110.13C204.88 109.77 204.49 109.29 204.24 108.73C203.64 107.14 203.41 105.44 203.56 103.75C203.7 101.75 204.29 99.17 206.32 97.96C206.93 97.61 207.62 97.41 208.33 97.4C209.03 97.39 209.73 97.55 210.35 97.88C210.52 97.95 210.67 98.06 210.79 98.2C210.91 98.34 210.99 98.5 211.04 98.68C211.1 98.96 211.04 99.49 210.32 99.97L209.88 100.23C210.48 100.55 210.96 101.07 211.23 101.69C211.26 101.78 211.28 101.87 211.26 101.96C211.25 102.05 211.21 102.14 211.15 102.21C210.83 102.61 210.44 102.94 210 103.21C210.17 103.34 210.32 103.49 210.43 103.67C210.97 104.44 210.88 104.95 210.59 105.34C210.83 105.45 211.03 105.63 211.16 105.86C211.3 106.09 211.36 106.35 211.35 106.61C211.29 107.35 210.63 107.68 210.16 107.91L209.82 108.09C209.51 108.27 209.28 108.56 209.17 108.9C209.14 108.98 209.11 109.06 209.1 109.13C209.05 109.35 208.98 109.55 208.88 109.74C208.71 110.06 208.46 110.33 208.16 110.51C207.85 110.7 207.5 110.8 207.14 110.81ZM204.55 103.83C204.41 105.36 204.61 106.9 205.14 108.35C205.33 108.73 205.6 109.06 205.94 109.31C206.27 109.57 206.67 109.74 207.09 109.81C207.28 109.82 207.47 109.77 207.63 109.67C207.8 109.56 207.93 109.42 208.01 109.24C208.07 109.12 208.11 109 208.14 108.86C208.14 108.77 208.19 108.68 208.22 108.58C208.41 108.01 208.8 107.52 209.32 107.22L209.72 107C210.09 106.82 210.34 106.68 210.36 106.51C210.38 106.34 210.27 106.29 210.15 106.23C209.95 106.15 209.74 106.14 209.53 106.18C209.42 106.2 209.31 106.18 209.21 106.12C209.12 106.07 209.04 105.99 209 105.89C208.96 105.79 208.95 105.68 208.97 105.57C208.99 105.47 209.05 105.37 209.14 105.3L209.33 105.15C209.93 104.68 209.93 104.68 209.62 104.23C209.3 103.77 208.97 103.71 208.29 103.8C208.22 103.81 208.16 103.8 208.09 103.79C208.03 103.77 207.97 103.74 207.92 103.7C207.86 103.66 207.82 103.61 207.79 103.55C207.76 103.49 207.74 103.42 207.73 103.36C207.72 103.23 207.75 103.09 207.83 102.99C207.91 102.89 208.03 102.82 208.16 102.8C208.92 102.69 209.62 102.34 210.15 101.8C209.96 101.47 209.68 101.2 209.34 101.02C209 100.84 208.62 100.77 208.24 100.8C208.12 100.82 207.99 100.79 207.89 100.71C207.79 100.64 207.72 100.53 207.69 100.4C207.67 100.28 207.69 100.15 207.76 100.04C207.82 99.94 207.93 99.86 208.05 99.83C208.66 99.66 209.24 99.41 209.77 99.08C209.97 98.96 210.04 98.86 210.05 98.82L209.87 98.71C209.4 98.46 208.87 98.33 208.34 98.34C207.8 98.35 207.28 98.5 206.82 98.77C205.15 99.77 204.66 102.03 204.54 103.76L204.55 103.83Z" fill="#000000" fill-opacity="1.000000" fill-rule="nonzero"/>
	<path id="Vector" d="M230.01 46.23C229.28 46.23 228.57 46.02 227.96 45.61C227.35 45.21 226.88 44.63 226.6 43.96C226.32 43.28 226.25 42.54 226.39 41.82C226.54 41.11 226.89 40.45 227.4 39.93C227.92 39.42 228.57 39.07 229.29 38.92C230 38.78 230.75 38.85 231.42 39.13C232.09 39.41 232.67 39.89 233.07 40.49C233.48 41.1 233.69 41.81 233.69 42.54C233.69 43.52 233.3 44.46 232.61 45.15C231.92 45.84 230.99 46.23 230.01 46.23ZM230.01 39.85C229.48 39.85 228.96 40.01 228.51 40.3C228.07 40.6 227.73 41.02 227.52 41.51C227.32 42 227.27 42.55 227.37 43.07C227.47 43.59 227.73 44.07 228.11 44.45C228.48 44.82 228.96 45.08 229.48 45.18C230.01 45.29 230.55 45.24 231.04 45.03C231.53 44.83 231.95 44.48 232.24 44.04C232.54 43.6 232.7 43.08 232.7 42.54C232.7 41.83 232.41 41.15 231.91 40.64C231.4 40.14 230.72 39.85 230.01 39.85Z" fill="#000000" fill-opacity="1.000000" fill-rule="nonzero"/>
	<path id="Vector" d="M238.22 46.23C237.49 46.23 236.78 46.02 236.17 45.61C235.56 45.21 235.09 44.63 234.81 43.96C234.53 43.28 234.46 42.54 234.6 41.82C234.74 41.11 235.1 40.45 235.61 39.93C236.13 39.42 236.78 39.07 237.5 38.92C238.21 38.78 238.95 38.85 239.63 39.13C240.3 39.41 240.88 39.89 241.28 40.49C241.69 41.1 241.9 41.81 241.9 42.54C241.9 43.52 241.51 44.46 240.82 45.15C240.13 45.85 239.19 46.23 238.22 46.23ZM238.22 39.85C237.69 39.85 237.17 40.01 236.72 40.3C236.28 40.6 235.94 41.02 235.73 41.51C235.53 42 235.48 42.55 235.58 43.07C235.68 43.59 235.94 44.07 236.32 44.45C236.69 44.82 237.17 45.08 237.69 45.18C238.21 45.29 238.75 45.24 239.25 45.03C239.74 44.83 240.16 44.48 240.45 44.04C240.75 43.6 240.91 43.08 240.91 42.54C240.91 41.83 240.62 41.14 240.12 40.64C239.61 40.13 238.93 39.85 238.22 39.85Z" fill="#000000" fill-opacity="1.000000" fill-rule="nonzero"/>
	<path id="Vector" d="M234.92 52.33C233.64 52.3 232.39 51.99 231.25 51.41C231.14 51.35 231.06 51.24 231.02 51.11C230.99 50.98 231 50.85 231.06 50.73C231.13 50.62 231.24 50.53 231.36 50.5C231.49 50.46 231.63 50.48 231.74 50.54C231.93 50.64 236.36 53.08 239.07 48.97C239.15 48.86 239.26 48.78 239.39 48.75C239.52 48.72 239.66 48.75 239.77 48.82C239.88 48.9 239.95 49.01 239.98 49.14C240.01 49.27 239.98 49.41 239.91 49.52C239.4 50.38 238.66 51.09 237.79 51.59C236.91 52.08 235.92 52.34 234.92 52.33Z" fill="#000000" fill-opacity="1.000000" fill-rule="nonzero"/>
	<path id="Vector" d="M235.03 43.04L233.2 43.04C233.06 43.04 232.94 42.99 232.84 42.9C232.75 42.8 232.7 42.68 232.7 42.54C232.7 42.41 232.75 42.28 232.84 42.19C232.94 42.1 233.06 42.04 233.2 42.04L235.03 42.04C235.16 42.04 235.29 42.1 235.38 42.19C235.47 42.28 235.53 42.41 235.53 42.54C235.52 42.67 235.47 42.8 235.38 42.89C235.29 42.99 235.16 43.04 235.03 43.04Z" fill="#000000" fill-opacity="1.000000" fill-rule="nonzero"/>
	<path id="Vector" d="M248.76 45.04C248.71 45.05 248.67 45.05 248.63 45.04L241.28 43.04C241.14 43.01 241.03 42.92 240.96 42.8C240.89 42.69 240.87 42.55 240.91 42.41C240.94 42.28 241.03 42.17 241.14 42.1C241.26 42.03 241.4 42.01 241.53 42.04L248.89 44.04C249.01 44.07 249.12 44.16 249.19 44.27C249.25 44.39 249.27 44.52 249.24 44.65C249.21 44.76 249.15 44.86 249.07 44.93C248.98 45 248.87 45.04 248.76 45.04Z" fill="#000000" fill-opacity="1.000000" fill-rule="nonzero"/>
	<path id="Vector" d="M244.64 45.74C244.84 45.02 245.26 44.4 245.84 43.94C246.28 43.57 246.8 43.29 247.35 43.14C247.91 42.98 248.49 42.94 249.07 43.03C249.64 43.27 250.11 43.7 250.4 44.24C250.7 44.79 250.8 45.41 250.7 46.02C250.62 46.85 250.31 47.65 249.82 48.32C249.32 48.99 248.66 49.51 247.89 49.84C247.39 50.02 246.85 50.09 246.32 50.06C245.78 50.03 245.26 49.89 244.78 49.66L244.64 45.74Z" fill="#FFFFFF" fill-opacity="1.000000" fill-rule="nonzero"/>
	<path id="Vector" d="M246.57 50.56C245.87 50.56 245.19 50.4 244.57 50.1C244.51 50.07 244.46 50.03 244.42 49.98C244.38 49.93 244.34 49.87 244.32 49.81C244.3 49.75 244.29 49.68 244.3 49.61C244.3 49.55 244.32 49.48 244.35 49.43C244.38 49.37 244.42 49.31 244.47 49.27C244.52 49.23 244.58 49.19 244.64 49.17C244.7 49.15 244.77 49.14 244.83 49.15C244.9 49.15 244.96 49.17 245.02 49.2C245.44 49.4 245.9 49.53 246.36 49.56C246.83 49.58 247.3 49.52 247.74 49.37C248.42 49.07 249.01 48.6 249.44 48C249.88 47.41 250.15 46.7 250.23 45.97C250.32 45.47 250.24 44.96 250.01 44.52C249.78 44.07 249.4 43.72 248.95 43.51C248.45 43.45 247.95 43.49 247.47 43.63C246.99 43.78 246.54 44.02 246.16 44.34C245.67 44.73 245.32 45.26 245.16 45.87C245.14 45.93 245.11 45.99 245.07 46.05C245.03 46.1 244.98 46.14 244.92 46.18C244.86 46.21 244.8 46.23 244.73 46.24C244.66 46.25 244.59 46.25 244.53 46.23C244.46 46.21 244.4 46.18 244.35 46.14C244.29 46.1 244.25 46.05 244.22 45.99C244.18 45.93 244.16 45.86 244.15 45.8C244.14 45.73 244.15 45.66 244.16 45.6C244.4 44.8 244.87 44.1 245.53 43.6C246.03 43.18 246.62 42.87 247.26 42.7C247.89 42.52 248.56 42.49 249.21 42.6C249.89 42.87 250.45 43.37 250.82 44.01C251.18 44.65 251.31 45.39 251.2 46.11C251.11 47.04 250.77 47.91 250.22 48.66C249.67 49.4 248.93 49.98 248.08 50.33C247.59 50.5 247.08 50.58 246.57 50.56Z" fill="#000000" fill-opacity="1.000000" fill-rule="nonzero"/>
	<path id="Vector" d="M263.4 108.81C258.81 108.81 252.08 105.08 251.12 104.54C251.06 104.5 251.01 104.46 250.97 104.41C250.93 104.35 250.9 104.3 250.88 104.23C250.87 104.17 250.86 104.1 250.87 104.04C250.88 103.97 250.9 103.91 250.93 103.85C250.97 103.79 251.01 103.75 251.06 103.7C251.11 103.66 251.17 103.64 251.24 103.62C251.3 103.6 251.37 103.6 251.43 103.6C251.5 103.61 251.56 103.63 251.62 103.67C254.83 105.5 263.72 109.65 266.06 106.89C268.4 104.13 261.39 90.45 258.48 85.42C258.43 85.31 258.42 85.18 258.46 85.06C258.5 84.95 258.58 84.85 258.68 84.78C258.79 84.72 258.92 84.7 259.04 84.73C259.16 84.75 259.26 84.82 259.34 84.92C260.44 86.84 270.09 103.69 266.83 107.53C266.39 107.98 265.85 108.33 265.26 108.55C264.66 108.77 264.03 108.86 263.4 108.81Z" fill="#000000" fill-opacity="1.000000" fill-rule="nonzero"/>
	<path id="Vector" d="M266.91 125.76L266.84 125.76C259.48 124.66 249.9 118.78 249.48 118.56C249.43 118.53 249.38 118.48 249.34 118.43C249.3 118.37 249.28 118.31 249.26 118.25C249.25 118.19 249.25 118.12 249.26 118.06C249.27 117.99 249.29 117.93 249.33 117.87C249.36 117.82 249.4 117.77 249.46 117.73C249.51 117.69 249.57 117.66 249.63 117.65C249.7 117.63 249.77 117.63 249.83 117.64C249.9 117.65 249.96 117.68 250.01 117.71C250.1 117.76 259.82 123.7 266.95 124.79C267.01 124.79 267.08 124.81 267.13 124.85C267.19 124.88 267.24 124.92 267.28 124.98C267.32 125.03 267.35 125.09 267.36 125.15C267.38 125.21 267.38 125.28 267.37 125.35C267.35 125.46 267.29 125.56 267.21 125.64C267.13 125.71 267.02 125.76 266.91 125.76Z" fill="#000000" fill-opacity="1.000000" fill-rule="nonzero"/>
	<path id="Vector" d="M0.44 167.42L7.14 138.91L41.75 147.07L35.05 175.57L0.44 167.42Z" fill="#FFFFFF" fill-opacity="1.000000" fill-rule="evenodd"/>
	<path id="Vector" d="M35.07 176.03L34.96 176.03L0.35 167.87C0.29 167.86 0.23 167.84 0.18 167.8C0.14 167.77 0.09 167.72 0.06 167.67C0.03 167.62 0.01 167.56 0 167.5C-0.01 167.44 -0.01 167.38 0.01 167.32L6.7 138.82C6.73 138.71 6.81 138.6 6.91 138.54C7.01 138.48 7.13 138.46 7.25 138.48L41.86 146.64C41.92 146.66 41.97 146.68 42.02 146.72C42.07 146.75 42.12 146.79 42.15 146.84C42.21 146.95 42.23 147.07 42.2 147.19L35.5 175.69C35.48 175.81 35.4 175.91 35.31 175.97C35.23 176.02 35.15 176.04 35.07 176.03ZM0.99 167.06L34.73 175.04L41.21 147.42L7.49 139.44L0.99 167.06Z" fill="#000000" fill-opacity="1.000000" fill-rule="nonzero"/>
	<path id="Vector" d="M28.18 133.42C28.18 133.42 27.6 148.13 26.08 147.25C24.09 146.09 24.91 142.69 24.91 142.69L18.16 141.27C18.16 141.27 21.03 131.5 21.22 131.17C21.41 130.84 28.18 133.42 28.18 133.42Z" fill="#FFFFFF" fill-opacity="1.000000" fill-rule="nonzero"/>
	<path id="Vector" d="M26.21 147.74C26.08 147.74 25.96 147.71 25.85 147.64C24.02 146.58 24.21 144.09 24.38 143.05L18.07 141.72C18.01 141.7 17.95 141.67 17.9 141.64C17.85 141.6 17.8 141.55 17.77 141.5C17.73 141.38 17.73 141.25 17.77 141.14C18.85 137.47 20.69 131.27 20.88 130.94C21.07 130.61 21.26 130.27 28.39 133C28.48 133.03 28.56 133.09 28.61 133.17C28.67 133.25 28.7 133.34 28.69 133.44C28.53 137.43 28.01 146.87 26.6 147.65C26.48 147.72 26.35 147.75 26.21 147.74ZM18.74 140.92L25 142.24C25.13 142.27 25.23 142.35 25.3 142.45C25.35 142.57 25.35 142.69 25.3 142.8C25.3 142.8 24.6 145.72 26.13 146.79C26.79 145.8 27.42 139.45 27.66 133.75C25.1 132.75 22.34 131.82 21.49 131.64C21.16 132.75 19.75 137.48 18.74 140.92Z" fill="#000000" fill-opacity="1.000000" fill-rule="nonzero"/>
	<path id="Vector" d="M38.61 216.11C38.61 216.11 38.05 225.33 38.08 228.82C38.11 232.31 38.08 235.59 42.18 234.8C44.41 234.39 56.66 231.29 55.54 229.01C54.41 226.72 46.45 226.13 46.45 226.13L47.17 215.6L38.61 216.11Z" fill="#FFFFFF" fill-opacity="1.000000" fill-rule="nonzero"/>
	<path id="Vector" d="M41.09 235.4C40.35 235.44 39.62 235.2 39.03 234.74C37.68 233.63 37.66 231.36 37.64 228.97L37.64 228.83C37.64 225.36 38.15 216.18 38.15 216.08C38.16 216.02 38.17 215.96 38.2 215.91C38.23 215.86 38.26 215.81 38.31 215.77C38.35 215.73 38.4 215.7 38.46 215.68C38.51 215.66 38.57 215.66 38.63 215.66C38.69 215.66 38.75 215.67 38.81 215.7C38.86 215.72 38.91 215.76 38.95 215.81C38.99 215.85 39.02 215.9 39.04 215.96C39.06 216.02 39.07 216.08 39.06 216.14C39.06 216.23 38.51 225.38 38.54 228.82L38.54 228.96C38.54 231.13 38.54 233.2 39.61 234.04C39.97 234.28 40.39 234.43 40.82 234.49C41.25 234.56 41.68 234.52 42.1 234.39C44.99 233.86 54.22 231.28 55.11 229.52C55.13 229.48 55.15 229.43 55.15 229.38C55.15 229.33 55.13 229.29 55.11 229.25C54.37 227.76 49.38 226.85 46.4 226.63C46.28 226.62 46.17 226.57 46.09 226.47C46.02 226.38 45.98 226.26 45.98 226.14L46.7 215.61C46.71 215.49 46.77 215.38 46.86 215.3C46.94 215.22 47.06 215.18 47.18 215.18C47.3 215.19 47.41 215.25 47.49 215.34C47.57 215.43 47.61 215.55 47.61 215.67L46.92 225.75C48.76 225.92 54.89 226.65 55.89 228.85C55.97 229.01 56.02 229.2 56.02 229.39C56.02 229.57 55.97 229.76 55.89 229.92C54.52 232.64 42.34 235.26 42.22 235.28C41.85 235.36 41.47 235.4 41.09 235.4Z" fill="#000000" fill-opacity="1.000000" fill-rule="nonzero"/>
	<path id="Vector" d="M67.24 217.21C67.24 217.21 66.69 226.42 66.72 229.91C66.75 233.41 66.72 236.69 70.81 235.9C73.04 235.49 86.26 233.38 85.14 231.09C84.01 228.81 75.08 227.23 75.08 227.23L75.8 216.7L67.24 217.21Z" fill="#FFFFFF" fill-opacity="1.000000" fill-rule="nonzero"/>
	<path id="Vector" d="M69.72 236.5C68.98 236.53 68.25 236.3 67.66 235.84C66.31 234.72 66.29 232.46 66.27 230.06L66.27 229.9C66.27 226.43 66.79 217.25 66.79 217.17C66.79 217.05 66.85 216.93 66.94 216.85C67.03 216.77 67.14 216.73 67.26 216.74C67.32 216.74 67.38 216.75 67.44 216.78C67.49 216.8 67.54 216.84 67.58 216.88C67.62 216.93 67.65 216.98 67.67 217.04C67.69 217.09 67.7 217.16 67.69 217.22C67.69 217.31 67.14 226.46 67.17 229.89L67.17 230.03C67.17 232.21 67.17 234.27 68.24 235.12C68.61 235.36 69.02 235.51 69.45 235.57C69.88 235.63 70.32 235.6 70.73 235.47L71.43 235.34C81.72 233.54 84.38 232.25 84.72 231.48C84.72 231.4 84.72 231.36 84.72 231.31C83.97 229.81 78.36 228.32 74.99 227.7C74.88 227.68 74.78 227.62 74.72 227.53C74.65 227.45 74.61 227.33 74.63 227.22L75.34 216.69C75.35 216.57 75.41 216.46 75.5 216.38C75.59 216.3 75.7 216.25 75.82 216.26C75.94 216.27 76.05 216.32 76.13 216.42C76.21 216.51 76.26 216.62 76.25 216.75L75.57 226.91C77.49 227.27 84.46 228.73 85.53 230.9C85.62 231.06 85.66 231.23 85.66 231.4C85.66 231.58 85.62 231.75 85.53 231.9C84.81 233.35 80.55 234.68 71.59 236.25L70.9 236.38C70.51 236.45 70.12 236.49 69.72 236.5Z" fill="#000000" fill-opacity="1.000000" fill-rule="nonzero"/>
	<path id="Vector" d="M37.43 112.06C37.43 112.06 34.6 210.26 36.09 218.66C36.09 218.66 41.84 225.16 49.29 221.91L58.73 142.26L63.71 221.84C63.71 221.84 68.48 226.59 78.48 218.7L78.48 108.59L37.43 112.06Z" fill="#000000" fill-opacity="1.000000" fill-rule="nonzero"/>
	<path id="Vector" d="M68.04 223.78C66.33 223.87 64.65 223.3 63.35 222.19C63.26 222.11 63.21 222 63.2 221.87L58.59 147.8L49.81 221.97C49.8 222.06 49.76 222.14 49.71 222.21C49.66 222.28 49.59 222.34 49.51 222.37C41.81 225.71 35.79 219.06 35.73 218.99C35.67 218.92 35.63 218.83 35.61 218.74C34.14 210.39 36.84 116.05 36.95 112C36.96 111.88 37.01 111.76 37.09 111.67C37.17 111.58 37.29 111.53 37.41 111.52L78.43 108.05C78.5 108.04 78.57 108.05 78.63 108.07C78.7 108.1 78.76 108.13 78.81 108.18C78.86 108.22 78.9 108.28 78.93 108.35C78.96 108.41 78.97 108.48 78.97 108.55L78.97 218.7C78.97 218.78 78.95 218.85 78.92 218.92C78.89 218.99 78.84 219.05 78.78 219.1C74.13 222.76 70.56 223.78 68.04 223.78ZM64.19 221.6C64.99 222.26 69.4 225.14 77.97 218.46L77.97 109.12L37.94 112.52C37.74 119.68 35.22 209.6 36.58 218.43C37.35 219.25 42.37 224.2 48.85 221.56L58.25 142.2C58.25 142.14 58.27 142.08 58.29 142.02C58.32 141.97 58.36 141.92 58.41 141.87C58.45 141.83 58.51 141.8 58.57 141.78C58.63 141.77 58.69 141.76 58.76 141.77C58.88 141.77 59 141.82 59.09 141.9C59.18 141.99 59.23 142.1 59.24 142.22L64.19 221.6Z" fill="#000000" fill-opacity="1.000000" fill-rule="nonzero"/>
	<path id="Vector" d="M121 69.68C121 69.68 126.46 66.59 126.86 66.25C127.26 65.91 129.16 60.85 129.47 60.52C129.78 60.19 130.54 59.59 130.8 60.29C131.06 60.99 130.5 64.87 130.5 64.87C130.5 64.87 137.22 59.61 137.69 59.88C138.16 60.15 138.5 60.76 137.45 62.24C136.5 63.38 135.37 64.37 134.11 65.16C134.11 65.16 136.47 67.81 136.1 68.72C135.74 69.63 126.78 75.64 126.78 75.64L121 69.68Z" fill="#FFFFFF" fill-opacity="1.000000" fill-rule="nonzero"/>
	<path id="Vector" d="M126.82 76.12C126.74 76.12 126.67 76.11 126.6 76.07C126.54 76.04 126.48 75.99 126.44 75.92C126.41 75.87 126.38 75.82 126.37 75.76C126.36 75.7 126.36 75.64 126.37 75.58C126.38 75.52 126.4 75.46 126.43 75.41C126.47 75.36 126.51 75.32 126.56 75.28C130.8 72.44 135.39 69.15 135.73 68.56C135.83 68.23 134.91 66.75 133.73 65.48C133.69 65.43 133.66 65.37 133.64 65.31C133.62 65.24 133.61 65.17 133.62 65.11C133.63 65.04 133.66 64.98 133.69 64.93C133.73 64.87 133.78 64.82 133.83 64.79C135.04 64.03 136.12 63.09 137.04 62C137.64 61.15 137.68 60.74 137.64 60.57C137.62 60.5 137.58 60.43 137.53 60.38C135.16 61.84 132.89 63.46 130.74 65.23C130.67 65.28 130.58 65.31 130.49 65.31C130.4 65.31 130.31 65.28 130.24 65.23C130.16 65.18 130.09 65.11 130.05 65.03C130.01 64.95 130 64.86 130.01 64.77C130.27 63.34 130.39 61.88 130.34 60.42C130.28 60.42 130.01 60.54 129.77 60.8C129.53 61.06 129.16 62.14 128.77 63.08C127.78 65.54 127.39 66.34 127.12 66.57C126.85 66.79 122.14 69.56 121.14 70.05C121.04 70.1 120.92 70.11 120.8 70.07C120.69 70.04 120.6 69.96 120.54 69.86C120.49 69.76 120.47 69.64 120.5 69.52C120.53 69.41 120.6 69.31 120.69 69.25C122.78 68.07 126.2 66.11 126.49 65.86C127.01 64.84 127.48 63.8 127.88 62.73C128.19 61.85 128.59 60.99 129.06 60.18C129.24 59.99 129.88 59.38 130.5 59.49C130.65 59.53 130.79 59.6 130.9 59.71C131.02 59.82 131.1 59.95 131.15 60.1C131.28 61.33 131.24 62.57 131.02 63.79C137.15 59.06 137.56 59.31 137.85 59.48C138.01 59.57 138.15 59.7 138.26 59.85C138.37 60 138.45 60.17 138.48 60.35C138.51 60.74 138.46 61.13 138.34 61.5C138.21 61.87 138.01 62.21 137.75 62.5C136.9 63.56 135.89 64.48 134.76 65.24C135.6 66.24 136.86 67.95 136.53 68.86C136.2 69.77 129.77 74.18 127.03 76.01C126.97 76.07 126.9 76.1 126.82 76.12Z" fill="#000000" fill-opacity="1.000000" fill-rule="nonzero"/>
	<path id="Vector" d="M73.76 64.14C73.76 64.14 64.09 60.97 38.61 65.87C34.19 66.72 32.16 108.02 35.49 132.86L80.12 132.49C80.12 132.49 87.48 67.58 73.76 64.14Z" fill="#72B0F9" fill-opacity="1.000000" fill-rule="nonzero"/>
	<path id="Vector" d="M36.93 59.89C36.93 59.89 27.28 90.82 26.66 93.56C26.04 96.3 19.49 132.72 19.49 132.72L29.64 136.13C29.64 136.13 44.34 102.09 43.4 92.53C42.47 82.98 36.93 59.89 36.93 59.89Z" fill="#72B0F9" fill-opacity="1.000000" fill-rule="nonzero"/>
	<path id="Vector" d="M72.92 64.16C80.68 64.9 96.83 83.66 98.15 83.12C99.46 82.57 123.39 66.16 123.39 66.16L130.96 74.46C130.96 74.46 107.78 101.39 103.07 104.25C95.82 108.59 65.02 88.83 65.02 88.83C65.02 88.83 65.16 63.41 72.92 64.16Z" fill="#72B0F9" fill-opacity="1.000000" fill-rule="nonzero"/>
	<path id="Vector" d="M24.94 142.84C24.94 142.84 21.81 141.14 23.19 138.24L24.94 142.84Z" fill="#FFFFFF" fill-opacity="1.000000" fill-rule="nonzero"/>
	<path id="Vector" d="M24.94 143.3C24.87 143.3 24.79 143.28 24.73 143.24C23.51 142.58 21.54 140.65 22.73 138.04C22.79 137.93 22.88 137.85 22.99 137.81C23.11 137.77 23.24 137.78 23.35 137.83C23.46 137.88 23.54 137.98 23.58 138.09C23.62 138.21 23.61 138.33 23.56 138.44C22.37 140.92 25 142.43 25.11 142.43C25.2 142.48 25.27 142.56 25.31 142.65C25.35 142.75 25.36 142.85 25.33 142.95C25.31 143.04 25.25 143.13 25.17 143.19C25.09 143.25 25 143.29 24.89 143.29L24.94 143.3Z" fill="#000000" fill-opacity="1.000000" fill-rule="nonzero"/>
	<path id="Vector" d="M96.48 104.83L96.39 104.83C91.52 103.84 81.99 98.19 69.5 88.87L68.93 88.44C68.83 88.38 68.76 88.27 68.74 88.16C68.71 88.04 68.73 87.92 68.8 87.81C68.86 87.72 68.96 87.65 69.07 87.62C69.19 87.6 69.31 87.61 69.41 87.67C69.63 87.82 69.84 87.98 70.04 88.14C82.4 97.39 91.8 103.02 96.54 103.96C96.66 103.98 96.77 104.05 96.83 104.15C96.9 104.25 96.93 104.38 96.9 104.5C96.88 104.59 96.82 104.67 96.75 104.73C96.67 104.79 96.58 104.83 96.48 104.83Z" fill="#000000" fill-opacity="1.000000" fill-rule="nonzero"/>
	<path id="Vector" d="M70.48 45.06C69.83 45.06 69.2 44.86 68.66 44.5C68.12 44.14 67.7 43.63 67.45 43.03C67.21 42.43 67.14 41.77 67.27 41.13C67.39 40.5 67.71 39.91 68.16 39.45C68.62 39 69.21 38.68 69.84 38.56C70.48 38.43 71.14 38.49 71.74 38.74C72.33 38.99 72.85 39.41 73.21 39.95C73.57 40.49 73.76 41.13 73.76 41.78C73.76 42.65 73.41 43.48 72.8 44.1C72.18 44.71 71.35 45.06 70.48 45.06ZM70.48 39.49C70.03 39.49 69.59 39.62 69.21 39.88C68.84 40.13 68.55 40.48 68.37 40.9C68.2 41.32 68.16 41.78 68.24 42.22C68.33 42.66 68.55 43.07 68.87 43.39C69.19 43.71 69.59 43.93 70.04 44.02C70.48 44.1 70.94 44.06 71.35 43.89C71.77 43.71 72.13 43.42 72.38 43.04C72.63 42.67 72.76 42.23 72.76 41.78C72.76 41.48 72.7 41.18 72.59 40.9C72.47 40.62 72.31 40.37 72.1 40.16C71.88 39.95 71.63 39.78 71.35 39.66C71.08 39.55 70.78 39.49 70.48 39.49Z" fill="#000000" fill-opacity="1.000000" fill-rule="nonzero"/>
	<path id="Vector" d="M69.15 43.94C69.15 43.94 72.38 49.29 71.64 50.33C70.89 51.38 68.55 50.58 68.55 50.58L69.15 43.94Z" fill="#FFFFFF" fill-opacity="1.000000" fill-rule="nonzero"/>
	<path id="Vector" d="M70.23 51.33C69.6 51.32 68.98 51.21 68.38 51.01C68.25 50.97 68.14 50.87 68.08 50.75C68.01 50.63 68 50.48 68.05 50.35C68.09 50.22 68.18 50.11 68.31 50.04C68.43 49.98 68.58 49.97 68.71 50.02C69.36 50.24 70.82 50.51 71.23 49.96C71.49 49.48 70.32 46.74 68.73 44.11C68.69 44.05 68.67 43.99 68.66 43.93C68.65 43.87 68.65 43.8 68.67 43.74C68.68 43.67 68.71 43.61 68.75 43.56C68.78 43.51 68.83 43.46 68.89 43.43C68.94 43.4 69.01 43.37 69.07 43.36C69.13 43.35 69.2 43.35 69.26 43.37C69.33 43.38 69.39 43.41 69.44 43.45C69.5 43.49 69.54 43.53 69.58 43.59C70.57 45.29 72.89 49.35 72.04 50.57C71.82 50.84 71.54 51.04 71.23 51.18C70.91 51.31 70.57 51.36 70.23 51.33Z" fill="#000000" fill-opacity="1.000000" fill-rule="nonzero"/>
	<path id="Vector" d="M68.68 37.04C70.8 38.9 70.02 42.66 69.9 45.12C69.74 48.58 69.51 52.03 69.19 55.48C68.99 57.67 63.32 57.48 62.34 56.8L63.54 62.28L51.16 60.46L51.92 53.32C51.92 53.32 51.13 43.34 53.52 38.99C54.21 37.73 55.24 36.69 56.5 35.98C57.75 35.28 59.17 34.94 60.61 35C60.61 35 66.61 35.2 68.68 37.04Z" fill="#FFFFFF" fill-opacity="1.000000" fill-rule="nonzero"/>
	<path id="Vector" d="M63.54 62.77L63.47 62.77L51.09 60.96C50.96 60.94 50.84 60.87 50.77 60.77C50.69 60.67 50.65 60.54 50.67 60.41L51.42 53.27C51.42 52.95 50.65 43.21 53.08 38.75C53.81 37.4 54.91 36.29 56.25 35.54C57.59 34.79 59.12 34.43 60.65 34.51C60.88 34.51 66.84 34.73 69.01 36.66C71 38.38 70.7 41.4 70.5 43.82C70.5 44.29 70.42 44.74 70.4 45.15C70.24 48.6 70 52.13 69.68 55.52C69.64 55.9 69.49 56.26 69.24 56.56C69 56.85 68.67 57.07 68.31 57.19C66.62 57.8 64.78 57.93 63.02 57.57L64.02 62.18C64.03 62.25 64.03 62.33 64.01 62.41C63.99 62.49 63.95 62.56 63.9 62.62C63.85 62.66 63.8 62.71 63.73 62.73C63.67 62.76 63.61 62.77 63.54 62.77ZM51.7 60.04L62.9 61.68L61.9 56.91C61.88 56.81 61.89 56.71 61.93 56.62C61.96 56.52 62.03 56.44 62.11 56.39C62.2 56.33 62.3 56.3 62.4 56.3C62.5 56.3 62.6 56.33 62.68 56.39C64.4 56.92 66.25 56.88 67.94 56.28C68.44 56.05 68.71 55.76 68.74 55.42C69.06 52 69.3 48.53 69.46 45.09C69.46 44.67 69.52 44.21 69.56 43.73C69.74 41.53 69.97 38.74 68.4 37.4C66.49 35.71 60.7 35.5 60.65 35.5C59.3 35.43 57.97 35.74 56.79 36.4C55.62 37.06 54.65 38.04 54 39.22C51.71 43.42 52.46 53.19 52.47 53.27L51.7 60.04Z" fill="#000000" fill-opacity="1.000000" fill-rule="nonzero"/>
	<path id="Vector" d="M48.72 62.15L49.89 58.37L65.09 59.83L65.96 63.3C63.18 64.4 60.19 64.86 57.21 64.66C54.23 64.46 51.33 63.6 48.72 62.15Z" fill="#FFFFFF" fill-opacity="1.000000" fill-rule="nonzero"/>
	<path id="Vector" d="M58.73 65.21C55.15 65.19 51.64 64.29 48.5 62.59C48.39 62.53 48.31 62.44 48.27 62.33C48.23 62.23 48.22 62.11 48.26 62L49.38 58.22C49.42 58.11 49.49 58.01 49.58 57.95C49.68 57.89 49.8 57.86 49.91 57.87L65.14 59.31C65.24 59.32 65.34 59.36 65.42 59.43C65.49 59.5 65.55 59.58 65.57 59.68L66.45 63.15C66.47 63.27 66.46 63.38 66.41 63.49C66.36 63.59 66.28 63.67 66.18 63.72C63.82 64.73 61.29 65.24 58.73 65.21ZM49.38 61.9C51.83 63.18 54.53 63.94 57.29 64.13C60.04 64.32 62.81 63.94 65.42 63.01L64.74 60.3L50.3 58.89L49.38 61.9Z" fill="#000000" fill-opacity="1.000000" fill-rule="nonzero"/>
	<path id="Vector" d="M56.17 54.22C56.17 60.09 62.06 71.97 57 76.64C52.25 81.03 44.05 82.18 37.92 81.5C28.95 80.5 24.24 74.29 27.95 65.54C29.76 61.27 32.93 57.75 35.57 53.94C37.9 50.58 39.85 46.98 41.39 43.2C42.71 40 43.68 36.22 45.46 33.23C49.38 26.6 56.32 24.01 63.61 26.14C66.74 27.06 72.75 30.83 71.28 34.91C70.92 35.91 69.69 37.42 68.72 37C68.44 38.93 67.19 39.86 65.68 41.1C64.09 42.27 62.44 43.36 60.73 44.35C59.57 45.04 58.55 45.96 57.74 47.04C56.85 48.52 56.34 50.2 56.25 51.92C56.17 52.68 56.15 53.45 56.17 54.22Z" fill="#FFFFFF" fill-opacity="1.000000" fill-rule="nonzero"/>
	<path id="Vector" d="M41.21 82.18C40.09 82.18 38.98 82.12 37.87 82C33.02 81.48 29.35 79.44 27.48 76.29C25.62 73.14 25.71 69.5 27.48 65.32C28.94 62.23 30.76 59.33 32.91 56.69C33.67 55.69 34.43 54.69 35.16 53.63C37.46 50.3 39.39 46.73 40.92 42.98C41.35 41.92 41.74 40.84 42.15 39.68C42.89 37.36 43.85 35.12 45.02 32.99C46.81 29.78 49.65 27.3 53.07 25.97C56.48 24.64 60.26 24.54 63.74 25.68C66.07 26.36 70 28.61 71.44 31.44C71.74 31.99 71.93 32.61 71.98 33.24C72.03 33.87 71.95 34.5 71.74 35.1C71.38 36.09 70.67 36.92 69.74 37.44C69.54 37.52 69.33 37.57 69.11 37.59C68.69 39.3 67.52 40.25 66.19 41.34L65.98 41.51C64.94 42.32 63.85 43.06 62.7 43.71C62.14 44.05 61.59 44.39 61.04 44.71C59.92 45.39 58.95 46.29 58.18 47.34C57.34 48.76 56.86 50.35 56.77 51.99C56.69 52.74 56.65 53.49 56.66 54.24C56.84 56.63 57.27 59 57.94 61.3C59.36 67.09 60.93 73.67 57.34 77.02C53.17 80.86 46.63 82.18 41.21 82.18ZM58.69 25.95C56.07 25.96 53.5 26.66 51.24 27.99C48.98 29.32 47.12 31.22 45.85 33.52C44.72 35.6 43.78 37.78 43.06 40.04C42.67 41.16 42.25 42.35 41.81 43.35C40.26 47.17 38.29 50.8 35.94 54.19C35.22 55.18 34.45 56.26 33.67 57.28C31.57 59.86 29.79 62.69 28.37 65.7C26.76 69.55 26.75 73.03 28.37 75.75C30.06 78.64 33.48 80.49 37.99 80.98C43.6 81.59 51.86 80.71 56.69 76.24C59.89 73.25 58.36 67.01 57 61.49C56.31 59.11 55.87 56.66 55.7 54.19C55.69 53.4 55.73 52.62 55.82 51.84C55.91 50.05 56.43 48.3 57.35 46.76C58.19 45.62 59.24 44.66 60.45 43.94C61.01 43.57 61.58 43.22 62.14 42.88C63.25 42.25 64.31 41.53 65.32 40.75L65.53 40.59C66.94 39.44 67.94 38.59 68.19 36.96C68.2 36.88 68.23 36.81 68.28 36.75C68.32 36.69 68.38 36.64 68.44 36.6C68.51 36.56 68.58 36.54 68.66 36.54C68.73 36.53 68.81 36.55 68.88 36.58C69.02 36.64 69.18 36.64 69.32 36.58C69.99 36.18 70.5 35.56 70.77 34.82C70.94 34.35 71 33.85 70.96 33.36C70.91 32.86 70.77 32.38 70.52 31.95C69.24 29.4 65.54 27.31 63.43 26.7C61.89 26.23 60.29 25.98 58.69 25.95Z" fill="#000000" fill-opacity="1.000000" fill-rule="nonzero"/>
	<path id="Vector" d="M69.21 52.9C69.21 52.9 66.47 54.44 65.14 51.61L69.21 52.9Z" fill="#FFFFFF" fill-opacity="1.000000" fill-rule="nonzero"/>
	<path id="Vector" d="M67.55 53.82C67.24 53.82 66.93 53.77 66.63 53.68C66.19 53.52 65.79 53.28 65.46 52.96C65.13 52.64 64.87 52.26 64.69 51.83C64.67 51.77 64.65 51.71 64.65 51.64C64.64 51.58 64.65 51.51 64.68 51.45C64.7 51.39 64.73 51.33 64.78 51.28C64.82 51.23 64.87 51.19 64.93 51.16C64.99 51.13 65.06 51.12 65.12 51.12C65.19 51.11 65.25 51.12 65.32 51.14C65.38 51.17 65.44 51.2 65.48 51.25C65.53 51.29 65.57 51.34 65.6 51.4C65.71 51.7 65.89 51.98 66.12 52.21C66.34 52.43 66.62 52.61 66.92 52.73C67.61 52.89 68.33 52.79 68.96 52.46C69.02 52.43 69.08 52.41 69.14 52.4C69.21 52.39 69.27 52.4 69.34 52.42C69.4 52.44 69.46 52.47 69.51 52.51C69.56 52.55 69.6 52.6 69.64 52.66C69.67 52.72 69.69 52.78 69.7 52.84C69.71 52.91 69.7 52.97 69.68 53.03C69.67 53.1 69.64 53.15 69.59 53.21C69.55 53.26 69.5 53.3 69.45 53.33C68.86 53.64 68.21 53.81 67.55 53.82Z" fill="#000000" fill-opacity="1.000000" fill-rule="nonzero"/>
	<path id="Vector" d="M54.91 45.99C54.87 45.99 54.82 45.99 54.78 45.99C54.65 45.95 54.55 45.87 54.48 45.75C54.42 45.64 54.4 45.5 54.43 45.38C54.97 43.51 55.37 43.48 55.61 43.46C55.85 43.44 67.26 42.03 73.2 41.31C73.33 41.29 73.46 41.33 73.57 41.41C73.67 41.49 73.74 41.6 73.76 41.74C73.77 41.87 73.74 42 73.65 42.1C73.57 42.21 73.45 42.28 73.32 42.29C71.65 42.5 57.58 44.29 55.85 44.44C55.66 44.82 55.51 45.23 55.4 45.65C55.36 45.75 55.3 45.83 55.21 45.89C55.12 45.96 55.02 45.99 54.91 45.99Z" fill="#000000" fill-opacity="1.000000" fill-rule="nonzero"/>
	<path id="Vector" d="M62.44 45.91C62.38 45.04 62.07 44.2 61.57 43.49C61.25 42.9 60.85 42.35 60.37 41.87C60.13 41.64 59.84 41.46 59.53 41.35C59.21 41.24 58.87 41.2 58.54 41.24C58.25 41.3 57.97 41.41 57.73 41.59C57.49 41.76 57.28 41.98 57.13 42.23C56.85 42.76 56.68 43.34 56.63 43.93C56.53 45.23 56.77 46.54 57.32 47.72C57.88 48.9 58.73 49.91 59.8 50.65L59.62 50.43L62.44 45.91Z" fill="#FFFFFF" fill-opacity="1.000000" fill-rule="nonzero"/>
	<path id="Vector" d="M59.8 51.17C59.7 51.17 59.61 51.14 59.52 51.08C58.39 50.29 57.47 49.2 56.88 47.95C56.29 46.69 56.04 45.3 56.15 43.91C56.19 43.24 56.38 42.58 56.71 41.99C56.9 41.67 57.14 41.4 57.44 41.18C57.74 40.97 58.09 40.82 58.45 40.75C58.86 40.7 59.27 40.74 59.66 40.87C60.06 41 60.41 41.22 60.71 41.51C61.22 42.02 61.66 42.6 61.99 43.24C62.57 44.02 62.91 44.95 62.99 45.92C62.98 46.05 62.92 46.17 62.83 46.26C62.74 46.35 62.61 46.4 62.48 46.4C62.42 46.4 62.35 46.39 62.29 46.36C62.23 46.34 62.18 46.3 62.13 46.25C62.09 46.2 62.05 46.15 62.03 46.09C62 46.03 61.99 45.96 61.99 45.9C61.93 45.12 61.65 44.38 61.19 43.75C60.9 43.2 60.53 42.69 60.09 42.24C59.91 42.06 59.68 41.92 59.44 41.83C59.19 41.74 58.93 41.7 58.67 41.73C58.45 41.78 58.24 41.87 58.06 42.01C57.87 42.14 57.72 42.32 57.61 42.51C57.36 42.97 57.21 43.48 57.18 44C57.09 45.13 57.27 46.27 57.72 47.31C58.16 48.35 58.85 49.27 59.73 49.99C59.79 49.99 59.85 50.01 59.91 50.04C59.96 50.07 60.01 50.11 60.05 50.16L60.23 50.36C60.31 50.46 60.35 50.57 60.35 50.69C60.35 50.81 60.31 50.93 60.23 51.02C60.18 51.08 60.11 51.12 60.03 51.15C59.96 51.17 59.88 51.18 59.8 51.17Z" fill="#000000" fill-opacity="1.000000" fill-rule="nonzero"/>
	<path id="Vector" d="M68.73 41.21C68.74 41.89 68.53 42.45 68.26 42.45C67.99 42.45 67.76 41.9 67.75 41.22C67.74 40.54 67.95 39.98 68.22 39.98C68.49 39.97 68.72 40.52 68.73 41.21Z" fill="#000000" fill-opacity="1.000000" fill-rule="evenodd"/>
	<path id="Vector" d="M34.79 126.9C34.67 126.9 34.56 126.86 34.48 126.78C34.39 126.71 34.34 126.6 34.34 126.48C33.47 114.82 35.21 83.58 35.23 83.28C35.23 83.22 35.24 83.16 35.27 83.1C35.29 83.05 35.33 83 35.37 82.96C35.42 82.92 35.47 82.89 35.53 82.87C35.58 82.85 35.64 82.84 35.7 82.85C35.82 82.86 35.94 82.91 36.02 83C36.1 83.1 36.14 83.21 36.13 83.34C36.13 83.64 34.38 114.81 35.25 126.41C35.25 126.53 35.21 126.65 35.14 126.74C35.06 126.83 34.95 126.89 34.83 126.9L34.79 126.9Z" fill="#000000" fill-opacity="1.000000" fill-rule="nonzero"/>
	<path id="Vector" d="M38.98 127.89C38.87 127.87 38.77 127.82 38.7 127.74C38.63 127.65 38.59 127.55 38.59 127.44C38.59 127.33 38.63 127.22 38.7 127.14C38.77 127.05 38.87 127 38.98 126.98L78.83 124.99C78.89 124.98 78.95 124.99 79.01 125.01C79.07 125.03 79.12 125.06 79.16 125.1C79.21 125.14 79.24 125.19 79.27 125.25C79.29 125.3 79.31 125.36 79.31 125.43C79.31 125.55 79.27 125.66 79.19 125.75C79.1 125.84 78.99 125.9 78.87 125.9L39.02 127.9L38.98 127.89Z" fill="#000000" fill-opacity="1.000000" fill-rule="nonzero"/>
</svg>
