<svg width="241.090149" height="212.853882" viewBox="0 0 241.09 212.854" fill="none" xmlns="http://www.w3.org/2000/svg" xmlns:xlink="http://www.w3.org/1999/xlink">
	<desc>
			Created with Pixso.
	</desc>
	<defs/>
	<path id="Vector" d="M207.73 21.45C207.73 21.45 205.43 17.22 201.81 11.39C201.81 11.39 190.14 20.1 190.24 19.62C190.34 19.14 207.73 21.45 207.73 21.45Z" fill="#000000" fill-opacity="1.000000" fill-rule="nonzero"/>
	<path id="Vector" d="M207.73 21.94L207.66 21.94C201.53 21.12 191.49 19.91 190.42 20.05C190.12 20.17 190.04 20.11 189.94 20.05C189.86 20 189.79 19.92 189.75 19.82C189.71 19.73 189.7 19.62 189.72 19.52C189.72 19.38 189.77 19.25 190.1 19.17C190.78 18.9 197.44 14.02 201.49 11C201.54 10.96 201.6 10.93 201.67 10.91C201.74 10.9 201.8 10.9 201.87 10.91C201.94 10.92 202 10.94 202.06 10.98C202.11 11.02 202.16 11.07 202.2 11.13C205.83 16.91 208.12 21.17 208.18 21.21C208.22 21.29 208.25 21.38 208.25 21.47C208.25 21.56 208.22 21.65 208.18 21.72C208.13 21.79 208.06 21.85 207.98 21.89C207.9 21.93 207.82 21.95 207.73 21.94ZM191.95 19.14C194.1 19.26 198.35 19.72 206.79 20.83C205.98 19.36 204.13 16.14 201.6 12.11C196.34 16.06 193.51 18.1 191.97 19.14L191.95 19.14Z" fill="#000000" fill-opacity="1.000000" fill-rule="nonzero"/>
	<path id="Vector" d="M53.2 197.42L47.38 187.71L55.43 180.43L53.2 197.42Z" fill="#000000" fill-opacity="1.000000" fill-rule="nonzero"/>
	<path id="Vector" d="M53.2 197.91C53.11 197.91 53.03 197.89 52.96 197.85C52.88 197.81 52.82 197.75 52.78 197.67L46.95 187.97C46.9 187.87 46.87 187.75 46.89 187.64C46.91 187.52 46.97 187.42 47.05 187.34L55.1 180.06C55.18 180 55.27 179.95 55.37 179.94C55.47 179.93 55.58 179.95 55.67 179.99C55.75 180.04 55.83 180.12 55.87 180.21C55.92 180.3 55.94 180.4 55.92 180.5L53.69 197.46C53.68 197.56 53.64 197.66 53.56 197.73C53.49 197.81 53.4 197.86 53.3 197.88L53.2 197.91ZM48.01 187.81L52.89 195.95L54.77 181.69L48.01 187.81Z" fill="#000000" fill-opacity="1.000000" fill-rule="nonzero"/>
	<path id="Vector" d="M56.98 199.43L150.71 212.78C152.63 213.03 154.58 212.59 156.21 211.54C157.84 210.48 159.03 208.89 159.59 207.03L208.09 25.58C209.07 21.82 206.68 18.52 202.7 18.19L107.13 10.48C105.24 10.39 103.37 10.94 101.83 12.03C100.29 13.13 99.15 14.71 98.62 16.52L52.07 191.97C51.83 192.79 51.77 193.64 51.9 194.49C52.02 195.33 52.33 196.13 52.79 196.84C53.26 197.55 53.88 198.15 54.6 198.6C55.32 199.05 56.13 199.33 56.98 199.43Z" fill="#323232" fill-opacity="1.000000" fill-rule="nonzero"/>
	<path id="Vector" d="M50.87 189.45L144.6 202.8C146.53 203.05 148.48 202.61 150.1 201.56C151.73 200.5 152.93 198.9 153.48 197.04L201.96 15.6C202.95 11.84 200.55 8.53 196.57 8.2L101 0.5C99.11 0.41 97.25 0.95 95.7 2.05C94.16 3.14 93.03 4.72 92.49 6.54L45.98 181.96C45.73 182.77 45.67 183.63 45.79 184.48C45.91 185.32 46.21 186.13 46.68 186.84C47.15 187.56 47.76 188.16 48.49 188.61C49.21 189.06 50.02 189.34 50.87 189.45Z" fill="#FFFFFF" fill-opacity="1.000000" fill-rule="nonzero"/>
	<path id="Vector" d="M145.64 203.38C145.26 203.38 144.89 203.35 144.52 203.3L50.78 189.94C49.88 189.83 49.01 189.52 48.23 189.04C47.45 188.57 46.79 187.93 46.28 187.17C45.78 186.39 45.44 185.51 45.3 184.59C45.16 183.67 45.23 182.73 45.48 181.84L92.02 6.42C92.58 4.49 93.78 2.81 95.42 1.65C97.06 0.49 99.04 -0.09 101.04 0.01L196.61 7.71C197.58 7.77 198.53 8.04 199.38 8.5C200.23 8.96 200.97 9.61 201.55 10.4C202.08 11.16 202.43 12.04 202.57 12.96C202.72 13.89 202.66 14.83 202.39 15.72L153.9 197.17C153.36 198.95 152.27 200.51 150.79 201.63C149.3 202.75 147.5 203.36 145.64 203.38ZM100.42 0.97C98.73 1 97.09 1.57 95.75 2.59C94.4 3.62 93.41 5.04 92.93 6.67L46.45 182.09C46.23 182.84 46.18 183.64 46.3 184.42C46.41 185.2 46.69 185.95 47.12 186.61C47.55 187.25 48.12 187.79 48.78 188.2C49.44 188.6 50.17 188.86 50.94 188.95L144.67 202.31C146.48 202.54 148.3 202.13 149.83 201.14C151.35 200.15 152.48 198.65 153 196.92L201.47 15.48C201.69 14.72 201.74 13.92 201.62 13.14C201.5 12.36 201.21 11.62 200.77 10.97C200.27 10.3 199.63 9.75 198.9 9.35C198.16 8.96 197.35 8.74 196.51 8.7L100.94 0.99L100.42 0.97Z" fill="#000000" fill-opacity="1.000000" fill-rule="nonzero"/>
	<path id="Vector" d="M89.61 188.39L107.9 190.97C109.06 191.11 110.23 190.83 111.21 190.19C112.18 189.54 112.9 188.57 113.23 187.45L115.05 180.64C115.21 180.12 115.24 179.57 115.16 179.04C115.08 178.51 114.88 178 114.58 177.55C114.28 177.1 113.88 176.73 113.42 176.45C112.95 176.17 112.43 176 111.9 175.95L93.58 173.46C92.43 173.33 91.27 173.62 90.31 174.26C89.34 174.9 88.63 175.86 88.31 176.97L86.51 183.73C86.36 184.24 86.32 184.78 86.4 185.31C86.48 185.84 86.67 186.34 86.97 186.79C87.26 187.23 87.65 187.61 88.11 187.88C88.57 188.16 89.08 188.33 89.61 188.39Z" fill="#FFFFFF" fill-opacity="1.000000" fill-rule="nonzero"/>
	<path id="Vector" d="M108.51 191.54C108.28 191.54 108.06 191.52 107.83 191.49L89.54 188.92C88.94 188.86 88.36 188.66 87.84 188.34C87.33 188.03 86.89 187.6 86.55 187.1C86.22 186.6 86 186.03 85.91 185.43C85.82 184.83 85.86 184.22 86.03 183.64L87.82 176.89C88.18 175.66 88.96 174.6 90.02 173.89C91.08 173.18 92.36 172.87 93.63 173.02L111.96 175.49C112.57 175.57 113.15 175.77 113.68 176.09C114.2 176.41 114.65 176.83 115 177.34C115.32 177.85 115.54 178.42 115.63 179.01C115.72 179.61 115.68 180.22 115.52 180.8L113.71 187.59C113.38 188.72 112.7 189.71 111.76 190.42C110.83 191.13 109.69 191.53 108.51 191.54ZM92.98 173.96C92.03 173.97 91.12 174.28 90.36 174.85C89.61 175.42 89.06 176.22 88.79 177.13L87.01 183.86C86.88 184.31 86.85 184.77 86.92 185.23C86.99 185.69 87.16 186.13 87.41 186.51C87.67 186.9 88.01 187.22 88.41 187.46C88.8 187.71 89.25 187.86 89.71 187.91L107.99 190.47C109.03 190.6 110.09 190.36 110.97 189.78C111.84 189.2 112.49 188.33 112.78 187.32L114.6 180.51C114.73 180.06 114.76 179.59 114.7 179.13C114.63 178.67 114.46 178.23 114.21 177.84C113.94 177.45 113.59 177.13 113.19 176.88C112.78 176.64 112.33 176.49 111.86 176.43L93.54 173.96C93.36 173.93 93.17 173.91 92.98 173.92L92.98 173.96Z" fill="#E6E7E8" fill-opacity="1.000000" fill-rule="nonzero"/>
	<path id="Vector" d="M163.75 15.37L135.8 13.03C135.74 13.02 135.67 13.01 135.62 12.98C135.56 12.95 135.51 12.91 135.47 12.86C135.42 12.81 135.39 12.75 135.37 12.69C135.35 12.63 135.34 12.56 135.35 12.5C135.35 12.43 135.37 12.37 135.4 12.31C135.43 12.25 135.47 12.2 135.52 12.16C135.57 12.12 135.63 12.09 135.69 12.07C135.75 12.05 135.82 12.04 135.88 12.04L163.83 14.37C163.97 14.37 164.09 14.42 164.18 14.52C164.28 14.61 164.33 14.73 164.33 14.86C164.33 15 164.28 15.12 164.18 15.21C164.09 15.31 163.97 15.36 163.83 15.36L163.75 15.37Z" fill="#D1D3D4" fill-opacity="1.000000" fill-rule="nonzero"/>
	<path id="Vector" d="M131.93 12.7L131.88 12.7L128.18 12.4C128.05 12.39 127.92 12.33 127.84 12.23C127.75 12.13 127.71 12 127.72 11.87C127.73 11.73 127.8 11.61 127.9 11.53C128 11.44 128.12 11.4 128.25 11.41L131.97 11.73C132.1 11.73 132.22 11.78 132.31 11.87C132.41 11.96 132.46 12.09 132.46 12.22C132.46 12.35 132.41 12.48 132.31 12.57C132.22 12.66 132.1 12.71 131.97 12.71L131.93 12.7Z" fill="#D1D3D4" fill-opacity="1.000000" fill-rule="nonzero"/>
	<path id="Vector" d="M191.93 27.55L154.34 172.68L56.76 161.08L94.57 19.06L191.93 27.55Z" fill="#FFFFFF" fill-opacity="1.000000" fill-rule="nonzero"/>
	<path id="Vector" d="M154.34 173.18L154.29 173.18L56.7 161.56C56.63 161.56 56.57 161.53 56.51 161.5C56.45 161.46 56.4 161.41 56.36 161.36C56.32 161.3 56.29 161.23 56.28 161.16C56.27 161.09 56.27 161.02 56.29 160.95L94.1 18.93C94.13 18.82 94.2 18.72 94.29 18.65C94.39 18.58 94.5 18.55 94.62 18.56L191.96 27.06C192.04 27.07 192.11 27.09 192.17 27.13C192.23 27.16 192.29 27.21 192.33 27.27C192.37 27.33 192.4 27.4 192.41 27.47C192.42 27.54 192.42 27.61 192.4 27.68L154.83 172.79C154.8 172.9 154.74 173 154.65 173.07C154.56 173.14 154.46 173.18 154.34 173.18ZM57.41 160.66L154.01 172.15L191.3 28L94.91 19.59L57.41 160.66Z" fill="#000000" fill-opacity="1.000000" fill-rule="nonzero"/>
	<path id="Vector" d="M164.43 44.26L116.5 39.79C115.92 39.75 115.34 39.58 114.83 39.3C114.31 39.01 113.87 38.61 113.53 38.13C113.18 37.65 112.96 37.09 112.86 36.51C112.76 35.93 112.79 35.33 112.95 34.77C113.33 33.5 114.13 32.4 115.22 31.64C116.3 30.89 117.61 30.53 118.93 30.61L166.85 34.94C167.46 34.96 168.06 35.12 168.6 35.41C169.13 35.7 169.6 36.1 169.96 36.59C170.31 37.09 170.55 37.65 170.66 38.25C170.76 38.85 170.73 39.47 170.56 40.05C170.18 41.35 169.35 42.48 168.24 43.24C167.12 44.01 165.78 44.36 164.43 44.26Z" fill="#E6E7E8" fill-opacity="1.000000" fill-rule="nonzero"/>
	<path id="Vector" d="M183.62 46.55L173.38 45.56C173.31 45.55 173.24 45.53 173.18 45.5C173.11 45.46 173.06 45.41 173.02 45.35C172.98 45.3 172.95 45.23 172.94 45.16C172.92 45.09 172.93 45.02 172.94 44.95L175.2 36.28C175.23 36.16 175.3 36.06 175.4 36C175.49 35.93 175.61 35.9 175.72 35.91L185.96 36.84C186.03 36.84 186.1 36.87 186.16 36.9C186.22 36.94 186.28 36.99 186.32 37.05C186.36 37.1 186.39 37.17 186.4 37.24C186.41 37.31 186.41 37.38 186.39 37.45L184.14 46.15C184.12 46.27 184.05 46.38 183.95 46.45C183.86 46.52 183.74 46.56 183.62 46.55ZM174.01 44.66L183.25 45.52L185.23 37.8L175.98 36.96L174.01 44.66Z" fill="#D1D3D4" fill-opacity="1.000000" fill-rule="nonzero"/>
	<path id="Vector" d="M180.98 42.8C180.9 42.8 180.81 42.77 180.74 42.73C180.66 42.69 180.6 42.63 180.56 42.55L178.98 39.93C177.01 41.01 174.88 42.19 174.54 42.46C174.48 42.54 174.4 42.6 174.3 42.63C174.21 42.66 174.11 42.66 174.02 42.64C173.89 42.6 173.79 42.52 173.72 42.41C173.66 42.3 173.64 42.16 173.67 42.04C173.73 41.79 173.79 41.59 178.93 38.83C179.04 38.77 179.17 38.76 179.29 38.8C179.41 38.83 179.52 38.91 179.58 39.02L181.41 42.05C181.47 42.16 181.49 42.29 181.46 42.42C181.43 42.55 181.35 42.66 181.24 42.73C181.16 42.77 181.07 42.79 180.98 42.8Z" fill="#D1D3D4" fill-opacity="1.000000" fill-rule="nonzero"/>
	<path id="Vector" d="M184.75 42.2C184.68 42.2 184.61 42.18 184.55 42.15C184.48 42.13 184.42 42.08 184.38 42.03L182.82 40.26L180.66 41.71C180.55 41.79 180.42 41.81 180.29 41.79C180.16 41.76 180.04 41.69 179.97 41.58C179.9 41.47 179.87 41.34 179.9 41.21C179.92 41.08 180 40.97 180.1 40.89L182.62 39.2C182.72 39.13 182.84 39.1 182.96 39.12C183.08 39.14 183.19 39.19 183.27 39.28L185.12 41.38C185.21 41.47 185.26 41.6 185.26 41.73C185.26 41.86 185.21 41.98 185.12 42.08C185.01 42.16 184.88 42.2 184.75 42.2Z" fill="#D1D3D4" fill-opacity="1.000000" fill-rule="nonzero"/>
	<path id="Vector" d="M104.66 63.92C104.19 65.52 103.19 66.9 101.82 67.85C100.45 68.79 98.8 69.24 97.15 69.11C96.4 69.07 95.67 68.85 95.02 68.49C94.36 68.12 93.8 67.61 93.38 66.99C92.95 66.38 92.67 65.67 92.56 64.93C92.45 64.19 92.5 63.43 92.73 62.72C93.2 61.13 94.19 59.75 95.56 58.8C96.92 57.86 98.56 57.41 100.21 57.53C100.97 57.57 101.7 57.78 102.35 58.14C103.01 58.51 103.57 59.02 104 59.64C104.43 60.25 104.72 60.96 104.83 61.7C104.94 62.45 104.89 63.2 104.66 63.92Z" fill="#2FE784" fill-opacity="1.000000" fill-rule="nonzero"/>
	<path id="Vector" d="M91.48 113.69C91.02 115.29 90.02 116.67 88.65 117.61C87.27 118.54 85.62 118.97 83.96 118.82C83.21 118.75 82.48 118.52 81.83 118.13C81.19 117.75 80.63 117.22 80.21 116.6C79.79 115.97 79.51 115.26 79.4 114.51C79.29 113.76 79.34 113 79.56 112.28C80.02 110.69 81.02 109.3 82.39 108.37C83.76 107.43 85.41 107 87.06 107.15C87.82 107.21 88.55 107.44 89.2 107.83C89.85 108.21 90.41 108.73 90.84 109.36C91.26 109.99 91.54 110.7 91.65 111.45C91.76 112.2 91.7 112.97 91.48 113.69Z" fill="#E6E7E8" fill-opacity="1.000000" fill-rule="nonzero"/>
	<path id="Vector" d="M85.67 135.67C85.21 137.27 84.21 138.66 82.83 139.59C81.46 140.52 79.8 140.94 78.14 140.77C77.39 140.7 76.66 140.46 76.01 140.07C75.36 139.67 74.8 139.14 74.38 138.51C73.96 137.88 73.68 137.17 73.57 136.42C73.46 135.66 73.52 134.9 73.74 134.17C74.2 132.58 75.2 131.2 76.57 130.27C77.94 129.33 79.59 128.91 81.24 129.07C82 129.14 82.73 129.38 83.38 129.77C84.04 130.16 84.59 130.69 85.02 131.32C85.44 131.96 85.72 132.67 85.83 133.42C85.95 134.18 85.89 134.94 85.67 135.67Z" fill="#E6E7E8" fill-opacity="1.000000" fill-rule="nonzero"/>
	<path id="Vector" d="M151.25 65.93L110.6 61.87C110.54 61.86 110.48 61.84 110.42 61.81C110.36 61.78 110.31 61.74 110.27 61.69C110.23 61.64 110.2 61.58 110.18 61.52C110.16 61.46 110.15 61.39 110.16 61.33C110.18 61.2 110.24 61.08 110.34 61C110.44 60.92 110.57 60.88 110.7 60.89L151.34 64.95C151.47 64.95 151.6 65.01 151.69 65.11C151.77 65.21 151.82 65.34 151.81 65.47C151.81 65.6 151.75 65.72 151.65 65.81C151.55 65.9 151.42 65.94 151.29 65.93L151.25 65.93Z" fill="#D1D3D4" fill-opacity="1.000000" fill-rule="nonzero"/>
	<path id="Vector" d="M124.06 69.51L124 69.51L108.95 67.98C108.88 67.97 108.82 67.95 108.76 67.92C108.7 67.89 108.65 67.85 108.61 67.8C108.57 67.75 108.54 67.69 108.52 67.63C108.5 67.56 108.5 67.5 108.5 67.43C108.52 67.3 108.58 67.19 108.68 67.1C108.79 67.02 108.91 66.98 109.05 66.99L124.11 68.53C124.24 68.53 124.37 68.58 124.46 68.67C124.55 68.77 124.6 68.89 124.6 69.02C124.6 69.15 124.55 69.28 124.46 69.37C124.37 69.46 124.24 69.52 124.11 69.52L124.06 69.51Z" fill="#D1D3D4" fill-opacity="1.000000" fill-rule="nonzero"/>
	<path id="Vector" d="M165.95 81.91L93.07 74.27C93.01 74.27 92.94 74.25 92.89 74.22C92.83 74.19 92.78 74.14 92.74 74.09C92.69 74.04 92.66 73.98 92.64 73.92C92.63 73.86 92.62 73.79 92.63 73.73C92.64 73.6 92.71 73.48 92.81 73.4C92.91 73.32 93.04 73.28 93.17 73.3L166.05 80.93C166.17 80.95 166.29 81.01 166.37 81.11C166.46 81.22 166.49 81.35 166.48 81.47C166.47 81.54 166.45 81.6 166.42 81.66C166.39 81.71 166.35 81.76 166.3 81.8C166.25 81.84 166.2 81.87 166.14 81.89C166.07 81.91 166.01 81.92 165.95 81.91Z" fill="#D1D3D4" fill-opacity="1.000000" fill-rule="nonzero"/>
	<path id="Vector" d="M157.8 88.53L157.75 88.53L91.13 81.39C91 81.37 90.88 81.31 90.8 81.2C90.72 81.1 90.68 80.97 90.69 80.84C90.71 80.71 90.77 80.59 90.87 80.51C90.98 80.43 91.11 80.39 91.24 80.4L157.85 87.55C157.98 87.55 158.1 87.6 158.19 87.7C158.29 87.79 158.34 87.92 158.34 88.05C158.34 88.18 158.29 88.3 158.19 88.39C158.1 88.49 157.98 88.54 157.85 88.54L157.8 88.53Z" fill="#D1D3D4" fill-opacity="1.000000" fill-rule="nonzero"/>
	<path id="Vector" d="M147.65 155.14C147.35 155.14 147.05 155.12 146.75 155.08L71.63 145.29C70.82 145.21 70.05 144.94 69.35 144.53C68.66 144.11 68.06 143.55 67.6 142.88C67.15 142.19 66.85 141.41 66.73 140.59C66.61 139.77 66.66 138.94 66.89 138.15L88.52 56.85C89.02 55.17 90.07 53.72 91.51 52.72C92.94 51.72 94.67 51.24 96.42 51.36L171.63 58.67C172.49 58.73 173.32 58.98 174.07 59.4C174.82 59.82 175.47 60.39 175.97 61.09C176.43 61.76 176.74 62.53 176.87 63.34C177.01 64.14 176.96 64.97 176.74 65.76L155.03 149.62C154.56 151.21 153.58 152.61 152.25 153.6C150.92 154.59 149.31 155.13 147.65 155.14ZM146.87 154.1C148.44 154.28 150.03 153.91 151.34 153.03C152.66 152.16 153.63 150.85 154.07 149.33L175.77 65.51C175.96 64.86 176 64.18 175.89 63.51C175.78 62.85 175.53 62.21 175.15 61.65C174.73 61.08 174.18 60.61 173.56 60.27C172.93 59.93 172.24 59.73 171.53 59.68L96.31 52.38C94.8 52.27 93.29 52.69 92.05 53.55C90.8 54.42 89.89 55.68 89.46 57.13L67.82 138.44C67.63 139.1 67.58 139.79 67.68 140.47C67.78 141.15 68.03 141.81 68.4 142.38C68.78 142.93 69.28 143.39 69.85 143.73C70.42 144.07 71.07 144.28 71.73 144.36L146.87 154.1Z" fill="#D1D3D4" fill-opacity="1.000000" fill-rule="nonzero"/>
	<path id="Vector" d="M168.23 97.16L168.17 97.16L80.93 87.58C80.81 87.57 80.69 87.5 80.61 87.4C80.52 87.3 80.49 87.17 80.5 87.04C80.52 86.91 80.58 86.79 80.68 86.71C80.78 86.62 80.91 86.58 81.04 86.6L168.27 96.19C168.34 96.19 168.4 96.21 168.46 96.24C168.52 96.27 168.57 96.31 168.61 96.36C168.65 96.42 168.68 96.47 168.7 96.54C168.72 96.6 168.73 96.66 168.72 96.73C168.7 96.85 168.64 96.96 168.55 97.04C168.46 97.12 168.35 97.16 168.23 97.16Z" fill="#D1D3D4" fill-opacity="1.000000" fill-rule="nonzero"/>
	<path id="Vector" d="M164.71 110.73L164.65 110.73L77.43 100.76C77.3 100.75 77.18 100.68 77.1 100.58C77.02 100.48 76.98 100.35 76.99 100.22C77.01 100.09 77.07 99.97 77.18 99.88C77.28 99.8 77.41 99.76 77.54 99.78L164.76 109.77C164.89 109.78 165.02 109.84 165.1 109.93C165.19 110.03 165.24 110.16 165.23 110.29C165.22 110.42 165.17 110.54 165.07 110.63C164.97 110.72 164.84 110.77 164.71 110.76L164.71 110.73Z" fill="#D1D3D4" fill-opacity="1.000000" fill-rule="nonzero"/>
	<path id="Vector" d="M88.54 99.69L88.49 99.69L87.12 99.62C86.99 99.61 86.85 99.58 86.73 99.51C86.61 99.45 86.51 99.37 86.42 99.26C86.34 99.16 86.28 99.03 86.25 98.9C86.22 98.77 86.22 98.64 86.24 98.5L87 94.71C87.06 94.46 87.2 94.24 87.41 94.08C87.61 93.92 87.86 93.84 88.12 93.85L89.49 93.91C89.62 93.91 89.76 93.95 89.88 94.01C90 94.07 90.1 94.16 90.19 94.26C90.27 94.37 90.33 94.49 90.36 94.62C90.39 94.75 90.39 94.89 90.37 95.02L89.61 98.82C89.56 99.06 89.42 99.28 89.23 99.44C89.03 99.6 88.79 99.69 88.54 99.69ZM88.07 94.83C88.07 94.83 87.97 94.83 87.97 94.9L87.22 98.7L88.54 98.7C88.56 98.71 88.59 98.7 88.6 98.69C88.62 98.67 88.64 98.65 88.64 98.63L89.4 94.82L88.07 94.83Z" fill="#D1D3D4" fill-opacity="1.000000" fill-rule="nonzero"/>
	<path id="Vector" d="M96.12 100.06L90.28 99.78C90.21 99.77 90.14 99.75 90.07 99.72C90.01 99.68 89.96 99.64 89.91 99.58C89.87 99.52 89.84 99.46 89.82 99.39C89.81 99.32 89.81 99.25 89.82 99.19L90.6 95.24C90.63 95.15 90.67 95.06 90.74 94.99C91.28 94.43 91.85 93.73 92.4 93.02C93.92 91.15 94.83 90.11 95.68 90.35C95.79 90.39 95.91 90.45 96 90.53C96.09 90.61 96.16 90.71 96.21 90.83C96.48 91.49 95.94 92.8 95.47 93.74C96.31 93.75 97.14 93.9 97.94 94.17C98.28 94.35 99.07 94.77 96.59 99.78C96.55 99.87 96.49 99.94 96.4 99.99C96.32 100.05 96.22 100.07 96.12 100.06ZM90.87 98.79L95.8 99.04C96.48 97.76 96.99 96.39 97.31 94.98C96.43 94.78 95.53 94.68 94.62 94.68C94.53 94.68 94.45 94.66 94.37 94.61C94.3 94.57 94.24 94.51 94.2 94.43C94.15 94.36 94.13 94.27 94.13 94.19C94.13 94.1 94.15 94.02 94.2 93.95C94.69 93.13 95.05 92.25 95.26 91.32C94.46 92 93.74 92.77 93.12 93.62C92.6 94.27 92.04 94.94 91.51 95.52L90.87 98.79Z" fill="#D1D3D4" fill-opacity="1.000000" fill-rule="nonzero"/>
	<path id="Vector" d="M145.13 147.14L93.28 140.52C92.84 140.47 92.41 140.33 92.03 140.1C91.65 139.88 91.32 139.57 91.08 139.2C90.83 138.83 90.67 138.41 90.6 137.97C90.53 137.53 90.57 137.08 90.69 136.66C90.96 135.73 91.55 134.92 92.35 134.38C93.15 133.84 94.12 133.6 95.08 133.7L146.93 140.23C147.39 140.27 147.83 140.41 148.23 140.64C148.62 140.87 148.96 141.19 149.22 141.56C149.48 141.94 149.66 142.37 149.73 142.82C149.8 143.28 149.77 143.74 149.65 144.18C149.36 145.12 148.75 145.93 147.92 146.47C147.1 147.02 146.11 147.25 145.13 147.14Z" fill="#E6E7E8" fill-opacity="1.000000" fill-rule="nonzero"/>
	<path id="Vector" d="M134.49 126.71L101.21 122.68C100.38 122.61 99.57 122.36 98.84 121.94C98.11 121.52 97.49 120.94 97.02 120.24C96.55 119.55 96.24 118.76 96.11 117.93C95.98 117.11 96.04 116.26 96.28 115.46L96.89 113.15C97.4 111.39 98.51 109.86 100.02 108.83C101.54 107.8 103.36 107.33 105.19 107.49L138.48 111.35C139.33 111.42 140.15 111.67 140.89 112.09C141.63 112.52 142.27 113.1 142.75 113.8C143.24 114.5 143.57 115.3 143.71 116.14C143.84 116.98 143.79 117.84 143.56 118.66L142.95 121.01C142.42 122.8 141.29 124.35 139.75 125.39C138.2 126.43 136.34 126.9 134.49 126.71Z" fill="#2FE784" fill-opacity="1.000000" fill-rule="nonzero"/>
	<path id="Vector" d="M146.48 142.09L146.74 141.1L142.79 140.6L142.54 141.58L141.76 141.48L140.78 145.18L146.31 145.88L147.3 142.17L146.48 142.09ZM143.85 144.35C143.69 144.34 143.55 144.3 143.42 144.22C143.28 144.15 143.17 144.05 143.09 143.92C143 143.8 142.94 143.66 142.92 143.51C142.9 143.36 142.91 143.21 142.96 143.06C143.05 142.75 143.25 142.48 143.52 142.3C143.79 142.12 144.11 142.04 144.44 142.08C144.59 142.08 144.74 142.13 144.87 142.2C145 142.27 145.11 142.38 145.2 142.5C145.29 142.63 145.34 142.77 145.36 142.92C145.39 143.07 145.37 143.22 145.33 143.37C145.23 143.68 145.03 143.95 144.76 144.13C144.49 144.31 144.17 144.38 143.85 144.35Z" fill="#000000" fill-opacity="1.000000" fill-rule="nonzero"/>
	<path id="Vector" d="M104.86 127.1L104.77 127.1L95.89 126.01C95.76 126 95.64 125.93 95.56 125.83C95.48 125.72 95.44 125.59 95.46 125.46C95.48 125.33 95.55 125.21 95.65 125.13C95.75 125.05 95.88 125.02 96.01 125.03L104.89 126.11C105.02 126.12 105.14 126.18 105.23 126.28C105.32 126.38 105.36 126.5 105.36 126.63C105.35 126.77 105.29 126.89 105.19 126.98C105.09 127.06 104.96 127.11 104.83 127.1L104.86 127.1Z" fill="#D1D3D4" fill-opacity="1.000000" fill-rule="nonzero"/>
	<path id="Vector" d="M117.24 128.62L117.19 128.62L108.25 127.52C108.18 127.52 108.12 127.5 108.06 127.46C108.01 127.43 107.96 127.39 107.92 127.34C107.88 127.29 107.85 127.23 107.83 127.17C107.82 127.11 107.81 127.04 107.82 126.98C107.83 126.92 107.85 126.85 107.88 126.8C107.91 126.74 107.95 126.69 108 126.65C108.05 126.61 108.11 126.58 108.17 126.56C108.23 126.54 108.3 126.54 108.36 126.55L117.3 127.64C117.37 127.65 117.43 127.67 117.49 127.7C117.55 127.73 117.6 127.78 117.64 127.83C117.68 127.88 117.71 127.94 117.72 128C117.74 128.06 117.75 128.13 117.74 128.19C117.72 128.31 117.66 128.42 117.57 128.5C117.48 128.57 117.36 128.62 117.24 128.62Z" fill="#D1D3D4" fill-opacity="1.000000" fill-rule="nonzero"/>
	<path id="Vector" d="M137.5 117.39L137.44 117.39L104.63 113.52C104.5 113.5 104.39 113.44 104.31 113.33C104.22 113.23 104.19 113.1 104.2 112.97C104.22 112.84 104.29 112.72 104.39 112.64C104.49 112.56 104.62 112.52 104.75 112.54L137.56 116.4C137.69 116.41 137.81 116.47 137.9 116.57C137.99 116.67 138.03 116.8 138.02 116.93C138.02 117.06 137.96 117.18 137.86 117.27C137.76 117.35 137.63 117.4 137.5 117.39Z" fill="#FFFFFF" fill-opacity="1.000000" fill-rule="nonzero"/>
	<path id="Vector" d="M131.68 121.2L131.62 121.2L103.5 117.83C103.37 117.82 103.25 117.75 103.17 117.65C103.09 117.55 103.05 117.42 103.07 117.29C103.08 117.16 103.15 117.04 103.25 116.96C103.35 116.88 103.48 116.84 103.61 116.86L131.74 120.21C131.87 120.23 131.99 120.3 132.07 120.4C132.14 120.5 132.18 120.63 132.16 120.76C132.15 120.88 132.09 120.99 132 121.07C131.91 121.15 131.8 121.2 131.68 121.2Z" fill="#FFFFFF" fill-opacity="1.000000" fill-rule="nonzero"/>
	<path id="Vector" d="M123.99 104.55C123.72 104.55 123.5 104.27 122.5 102.66C122.16 102.66 121.82 102.66 121.52 102.66C120.7 102.61 119.9 102.38 119.18 102C118.46 101.61 117.82 101.08 117.32 100.43C117.04 100.04 116.85 99.6 116.77 99.13C116.68 98.67 116.7 98.18 116.82 97.73C117.43 95.42 120.4 93.88 123.58 94.23C124.4 94.28 125.2 94.5 125.93 94.89C126.66 95.27 127.3 95.8 127.8 96.45C128.08 96.84 128.27 97.28 128.36 97.75C128.44 98.22 128.43 98.7 128.31 99.16C128.05 99.9 127.63 100.56 127.06 101.1C126.5 101.64 125.81 102.04 125.06 102.25C124.74 103.44 124.59 104.06 124.57 104.16C124.55 104.26 124.5 104.35 124.43 104.43C124.36 104.5 124.27 104.56 124.17 104.58L123.99 104.55ZM122.77 101.66C122.85 101.66 122.94 101.68 123.01 101.72C123.08 101.76 123.15 101.82 123.19 101.89C123.46 102.33 123.67 102.67 123.84 102.88L124.16 101.65C124.18 101.57 124.22 101.5 124.28 101.44C124.34 101.38 124.41 101.34 124.49 101.32C125.13 101.17 125.72 100.86 126.22 100.42C126.71 99.99 127.1 99.44 127.33 98.82C127.41 98.5 127.42 98.16 127.36 97.83C127.3 97.51 127.17 97.2 126.97 96.93C126.54 96.4 126.01 95.97 125.41 95.66C124.8 95.35 124.14 95.16 123.46 95.12C120.78 94.82 118.23 96.11 117.76 97.89C117.67 98.22 117.66 98.55 117.72 98.88C117.79 99.21 117.92 99.52 118.11 99.79C118.54 100.31 119.07 100.74 119.67 101.05C120.27 101.36 120.93 101.54 121.61 101.58C121.99 101.62 122.37 101.62 122.75 101.58L122.77 101.66Z" fill="#D1D3D4" fill-opacity="1.000000" fill-rule="nonzero"/>
	<path id="Vector" d="M121.37 98.4C121.32 98.57 121.21 98.72 121.06 98.82C120.91 98.92 120.73 98.97 120.55 98.96C120.47 98.95 120.39 98.93 120.32 98.89C120.25 98.85 120.19 98.79 120.14 98.73C120.09 98.66 120.06 98.58 120.05 98.5C120.04 98.42 120.04 98.34 120.07 98.26C120.11 98.08 120.22 97.93 120.37 97.83C120.52 97.73 120.7 97.68 120.88 97.7C120.96 97.7 121.04 97.73 121.11 97.77C121.18 97.81 121.24 97.86 121.29 97.93C121.34 98 121.37 98.07 121.38 98.15C121.4 98.23 121.39 98.32 121.37 98.4Z" fill="#D1D3D4" fill-opacity="1.000000" fill-rule="nonzero"/>
	<path id="Vector" d="M123.37 98.62C123.32 98.8 123.21 98.95 123.07 99.05C122.92 99.16 122.73 99.2 122.55 99.19C122.47 99.18 122.39 99.15 122.32 99.11C122.25 99.07 122.19 99.01 122.14 98.95C122.09 98.88 122.06 98.8 122.05 98.72C122.04 98.64 122.05 98.55 122.07 98.48C122.12 98.3 122.23 98.15 122.38 98.05C122.53 97.95 122.71 97.91 122.89 97.92C122.97 97.93 123.05 97.95 123.12 97.99C123.19 98.03 123.25 98.09 123.3 98.16C123.35 98.22 123.38 98.3 123.39 98.38C123.4 98.46 123.4 98.54 123.37 98.62Z" fill="#D1D3D4" fill-opacity="1.000000" fill-rule="nonzero"/>
	<path id="Vector" d="M125.38 98.85C125.33 99.02 125.23 99.18 125.08 99.28C124.93 99.38 124.75 99.43 124.57 99.41C124.48 99.4 124.41 99.38 124.34 99.34C124.27 99.29 124.21 99.24 124.16 99.17C124.11 99.1 124.08 99.02 124.07 98.94C124.06 98.86 124.06 98.78 124.08 98.7C124.13 98.53 124.24 98.38 124.39 98.28C124.54 98.18 124.72 98.13 124.9 98.15C124.98 98.15 125.06 98.18 125.13 98.22C125.2 98.26 125.27 98.32 125.31 98.38C125.36 98.45 125.39 98.53 125.4 98.61C125.41 98.69 125.41 98.77 125.38 98.85Z" fill="#D1D3D4" fill-opacity="1.000000" fill-rule="nonzero"/>
	<path id="Vector" d="M150.59 105.18C150.47 105.18 150.36 105.14 150.27 105.07C150.18 104.99 150.12 104.89 150.11 104.77C150.09 104.66 150.11 104.54 150.17 104.44C151.36 102.58 153.02 101.06 154.99 100.05L154.64 99.23C154.6 99.16 154.58 99.08 154.58 99C154.58 98.92 154.6 98.83 154.64 98.76C154.69 98.69 154.75 98.63 154.82 98.6C154.9 98.56 154.98 98.54 155.06 98.54L159.58 98.69C159.66 98.7 159.74 98.72 159.81 98.76C159.88 98.8 159.94 98.86 159.99 98.93C160.03 99 160.05 99.08 160.05 99.16C160.05 99.24 160.03 99.32 159.99 99.39L158.13 103.34C158.1 103.42 158.04 103.49 157.97 103.54C157.9 103.59 157.82 103.62 157.74 103.63C157.65 103.64 157.57 103.62 157.49 103.59C157.41 103.56 157.35 103.51 157.29 103.44L156.48 102.39C154.47 102.98 152.56 103.89 150.83 105.09C150.76 105.14 150.68 105.17 150.59 105.18ZM155.85 99.56L156.09 100.09C156.14 100.21 156.15 100.35 156.1 100.47C156.05 100.59 155.96 100.69 155.84 100.74C154.75 101.26 153.75 101.95 152.88 102.78C154.1 102.2 155.36 101.73 156.65 101.35C156.75 101.32 156.85 101.32 156.94 101.35C157.03 101.38 157.11 101.44 157.17 101.51L157.7 102.2L158.89 99.66L155.85 99.56Z" fill="#D1D3D4" fill-opacity="1.000000" fill-rule="nonzero"/>
	<path id="Vector" d="M155.99 106.82L149.25 106.05C149.18 106.05 149.11 106.03 149.05 105.99C148.99 105.96 148.94 105.91 148.9 105.85C148.86 105.79 148.83 105.72 148.82 105.65C148.81 105.58 148.81 105.51 148.83 105.44L150.41 99.39C150.44 99.28 150.5 99.18 150.6 99.11C150.7 99.05 150.81 99.02 150.93 99.03L153.95 99.36C154.08 99.38 154.2 99.44 154.28 99.55C154.36 99.65 154.4 99.78 154.39 99.91C154.37 100.04 154.31 100.16 154.2 100.24C154.1 100.33 153.97 100.36 153.84 100.35L151.25 100.05L149.92 105.15L155.67 105.8L156.27 103.53C156.28 103.46 156.31 103.4 156.35 103.35C156.39 103.3 156.44 103.25 156.49 103.22C156.55 103.19 156.61 103.17 156.67 103.16C156.74 103.15 156.81 103.15 156.87 103.17C156.99 103.21 157.1 103.29 157.17 103.4C157.23 103.51 157.25 103.65 157.21 103.77L156.52 106.46C156.49 106.57 156.42 106.67 156.33 106.74C156.23 106.81 156.11 106.84 155.99 106.82Z" fill="#D1D3D4" fill-opacity="1.000000" fill-rule="nonzero"/>
	<path id="Vector" d="M184.32 52.32L184.27 52.32L89.45 43.29C89.39 43.29 89.32 43.27 89.26 43.24C89.21 43.21 89.16 43.17 89.11 43.12C89.07 43.07 89.04 43.01 89.02 42.95C89 42.89 89 42.82 89.01 42.76C89.01 42.69 89.03 42.63 89.06 42.57C89.09 42.52 89.13 42.46 89.18 42.42C89.23 42.38 89.29 42.35 89.35 42.33C89.41 42.31 89.47 42.31 89.54 42.31L184.36 51.33C184.42 51.34 184.49 51.36 184.54 51.39C184.6 51.42 184.65 51.46 184.69 51.51C184.73 51.56 184.76 51.62 184.78 51.68C184.8 51.74 184.81 51.81 184.8 51.87C184.79 52 184.74 52.11 184.65 52.19C184.56 52.27 184.44 52.32 184.32 52.32Z" fill="#D1D3D4" fill-opacity="1.000000" fill-rule="nonzero"/>
	<path id="Vector" d="M107.73 39.81L107.63 39.81L104.28 39.57C104.17 39.57 104.16 39.57 104.19 39.43C104.6 37.99 104.99 36.55 105.39 35.11C105.39 34.97 105.39 34.97 105.56 34.98L106.83 35.09C106.91 35.09 106.95 35.09 106.99 34.98C107.17 34.54 107.35 34.09 107.54 33.65L107.67 33.33C107.67 33.24 107.67 33.21 107.6 33.2L106.09 33.08C105.99 33.08 105.97 33.08 106 32.94C106.11 32.54 106.22 32.13 106.34 31.73C106.39 31.56 106.5 31.41 106.65 31.31C106.79 31.21 106.97 31.16 107.14 31.17L108.18 31.26C108.27 31.26 108.31 31.26 108.33 31.14L108.74 29.65C108.74 29.58 108.74 29.54 108.67 29.53C108.12 29.53 107.58 29.42 107.01 29.41C106.63 29.41 106.25 29.5 105.91 29.67C105.57 29.84 105.27 30.09 105.04 30.39C104.8 30.68 104.62 31.02 104.52 31.38C104.39 31.84 104.26 32.3 104.14 32.75C104.14 32.85 104.07 32.87 103.97 32.86L102.68 32.75C102.59 32.75 102.56 32.75 102.53 32.86C102.39 33.42 102.23 33.99 102.07 34.55C102.07 34.65 102.07 34.67 102.15 34.68L103.46 34.78C103.55 34.78 103.57 34.78 103.54 34.9L102.33 39.27C102.33 39.35 102.33 39.38 102.19 39.37L96.11 38.93L96.01 38.93L99.32 26.86L111.09 27.91L107.73 39.81Z" fill="#2FE784" fill-opacity="1.000000" fill-rule="nonzero"/>
	<path id="Vector" d="M70.04 19.8L9.75 30.76C8.29 31.02 6.9 31.57 5.66 32.37C4.42 33.17 3.35 34.21 2.51 35.42C1.67 36.64 1.07 38.01 0.76 39.45C0.45 40.9 0.42 42.39 0.69 43.84L8.38 86.15C8.91 89.09 10.59 91.69 13.05 93.39C15.5 95.09 18.53 95.74 21.47 95.21L73.11 85.82L83.07 94.37L82.54 84.06C85.3 83.36 87.68 81.63 89.22 79.24C90.76 76.85 91.33 73.96 90.82 71.16L83.12 28.87C82.86 27.41 82.32 26.02 81.52 24.78C80.72 23.54 79.68 22.46 78.46 21.62C77.25 20.78 75.88 20.18 74.43 19.87C72.99 19.56 71.5 19.53 70.04 19.8Z" fill="#FFFFFF" fill-opacity="1.000000" fill-rule="nonzero"/>
	<path id="Vector" d="M19.45 95.88C16.7 95.87 14.04 94.91 11.92 93.14C9.81 91.38 8.39 88.94 7.89 86.23L0.19 43.93C-0.09 42.41 -0.07 40.85 0.26 39.35C0.59 37.84 1.21 36.41 2.09 35.14C2.97 33.87 4.09 32.79 5.39 31.95C6.69 31.12 8.14 30.55 9.66 30.28L69.95 19.31C73.01 18.76 76.17 19.44 78.73 21.2C81.29 22.97 83.04 25.68 83.61 28.74L91.3 71.04C91.83 73.89 91.27 76.84 89.75 79.31C88.23 81.79 85.85 83.61 83.07 84.43L83.57 94.3C83.57 94.4 83.55 94.49 83.5 94.57C83.45 94.65 83.38 94.72 83.29 94.76C83.21 94.8 83.11 94.82 83.02 94.81C82.92 94.8 82.83 94.76 82.76 94.7L72.99 86.3L21.59 95.65C20.88 95.79 20.16 95.87 19.45 95.88ZM70.13 20.28L9.84 31.24C8.44 31.5 7.12 32.02 5.93 32.78C4.74 33.55 3.72 34.54 2.91 35.7C2.11 36.87 1.54 38.17 1.24 39.56C0.94 40.94 0.92 42.36 1.17 43.75L8.87 86.06C9.38 88.87 10.99 91.36 13.33 92.98C15.68 94.6 18.57 95.23 21.38 94.73L73.02 85.33C73.09 85.32 73.17 85.32 73.24 85.34C73.31 85.36 73.38 85.39 73.44 85.44L82.49 93.25L82.08 84.09C82.08 83.98 82.11 83.86 82.18 83.77C82.25 83.68 82.34 83.62 82.45 83.59C85.08 82.9 87.36 81.25 88.82 78.96C90.28 76.67 90.83 73.92 90.35 71.24L82.66 28.94C82.15 26.14 80.54 23.65 78.2 22.03C75.85 20.4 72.96 19.78 70.15 20.28L70.13 20.28Z" fill="#000000" fill-opacity="1.000000" fill-rule="nonzero"/>
	<path id="Vector" d="M20.34 59.14L35.06 56.45L38.94 77.78L26.2 80.1L20.34 59.14Z" fill="#2FE784" fill-opacity="1.000000" fill-rule="nonzero"/>
	<path id="Vector" d="M26.2 80.6C26.1 80.6 25.99 80.56 25.91 80.49C25.82 80.43 25.76 80.34 25.73 80.23L19.92 59.26C19.89 59.2 19.88 59.14 19.88 59.07C19.88 59 19.89 58.93 19.92 58.87C19.96 58.81 20.01 58.76 20.06 58.73C20.12 58.69 20.19 58.66 20.25 58.65L34.98 55.97C35.04 55.96 35.11 55.96 35.17 55.97C35.23 55.99 35.29 56.01 35.35 56.05C35.4 56.09 35.44 56.14 35.48 56.19C35.51 56.25 35.54 56.31 35.55 56.37L39.43 77.7C39.45 77.82 39.42 77.96 39.35 78.06C39.27 78.17 39.16 78.24 39.03 78.27L26.29 80.59L26.2 80.6ZM20.97 59.52L26.56 79.53L38.4 77.39L34.72 57.04L20.97 59.52Z" fill="#000000" fill-opacity="1.000000" fill-rule="nonzero"/>
	<path id="Vector" d="M36.04 74.8C36.04 75.75 35.27 76.52 34.32 76.52C33.38 76.52 32.61 75.75 32.61 74.8C32.61 73.86 33.38 73.09 34.32 73.09C35.27 73.09 36.04 73.86 36.04 74.8Z" fill="#000000" fill-opacity="1.000000" fill-rule="evenodd"/>
	<path id="Vector" d="M35.31 57.78C35.31 57.78 36.19 57.48 38.34 54.28C40.49 51.09 43.09 43.2 43.14 41.9C43.18 40.6 41.76 35.54 42.34 34.35C42.91 33.17 45.9 31.76 47.62 33.36C49.48 35.29 50.83 37.63 51.57 40.19C51.89 41.94 51.99 49.18 51.99 49.18L66.79 46.5C68.95 46.11 69.75 47.55 69.87 49.25C70 50.95 68.44 53.27 68.44 53.27C68.44 53.27 70.42 53.61 70.27 56.16C70.25 56.88 70.06 57.58 69.71 58.22C69.37 58.85 68.89 59.39 68.3 59.81C68.74 60.06 69.09 60.45 69.28 60.93C69.47 61.41 69.49 61.93 69.34 62.42C69.26 63.01 69.06 63.57 68.75 64.08C68.45 64.59 68.05 65.03 67.58 65.38C68.12 65.57 68.57 65.97 68.82 66.49C69.08 67.01 69.12 67.61 68.94 68.15C68.48 70.4 67.48 71.95 65.67 72.35C63.87 72.74 45.94 75.95 44.16 76.29C42.39 76.64 42.19 75.72 41.2 75.57C40.29 75.53 39.38 75.62 38.5 75.84L35.31 57.78Z" fill="#FFFFFF" fill-opacity="1.000000" fill-rule="nonzero"/>
	<path id="Vector" d="M43.51 76.79C42.93 76.79 42.36 76.62 41.88 76.29C41.68 76.15 41.45 76.05 41.2 76C40.36 75.96 39.51 76.05 38.7 76.26C38.63 76.27 38.56 76.28 38.5 76.27C38.43 76.26 38.37 76.23 38.31 76.2C38.25 76.16 38.21 76.11 38.17 76.06C38.13 76 38.11 75.94 38.09 75.87L34.82 57.87C34.8 57.76 34.82 57.64 34.87 57.54C34.93 57.44 35.02 57.36 35.12 57.32C35.19 57.32 36.02 56.84 37.93 54.01C40.09 50.8 42.6 42.99 42.64 41.88C42.58 41.02 42.45 40.16 42.27 39.31C41.79 36.8 41.5 34.95 41.89 34.13C42.23 33.63 42.66 33.2 43.17 32.87C43.68 32.54 44.25 32.33 44.85 32.23C45.4 32.11 45.96 32.12 46.5 32.25C47.04 32.39 47.54 32.66 47.95 33.03C49.89 35.02 51.3 37.46 52.07 40.12C52.34 41.61 52.45 46.84 52.48 48.62L66.67 46.03C67.08 45.93 67.5 45.92 67.92 46C68.33 46.07 68.73 46.24 69.08 46.48C69.47 46.82 69.78 47.24 70 47.72C70.21 48.19 70.33 48.7 70.34 49.22C70.31 50.58 69.9 51.9 69.15 53.03C69.7 53.34 70.14 53.81 70.42 54.37C70.7 54.94 70.81 55.57 70.73 56.2C70.69 57.56 70.11 58.86 69.12 59.81C69.46 60.17 69.71 60.6 69.83 61.08C69.96 61.55 69.97 62.05 69.85 62.53C69.68 63.56 69.19 64.51 68.46 65.25C68.91 65.59 69.24 66.05 69.41 66.58C69.59 67.11 69.6 67.68 69.45 68.21C68.92 70.84 67.69 72.38 65.81 72.79C64.37 73.11 52.69 75.2 47.06 76.21L44.28 76.71C44.03 76.76 43.77 76.78 43.51 76.79ZM40.8 74.99C40.98 74.98 41.17 74.98 41.35 74.99C41.7 75.06 42.04 75.2 42.34 75.41C42.58 75.58 42.87 75.7 43.17 75.75C43.47 75.8 43.77 75.78 44.06 75.7L46.86 75.21C52.46 74.22 64.13 72.11 65.6 71.8C67.07 71.48 68.04 70.23 68.49 67.99C68.65 67.56 68.64 67.1 68.45 66.68C68.27 66.27 67.93 65.95 67.51 65.79C67.42 65.76 67.34 65.71 67.28 65.63C67.21 65.56 67.17 65.48 67.16 65.38C67.15 65.29 67.17 65.19 67.21 65.11C67.25 65.02 67.31 64.95 67.39 64.9C68.22 64.28 68.78 63.35 68.94 62.32C69.21 60.77 68.28 60.29 68.17 60.24C68.09 60.2 68.02 60.14 67.97 60.07C67.92 59.99 67.89 59.91 67.88 59.82C67.88 59.73 67.9 59.64 67.94 59.56C67.98 59.48 68.04 59.42 68.12 59.37C68.63 58.99 69.05 58.5 69.34 57.94C69.63 57.37 69.79 56.74 69.81 56.11C69.89 54.13 68.54 53.76 68.38 53.73C68.3 53.71 68.23 53.67 68.17 53.62C68.1 53.57 68.05 53.5 68.02 53.42C67.98 53.35 67.96 53.27 67.96 53.19C67.96 53.11 67.98 53.03 68.02 52.96C68.43 52.36 69.49 50.51 69.36 49.28C69.37 48.89 69.29 48.51 69.14 48.16C68.99 47.8 68.77 47.48 68.49 47.22C68.25 47.06 67.98 46.96 67.7 46.92C67.42 46.88 67.13 46.89 66.85 46.97L52.05 49.65C51.98 49.66 51.91 49.66 51.84 49.64C51.77 49.62 51.71 49.59 51.65 49.55C51.59 49.5 51.55 49.44 51.52 49.38C51.49 49.31 51.47 49.24 51.47 49.17C51.47 49.1 51.37 41.95 51.07 40.29C50.34 37.83 49.02 35.58 47.24 33.74C46.94 33.48 46.58 33.29 46.19 33.19C45.8 33.1 45.4 33.09 45.01 33.19C44.56 33.25 44.12 33.41 43.73 33.65C43.34 33.88 43 34.19 42.73 34.56C42.44 35.14 42.89 37.52 43.18 39.13C43.39 40.04 43.53 40.97 43.58 41.91C43.52 43.3 40.88 51.3 38.65 54.55C37.87 55.84 36.89 57.01 35.76 58.01L38.87 75.18C39.51 75.06 40.15 75 40.8 74.99Z" fill="#000000" fill-opacity="1.000000" fill-rule="nonzero"/>
	<path id="Vector" d="M63.92 144.49L76.6 136.85L63.33 139.48L62.9 135.81C62.79 134.87 62.5 133.96 62.03 133.13C61.57 132.3 60.95 131.57 60.21 130.98C59.46 130.39 58.61 129.95 57.7 129.69C56.78 129.43 55.83 129.36 54.89 129.47L11.04 134.57C10.1 134.68 9.18 134.97 8.36 135.43C7.53 135.89 6.8 136.51 6.21 137.26C5.62 138 5.18 138.86 4.92 139.77C4.66 140.68 4.58 141.64 4.69 142.58L7.65 168.45C7.77 169.4 8.07 170.31 8.54 171.14C9.01 171.97 9.64 172.7 10.39 173.29C11.14 173.87 12 174.31 12.92 174.56C13.84 174.81 14.8 174.88 15.75 174.76L59.57 169.66C61.48 169.44 63.22 168.47 64.41 166.97C65.6 165.46 66.14 163.55 65.92 161.64L63.92 144.49Z" fill="#FFFFFF" fill-opacity="1.000000" fill-rule="nonzero"/>
	<path id="Vector" d="M14.91 175.34C13.01 175.33 11.19 174.64 9.77 173.38C8.36 172.12 7.45 170.39 7.23 168.51L4.27 142.64C4.04 140.61 4.62 138.57 5.89 136.96C7.16 135.36 9.01 134.32 11.04 134.07L54.88 128.97C56.91 128.74 58.95 129.32 60.56 130.59C62.16 131.86 63.2 133.72 63.44 135.75L63.81 138.9L76.54 136.36C76.66 136.34 76.78 136.35 76.88 136.41C76.99 136.47 77.07 136.56 77.11 136.67C77.15 136.77 77.16 136.9 77.12 137.01C77.08 137.12 77 137.21 76.9 137.27L64.49 144.75L66.46 161.62C66.7 163.66 66.12 165.7 64.84 167.31C63.57 168.91 61.72 169.95 59.68 170.19L15.85 175.29C15.54 175.33 15.22 175.34 14.91 175.34ZM55.74 129.95C55.48 129.94 55.22 129.94 54.96 129.95L11.12 135.05C10.24 135.15 9.39 135.43 8.62 135.86C7.84 136.29 7.16 136.87 6.61 137.56C6.06 138.25 5.65 139.05 5.41 139.9C5.17 140.75 5.1 141.64 5.2 142.52L8.16 168.4C8.37 170.17 9.27 171.79 10.67 172.9C12.07 174.01 13.85 174.52 15.63 174.32L59.46 169.22C61.24 169.01 62.86 168.11 63.97 166.71C65.08 165.31 65.59 163.53 65.38 161.75L63.41 144.56C63.4 144.47 63.42 144.37 63.46 144.29C63.5 144.2 63.57 144.13 63.65 144.08L73.92 137.89L63.41 139.97C63.35 139.99 63.28 139.99 63.21 139.98C63.14 139.96 63.08 139.93 63.03 139.89C62.92 139.81 62.85 139.69 62.83 139.55L62.41 135.88C62.21 134.24 61.43 132.73 60.2 131.63C58.97 130.53 57.38 129.92 55.74 129.91L55.74 129.95Z" fill="#000000" fill-opacity="1.000000" fill-rule="nonzero"/>
	<path id="Vector" d="M16.85 152.25L26.37 151.19L27.89 164.98L19.65 165.88L16.85 152.25Z" fill="#2FE784" fill-opacity="1.000000" fill-rule="nonzero"/>
	<path id="Vector" d="M19.65 166.38C19.54 166.38 19.43 166.34 19.34 166.27C19.25 166.19 19.19 166.09 19.17 165.98L16.37 152.35C16.35 152.28 16.35 152.21 16.37 152.14C16.38 152.07 16.41 152.01 16.45 151.95C16.49 151.9 16.55 151.85 16.61 151.82C16.67 151.78 16.73 151.76 16.8 151.75L26.31 150.71C26.44 150.7 26.57 150.73 26.67 150.82C26.78 150.9 26.84 151.01 26.86 151.14L28.38 164.96C28.39 165.02 28.39 165.09 28.37 165.15C28.35 165.21 28.32 165.27 28.28 165.32C28.23 165.37 28.18 165.41 28.13 165.44C28.07 165.47 28.01 165.49 27.94 165.5L19.71 166.41L19.65 166.38ZM17.44 152.67L20.05 165.34L27.35 164.54L25.93 151.72L17.44 152.67Z" fill="#000000" fill-opacity="1.000000" fill-rule="nonzero"/>
	<path id="Vector" d="M26.18 162.87C26.18 163.48 25.69 163.97 25.08 163.97C24.47 163.97 23.97 163.48 23.97 162.87C23.97 162.25 24.47 161.76 25.08 161.76C25.69 161.76 26.18 162.25 26.18 162.87Z" fill="#000000" fill-opacity="1.000000" fill-rule="evenodd"/>
	<path id="Vector" d="M26.46 152.07C26.46 152.07 27.04 151.91 28.55 149.97C30.13 147.6 31.35 145.01 32.17 142.28C32.26 141.45 31.58 138.16 32 137.43C32.41 136.7 34.38 135.94 35.42 137.05C36.52 138.36 37.29 139.92 37.65 141.59C37.77 142.72 37.51 147.34 37.51 147.34L47.05 146.29C48.44 146.14 48.87 147.1 48.9 148.18C48.77 149.1 48.39 149.96 47.8 150.68C48.19 150.82 48.5 151.1 48.69 151.47C48.87 151.84 48.91 152.26 48.79 152.65C48.75 153.11 48.6 153.55 48.36 153.94C48.12 154.33 47.79 154.66 47.4 154.9C47.67 155.08 47.88 155.35 47.98 155.66C48.08 155.98 48.07 156.31 47.95 156.62C47.78 157.35 47.32 157.99 46.69 158.39C47.03 158.54 47.3 158.82 47.44 159.16C47.58 159.5 47.58 159.89 47.44 160.23C47.04 161.64 46.33 162.58 45.17 162.76C44 162.93 32.34 164.17 31.27 164.29C30.19 164.4 30.04 163.84 29.43 163.7C28.85 163.64 28.27 163.65 27.69 163.75L26.46 152.07Z" fill="#FFFFFF" fill-opacity="1.000000" fill-rule="nonzero"/>
	<path id="Vector" d="M31.02 164.73C30.55 164.74 30.1 164.59 29.73 164.31C29.63 164.22 29.5 164.15 29.37 164.12C28.86 164.04 28.34 164.04 27.82 164.12C27.69 164.14 27.56 164.11 27.45 164.03C27.39 163.99 27.35 163.94 27.32 163.88C27.28 163.82 27.27 163.75 27.26 163.68L25.98 152.07C25.96 151.96 25.99 151.85 26.05 151.75C26.11 151.66 26.2 151.59 26.3 151.56C27.04 151.03 27.68 150.36 28.17 149.58C29.68 147.28 30.87 144.78 31.68 142.14C31.68 141.6 31.63 141.06 31.55 140.53C31.35 138.82 31.26 137.66 31.55 137.09C31.8 136.76 32.12 136.49 32.49 136.28C32.85 136.08 33.26 135.96 33.67 135.93C34.05 135.87 34.44 135.91 34.8 136.03C35.16 136.15 35.49 136.36 35.76 136.63C36.93 138.01 37.75 139.67 38.12 141.44C38.22 142.36 38.12 145.39 38.01 146.7L46.97 145.72C47.26 145.67 47.56 145.68 47.85 145.75C48.13 145.83 48.4 145.96 48.63 146.14C48.88 146.4 49.08 146.71 49.21 147.05C49.34 147.39 49.39 147.75 49.37 148.11C49.31 148.96 49.01 149.77 48.51 150.45C48.83 150.7 49.07 151.04 49.21 151.42C49.35 151.8 49.39 152.21 49.31 152.6C49.22 153.46 48.82 154.26 48.19 154.84C48.36 155.1 48.48 155.4 48.53 155.71C48.57 156.01 48.55 156.33 48.46 156.63C48.31 157.25 47.99 157.82 47.54 158.27C47.77 158.53 47.94 158.85 48.01 159.2C48.08 159.55 48.06 159.91 47.94 160.24C47.47 161.96 46.57 162.93 45.27 163.12C44.28 163.27 36.7 164.11 33.05 164.48L31.34 164.66C31.24 164.69 31.13 164.72 31.02 164.73ZM28.9 163.09C29.13 163.08 29.36 163.1 29.59 163.15C29.85 163.21 30.09 163.33 30.29 163.5C30.43 163.61 30.59 163.69 30.76 163.73C30.93 163.77 31.1 163.77 31.28 163.73L32.98 163.55C36.35 163.18 44.23 162.34 45.16 162.2C46.09 162.07 46.67 161.36 47.03 160.02C47.29 159.09 46.66 158.82 46.59 158.79C46.5 158.75 46.43 158.7 46.37 158.62C46.31 158.55 46.27 158.46 46.26 158.37C46.26 158.27 46.28 158.18 46.32 158.09C46.37 158.01 46.44 157.94 46.52 157.89C46.77 157.73 46.99 157.51 47.16 157.26C47.33 157.01 47.45 156.73 47.51 156.43C47.73 155.55 47.21 155.28 47.21 155.27C47.13 155.23 47.06 155.17 47.01 155.09C46.97 155.01 46.94 154.92 46.94 154.83C46.94 154.74 46.97 154.65 47.01 154.58C47.06 154.5 47.13 154.44 47.21 154.4C47.53 154.19 47.79 153.92 47.99 153.6C48.18 153.27 48.3 152.91 48.34 152.53C48.46 151.43 47.8 151.17 47.66 151.13C47.59 151.11 47.51 151.07 47.45 151.01C47.4 150.96 47.35 150.89 47.33 150.81C47.3 150.73 47.3 150.65 47.31 150.57C47.33 150.49 47.36 150.42 47.41 150.35C47.93 149.73 48.27 148.98 48.39 148.17C48.42 147.73 48.28 147.3 47.99 146.96C47.86 146.87 47.72 146.8 47.56 146.77C47.41 146.73 47.25 146.73 47.09 146.76L37.55 147.82C37.48 147.82 37.41 147.81 37.34 147.79C37.27 147.77 37.21 147.73 37.16 147.68C37.11 147.63 37.07 147.57 37.04 147.5C37.02 147.44 37 147.37 37.01 147.3C37.1 145.71 37.25 142.48 37.15 141.62C36.79 140.06 36.07 138.6 35.04 137.37C34.88 137.21 34.68 137.09 34.47 137.02C34.25 136.96 34.02 136.94 33.79 136.98C33.26 137.02 32.77 137.26 32.42 137.66C32.32 138.6 32.35 139.55 32.52 140.49C32.62 141.09 32.66 141.71 32.65 142.32C31.82 145.13 30.57 147.79 28.94 150.22C28.38 150.99 27.71 151.68 26.96 152.28L28.16 163.13C28.39 163.11 28.65 163.09 28.9 163.09Z" fill="#000000" fill-opacity="1.000000" fill-rule="nonzero"/>
	<path id="Vector" d="M239.62 173.27L232.57 125.82C232.45 125.04 232.18 124.29 231.78 123.61C231.37 122.93 230.84 122.34 230.21 121.87C229.57 121.4 228.85 121.06 228.09 120.87C227.32 120.68 226.53 120.64 225.75 120.75L166.18 129.63L151.49 118.78L157.66 130.98C156.34 131.44 155.22 132.35 154.5 133.55C153.78 134.74 153.5 136.16 153.71 137.54L160.77 185.01C160.88 185.79 161.15 186.53 161.56 187.21C161.96 187.89 162.5 188.48 163.13 188.94C163.76 189.41 164.48 189.75 165.25 189.94C166.01 190.14 166.8 190.17 167.58 190.06L234.62 180.09C236.18 179.85 237.59 178.99 238.53 177.71C239.46 176.44 239.86 174.84 239.62 173.27Z" fill="#FFFFFF" fill-opacity="1.000000" fill-rule="nonzero"/>
	<path id="Vector" d="M166.65 190.62C165.09 190.61 163.59 190.05 162.41 189.04C161.23 188.02 160.46 186.61 160.22 185.08L153.17 137.62C152.96 136.21 153.22 134.77 153.9 133.52C154.59 132.27 155.67 131.28 156.98 130.71L151.06 119C151.01 118.9 151 118.78 151.02 118.68C151.04 118.57 151.1 118.47 151.19 118.4C151.27 118.33 151.38 118.29 151.49 118.29C151.6 118.29 151.71 118.33 151.8 118.4L166.32 129.1L225.68 120.22C227.38 119.98 229.12 120.41 230.5 121.44C231.89 122.46 232.81 123.99 233.07 125.7L240.12 173.16C240.37 174.86 239.94 176.6 238.91 177.98C237.88 179.37 236.35 180.29 234.65 180.55L167.61 190.55C167.29 190.59 166.97 190.62 166.65 190.62ZM152.83 120.41L158.07 130.76C158.1 130.82 158.12 130.89 158.12 130.96C158.12 131.03 158.1 131.1 158.07 131.16C158.05 131.23 158.01 131.29 157.96 131.34C157.9 131.39 157.84 131.42 157.78 131.45C156.56 131.87 155.52 132.7 154.85 133.79C154.18 134.89 153.92 136.19 154.11 137.47L161.16 184.93C161.27 185.64 161.51 186.33 161.89 186.95C162.26 187.58 162.75 188.12 163.33 188.55C163.91 188.98 164.57 189.29 165.28 189.47C165.98 189.64 166.71 189.68 167.43 189.57L234.45 179.61C235.9 179.39 237.2 178.61 238.07 177.44C238.94 176.26 239.31 174.79 239.1 173.34L232.05 125.89C231.84 124.44 231.06 123.14 229.88 122.27C228.71 121.4 227.23 121.03 225.79 121.24L166.23 130.12C166.17 130.13 166.1 130.12 166.04 130.11C165.98 130.09 165.92 130.06 165.87 130.02L152.83 120.41Z" fill="#000000" fill-opacity="1.000000" fill-rule="nonzero"/>
	<path id="Vector" d="M222.22 151.17L206.26 152L207.48 175.1L221.27 174.38L222.22 151.17Z" fill="#2FE784" fill-opacity="1.000000" fill-rule="nonzero"/>
	<path id="Vector" d="M207.48 175.59C207.35 175.59 207.23 175.55 207.14 175.46C207.04 175.37 206.99 175.26 206.98 175.13L205.77 152.07C205.77 152.01 205.78 151.94 205.8 151.88C205.82 151.82 205.85 151.76 205.9 151.72C205.94 151.67 206 151.63 206.05 151.6C206.11 151.58 206.18 151.56 206.24 151.56L222.19 150.72C222.26 150.71 222.32 150.72 222.39 150.75C222.45 150.77 222.51 150.81 222.56 150.86C222.66 150.96 222.71 151.09 222.71 151.23L221.72 174.44C221.72 174.56 221.67 174.68 221.58 174.77C221.5 174.86 221.38 174.91 221.26 174.91L207.45 175.63L207.48 175.59ZM206.78 152.48L207.94 174.59L220.77 173.91L221.66 151.7L206.78 152.48Z" fill="#000000" fill-opacity="1.000000" fill-rule="nonzero"/>
	<path id="Vector" d="M213.38 170.88C213.38 171.89 212.55 172.71 211.54 172.71C210.53 172.71 209.71 171.89 209.71 170.88C209.71 169.86 210.53 169.04 211.54 169.04C212.55 169.04 213.38 169.86 213.38 170.88Z" fill="#000000" fill-opacity="1.000000" fill-rule="evenodd"/>
	<path id="Vector" d="M206.34 153.44C206.34 153.44 205.35 153.34 202.33 150.55C199.32 147.76 194.69 140.21 194.31 138.87C193.94 137.53 194.17 131.96 193.33 130.84C192.48 129.71 188.99 129.02 187.59 131.13C186.13 133.59 185.29 136.36 185.15 139.21C185.25 141.09 186.92 148.64 186.92 148.64L170.94 149.47C168.6 149.59 168.16 151.28 168.4 153.08C168.65 154.87 170.87 156.9 170.87 156.9C170.87 156.9 168.96 157.74 169.7 160.35C169.89 161.09 170.25 161.78 170.75 162.35C171.25 162.93 171.88 163.38 172.59 163.67C172.18 164.04 171.92 164.54 171.84 165.08C171.76 165.61 171.87 166.16 172.14 166.63C172.62 167.8 173.54 168.73 174.7 169.23C174.18 169.56 173.81 170.08 173.67 170.68C173.53 171.28 173.63 171.91 173.96 172.44C174.94 174.66 176.4 176.02 178.38 175.99C180.35 175.96 199.79 174.87 201.67 174.77C203.56 174.68 203.57 173.7 204.53 173.3C205.46 173.04 206.43 172.91 207.4 172.92L206.34 153.44Z" fill="#FFFFFF" fill-opacity="1.000000" fill-rule="nonzero"/>
	<path id="Vector" d="M178.28 176.49C176.26 176.49 174.64 175.2 173.46 172.65C173.18 172.13 173.05 171.54 173.11 170.95C173.16 170.36 173.39 169.8 173.77 169.34C172.83 168.74 172.09 167.87 171.65 166.84C171.41 166.37 171.29 165.85 171.31 165.32C171.33 164.8 171.48 164.28 171.75 163.83C171.12 163.47 170.57 162.99 170.13 162.41C169.69 161.84 169.37 161.18 169.18 160.48C168.94 159.85 168.9 159.17 169.05 158.51C169.21 157.86 169.56 157.27 170.05 156.82C169 155.82 168.24 154.55 167.88 153.15C167.76 152.61 167.75 152.06 167.86 151.52C167.97 150.98 168.19 150.47 168.5 150.02C168.8 149.69 169.16 149.42 169.57 149.24C169.98 149.06 170.42 148.97 170.87 148.97L186.28 148.17C185.88 146.37 184.69 140.84 184.61 139.22C184.75 136.27 185.62 133.39 187.15 130.86C187.48 130.38 187.93 129.99 188.44 129.72C188.96 129.44 189.53 129.3 190.11 129.29C190.75 129.24 191.4 129.32 192.01 129.53C192.61 129.74 193.17 130.08 193.64 130.52C194.24 131.27 194.39 133.25 194.52 135.98C194.53 136.9 194.61 137.83 194.76 138.74C195.08 139.89 199.61 147.38 202.65 150.19C205.39 152.72 206.36 152.94 206.4 152.95C206.51 152.96 206.62 153.02 206.69 153.1C206.77 153.19 206.81 153.3 206.81 153.41L207.8 172.91C207.81 172.98 207.79 173.04 207.77 173.11C207.75 173.17 207.71 173.23 207.66 173.27C207.57 173.37 207.44 173.42 207.31 173.42C206.4 173.41 205.5 173.53 204.63 173.78C204.39 173.89 204.17 174.05 203.99 174.25C203.69 174.57 203.32 174.82 202.91 174.99C202.5 175.16 202.07 175.25 201.62 175.24L198.5 175.41C192.46 175.74 179.87 176.39 178.3 176.45L178.28 176.49ZM190.4 130.28L190.19 130.28C189.76 130.27 189.33 130.38 188.94 130.57C188.56 130.77 188.22 131.06 187.97 131.41C186.57 133.77 185.76 136.44 185.6 139.17C185.69 141 187.35 148.45 187.37 148.53C187.38 148.6 187.38 148.67 187.37 148.74C187.35 148.81 187.32 148.88 187.28 148.93C187.23 148.99 187.18 149.04 187.12 149.07C187.05 149.11 186.98 149.13 186.91 149.13L170.93 149.96C170.62 149.95 170.31 150.01 170.02 150.12C169.74 150.24 169.48 150.42 169.26 150.64C169.04 151 168.89 151.4 168.83 151.81C168.77 152.23 168.8 152.65 168.91 153.06C169.08 154.39 170.63 156.02 171.22 156.57C171.27 156.63 171.32 156.7 171.35 156.77C171.38 156.85 171.38 156.93 171.37 157.01C171.36 157.1 171.32 157.17 171.27 157.24C171.22 157.3 171.15 157.36 171.08 157.39C170.93 157.46 169.58 158.15 170.18 160.25C170.35 160.91 170.67 161.52 171.12 162.03C171.57 162.55 172.13 162.95 172.75 163.21C172.84 163.24 172.92 163.29 172.98 163.36C173.03 163.43 173.07 163.51 173.08 163.61C173.09 163.69 173.09 163.78 173.05 163.87C173.02 163.95 172.96 164.02 172.89 164.08C172.58 164.38 172.38 164.79 172.33 165.22C172.28 165.65 172.38 166.09 172.61 166.46C173.02 167.5 173.84 168.33 174.87 168.78C174.96 168.81 175.04 168.86 175.09 168.94C175.15 169.01 175.19 169.1 175.2 169.2C175.21 169.29 175.19 169.39 175.14 169.47C175.1 169.56 175.03 169.63 174.94 169.67C174.74 169.81 174.56 169.98 174.43 170.18C174.29 170.38 174.19 170.61 174.14 170.85C174.09 171.09 174.09 171.34 174.14 171.58C174.18 171.82 174.28 172.04 174.41 172.25C175.4 174.47 176.74 175.56 178.36 175.51C179.98 175.46 192.48 174.8 198.52 174.47L201.63 174.3C201.96 174.31 202.29 174.25 202.59 174.12C202.89 173.99 203.16 173.8 203.38 173.55C203.66 173.26 204 173.03 204.37 172.87C205.19 172.61 206.04 172.47 206.9 172.46L205.92 153.81C204.48 153.06 203.17 152.08 202.05 150.92C198.99 148.09 194.28 140.44 193.89 139.01C193.72 138.03 193.62 137.04 193.61 136.05C193.53 134.32 193.41 131.72 192.95 131.11C192.24 130.51 191.32 130.21 190.4 130.28Z" fill="#000000" fill-opacity="1.000000" fill-rule="nonzero"/>
	<path id="Vector" d="M235.52 51.1L185.59 39.77C184.75 39.58 183.88 39.55 183.04 39.7C182.19 39.84 181.38 40.15 180.65 40.61C179.92 41.07 179.29 41.67 178.8 42.37C178.3 43.07 177.95 43.86 177.76 44.7L171.73 71.27L158.83 76.21L170.41 77.11L169.96 79.09C169.77 79.93 169.74 80.79 169.89 81.64C170.03 82.49 170.34 83.3 170.8 84.03C171.26 84.76 171.86 85.39 172.56 85.88C173.26 86.38 174.06 86.73 174.9 86.92L224.82 98.25C226.51 98.63 228.29 98.33 229.76 97.4C231.23 96.48 232.27 95.01 232.65 93.31L240.45 58.93C240.83 57.24 240.53 55.46 239.6 53.99C238.68 52.52 237.21 51.48 235.52 51.1Z" fill="#FFFFFF" fill-opacity="1.000000" fill-rule="nonzero"/>
	<path id="Vector" d="M226.28 98.91C225.75 98.91 225.23 98.85 224.71 98.73L174.83 87.4C173.01 86.99 171.42 85.87 170.43 84.29C169.43 82.71 169.11 80.8 169.52 78.98L169.83 77.56L158.83 76.7C158.77 76.71 158.7 76.7 158.64 76.69C158.58 76.67 158.52 76.64 158.46 76.6C158.41 76.56 158.37 76.51 158.33 76.46C158.3 76.4 158.28 76.34 158.27 76.27C158.26 76.21 158.26 76.14 158.28 76.08C158.3 76.02 158.33 75.96 158.37 75.91C158.41 75.85 158.45 75.81 158.51 75.78C158.57 75.74 158.63 75.72 158.69 75.71L171.34 70.89L177.31 44.56C177.74 42.76 178.85 41.2 180.42 40.21C181.98 39.23 183.87 38.9 185.68 39.29L235.61 50.61C237.42 51.03 239 52.15 240 53.73C240.99 55.31 241.32 57.22 240.91 59.04L233.12 93.42C232.76 94.99 231.88 96.38 230.63 97.38C229.37 98.38 227.82 98.92 226.21 98.91L226.28 98.91ZM161.01 75.88L170.41 76.62C170.48 76.63 170.54 76.65 170.61 76.68C170.67 76.72 170.72 76.77 170.76 76.82C170.8 76.88 170.83 76.94 170.85 77.01C170.86 77.08 170.86 77.15 170.85 77.22L170.4 79.2C170.05 80.76 170.33 82.4 171.19 83.76C172.04 85.11 173.4 86.07 174.96 86.43L224.93 97.8C225.7 97.98 226.51 98 227.29 97.87C228.07 97.74 228.82 97.45 229.5 97.03C230.17 96.6 230.75 96.05 231.21 95.4C231.67 94.75 232 94.02 232.17 93.25L239.95 58.82C240.3 57.25 240.01 55.61 239.16 54.26C238.3 52.9 236.94 51.94 235.38 51.58L185.48 40.25C184.71 40.08 183.9 40.05 183.12 40.19C182.34 40.32 181.59 40.61 180.91 41.03C180.24 41.46 179.66 42.01 179.2 42.66C178.74 43.31 178.42 44.04 178.24 44.82L172.21 71.39C172.19 71.47 172.15 71.54 172.1 71.6C172.05 71.66 171.98 71.71 171.91 71.74L161.01 75.88Z" fill="#000000" fill-opacity="1.000000" fill-rule="nonzero"/>
	<path id="Vector" d="M225.62 70.04L212.87 68.28L210.32 86.74L221.35 88.26L225.62 70.04Z" fill="#2FE784" fill-opacity="1.000000" fill-rule="nonzero"/>
	<path id="Vector" d="M221.35 88.76L221.28 88.76L210.25 87.24C210.18 87.23 210.12 87.21 210.07 87.17C210.01 87.14 209.96 87.09 209.92 87.04C209.89 86.99 209.86 86.93 209.84 86.87C209.83 86.8 209.82 86.74 209.83 86.67L212.38 68.2C212.4 68.08 212.47 67.96 212.57 67.88C212.67 67.8 212.8 67.77 212.93 67.78L225.68 69.55C225.75 69.55 225.81 69.58 225.87 69.61C225.93 69.65 225.98 69.7 226.02 69.75C226.06 69.81 226.09 69.88 226.1 69.94C226.11 70.01 226.11 70.08 226.09 70.15L221.83 88.37C221.81 88.48 221.74 88.58 221.66 88.65C221.57 88.72 221.46 88.76 221.35 88.76ZM210.88 86.32L220.97 87.72L225.01 70.45L213.31 68.84L210.88 86.32Z" fill="#000000" fill-opacity="1.000000" fill-rule="nonzero"/>
	<path id="Vector" d="M215.65 84.01C215.65 84.83 214.99 85.49 214.17 85.49C213.36 85.49 212.69 84.83 212.69 84.01C212.69 83.19 213.36 82.53 214.17 82.53C214.99 82.53 215.65 83.19 215.65 84.01Z" fill="#000000" fill-opacity="1.000000" fill-rule="evenodd"/>
	<path id="Vector" d="M212.7 69.43C212.7 69.43 211.94 69.2 209.97 66.53C207.95 63.28 206.41 59.76 205.41 56.07C205.31 54.95 206.4 50.55 205.82 49.56C205.24 48.56 202.67 47.46 201.24 48.92C199.71 50.64 198.62 52.7 198.07 54.93C197.87 56.44 198.07 62.67 198.07 62.67L185.29 60.91C183.42 60.65 182.82 61.9 182.74 63.38C182.66 64.86 184.11 66.77 184.11 66.77C183.59 66.94 183.15 67.29 182.88 67.77C182.61 68.24 182.53 68.8 182.65 69.33C182.69 69.95 182.87 70.54 183.18 71.08C183.5 71.61 183.93 72.06 184.45 72.4C184.07 72.63 183.78 72.98 183.63 73.4C183.48 73.81 183.49 74.27 183.64 74.69C183.84 75.68 184.43 76.55 185.27 77.12C184.8 77.31 184.43 77.66 184.23 78.12C184.03 78.57 184.02 79.09 184.19 79.55C184.66 81.46 185.59 82.76 187.15 83.03C188.71 83.31 204.27 85.39 205.78 85.6C207.29 85.81 207.44 85.05 208.25 84.88C209.03 84.81 209.82 84.86 210.58 85.01L212.7 69.43Z" fill="#FFFFFF" fill-opacity="1.000000" fill-rule="nonzero"/>
	<path id="Vector" d="M206.23 86.13C206.05 86.15 205.86 86.15 205.68 86.13L203.36 85.82C198.43 85.16 188.29 83.78 187.03 83.56C185.37 83.26 184.24 81.97 183.69 79.71C183.54 79.25 183.52 78.77 183.64 78.3C183.77 77.84 184.02 77.42 184.38 77.1C183.75 76.48 183.31 75.7 183.12 74.83C183.01 74.43 183 74 183.08 73.59C183.17 73.17 183.35 72.78 183.62 72.46C182.75 71.67 182.22 70.58 182.14 69.41C182.05 68.87 182.11 68.33 182.32 67.83C182.54 67.33 182.89 66.91 183.34 66.61C182.68 65.66 182.29 64.55 182.22 63.4C182.2 62.94 182.28 62.49 182.45 62.06C182.62 61.64 182.87 61.26 183.2 60.94C183.5 60.72 183.84 60.56 184.2 60.47C184.56 60.39 184.94 60.38 185.3 60.46L197.52 62.11C197.52 60.51 197.39 56.19 197.57 54.86C198.13 52.53 199.26 50.37 200.86 48.58C201.21 48.24 201.64 47.99 202.11 47.84C202.57 47.7 203.07 47.67 203.55 47.76C204.08 47.82 204.59 47.99 205.06 48.25C205.52 48.52 205.92 48.89 206.23 49.32C206.62 50.03 206.43 51.57 206.11 53.83C205.99 54.56 205.91 55.29 205.89 56.03C206.87 59.63 208.38 63.06 210.35 66.23C212.1 68.61 212.82 68.94 212.85 68.95C212.96 68.99 213.05 69.06 213.11 69.16C213.17 69.26 213.19 69.37 213.17 69.49L211.02 85.07C211.01 85.13 210.99 85.2 210.95 85.25C210.92 85.31 210.87 85.36 210.82 85.4C210.76 85.44 210.7 85.47 210.64 85.48C210.57 85.5 210.5 85.5 210.44 85.48C209.73 85.33 209.01 85.29 208.29 85.35C208.1 85.4 207.91 85.49 207.75 85.62C207.31 85.95 206.78 86.13 206.23 86.13ZM184.8 61.37C184.45 61.34 184.1 61.45 183.81 61.66C183.38 62.14 183.15 62.77 183.17 63.41C183.31 64.53 183.75 65.59 184.45 66.48C184.5 66.54 184.53 66.62 184.54 66.71C184.55 66.79 184.54 66.87 184.52 66.95C184.49 67.03 184.44 67.1 184.38 67.15C184.32 67.2 184.24 67.24 184.16 67.26C184.04 67.26 182.94 67.61 183.08 69.29C183.12 69.82 183.28 70.34 183.55 70.81C183.81 71.27 184.18 71.67 184.62 71.97C184.7 72.02 184.77 72.08 184.81 72.15C184.86 72.23 184.88 72.32 184.88 72.41C184.88 72.5 184.86 72.58 184.81 72.66C184.77 72.74 184.7 72.8 184.62 72.84C184.55 72.84 183.81 73.32 184.09 74.58C184.26 75.44 184.76 76.2 185.48 76.7C185.56 76.75 185.63 76.82 185.67 76.9C185.72 76.98 185.73 77.08 185.72 77.17C185.71 77.27 185.67 77.35 185.62 77.43C185.56 77.5 185.48 77.56 185.39 77.59C185.22 77.66 185.07 77.76 184.94 77.89C184.81 78.03 184.7 78.18 184.63 78.35C184.56 78.53 184.53 78.71 184.53 78.89C184.53 79.08 184.57 79.26 184.64 79.43C185.11 81.31 185.95 82.32 187.21 82.55C188.47 82.78 198.61 84.14 203.49 84.8L205.82 85.12C206.06 85.17 206.32 85.17 206.56 85.12C206.81 85.07 207.04 84.96 207.24 84.8C207.51 84.61 207.81 84.47 208.14 84.4C208.79 84.3 209.46 84.3 210.11 84.4L212.14 69.6C211.14 68.78 210.26 67.81 209.55 66.73C207.47 63.42 205.9 59.81 204.88 56.03C204.89 55.21 204.97 54.4 205.12 53.6C205.29 52.32 205.6 50.18 205.34 49.65C204.85 49.06 204.14 48.68 203.37 48.6C203.04 48.54 202.71 48.55 202.39 48.64C202.07 48.74 201.78 48.9 201.54 49.13C200.08 50.77 199.04 52.74 198.51 54.86C198.3 56.31 198.51 62.46 198.51 62.52C198.51 62.59 198.49 62.66 198.46 62.73C198.43 62.8 198.39 62.86 198.34 62.91C198.28 62.95 198.22 62.99 198.15 63.01C198.09 63.03 198.01 63.03 197.94 63.02L185.17 61.26L184.8 61.37Z" fill="#000000" fill-opacity="1.000000" fill-rule="nonzero"/>
</svg>
