<svg width="296.000000" height="247.000000" viewBox="0 0 296 247" fill="none" xmlns="http://www.w3.org/2000/svg" xmlns:xlink="http://www.w3.org/1999/xlink">
	<desc>
			Created with Pixso.
	</desc>
	<defs/>
	<path id="Vector" d="M36.81 161.72L36.81 168.6L121.34 246.46L295.46 186.92L295.46 180.13L36.81 161.72Z" fill="#000000" fill-opacity="1.000000" fill-rule="nonzero"/>
	<path id="Vector" d="M121.31 247C121.18 247 121.05 246.95 120.95 246.86L36.45 168.99C36.4 168.94 36.35 168.88 36.32 168.81C36.29 168.74 36.28 168.67 36.28 168.6L36.28 161.72C36.28 161.64 36.3 161.57 36.32 161.5C36.35 161.44 36.4 161.38 36.45 161.33C36.5 161.28 36.56 161.24 36.63 161.21C36.7 161.19 36.77 161.18 36.84 161.19L295.49 179.59C295.63 179.6 295.76 179.66 295.85 179.76C295.94 179.86 296 179.99 296 180.13L296 186.92C295.99 187.03 295.96 187.14 295.89 187.23C295.83 187.32 295.74 187.39 295.63 187.43L121.51 246.96L121.31 247ZM37.31 168.36L121.44 245.86L294.9 186.54L294.9 180.63L37.35 162.29L37.31 168.36Z" fill="#000000" fill-opacity="1.000000" fill-rule="nonzero"/>
	<path id="Vector" d="M36.81 161.72L0.52 37.27L179.64 0.53L205.17 110.03L36.81 161.72Z" fill="#FFFFFF" fill-opacity="1.000000" fill-rule="nonzero"/>
	<path id="Vector" d="M36.81 162.25C36.72 162.25 36.64 162.22 36.56 162.18C36.49 162.15 36.44 162.11 36.39 162.05C36.35 162 36.32 161.93 36.3 161.86L0.02 37.42C0 37.35 -0.01 37.28 0 37.2C0.01 37.13 0.03 37.06 0.07 37C0.11 36.94 0.16 36.88 0.22 36.84C0.28 36.79 0.35 36.76 0.42 36.75L179.54 0.01C179.6 -0.01 179.67 -0.01 179.74 0C179.81 0.02 179.88 0.04 179.94 0.08C179.99 0.12 180.05 0.16 180.08 0.22C180.12 0.28 180.15 0.35 180.17 0.41L205.69 109.9C205.72 110.03 205.71 110.17 205.64 110.29C205.57 110.41 205.46 110.49 205.33 110.53L37 162.23C36.94 162.25 36.88 162.26 36.81 162.25ZM1.19 37.68L37.17 161.05L204.55 109.65L179.24 1.16L1.19 37.68Z" fill="#000000" fill-opacity="1.000000" fill-rule="nonzero"/>
	<path id="Vector" d="M42.02 151.5L9.72 44.03L173.26 9.18L196.72 106.23L42.02 151.5Z" fill="#FFFFFF" fill-opacity="1.000000" fill-rule="nonzero"/>
	<path id="Vector" d="M42.03 152.03C41.91 152.03 41.8 152 41.71 151.92C41.62 151.86 41.55 151.76 41.52 151.65L9.26 44.18C9.23 44.12 9.21 44.05 9.21 43.97C9.21 43.9 9.23 43.83 9.26 43.77C9.3 43.7 9.35 43.65 9.41 43.6C9.47 43.56 9.54 43.53 9.61 43.51L173.15 8.66C173.29 8.63 173.43 8.66 173.55 8.74C173.67 8.81 173.75 8.93 173.78 9.06L197.26 106.1C197.29 106.23 197.28 106.37 197.21 106.49C197.14 106.61 197.03 106.7 196.9 106.74L42.16 152.01L42.03 152.03ZM10.4 44.44L42.41 150.84L196.09 105.85L172.87 9.81L10.4 44.44Z" fill="#000000" fill-opacity="1.000000" fill-rule="nonzero"/>
	<path id="Vector" d="M205.17 110.03L36.81 161.72L121.45 237.58L295.46 180.13L205.17 110.03Z" fill="#FFFFFF" fill-opacity="1.000000" fill-rule="nonzero"/>
	<path id="Vector" d="M121.45 238.11C121.32 238.11 121.19 238.06 121.1 237.97L36.46 162.12C36.39 162.06 36.34 161.98 36.31 161.89C36.28 161.8 36.27 161.7 36.29 161.61C36.31 161.52 36.36 161.43 36.42 161.36C36.48 161.29 36.56 161.24 36.65 161.21L205.01 109.52C205.09 109.49 205.18 109.48 205.26 109.5C205.35 109.51 205.43 109.55 205.5 109.6L295.79 179.7C295.87 179.76 295.92 179.84 295.96 179.93C295.99 180.02 296 180.12 295.98 180.21C295.97 180.31 295.93 180.4 295.87 180.47C295.81 180.54 295.72 180.6 295.63 180.63L121.62 238.08C121.57 238.1 121.51 238.11 121.45 238.11ZM37.87 161.95L121.58 236.97L294.34 179.97L205.06 110.65L37.87 161.95Z" fill="#000000" fill-opacity="1.000000" fill-rule="nonzero"/>
	<path id="Vector" d="M202.38 119.8L56.74 167.15L95.5 201.19L245.34 151.5L202.38 119.8Z" fill="#FFFFFF" fill-opacity="1.000000" fill-rule="nonzero"/>
	<path id="Vector" d="M95.5 201.72C95.37 201.72 95.24 201.67 95.14 201.58L56.38 167.55C56.31 167.49 56.26 167.41 56.23 167.32C56.2 167.23 56.19 167.14 56.21 167.04C56.23 166.95 56.28 166.87 56.34 166.8C56.4 166.73 56.48 166.68 56.57 166.65L202.22 119.29C202.3 119.26 202.39 119.26 202.47 119.27C202.56 119.28 202.63 119.31 202.7 119.36L245.66 151.07C245.74 151.13 245.8 151.21 245.83 151.3C245.87 151.39 245.88 151.49 245.86 151.58C245.85 151.68 245.81 151.77 245.75 151.84C245.68 151.92 245.6 151.97 245.51 152L95.7 201.69C95.63 201.72 95.56 201.73 95.5 201.72ZM57.79 167.37L95.61 200.58L244.2 151.32L202.29 120.42L57.79 167.37Z" fill="#E6E7E8" fill-opacity="1.000000" fill-rule="nonzero"/>
	<path id="Vector" d="M170.78 95.35C170.78 95.35 125.08 113.29 81.88 102.65C38.68 92 12.95 54.78 12.95 54.78L36.09 131.73C36.09 131.73 52.46 141.83 92.96 141.32C144.62 140.71 179.46 115.02 179.46 115.02L167.72 94.84L170.78 95.35Z" fill="#FFFFFF" fill-opacity="1.000000" fill-rule="nonzero"/>
	<path id="Vector" d="M90.26 141.91C52.01 141.91 35.97 132.32 35.83 132.19C35.72 132.12 35.64 132.02 35.6 131.89L12.46 54.93C12.43 54.81 12.44 54.68 12.49 54.57C12.54 54.46 12.63 54.37 12.75 54.31C12.86 54.26 12.99 54.25 13.11 54.28C13.23 54.31 13.34 54.38 13.41 54.49C13.67 54.85 39.52 91.66 82.03 102.12C118.37 111.07 156.93 99.56 167.69 95.9L167.24 95.14C167.21 95.08 167.18 95.02 167.17 94.95C167.16 94.88 167.17 94.81 167.18 94.74C167.2 94.67 167.23 94.61 167.28 94.56C167.32 94.5 167.37 94.45 167.43 94.42C167.49 94.38 167.56 94.36 167.63 94.35C167.7 94.34 167.77 94.34 167.84 94.36C167.91 94.37 167.97 94.4 168.03 94.45C168.09 94.49 168.13 94.54 168.17 94.6L168.71 95.54L170.61 94.86C170.68 94.83 170.75 94.82 170.82 94.82C170.89 94.82 170.96 94.83 171.02 94.86C171.08 94.89 171.14 94.93 171.19 94.98C171.24 95.03 171.27 95.09 171.3 95.16C171.32 95.22 171.34 95.29 171.33 95.36C171.33 95.43 171.32 95.5 171.29 95.56C171.26 95.63 171.22 95.69 171.17 95.73C171.12 95.78 171.06 95.82 171 95.85L169.26 96.48L179.93 114.79C180 114.91 180.02 115.04 179.99 115.17C179.96 115.3 179.89 115.41 179.78 115.48C179.44 115.74 144.21 141.3 92.97 141.9L90.26 141.91ZM36.53 131.38C38.38 132.45 55.23 141.26 92.95 140.83C140.97 140.27 174.78 117.68 178.76 114.9L168.27 96.86C157.69 100.47 118.62 112.26 81.83 103.18C45.33 94.2 21 65.98 14.4 57.52L36.53 131.38Z" fill="#000000" fill-opacity="1.000000" fill-rule="nonzero"/>
	<path id="Vector" d="M159.34 98.14L173.63 120.25L185.99 116.05L168.27 88.63L159.34 98.14Z" fill="#FFFFFF" fill-opacity="1.000000" fill-rule="nonzero"/>
	<path id="Vector" d="M173.6 120.78C173.51 120.78 173.43 120.76 173.35 120.71C173.27 120.67 173.2 120.61 173.15 120.54L158.86 98.44C158.8 98.33 158.77 98.22 158.78 98.1C158.8 97.98 158.85 97.86 158.93 97.78L167.85 88.27C167.91 88.21 167.97 88.17 168.05 88.14C168.13 88.11 168.21 88.1 168.29 88.1C168.37 88.11 168.44 88.14 168.51 88.18C168.58 88.22 168.64 88.28 168.68 88.35L186.41 115.76C186.45 115.83 186.48 115.91 186.49 115.99C186.5 116.07 186.49 116.15 186.46 116.22C186.43 116.3 186.39 116.37 186.33 116.42C186.28 116.48 186.21 116.52 186.13 116.55L173.77 120.75C173.72 120.77 173.66 120.78 173.6 120.78ZM159.99 98.2L173.86 119.61L185.17 115.76L168.19 89.5L159.99 98.2Z" fill="#000000" fill-opacity="1.000000" fill-rule="nonzero"/>
	<path id="Vector" d="M226.34 105.72C226.34 105.72 226.58 121.98 217.1 133.8C207.62 145.62 178.31 151.5 178.31 151.5L187.57 115.67L226.34 105.72Z" fill="#72B0F9" fill-opacity="1.000000" fill-rule="nonzero"/>
	<path id="Vector" d="M178.31 152.03C178.16 152.03 178.02 151.96 177.92 151.86C177.86 151.79 177.82 151.71 177.8 151.63C177.77 151.54 177.77 151.45 177.8 151.36L187.05 115.54C187.07 115.45 187.12 115.36 187.19 115.3C187.26 115.23 187.34 115.18 187.43 115.15L226.21 105.21C226.29 105.19 226.37 105.18 226.46 105.2C226.54 105.21 226.61 105.25 226.68 105.3C226.74 105.35 226.79 105.41 226.83 105.49C226.86 105.56 226.88 105.64 226.88 105.72C226.88 105.88 227 122.3 217.51 134.13C208.01 145.96 179.62 151.77 178.41 152.02L178.31 152.03ZM188.01 116.11L179.04 150.79C183.89 149.73 208.32 143.88 216.68 133.46C224.85 123.29 225.71 109.6 225.8 106.42L188.01 116.11Z" fill="#000000" fill-opacity="1.000000" fill-rule="nonzero"/>
	<path id="Vector" d="M193.96 55.64C193.96 55.64 179.22 48.72 164.53 52.44C149.85 56.16 132.41 80.43 132.41 80.43L168.92 86.76L193.96 55.64Z" fill="#72B0F9" fill-opacity="1.000000" fill-rule="nonzero"/>
	<path id="Vector" d="M168.92 87.35L168.82 87.35L132.31 81.01C132.23 80.99 132.14 80.95 132.07 80.9C132 80.84 131.95 80.77 131.92 80.69C131.88 80.6 131.87 80.51 131.88 80.42C131.89 80.33 131.92 80.25 131.97 80.17C132.69 79.18 149.7 55.74 164.4 51.97C179.11 48.2 194.04 55.08 194.19 55.17C194.26 55.2 194.33 55.25 194.38 55.31C194.43 55.38 194.46 55.45 194.48 55.53C194.5 55.61 194.5 55.69 194.48 55.77C194.46 55.84 194.43 55.91 194.38 55.98L169.33 87.15C169.28 87.21 169.22 87.26 169.15 87.3C169.08 87.33 169 87.35 168.92 87.35ZM133.35 80.11L168.7 86.21L193.11 55.82C190.16 54.58 177.31 49.73 164.67 52.97C151.71 56.37 136.33 76.15 133.35 80.11Z" fill="#000000" fill-opacity="1.000000" fill-rule="nonzero"/>
	<path id="Vector" d="M160.86 86C170.94 71.35 188.61 54.83 210.88 40.49C244.61 18.74 274.19 26 284.21 29.54C285.3 29.93 286.23 30.66 286.85 31.62C287.48 32.58 287.77 33.73 287.68 34.87C286.79 45.45 281.28 75.36 247.48 97.09C225.22 111.45 202.86 120.72 185.34 123.85C185.34 123.85 178.72 119.98 170.2 106.8C161.67 93.62 160.86 86 160.86 86Z" fill="#72B0F9" fill-opacity="1.000000" fill-rule="nonzero"/>
	<path id="Vector" d="M185.34 124.4C185.24 124.4 185.15 124.38 185.06 124.33C184.8 124.17 178.25 120.25 169.75 107.1C161.24 93.95 160.36 86.37 160.33 86.07C160.32 85.94 160.35 85.81 160.42 85.7C170.89 70.48 189.17 53.83 210.58 40.04C244.13 18.42 273.37 25.12 284.4 29.04C285.6 29.46 286.62 30.27 287.31 31.34C288 32.4 288.31 33.67 288.21 34.93C287.22 46.57 281.32 75.94 247.78 97.56C226.37 111.41 203.64 121.14 185.43 124.39L185.34 124.4ZM161.42 86.14C161.61 87.38 163.03 94.74 170.65 106.51C178.27 118.29 184.39 122.62 185.45 123.32C203.49 120.04 226 110.34 247.19 96.68C280.35 75.37 286.18 46.33 287.15 34.88C287.23 33.85 286.98 32.82 286.41 31.95C285.85 31.08 285.02 30.42 284.04 30.08C273.17 26.23 244.31 19.6 211.17 40.95C189.95 54.59 171.83 71.06 161.42 86.14Z" fill="#000000" fill-opacity="1.000000" fill-rule="nonzero"/>
	<path id="Vector" d="M287.68 34.89C286.36 48.01 281.74 60.58 274.26 71.44L245.34 26.69C258.33 24.34 271.7 25.32 284.21 29.53C285.3 29.92 286.24 30.65 286.86 31.62C287.49 32.59 287.78 33.74 287.68 34.89Z" fill="#FFFFFF" fill-opacity="1.000000" fill-rule="nonzero"/>
	<path id="Vector" d="M274.27 71.97C274.18 71.97 274.09 71.95 274.02 71.9C273.94 71.86 273.88 71.8 273.83 71.73L244.9 26.98C244.86 26.9 244.84 26.81 244.84 26.73C244.84 26.64 244.86 26.55 244.9 26.47C244.94 26.39 244.99 26.32 245.06 26.26C245.13 26.21 245.22 26.17 245.31 26.16C258.39 23.79 271.86 24.78 284.45 29.03C285.65 29.45 286.67 30.26 287.36 31.33C288.05 32.39 288.37 33.66 288.26 34.92C286.96 48.14 282.31 60.8 274.76 71.73C274.71 71.81 274.63 71.87 274.55 71.92C274.46 71.96 274.36 71.98 274.27 71.97ZM246.22 27.08L274.27 70.47C281.46 59.85 285.89 47.61 287.15 34.85C287.23 33.82 286.98 32.79 286.41 31.92C285.85 31.05 285.02 30.39 284.04 30.04C271.88 25.93 258.88 24.91 246.22 27.08Z" fill="#000000" fill-opacity="1.000000" fill-rule="nonzero"/>
	<path id="Vector" d="M254.59 64.13C254.59 75.48 245.37 84.68 234 84.68C222.63 84.68 213.42 75.48 213.42 64.13C213.42 52.78 222.63 43.58 234 43.58C245.37 43.58 254.59 52.78 254.59 64.13Z" fill="#FFFFFF" fill-opacity="1.000000" fill-rule="evenodd"/>
	<path id="Vector" d="M234.04 85.2C228.96 85.21 224.05 83.38 220.21 80.06C216.37 76.75 213.86 72.16 213.13 67.14C212.41 62.12 213.52 57.01 216.26 52.75C219 48.48 223.19 45.34 228.06 43.91C232.94 42.48 238.16 42.85 242.78 44.95C247.4 47.05 251.11 50.75 253.22 55.36C255.33 59.97 255.71 65.18 254.28 70.05C252.86 74.91 249.72 79.1 245.45 81.85C242.05 84.04 238.09 85.2 234.04 85.2ZM233.96 44.1C230.36 44.1 226.82 45.08 223.72 46.92C220.63 48.76 218.09 51.4 216.37 54.56C214.65 57.73 213.81 61.29 213.95 64.89C214.09 68.48 215.19 71.98 217.15 75C218.94 77.76 221.39 80.05 224.27 81.64C227.16 83.24 230.39 84.1 233.69 84.16C236.99 84.21 240.25 83.44 243.19 81.94C246.12 80.43 248.64 78.22 250.51 75.51C252.39 72.8 253.56 69.67 253.94 66.4C254.31 63.13 253.87 59.82 252.66 56.75C251.44 53.69 249.49 50.97 246.98 48.84C244.46 46.72 241.45 45.24 238.23 44.54C236.83 44.25 235.4 44.1 233.96 44.1Z" fill="#000000" fill-opacity="1.000000" fill-rule="nonzero"/>
	<path id="Vector" d="M246.7 64.13C246.7 71.13 241.02 76.81 234 76.81C226.99 76.81 221.3 71.13 221.3 64.13C221.3 57.13 226.99 51.45 234 51.45C241.02 51.45 246.7 57.13 246.7 64.13Z" fill="#000000" fill-opacity="1.000000" fill-rule="evenodd"/>
	<path id="Vector" d="M234.03 77.34C230.84 77.35 227.76 76.22 225.35 74.15C222.93 72.08 221.35 69.21 220.88 66.07C220.41 62.92 221.1 59.72 222.8 57.03C224.51 54.35 227.13 52.38 230.18 51.47C233.23 50.56 236.51 50.78 239.41 52.09C242.31 53.39 244.64 55.7 245.98 58.58C247.32 61.47 247.57 64.74 246.68 67.79C245.8 70.84 243.84 73.48 241.18 75.21C239.05 76.59 236.56 77.33 234.03 77.34ZM234.03 51.98C231.69 51.98 229.4 52.65 227.44 53.92C224.98 55.51 223.17 57.93 222.34 60.74C221.52 63.54 221.74 66.56 222.96 69.22C224.18 71.88 226.32 74.01 228.99 75.22C231.66 76.44 234.68 76.65 237.49 75.82C240.3 74.99 242.72 73.18 244.3 70.71C245.88 68.25 246.52 65.3 246.1 62.4C245.68 59.51 244.23 56.86 242.01 54.94C239.79 53.03 236.96 51.98 234.03 51.98Z" fill="#000000" fill-opacity="1.000000" fill-rule="nonzero"/>
	<path id="Vector" d="M242.52 59.16C242.43 59.16 242.33 59.14 242.25 59.09C242.17 59.04 242.11 58.97 242.06 58.89C241.89 58.6 237.95 51.77 229.75 55.52C229.63 55.57 229.5 55.57 229.38 55.53C229.26 55.49 229.16 55.41 229.09 55.31C229.06 55.24 229.05 55.18 229.04 55.11C229.04 55.04 229.05 54.97 229.07 54.9C229.1 54.83 229.13 54.77 229.18 54.72C229.23 54.67 229.29 54.63 229.35 54.6C238.48 50.45 243 58.35 243.04 58.43C243.11 58.55 243.12 58.7 243.08 58.83C243.04 58.97 242.95 59.08 242.83 59.15C242.73 59.19 242.62 59.19 242.52 59.16Z" fill="#FFFFFF" fill-opacity="1.000000" fill-rule="nonzero"/>
	<path id="Vector" d="M243.92 63.57C243.85 63.57 243.78 63.55 243.72 63.52C243.66 63.49 243.6 63.44 243.56 63.39C243.52 63.34 243.48 63.28 243.46 63.21C243.44 63.15 243.43 63.08 243.44 63.01C243.48 62.34 243.35 61.67 243.07 61.06C243.02 60.93 243.01 60.79 243.06 60.66C243.11 60.52 243.2 60.42 243.33 60.36C243.4 60.33 243.46 60.31 243.54 60.31C243.61 60.31 243.68 60.32 243.74 60.34C243.81 60.37 243.87 60.41 243.92 60.46C243.97 60.51 244.01 60.57 244.04 60.63C244.39 61.42 244.54 62.27 244.49 63.13C244.48 63.26 244.4 63.38 244.3 63.47C244.19 63.55 244.05 63.59 243.92 63.57Z" fill="#FFFFFF" fill-opacity="1.000000" fill-rule="nonzero"/>
	<path id="Vector" d="M167.33 85.33C167.21 85.33 167.09 85.29 167 85.21C166.89 85.13 166.82 85 166.8 84.86C166.78 84.72 166.82 84.58 166.91 84.47C174.5 75.33 182.64 66.66 191.29 58.5C191.39 58.42 191.52 58.37 191.66 58.38C191.79 58.39 191.92 58.45 192.01 58.54C192.1 58.64 192.16 58.77 192.16 58.91C192.16 59.04 192.11 59.17 192.02 59.27C183.41 67.4 175.31 76.04 167.74 85.14C167.69 85.2 167.63 85.25 167.56 85.28C167.49 85.32 167.41 85.33 167.33 85.33Z" fill="#FFFFFF" fill-opacity="1.000000" fill-rule="nonzero"/>
	<path id="Vector" d="M191.31 99.97C176.44 109.56 157.27 118.95 155.61 116.37C153.94 113.79 170.4 100.23 185.28 90.64C200.15 81.05 209.46 81.67 209.46 81.67C209.46 81.67 206.18 90.39 191.31 99.97Z" fill="#72B0F9" fill-opacity="1.000000" fill-rule="nonzero"/>
	<path id="Vector" d="M156.83 117.29C156.52 117.33 156.2 117.29 155.91 117.18C155.62 117.07 155.36 116.89 155.16 116.66C154.8 116.1 153.7 114.41 163.89 105.72C170.6 100.12 177.64 94.94 184.99 90.2C199.83 80.61 209.11 81.11 209.53 81.13C209.62 81.14 209.7 81.17 209.77 81.21C209.84 81.25 209.9 81.31 209.95 81.38C209.99 81.45 210.02 81.53 210.03 81.61C210.04 81.7 210.03 81.78 210 81.86C209.86 82.22 206.49 90.85 191.64 100.42C181.74 106.77 162.8 117.29 156.83 117.29ZM208.62 82.21C206.08 82.32 197.65 83.27 185.56 91.08C178.26 95.8 171.25 100.96 164.58 106.53C157.11 112.93 155.73 115.57 156.05 116.12C157.23 117.97 174.4 110.26 191.01 99.57C203.1 91.75 207.47 84.48 208.62 82.21Z" fill="#000000" fill-opacity="1.000000" fill-rule="nonzero"/>
	<path id="Vector" d="M212.57 170.47L156.36 187.8L181.78 207.6L237.07 189.03L212.57 170.47Z" fill="#FFFFFF" fill-opacity="1.000000" fill-rule="nonzero"/>
	<path id="Vector" d="M181.78 208.14C181.66 208.14 181.54 208.09 181.45 208.02L156.04 188.22C155.96 188.16 155.9 188.08 155.86 187.99C155.83 187.9 155.82 187.8 155.83 187.7C155.85 187.61 155.9 187.52 155.96 187.45C156.03 187.37 156.11 187.32 156.21 187.3L212.41 169.96C212.5 169.94 212.58 169.93 212.67 169.95C212.75 169.96 212.83 170 212.9 170.05L237.39 188.61C237.47 188.66 237.53 188.74 237.56 188.83C237.6 188.92 237.61 189.02 237.59 189.12C237.58 189.22 237.54 189.31 237.48 189.38C237.41 189.46 237.33 189.52 237.24 189.54L181.95 208.11C181.89 208.13 181.83 208.14 181.78 208.14ZM157.5 188.01L181.88 207.01L235.95 188.89L212.47 171.1L157.5 188.01Z" fill="#E6E7E8" fill-opacity="1.000000" fill-rule="nonzero"/>
	<path id="Vector" d="M106.1 122.63C89.66 122.63 70.71 119.94 53.51 110.83C53.45 110.8 53.4 110.75 53.35 110.7C53.31 110.65 53.27 110.59 53.25 110.52C53.23 110.45 53.22 110.38 53.23 110.31C53.24 110.24 53.26 110.18 53.29 110.11C53.32 110.05 53.37 110 53.42 109.95C53.47 109.91 53.54 109.87 53.61 109.85C53.67 109.83 53.74 109.82 53.81 109.83C53.88 109.84 53.95 109.86 54.01 109.89C95.77 131.99 148.04 115.99 148.57 115.83C148.63 115.8 148.71 115.78 148.78 115.79C148.86 115.79 148.93 115.8 149 115.83C149.06 115.87 149.12 115.91 149.17 115.97C149.22 116.02 149.26 116.09 149.28 116.16C149.3 116.23 149.31 116.3 149.3 116.38C149.29 116.45 149.27 116.52 149.23 116.58C149.2 116.65 149.15 116.7 149.09 116.75C149.03 116.79 148.96 116.82 148.89 116.84C134.95 120.69 120.56 122.64 106.1 122.63Z" fill="#E6E7E8" fill-opacity="1.000000" fill-rule="nonzero"/>
	<path id="Vector" d="M96.85 132.77C62.5 132.77 40.05 116.89 39.79 116.7C39.73 116.66 39.68 116.61 39.64 116.55C39.61 116.49 39.58 116.42 39.57 116.35C39.56 116.28 39.56 116.21 39.58 116.14C39.59 116.08 39.62 116.01 39.66 115.95C39.75 115.84 39.87 115.77 40.01 115.74C40.15 115.72 40.29 115.76 40.41 115.84C40.72 116.06 71.66 137.92 116.49 129.96C116.56 129.95 116.63 129.95 116.7 129.97C116.77 129.99 116.83 130.02 116.89 130.06C116.95 130.1 117 130.15 117.04 130.21C117.07 130.27 117.1 130.34 117.11 130.41C117.12 130.48 117.12 130.55 117.11 130.62C117.09 130.69 117.06 130.75 117.02 130.81C116.98 130.87 116.93 130.92 116.87 130.95C116.81 130.99 116.74 131.02 116.67 131.03C110.13 132.19 103.5 132.77 96.85 132.77Z" fill="#E6E7E8" fill-opacity="1.000000" fill-rule="nonzero"/>
	<path id="Vector" d="M62.79 106.26C62.72 106.27 62.64 106.27 62.57 106.26C28.97 91.06 20.76 72.27 20.68 72.09C20.65 72.02 20.63 71.95 20.63 71.88C20.62 71.81 20.64 71.74 20.66 71.67C20.69 71.6 20.73 71.54 20.78 71.49C20.83 71.44 20.89 71.4 20.95 71.37C21.02 71.34 21.09 71.33 21.16 71.33C21.23 71.33 21.3 71.34 21.37 71.37C21.44 71.4 21.49 71.44 21.54 71.49C21.59 71.54 21.63 71.6 21.66 71.67C21.66 71.67 23.68 76.35 29.75 82.79C35.35 88.72 45.67 97.45 63.01 105.29C63.14 105.35 63.24 105.45 63.29 105.58C63.34 105.72 63.34 105.86 63.28 105.99C63.23 106.08 63.15 106.14 63.07 106.19C62.98 106.24 62.89 106.26 62.79 106.26Z" fill="#E6E7E8" fill-opacity="1.000000" fill-rule="nonzero"/>
	<path id="Vector" d="M122.84 112.33C122.7 112.33 122.56 112.27 122.46 112.17C122.36 112.07 122.3 111.94 122.3 111.8C122.31 111.66 122.36 111.52 122.46 111.42C122.56 111.33 122.7 111.27 122.84 111.27C123.03 111.27 141.53 111.27 149.99 107.14C150.05 107.11 150.12 107.08 150.19 107.08C150.27 107.07 150.34 107.07 150.41 107.1C150.48 107.12 150.54 107.15 150.6 107.2C150.65 107.25 150.7 107.31 150.73 107.38C150.76 107.44 150.78 107.51 150.78 107.59C150.78 107.66 150.77 107.73 150.75 107.8C150.72 107.87 150.68 107.93 150.63 107.98C150.57 108.03 150.51 108.07 150.44 108.1C141.78 112.29 123.62 112.33 122.84 112.33Z" fill="#E6E7E8" fill-opacity="1.000000" fill-rule="nonzero"/>
	<path id="Vector" d="M99.4 93.25L96.78 90.45L92.99 91.02L94.83 87.65L93.13 84.22L96.89 84.96L99.63 82.26L100.11 86.07L103.51 87.83L100.03 89.47L99.4 93.25Z" fill="#72B0F9" fill-opacity="1.000000" fill-rule="nonzero"/>
	<path id="Vector" d="M134.32 96.64L132.7 94.91L130.35 95.26L131.5 93.18L130.44 91.06L132.77 91.51L134.46 89.85L134.76 92.2L136.86 93.29L134.71 94.3L134.32 96.64Z" fill="#72B0F9" fill-opacity="1.000000" fill-rule="nonzero"/>
	<path id="Vector" d="M118.49 162.43L112.9 159.16L107.03 161.91L108.43 155.59L104 150.86L110.45 150.23L113.58 144.56L116.18 150.48L122.54 151.71L117.69 156.01L118.49 162.43Z" fill="#72B0F9" fill-opacity="1.000000" fill-rule="nonzero"/>
	<path id="Vector" d="M79.51 122.75L76.03 119.04L70.99 119.8L73.46 115.35L71.17 110.81L76.18 111.77L79.8 108.2L80.43 113.25L84.95 115.58L80.34 117.74L79.51 122.75Z" fill="#72B0F9" fill-opacity="1.000000" fill-rule="nonzero"/>
	<path id="Vector" d="" fill="#FFFFFF" fill-opacity="1.000000" fill-rule="nonzero"/>
	<path id="Vector" d="M12.95 55.31C12.81 55.32 12.67 55.28 12.56 55.19C12.44 55.1 12.37 54.97 12.36 54.83C12.34 54.69 12.38 54.55 12.47 54.44C12.56 54.33 12.69 54.26 12.83 54.24L175.57 18.66C175.64 18.65 175.71 18.65 175.78 18.66C175.85 18.68 175.92 18.7 175.98 18.74C176.04 18.78 176.09 18.83 176.13 18.89C176.17 18.95 176.2 19.02 176.21 19.09C176.23 19.16 176.23 19.23 176.21 19.3C176.2 19.37 176.17 19.44 176.13 19.5C176.1 19.56 176.04 19.61 175.99 19.65C175.93 19.69 175.86 19.72 175.79 19.73L13.07 55.31L12.95 55.31Z" fill="#000000" fill-opacity="1.000000" fill-rule="nonzero"/>
	<path id="Vector" d="M22.67 47.32C22.67 48.51 21.7 49.48 20.51 49.48C19.31 49.48 18.34 48.51 18.34 47.32C18.34 46.12 19.31 45.15 20.51 45.15C21.7 45.15 22.67 46.12 22.67 47.32Z" fill="#72B0F9" fill-opacity="1.000000" fill-rule="evenodd"/>
	<path id="Vector" d="M30.42 45.34C30.42 46.54 29.45 47.51 28.25 47.51C27.06 47.51 26.09 46.54 26.09 45.34C26.09 44.15 27.06 43.18 28.25 43.18C29.45 43.18 30.42 44.15 30.42 45.34Z" fill="#E6E7E8" fill-opacity="1.000000" fill-rule="evenodd"/>
	<path id="Vector" d="M37.79 43.65C37.79 44.84 36.82 45.81 35.63 45.81C34.43 45.81 33.46 44.84 33.46 43.65C33.46 42.46 34.43 41.49 35.63 41.49C36.82 41.49 37.79 42.46 37.79 43.65Z" fill="#E6E7E8" fill-opacity="1.000000" fill-rule="evenodd"/>
	<path id="Vector" d="M53.25 62.2L149.83 39.55C152.89 38.83 155.96 40.73 156.68 43.79L156.68 43.8C157.4 46.86 155.5 49.92 152.44 50.64L55.86 73.29C52.8 74.01 49.73 72.11 49.01 69.05L49.01 69.04C48.29 65.98 50.19 62.92 53.25 62.2Z" fill="#E6E7E8" fill-opacity="1.000000" fill-rule="evenodd"/>
</svg>
